<?xml version="1.0" encoding="utf-8"?>
<!-- Generator: Adobe Illustrator 25.2.0, SVG Export Plug-In . SVG Version: 6.00 Build 0)  -->
<svg version="1.1" id="Calque_1" xmlns="http://www.w3.org/2000/svg" xmlns:xlink="http://www.w3.org/1999/xlink" x="0px" y="0px"
	 viewBox="0 0 269.3 105" style="enable-background:new 0 0 269.3 105;" xml:space="preserve">
<style type="text/css">
	.st0{fill:#FFEACC;}
	.st1{fill:url(#SVGID_1_);}
	.st2{fill:#FFFFFF;}
	.st3{fill:#E61F27;}
	.st4{fill:#121821;}
	.st5{fill:#CCAF71;}
	.st6{fill:#29BDB3;}
	.st7{fill:#1F7E77;}
	.st8{fill:#282425;}
	.st9{fill:#92533B;}
	.st10{fill:#008EC1;}
	.st11{fill:#ECE82D;}
	.st12{fill:#F6B98D;}
	.st13{fill:#FCFCFC;}
	.st14{fill:#CF732B;}
	.st15{fill:#FDFDFD;}
</style>
<g>
	<path class="st0" d="M44.9,46.9 M117.3,4L0,34.8l147.5,69l2.6,1.2l2.8-0.7l116.4-31.1L117.3,4z"/>
</g>
<g>
	
		<linearGradient id="SVGID_1_" gradientUnits="userSpaceOnUse" x1="2859.3225" y1="1326.4797" x2="2859.3225" y2="1435.4491" gradientTransform="matrix(1.1219 -0.3148 -1.1416 -0.571 -1497.6149 1743.1453)">
		<stop  offset="4.094159e-04" style="stop-color:#000000"/>
		<stop  offset="0.396" style="stop-color:#CCAF71"/>
	</linearGradient>
	<polygon class="st1" points="244.1,72.1 150.9,96.5 23.4,36.9 116.6,12.5 	"/>
	<polygon class="st2" points="191.4,47.5 98.3,71.9 23.4,36.9 116.6,12.5 	"/>
	<polygon class="st3" points="116.6,12.5 23.4,36.9 44.9,46.9 138,22.5 	"/>
	<g>
		<path class="st2" d="M46.2,41.6c-1.1,0.3-2.1,0.6-3.3,0.9c-0.1,0-0.1,0-0.2,0c-0.3,0-0.6-0.1-0.5-0.2c0,0,0,0,0.1-0.1
			c0.8-0.4,0.9-0.5-0.3-1.1c-1.9-0.9-3.8-1.8-5.8-2.7c-0.7-0.3-1.2-0.4-2-0.3c-0.2,0-0.4,0.1-0.7,0.1c-0.1,0-0.2,0-0.4,0
			c-0.3,0-0.5-0.1-0.4-0.2l0.1-0.1c3.2-0.8,6.4-1.7,9.8-2.5c1.5-0.4,3.8-0.1,5.3,0.6c1.4,0.6,1.7,1.2,1,1.8
			c-0.7,0.5-1.9,0.9-3.2,1.2s-1.1,0.3,0.4,1c0.2,0.1,0.3,0.2,0.5,0.2c0.9,0.3,1.2,0.3,2.1,0.2h0.1c0.4,0,0.8,0.2,0.5,0.3
			c0,0,0,0-0.1,0C48.4,41,47.3,41.3,46.2,41.6C46.2,41.6,46.3,41.6,46.2,41.6z M41.5,37.8L41.5,37.8c0.6,0.3,1.1,0.5,1.7,0.8
			c0.5,0.2,0.9,0.3,1.3,0.1c0.9-0.4,0.9-0.7,0-1.3c-1.2-0.8-3.1-1.1-4.5-0.8c-0.4,0.1-0.6,0.2-0.1,0.4C40.5,37.3,41,37.6,41.5,37.8z
			"/>
		<path class="st2" d="M75.7,33.9c-1.2,0.4-2.7,0.5-4.4,0.6c-1.5,0-3-0.2-4.2-0.7c-1.3-0.6-1.6-1.1-1.2-1.7c0.5-0.8,1.8-1.3,3.5-1.6
			c1.3-0.3,2.8-0.5,4.6-0.4c3.2,0.1,5.6,1.3,4.8,2.4C78.1,33.1,77.1,33.5,75.7,33.9z M71.1,32.6c0,0,0.8,0.4,1.2,0.6
			c0.2,0.1,0.4,0.1,0.5,0.2c0.9,0.3,1.6,0.3,2.2,0.1s0.8-0.5,0.2-0.8c-1-0.6-2.2-1.1-3.4-1.7c-0.7-0.3-1.8-0.3-2.3-0.2
			c-0.6,0.2-0.8,0.5-0.2,0.9C69.9,32.1,70.6,32.3,71.1,32.6z"/>
		<path class="st2" d="M93,26.8c-0.9,0.2-1.7,0.5-2.6,0.7c-0.5,0.1-0.4,0.3,0.1,0.5c1.7,0.6,3.3,0.7,4.4,0.2
			c0.6-0.3,0.9-0.7,1.3-1.1l0.1-0.1c0.2-0.1,0.6,0,0.7,0.1l0.1,0.1c0,0.6-0.6,1-1.4,1.3c-1.6,0.6-3.5,1.1-6.4,0.9
			c-3.1-0.2-5.3-1.2-4.9-2.3c0.2-0.6,0.8-1,1.8-1.3c1.5-0.5,3.2-0.9,5.5-0.8c1.3,0,2.5,0.2,3.6,0.6c0.6,0.2,0.8,0.3,0.2,0.5
			C94.7,26.3,93.9,26.5,93,26.8C93,26.8,93.1,26.8,93,26.8z M90.3,27c0,0,1.2-0.2,0.5-0.6c-1.1-0.5-2.2-0.7-2.9-0.5
			c-0.7,0.2-0.5,0.6,0.5,1.1C89.2,27.4,90.3,27,90.3,27z"/>
		<path class="st2" d="M66.6,34.8c1,0.5,1.3,0.5,2.5,0.3l0,0c0.3,0,0.8,0.1,0.6,0.3c0,0,0,0-0.1,0c-2,0.5-4.1,1.1-6.1,1.6
			c-0.2,0-1,0-0.6-0.3c0.7-0.5,0.9-0.4-0.3-1c-2-0.9-4-1.9-6.1-2.8c-1-0.4-1.3-0.5-2.4-0.3c-0.1,0-0.2,0-0.4,0s-0.5-0.2-0.4-0.2
			c0.1-0.1,0.4-0.1,0.5-0.2c1.4-0.4,2.7-0.7,4.1-1.1c0.5-0.1,0.8-0.1,1.2,0.1c1.3,0.6,2.6,1.2,3.9,1.8C62.9,33,65.3,34.2,66.6,34.8z
			"/>
		<path class="st2" d="M82.5,29.3c0.7,0.3,1.3,0.6,2,0.9c1,0.4,2.1,0.4,2.5,0c0.1-0.1,0.1-0.3,0.2-0.4s0.1-0.2,0.3-0.2
			c0.2,0,0.3,0.2,0.4,0.2c0,0.2,0,0.3-0.1,0.5c-0.5,0.8-2,1.2-4.3,1.3c-1.4,0-2.6-0.2-3.7-0.7c-0.9-0.4-1.9-0.9-2.8-1.3
			c-0.5-0.2-1-0.3-1.4-0.2c-0.1,0-0.2,0.1-0.3,0.1h-0.1c-0.3,0-0.6-0.1-0.5-0.2l0,0c0.3-0.1,0.7-0.3,1-0.4c1.1-0.6,1.1-1.3,0.3-2.1
			l-0.1-0.1c0-0.1,0.3-0.2,0.5-0.1c0.1,0,0.2,0.1,0.3,0.1c0.8,0.3,1.5,0.7,2.2,1c0.5,0.2,0.9,0.3,1.3,0.1c0.4-0.1,0.9-0.2,1.3-0.3
			c0.1,0,0.5,0,0.6,0c0.2,0.1,0,0.2-0.1,0.2c-0.4,0.1-0.8,0.3-1.3,0.4s-0.5,0.3,0,0.5C81.5,28.8,82,29,82.5,29.3L82.5,29.3z"/>
		<path class="st2" d="M58.9,38.2c-1,0.3-1.9,0.5-2.9,0.8h-0.1c-0.3,0-0.7-0.2-0.5-0.3l0,0c1-0.4,0.9-0.4-0.2-1
			c-0.9-0.4-1.7-0.8-2.6-1.2c-0.9-0.4-1.1-0.4-2.1-0.3c0,0-0.1,0-0.2,0c-0.3,0-0.7-0.2-0.5-0.3h0.1c1.4-0.4,2.8-0.7,4.2-1.1
			c0.4-0.1,0.7-0.1,1.1,0.1c1.3,0.6,2.7,1.3,4.1,1.9c0.8,0.4,1.1,0.4,2,0.3h0.1c0.4,0,0.7,0.2,0.5,0.3l0,0
			C60.9,37.7,59.9,38,58.9,38.2L58.9,38.2z"/>
		<path class="st2" d="M51.3,33.5c1.2,0.1,2,0.5,1.7,0.9c-0.4,0.5-1.4,0.8-2.9,0.8c-0.6,0-1.4-0.1-1.8-0.3c-0.3-0.2-0.4-0.5-0.2-0.7
			S48.8,33.3,51.3,33.5z"/>
	</g>
	<polygon class="st2" points="133.5,20.4 44.8,43.7 43.9,43.3 132.7,20 	"/>
	<g>
		<path class="st4" d="M45.8,44l0.5-0.1l1,0.5l0.8-0.2l0.4,0.2l-1.4,0.4L45.8,44z"/>
		<path class="st4" d="M47.4,43.6l1.5-0.4l0.3,0.2l-0.9,0.2l0.2,0.1l0.9-0.2l0.3,0.2l-0.9,0.2L49,44l0.9-0.2l0.3,0.2l-1.5,0.4
			L47.4,43.6z"/>
		<path class="st2" d="M49.9,43l0.8-0.2l1,0.3l0,0l-0.6-0.4l0.8-0.2l1.4,0.7l-0.5,0.1l-1-0.5l0,0l0.7,0.5l-0.4,0.1L50.8,43l0,0
			l1,0.5l-0.5,0.1L49.9,43z"/>
		<path class="st2" d="M52.6,42.3l0.7-0.2l2,0.5l-0.6,0.2l-0.2-0.1l-0.6,0.1l0.1,0.1l-0.6,0.2L52.6,42.3z M53.4,42.4L53.4,42.4
			l0.3,0.3l0.3-0.1L53.4,42.4z"/>
		<path class="st2" d="M55.5,41.9l0.8-0.2l0.8,0.4l-0.2,0.1h-0.2c0,0.1-0.1,0.2-0.5,0.2c-0.4,0.1-1,0.2-1.6-0.1s-0.3-0.5,0.1-0.6
			c0.6-0.2,1.1-0.2,1.5,0L55.5,41.9c0,0-0.1,0-0.1,0c-0.1,0-0.1,0-0.2,0c-0.2,0.1-0.3,0.1,0,0.3c0.3,0.1,0.5,0.1,0.8,0.1
			c0.2,0,0.2-0.1,0.1-0.2l-0.2,0.1L55.5,41.9z"/>
		<path class="st2" d="M56.4,41.3l0.7-0.2l2,0.5l-0.6,0.2l-0.2-0.1l-0.6,0.1l0.1,0.1l-0.6,0.2L56.4,41.3z M57.2,41.4L57.2,41.4
			l0.3,0.3l0.3-0.1L57.2,41.4z"/>
		<path class="st2" d="M58.8,41.4l0.1-0.6L58.1,41l-0.4-0.2l1.5-0.4l0.3,0.1l-0.1,0.6l0.8-0.2l0.4,0.2l-1.5,0.4L58.8,41.4z"/>
		<path class="st2" d="M59.5,40.4l0.5-0.1l1.4,0.7l-0.5,0.1L59.5,40.4z"/>
		<path class="st2" d="M60.3,40.2l0.6-0.2l1.3,0.2l0,0l-0.8-0.4l0.5-0.1l1.4,0.7l-0.6,0.2l-1.4-0.2l0,0l0.8,0.4l-0.5,0.1L60.3,40.2z
			"/>
		<path class="st2" d="M62.4,39.7l1.5-0.4l0.3,0.2l-0.9,0.2l0.2,0.1l0.9-0.2l0.3,0.2L63.8,40H64l0.9-0.2l0.3,0.2l-1.5,0.4L62.4,39.7
			z"/>
		<path class="st4" d="M64.9,39l1.1-0.3c0.5-0.1,0.9-0.1,1.4,0.1c0.5,0.2,0.5,0.4,0,0.5l-1.1,0.3L64.9,39z M66.5,39.4l0.3-0.1
			c0.2-0.1,0.2-0.2,0-0.3s-0.4-0.1-0.7-0.1L65.8,39L66.5,39.4z"/>
		<path class="st4" d="M66.9,38.5l1.5-0.4l0.3,0.2l-0.9,0.2l0.2,0.1l0.9-0.2l0.3,0.2l-0.9,0.2l0.2,0.1l0.9-0.2l0.3,0.2l-1.5,0.4
			L66.9,38.5z"/>
		<path class="st4" d="M69.7,38.4c-0.3,0.1-0.6,0-0.8-0.1c-0.4-0.2-0.1-0.3,0.3-0.4c0.6-0.2,1-0.2,1.3,0L70,38c-0.1,0-0.1,0-0.2,0
			s-0.1,0-0.2,0c-0.2,0-0.2,0.1-0.1,0.1h0.1l0.7-0.1c0.3-0.1,0.6,0,0.9,0.1c0.3,0.2,0.2,0.3-0.4,0.5c-0.4,0.1-0.9,0.2-1.3,0l0.7-0.2
			c0,0,0.1,0,0.2,0s0.1,0,0.2,0c0.2,0,0.2-0.1,0.1-0.1c0,0-0.1,0-0.2,0L69.7,38.4z"/>
		<path class="st4" d="M72.1,37.1l0.5-0.1l0.8,0.4c0.4,0.2,0.5,0.3-0.1,0.5C72.9,38,72.5,38,72,37.8l0.5-0.1c0.1,0,0.2,0.1,0.2,0.1
			c0.1,0,0.1,0,0.2,0s0.1-0.1-0.1-0.1L72.1,37.1z"/>
		<path class="st4" d="M72.9,36.9l1.5-0.4l0.3,0.2l-0.9,0.2L74,37l0.9-0.2l0.3,0.2l-0.9,0.2l0.2,0.1l0.9-0.2l0.3,0.2l-1.5,0.4
			L72.9,36.9z"/>
		<path class="st4" d="M74.6,36.5l0.5-0.1l0.8,0.4c0.2,0.1,0.3,0.1,0.5,0c0.2,0,0.2-0.1,0-0.2l-0.8-0.4l0.5-0.1l0.9,0.4
			c0.4,0.2,0.3,0.3-0.2,0.5c-0.6,0.1-1,0.2-1.4-0.1L74.6,36.5z"/>
		<path class="st4" d="M76.5,36l0.6-0.2l1.3,0.2l0,0l-0.8-0.4l0.5-0.1l1.4,0.7L79,36.3l-1.4-0.2l0,0l0.8,0.4l-0.5,0.1L76.5,36z"/>
		<path class="st4" d="M78.5,35.5l1.5-0.4l0.3,0.2l-0.9,0.2l0.2,0.1l0.9-0.2l0.3,0.2l-0.9,0.2l0.2,0.1l0.9-0.2l0.3,0.2l-1.5,0.4
			L78.5,35.5z"/>
		<path class="st4" d="M81.3,35.3c-0.3,0.1-0.6,0-0.8-0.1c-0.4-0.2-0.1-0.3,0.3-0.4c0.6-0.2,1-0.2,1.3,0L81.5,35c-0.1,0-0.1,0-0.2,0
			s-0.1,0-0.2,0c0,0-0.1,0,0,0h0.1l0.7-0.1c0.3-0.1,0.6,0,0.9,0.1c0.3,0.2,0.2,0.3-0.4,0.5c-0.4,0.1-0.9,0.2-1.3,0l0.7-0.2
			c0,0,0.1,0,0.2,0s0.1,0,0.2,0c0.2,0,0.2-0.1,0.1-0.1c0,0-0.1,0-0.2,0L81.3,35.3z"/>
		<path class="st4" d="M83,34.3l1-0.3c0.5-0.1,0.9-0.1,1.4,0.1c0.5,0.2,0.5,0.4,0,0.5l-1.1,0.3L83,34.3z M84.6,34.6l0.3-0.1
			c0.2-0.1,0.2-0.2,0-0.3s-0.4-0.1-0.7-0.1l-0.3,0.1L84.6,34.6z"/>
		<path class="st4" d="M85,33.8l1.5-0.4l0.3,0.2l-0.9,0.2l0.2,0.1l0.9-0.2l0.3,0.2L86.4,34l0.2,0.1l0.9-0.2l0.3,0.2l-1.5,0.4
			L85,33.8z"/>
		<path class="st4" d="M87.5,33.1L88,33l1,0.5l0.8-0.2l0.4,0.2l-1.4,0.4L87.5,33.1z"/>
		<path class="st4" d="M88.8,32.7l0.5-0.1l0.3,0.2c0.4,0.2,0.2,0.3,0,0.4l-0.2-0.1c0.1,0,0.1-0.1,0-0.2L89.3,33L88.8,32.7z"/>
		<path class="st4" d="M90.1,32.4l0.7-0.2l2,0.5l-0.6,0.2L92,32.8L91.4,33l0.1,0.1l-0.6,0.2L90.1,32.4z M90.8,32.5L90.8,32.5
			l0.3,0.3l0.3-0.1L90.8,32.5z"/>
		<path class="st4" d="M91.4,32.1l0.6-0.2l1.3,0.2l0,0l-0.8-0.4l0.5-0.1l1.4,0.7l-0.6,0.2l-1.4-0.2l0,0l0.8,0.4l-0.5,0.1L91.4,32.1z
			"/>
		<path class="st4" d="M95.8,31.3C95.9,31.3,95.9,31.3,95.8,31.3c-0.1-0.1-0.2-0.1-0.3-0.1c-0.1,0-0.3,0.1-0.1,0.2l-0.6,0.2
			c-0.4-0.2,0-0.4,0.3-0.5c0.4-0.1,0.9-0.2,1.3,0c0.3,0.1,0.1,0.2-0.1,0.3l-0.4,0.2c-0.1,0-0.1,0.1-0.1,0.1l1.1-0.3l0.3,0.2L95.6,32
			c-0.5-0.2-0.3-0.4-0.1-0.5L95.8,31.3z"/>
		<path class="st4" d="M97.2,31.3l0.5-0.1l0.4,0.2l-0.5,0.1L97.2,31.3z"/>
		<path class="st4" d="M97.8,30.4c0.6-0.1,1.1-0.1,1.6,0.1s0.4,0.4-0.1,0.6c-0.6,0.1-1.1,0.1-1.6-0.1C97.2,30.7,97.3,30.5,97.8,30.4
			z M98.9,30.9c0.2-0.1,0.2-0.2,0-0.3c-0.2-0.1-0.5-0.1-0.7-0.1c-0.2,0.1-0.1,0.2,0,0.3C98.4,30.9,98.7,31,98.9,30.9z"/>
		<path class="st4" d="M99.7,29.9c0.6-0.1,1.1-0.1,1.6,0.1s0.4,0.4-0.1,0.6c-0.6,0.1-1.1,0.1-1.6-0.1C99.1,30.2,99.2,30,99.7,29.9z
			 M100.8,30.4c0.2-0.1,0.2-0.2,0-0.3c-0.2-0.1-0.5-0.1-0.7-0.1c-0.2,0.1-0.1,0.2,0,0.3C100.3,30.4,100.6,30.5,100.8,30.4z"/>
		<path class="st4" d="M101.6,29.4c0.6-0.1,1.1-0.1,1.6,0.1s0.4,0.4-0.1,0.6c-0.6,0.1-1.1,0.1-1.6-0.1
			C101.1,29.7,101.1,29.5,101.6,29.4z M102.7,29.9c0.2-0.1,0.2-0.2,0-0.3c-0.2-0.1-0.5-0.1-0.7-0.1c-0.2,0.1-0.1,0.2,0,0.3
			C102.2,29.9,102.5,30,102.7,29.9z"/>
	</g>
	<polygon class="st4" points="107.1,20.1 95.6,23.1 94.5,22.5 105.9,19.5 	"/>
	<polygon class="st4" points="109.1,21 97.7,24 96.9,23.6 108.3,20.6 	"/>
	<polygon class="st4" points="118.6,16.1 109.8,18.4 109,18 117.9,15.7 	"/>
	<polygon class="st4" points="120.2,16.8 111.4,19.2 110.6,18.8 119.4,16.5 	"/>
	<polygon class="st4" points="114.8,16 110.5,17.1 109.7,16.7 114.1,15.6 	"/>
	<polygon class="st4" points="110.9,21.9 99.5,24.9 98.7,24.5 110.1,21.5 	"/>
	<polygon class="st4" points="112.8,22.7 101.4,25.7 100.6,25.4 112,22.4 	"/>
	<polygon class="st4" points="114.6,23.6 103.2,26.6 102.4,26.2 113.8,23.2 	"/>
	<g>
		<polygon class="st2" points="238.7,69.6 145.6,94 150.9,96.5 244.1,72.1 		"/>
		<g>
			<polygon class="st4" points="164.4,91.5 152.1,94.7 151.3,94.3 163.6,91.1 			"/>
			<polygon class="st4" points="179.3,87.6 166.9,90.8 166.1,90.4 178.5,87.2 			"/>
			<polygon class="st4" points="194.1,83.7 181.8,86.9 181,86.5 193.3,83.3 			"/>
			<polygon class="st4" points="209,79.8 196.7,83 195.9,82.6 208.2,79.4 			"/>
			<polygon class="st4" points="223.9,75.9 211.6,79.1 210.8,78.7 223.1,75.5 			"/>
			<polygon class="st4" points="238.8,72 226.5,75.2 225.7,74.8 238,71.6 			"/>
		</g>
	</g>
	<path class="st5" d="M186.7,45.6l-3.8-1.8l-3.8,1l4.7,2.2l-0.7,0.2l1.7,0.8l-1.8,0.5l-0.9-0.4l-2.1,0.6l-0.6-0.3l2.5-0.7l-0.3-0.1
		l-2.5,0.7l-0.8-0.4L178,48l0.8,0.4l-0.5,0.1l0.2,0.1l-0.6,0.1l-0.9-0.4l-1.2,0.3l0.9,0.4l-2,0.5l0.9,0.4l-2.2,0.6l-1.4-0.6
		l-0.4,0.1l-1-0.5l-0.3,0.1l-1.6-0.7l3.1-0.8l-0.3-0.1l-3.1,0.8l-0.2-0.1l-0.3,0.1l0.2,0.1l-1.1,0.3l0.3,0.1l1.1-0.3l1.6,0.7
		l-1.5,0.4l2,0.9l-4.3,1.1l-1.5-0.7l-0.4,0.1l-0.5-0.2l1.8-0.5l-0.3-0.1l-1.8,0.5l-0.1-0.1l-0.3,0.1l0.1,0.1l-0.3,0.1l0.3,0.1
		l0.3-0.1l0.5,0.2l-1.3,0.3l1.7,0.8l-1,0.2l-0.5-0.2l1-0.2l-0.3-0.1l-2.2,0.6l0.3,0.1l1-0.2l0.5,0.2l-1.4,0.4l0.7,0.3l-0.6,0.2
		l-0.4-0.2l-0.6,0.2l-5.7-2.7l-0.4,0.1l-0.9-0.4l-1.4,0.4l6.7,3.2l-2.6,0.7l-6.7-3.2l-1.1,0.3l0.6,0.3l-0.6,0.1l4.6,2.1l-0.9,0.2
		l1.2,0.6l-0.4,0.1l-1.2-0.6l-1.8,0.5l-0.8-0.4l-0.8,0.2l-0.9-0.4l-0.7,0.2l-2.1-1l-1.1,0.3l0.8,0.4l-2.9,0.7l3,1.4l-1.5,0.4l-1-0.5
		l-1.8,0.5l-2-0.9l-4.4,1.2l2.4,1.1l-0.7,0.2l0.7,0.3l-0.5,0.1l-4.1-1.9l-0.5,0.1l-1-0.5l-0.9,0.2l0.9,0.4l-0.9,0.2l3.5,1.6
		l-0.4,0.1l0.8,0.4l-0.5,0.1l-2.5-1.2l-3.5,0.9l2,0.9l-1.1,0.3l0.9,0.4l-0.6,0.2l0.5,0.2l-0.6,0.2l-0.6-0.3l-0.8-0.1l-0.9-0.4
		l-1.7,0.5l2.1,1l-0.6,0.2l-0.5-0.2l-0.7,0.2l-5.8-2.7l-0.6,0.1l-1.6-0.7l-0.6,0.2l-0.8-0.4l-0.9,0.2l-0.7-0.3l-1.3,0.3l1.2,0.5
		l-0.7,0.2l1.2,0.6l-0.4,0.1l4.3,2l-0.8,0.2l-0.8-0.4l-1,0.3l1.2,0.5l-1.1,0.3l-3.3-1.6l-0.9-0.1l-1.5-0.7l-2.4,0.6l1.1,0.5
		l-1.2,0.3l2.2,1l-0.6,0.1l-0.4-0.2l-0.7,0.2v0.3v0.1l5,2.4l-0.8,0.2l-5-2.3l-0.7,0.2l-0.5-0.2l-1.1,0.3l0.8,0.4l-1,0.3l1.3,0.6
		l-0.6,0.1l-0.6-0.3l-0.3,0.1l0.6,0.3l-1.3,0.4l0.3,0.1l1.3-0.4l1.7,0.8h-0.1l1.4,0.6l-2.4,0.6l-1.4-0.6l-0.8,0.2l-1.6-0.7l-0.6-0.1
		l-0.8-0.4l-1.3,0.3l2.2,1.1L98.9,69l1.5,0.7L98,70.3l-0.6-0.1l-1.6,0.4l3.9,1.8L192.8,48l-5.7-2.6L186.7,45.6z M105.7,66.7
		l-0.5,0.1l1.2,0.6h-0.1l-1.7-0.8l0.6-0.1L105.7,66.7z M179.7,48.6l-0.5,0.1l-0.6-0.3l0.5-0.1L179.7,48.6z"/>
	<path class="st6" d="M99.5,39.6l-17.4,4.6c-7.1,1.9-7,6.1,0.2,9.5l0,0c7.1,3.3,18.3,4.5,25.5,2.9c3.5,1.4,10.2,1.7,10.6,1.3
		c-3.1-0.2-4.9-0.8-7.6-2.1l15-3.9c7.1-1.9,7-6.1-0.2-9.5l0,0C118.2,38.9,106.6,37.7,99.5,39.6z"/>
	<path class="st3" d="M142,40.4c-6.9,1.8-6.8,5.9,0.2,9.2c0.4,0.2,0.7,0.3,1.1,0.5c-2.2,0.8-2.7,2.2-1.4,3.5c0.1-1,1.3-2,3.5-2.8
		c6.9,2.3,16,3,22,1.4c6.9-1.8,6.8-5.9-0.2-9.2C160.1,39.8,148.8,38.6,142,40.4z"/>
	<path class="st7" d="M122,61.2c0,0-3.2,1-3.7,1.6c3,1.7,0.3,4.2-6.2,5.6c-6.6,1.5-14.6,1.3-17.9-0.4c-3.3-1.7-0.6-4.2,6-5.7
		C106,61,113,61,116.8,62.2C117.5,61.7,122,61.2,122,61.2z"/>
	<g>
		<path class="st8" d="M176.1,82.8c-0.5,0-0.8,0.1-1.1,0.2c-1.1,0.2-2.2,0.3-3.3,0.5c-0.5,0.1-0.8,0.3-1.3,0.3c-0.1,0-0.1,0-0.2,0
			c-0.2,0-0.5,0.1-0.8,0s0.2-0.1,0.2-0.2c-2.6-0.2-2.8-0.3-2.2-0.9c-1.7-0.4-2.2-1-1.5-1.6c1-0.9,3.1-1.4,5.7-1.6
			c0.2,0,0.4,0,0.5-0.1c0.4-0.4,1.3-0.5,2.3-0.5c0.2,0,0.4,0,0.5-0.1c0.3-0.2,0.8-0.4,1.4-0.5c-0.9-0.2-1.2-0.6-1.9-0.8
			c0.4-0.1,1.1,0,1.5-0.1c-0.7-0.1-1.3-0.1-1.9-0.1c-0.5-0.2-1-0.1-1.6-0.1c-1.2-0.1-1.3-0.1-1.5-0.6c0-0.1-0.1-0.2-0.2-0.3
			c-0.2-0.2-0.6-0.3-1-0.2c-2.7,0.7-6.1,0.8-9.4,1c-0.3,0-0.7,0-1,0c0.2,0.1,0.4,0.3,0.6,0.4c0.2,0.2,0.5,0.3,0.9,0.5
			s0.2,0.2-0.1,0.3c-0.2,0-0.4,0-0.5,0c-4.2-0.1-7.9-0.8-11.3-2.1c-1.9-0.8-3.2-1.6-4.2-2.5c-0.2-0.2-0.6-0.3-1-0.4
			c-0.1,0-0.1,0-0.2,0c-2.2,0.4-6.8-0.3-8.2-1.6c-0.3-0.3-0.7-0.6-0.9-0.9c-0.1-0.1-0.2-0.1-0.4-0.2c-2.9-0.5-5.7-1-8.4-1.7
			c-1.2-0.3-2-0.7-2.5-1.2c-0.6-0.6-1.1-1.3-0.9-1.9c0.2-0.5,1.2-0.7,2.6-0.5c2.1,0.2,3.9,0.7,5.4,1.4c0.4,0.2,0.6,0.6,0.4,0.8
			c-0.4,0.2-1.1,0.2-1.8,0.1c-1.3-0.2-2.5-0.5-3.7-0.9c0,0.4,0.3,0.8,0.7,1.2c0,0,0.1,0.1,0.3,0.1c2.5,0.6,5.1,1.1,7.8,1.6
			c-0.1-0.6,0-1.1,0.1-1.6c0.1-0.4,0.1-0.9,0.7-1.2c0.2,0.1,0.2,0.2,0.3,0.3c0.2,0.2,0.4,0.4,0.9,0.5c0.3,0.2,0.5,0.3,0.8,0.5
			c0.2,0.1,0.4,0,0.6,0.1c0.5,0.4,1.4,0.4,2.4,0.6c-0.4-0.3-0.7-0.6-1.3-0.7c-0.7-0.1-0.8-0.4-1.3-0.5c-0.1,0-0.1,0-0.2,0h-0.1h-0.1
			c-0.5-0.2-0.9-0.3-1.4-0.5c-0.3-0.1-0.2-0.2-0.6-0.3c-1.1-0.6-1.5-1.2-1.9-1.8c-0.1-0.2-0.2-0.4-0.2-0.6c0-0.1,0-0.2,0-0.2
			c0.7-0.1,0.3-0.3,0.2-0.5c-0.1-0.5-0.2-0.9,0-1.3c0.1-0.1-0.1-0.2-0.4-0.3c-0.4-0.1-0.4-0.1-0.6,0c-0.5,0.3-2,0.3-3.5,0.1
			c-2.4-0.4-4-1.4-3.4-2.2c0.3-0.4,0.9-0.5,2.2-0.3c-1.6-1.1-3-2.1-4.3-3.2c0,0-0.1,0-0.1-0.1l0,0c-0.6,0.2-1.2,0.4-2.3,0.2
			c-0.5-0.1-0.9-0.2-1.2-0.4c-0.7-0.5-0.5-1-0.3-1.4c0.1-0.1,0.3-0.1,0.6-0.1c0.3,0,0.6,0.1,0.9,0c-0.2-0.2-0.6-0.3-1.2-0.3
			c-0.8,0-1.6-0.3-1.5-0.6s0.1-0.6,0.5-0.8c0.2-0.1,0.1-0.1-0.1-0.2c-0.9-0.6-0.5-1.3,0.8-1.5c0.7-0.1,1.5,0.1,1.9,0.4
			c0.1,0.1,0.2,0.3,0.3,0.4c0.3-0.1,0.6-0.2,0.9-0.2c0.9-0.2,1.8,0,2,0.5c0.1,0.2,0.1,0.4,0.8,0.6c0.3,0.1,0.5,0.1,0.5,0
			s0.3-0.3,0.2-0.4c-0.1-0.1,0.1-0.1,0.3-0.2c0.8-0.1,1.7,0,2.6,0.2c0.8,0.3,1.1,0.5,0.7,0.9c-0.2,0.2,0,0.3,0.6,0.5
			c2.4,0.6,4.8,1.2,7.2,1.8c0.5,0.1,0.6,0.1,0.7-0.1c0.2-0.4,0.9-0.6,1.9-0.6c0.6,0,1.2,0.1,1.6,0.3c0.5,0.2,0.7,0.2,1,0.1
			c0.2-0.1,0.6-0.1,1-0.1c0.7,0,1.2,0.2,1.3,0.5c0,0.1,0,0.3-0.1,0.4c0,0.1-0.2,0.2,0.2,0.4c0.4,0.1,0,0.3,0,0.5
			c1.2,0.1,1.3,0.1,1.4,0.6c0.3,0,0.5,0,0.8,0c1.1,0,1.9,0.2,2.4,0.7c0.2,0.2,0.3,0.2,0.7,0.2c0.9-0.1,1.8-0.1,2.7-0.1
			c0.6,0,0.5-0.3,0.6-0.5c0.1-0.1,0.2-0.2,0.5-0.2c0.8-0.1,1.7,0,2.7,0.1c0.2,0,0.4,0.1,0.6,0c0.6-0.4,1.7-0.3,2.8-0.1
			c1.7,0.2,3.3,0.6,4.9,0.9c0.5,0.1,1,0.3,1.3,0.5c0.7,0.5,1.3,1,1.5,1.4c0.1,0.1-0.1,0.2-0.1,0.3c-0.3,0.4-0.8,0.7-1.6,0.9
			c-0.3,0.1-0.4,0.1,0.1,0.2c0.4,0.1,0.8,0.2,1.1,0.3c0.9,0.4,1.9,0.4,2.9,0.5c1.5,0,2.9,0.2,4,0.8c0.2,0.1,0.4,0.1,0.6,0.2
			c1.7,0.3,3.1,0.8,4.5,1.3c0.2,0.1,0.5,0.2,0.8,0.2c0.8,0.4,1.5,0.7,2.3,1.1c0.2,0.3,0.8,0.6,1.2,0.8c1.4,1,1.8,2,2.5,2.9
			c0.1,0.1,0.1,0.2-0.2,0.2c-0.2,0-0.3-0.1-0.5-0.1c-0.1,0-0.2-0.1-0.2-0.1c-0.7-0.5-0.9-0.5-2.2-0.5c-0.3,0-0.7,0-1,0
			c-0.2,0-0.4,0-0.4,0.1c0,0.6-0.4,1.1-0.9,1.7c-0.7,0.9-1.8,1.7-3.1,2.4c0.6,0,1.1,0.3,1.7,0.3c1.3,0,1.4,0,1.9,0.5
			c0.1,0.1,0.2,0.2,0.2,0.3c0,0.1,0.1,0.2,0.2,0.3c0.2,0,0-0.1,0.1-0.2c0.7,0.1,1.5,0.3,2.2,0.3c0.9,0,0.9,0,0.9,0.4
			c0,0.1-0.1,0.1,0.2,0.2c0.5-0.1,0.6-0.4,1.2-0.4c0.3,0,0.5-0.1,0.7-0.2c0.3-0.2,0.7-0.4,1.5-0.4c0.4,0,0.6-0.1,0.8-0.2
			c1.3-0.7,3-1.2,5.5-1.2c1.1,0,1.8,0.1,2.6,0.5c0.1,0.1,0.2,0.2,0.4,0.1c0.4,0,0.7,0,1.1,0.1c0.2,0.1,0.4,0.2,0.6,0.3
			c0.3,0.6-0.5,0.9-0.9,1.3c0.3,0,0.4-0.1,0.6,0c0.2,0.1,0.1,0.2,0,0.2c-0.1,0.1-0.2,0.1-0.3,0.1c-1.6,0.6-3.3,1.2-5.3,1.7
			c-1.4,0.3-2.7,0.6-4.4,0.7c-0.9,0.1-1.7,0.1-2,0.5s-1.2,0.8-1.8,1.1c-0.1,0.1-0.2,0.1-0.4,0.1c-0.6,0-0.9,0.1-1.3,0.2
			c-0.6,0.1-0.5,0.5-0.9,0.6c-0.3,0.1-0.8,0.2-0.9,0.4c-0.7,0.2-1.4,0.4-2,0.5c-0.8,0.1-1.4,0.3-1.9,0.5
			C177,82.5,176.6,82.6,176.1,82.8z M185.8,76.5h-0.1c-0.1-0.1-0.1-0.3-0.2-0.4c-0.1-0.1-0.3-0.2-0.6-0.2s-0.3,0.1-0.2,0.2
			s0.4,0.2,0,0.2c-0.1,0-0.2-0.2-0.3-0.1c-0.3,0.2-0.5,0.4-0.8,0.6c0.3,0,0.4,0,0.6-0.1c0.4-0.1,0.3-0.3,0.5-0.5
			c0.4,0.4-0.3,0.8-1.2,0.7c-0.7,0-0.7,0-0.6,0.2c0.6,0,1.2,0,1.7,0.2c0.6-0.2,1.2-0.3,1.8-0.5c-0.4-0.5-0.2-0.9-0.4-1.4
			c-0.5,0.1-0.8,0.2-0.3,0.5C186,76.2,185.9,76.4,185.8,76.5z M178.9,76.1c0-0.1,0.1-0.2-0.2-0.2c-0.1,0-0.1,0.1-0.1,0.1
			c-0.3,0-0.5,0-0.6-0.1c-0.1-0.2-0.4-0.3-0.8-0.4c-0.8-0.2-1.6-0.5-2.4-0.7c-0.6-0.2-0.6,0.1-0.8,0.1s-0.2,0.1,0.1,0.2
			c0.6,0.3,1.4,0.4,2.1,0.7c-0.1,0.1-0.5,0-0.6,0.1c0.4,0,0.8,0,1.1,0c0.3-0.1,0.6,0,0.9,0.1c-0.3,0.1-1,0-1.5,0.1
			c0.7,0.1,1.3,0.1,1.9,0c0.9,0.2,1.6,0.5,2.6,0.7c0.2,0.1,0.2,0.1,0.2,0.2c0,0.2,0.4,0.3,1,0.3c0.4,0,0.5-0.2,0.6-0.3
			c-0.2-0.1-0.4,0-0.7-0.1c-0.7-0.3-1.5-0.6-2.5-0.7C179,76.2,179,76.2,178.9,76.1z M180.2,77.6c-0.1,0-0.2-0.1-0.4-0.1
			c-0.4,0.1-0.8,0.2-1.2,0.3C179.7,78,179.8,77.7,180.2,77.6c0.1,0,0.1,0.1,0.1,0.1c-0.3,0.3-1,0.4-2,0.3c-0.5-0.1-0.6,0-0.9,0.1
			c-0.1,0-0.1,0.1,0.1,0.2c0.3,0.1,0.6,0.1,0.9,0.1c0.2,0,0.3,0,0.4,0c0.1,0,0.3,0,0.4,0.1c0.1,0.1-0.1,0.1-0.2,0.1
			c-0.7,0-1.3,0.1-2-0.2c-0.2-0.1-0.3-0.1-0.4-0.1c-0.5,0.1-1,0.2-1.3,0.6c0.2,0,0.4,0,0.5,0c1.3,0.1,2.6,0.3,3.7,0.7
			c0.4,0.1,0.4,0,0.4,0c0.4-0.2,0.8-0.4,1.4-0.5c0.6-0.1,1.2-0.1,1.8,0.2c0.2,0.1,0.3,0.2,0.5,0c0.5-0.3,0.8-0.6,0.9-1
			c0.1-0.3-0.6-0.6-1.2-0.7c-0.7-0.1-1.7,0.1-1.7,0.3c0,0.1-0.1,0.2-0.5,0.3c0-0.1,0.1-0.2,0.1-0.3c0-0.2-0.2-0.3-0.8-0.4
			C180.2,77.4,180.6,77.6,180.2,77.6z M188.1,76c-0.4-0.1-0.2-0.2-0.2-0.3c-0.1-0.3,0.2-0.5,0.3-0.8c-0.5,0-0.8,0.1-1,0.2
			c-0.9,0.5-0.9,1-0.5,1.7c0.1,0.1,0.1,0.2-0.3,0.3c-0.6,0.1-1.1,0.2-1.4,0.4c-0.2,0.2,0,0.3,0.5,0.4c0.4,0.1,0.7,0.1,1.1,0.1
			c0.7,0,1.3-0.2,1.9-0.3c1-0.1,0.9-0.1,0.3-0.6C188.4,76.8,187.9,76.4,188.1,76c0.2,0.1,0.2,0.2,0.2,0.3c0.3,0.3,0.5,0.7,1,1
			c0.3,0.2,0.6,0.2,1,0.1c1.5-0.4,2.9-0.8,4-1.3c0.9-0.5,1.9-0.9,2.4-1.5c0.4-0.4-0.6-1-2.1-1c-0.6,0-1.2,0-1.7,0.1
			c-1.7,0.3-3.2,0.6-4.1,1.2C188.3,75.2,188.2,75.6,188.1,76z M123.5,56.6C123.4,56.6,123.3,56.6,123.5,56.6
			c0.4,0.3,0.6,0.5,0.9,0.8c1.1,0.8,2.2,1.5,3.3,2.3c0.4,0.3,0.3,0.3-0.4,0.3c-0.3,0-0.5-0.1-0.8-0.1c-0.4,0-0.8,0-1.1,0.1
			c-0.8,0.4,0.1,1.2,1.5,1.5c-0.4-0.3-1.1-0.5-0.4-0.7c0.6-0.2,1.9-0.1,2.8,0.1c-0.2,0.1-0.5-0.1-0.6,0c0.1,0.1,0.5,0.2,0.7,0.3
			c0.3,0.1,0.6,0,0.9,0.2c-1,0.2-1.9,0.1-2.8-0.4c-0.1-0.1-0.2-0.1-0.4-0.1c-0.1,0-0.3,0.1,0,0.2c0.2,0.1,0.3,0.1,0.5,0.2
			c0.3,0.2,0.3,0.3-0.2,0.3c-0.1,0-0.1,0-0.2,0c0,0,0.1,0,0.2,0.1c0.9,0.2,1.8,0.3,2.6,0.3c0.5,0,0.9-0.1,1.1-0.3
			c0.2-0.2-0.3-0.2-0.5-0.3c-0.1,0-0.1-0.1-0.1-0.1c0.1,0,0.2,0,0.3,0c0.9,0.4,2,0.5,3.1,0.6c2,0.2,4,0.5,4.7-0.4
			c0.1-0.2,0-0.3-0.1-0.5c-2.4,0.5-5.2,0.4-7.9-0.5c-2.8-0.9-3.8-2.1-3-3.2c-1.1,0-1.4-0.1-1.5-0.3c1.1,0.3,1.7,0.3,1.8-0.1
			c-0.9,0.2-1.8,0-2.6-0.3c-0.1,0.1,0,0.2,0,0.2c0.1,0.1,0.1,0.2-0.2,0.2c-0.2,0-0.4,0-0.6-0.1s-0.2-0.2-0.2-0.2
			c0.1-0.1,0.2-0.2,0.4-0.2c0.7-0.2,1.4-0.4,2.3-0.5c0.4-0.1,0.9-0.1,1.5,0c0.4,0.2,0.4,0.3,0,0.4c-0.3,0.1-0.7,0.1-0.9-0.1
			c-0.4-0.3-0.6-0.1-0.9-0.1c-0.2,0-0.4,0.1-0.6,0.2c-0.5,0.1-0.4,0.2,0.3,0.4c0.3,0.1,0.6,0.1,0.9,0.1c0.4,0,0.8-0.1,1.1-0.1
			c0.1,0.2-0.2,0.3-0.3,0.5c-0.7,1.1-0.3,2,2.4,3c3,1.1,5.3,1,7.7,0.4c0.2-0.1,0.3-0.2,0.4-0.3c0.3-0.3,0.6-0.5,1-0.7s0.9-0.4,1-0.6
			c0.3-0.7-0.3-1.4-1.8-2c-2.4-0.9-4.2-1.2-6.9-1c-0.7,0.1-1.4,0.2-2.2,0.2c0-0.1,0.3-0.1,0.4-0.1c0.6-0.1,0.7-0.5,0.3-0.8
			s-1-0.4-1.7-0.5c-0.2,0-0.5,0-0.4,0.1c0.1,0.2-0.1,0.4,0.4,0.5c0.7,0.1,0.8,0.3,0.8,0.4c0,0.2-0.4,0.2-0.9,0.1
			c-0.8-0.3-1.5-0.7-2.3-1c-0.2-0.1-0.5-0.2-0.4-0.4c0.9,0.4,1.6,0.8,2.5,1.2c-0.2-0.7-0.9-1.4-0.3-2c-0.7-0.1-0.8,0-1,0.2
			c-0.1,0-0.1,0-0.2,0c-0.1-0.1,0.2-0.1,0-0.3c-0.1,0-0.2,0-0.2,0c-1.9,0.3-3.5,0.9-4.5,1.6c-0.2,0.1-0.5,0.3-0.3,0.4
			C122.5,55.9,122.8,56.3,123.5,56.6L123.5,56.6z M144.8,69.2c0.1,0,0.1,0,0.2,0c0.2,0.5-0.2,0.9-0.6,1.2c-0.1,0.1-0.3,0.2-0.6,0.2
			c-0.7-0.1-0.5,0.1-0.7,0.3c0.2,0,0.3,0,0.5,0s0.4-0.1,0.6,0c0.1,0.1,0.1,0.2-0.2,0.2c-0.2,0-0.2,0.1-0.2,0.2
			c-0.3,0.3-0.4,0.7-0.4,1.1c0,0.2,0,0.3,0.4,0.5c1.3,0.4,2.9,0.8,4.2,1.4c-0.3-0.3-0.5-0.5-0.6-0.8c-0.2-0.4-0.5-0.8-0.4-1.2
			c0-0.1,0-0.2,0.3-0.1c0.2,0,0.3,0.1,0.4,0.1c0.3,0.6,1.1,1.1,2,1.7c0.1,0,0.2,0.1,0.1,0.2c-0.1,0.1-0.3,0-0.4-0.1
			c-0.4-0.1-0.7-0.3-1.2-0.4c0.1,0.4,0.8,0.7,0.9,1.1c-1.1-0.4-2.3-0.8-3.6-1.2c1,0.9,2.2,1.7,4.2,2.4c1.9,0.6,3.7,1.2,6,1.4
			c1.2,0.1,2.5,0.3,3.7,0.3c0.2,0,0.5,0.1,0.5,0c0.1-0.1-0.1-0.2-0.3-0.2c-1-0.5-1.8-1-2.4-1.6c-1.3-1.1-2.7-2.3-4.1-3.4
			c-1.5-1.2-3.1-2.5-5.6-3.6c-1.2-0.5-2.1-1.1-3.2-1.7c-1.9-0.9-3.6-1.9-5.2-2.9c-1.2-0.7-2.2-1.4-3.3-2.1c-0.2-0.1-0.3-0.2-0.7-0.2
			c-0.3,0-0.4,0.1-0.4,0.2c0,0.6,0.1,1.1,0.5,1.7c0.1,0.1,0.2,0.2,0.5,0.2c0.8,0,1.6,0.1,2.4,0.2c0.2,0,0.4,0,0.5,0.1
			s-0.1,0.1-0.2,0.1c-0.4,0.2-0.9,0.4-1.2,0.7c-0.1,0.1-0.1,0.1,0.1,0.2c0.7,0.3,1.3,0.6,2.1,0.8c2.3,0.8,4.6,1.6,6.8,2.5
			c1.8,0.7,2.7,1.5,2.9,2.3c0,0.1,0.1,0.2-0.1,0.2c-0.3,0-0.5-0.1-0.7-0.2c-0.1,0-0.2-0.1-0.2-0.2c-0.6-0.4-0.6-0.8-0.4-1.1
			c0.1-0.1,0-0.2-0.2-0.3c-0.4-0.2-0.7-0.4-1.2-0.5c-1.8-0.6-3.6-1.2-5.4-1.9c-0.8-0.3-1.6-0.5-2.4-0.8c0.3,0.3,0.8,0.6,1.1,0.9
			c1,0.8,1.9,1.7,3.5,2.4c0.3,0.1,0.4,0.3,0.4,0.4C144.2,70,144.5,69.6,144.8,69.2z M146.6,63.6c-1.6,0.1-3.3-0.1-4.9-0.3
			c-1.7-0.2-3.3-0.5-5.2-0.8c1.3,0.8,2.6,1.5,3.8,2.3c0.5,0.3,0.9,0.6,2,0.6h0.1c0,0.1-0.2,0.1-0.3,0.1c-0.6,0-0.6,0.1-0.2,0.3
			c1.7,1,3.8,2,5.6,3.1c1,0.6,2.2,1.1,3.1,1.6c0.8,0.5,1.4,1.1,2.2,1.6c0.2,0.1,0.4,0.2,0.7,0.2c0.4,0,0.8,0,1.2,0.1
			c-0.2,0.1-0.4,0-0.6,0c-0.8,0-0.9,0-0.5,0.3c0.9,0.7,1.8,1.4,2.7,2.1c0.2,0.2,0.5,0.3,1,0.3c3.5,0,6.8-0.2,9.9-0.5
			c0.4,0,0.3-0.1,0.3-0.3c-0.2-0.9-0.3-1.8,0-2.6c0.2-0.6,0.2-0.6,1.9-0.6c0.3,0,0.6,0,0.9,0.1c2.1,0.2,4.2,0.4,6.3,0.8
			c0.6,0.1,0.8,0,1-0.1c0.8-0.6,1.4-1.1,1.6-1.8c0.3-0.8,0.5-1.6,0.1-2.5c-0.1-0.2-0.2-0.3-0.6-0.4c-1.8-0.6-3.6-1.1-5.6-1.6
			c-0.8-0.2-0.8-0.2-1,0.1c-0.1,0.1,0.1,0.3-0.3,0.3c-0.4-0.1-0.1-0.2-0.1-0.3l0,0c0.5-0.2,0-0.4-0.6-0.5c-0.1,0-0.1,0-0.2,0
			c-3.2-0.6-6.2-1.4-9.3-2.2c-0.7-0.2-1.1-0.2-1.6-0.1c-1,0.2-2,0.1-3.1-0.3c-0.1,0-0.3-0.1-0.4-0.1c-0.5-0.2-0.8-0.1-1,0
			c-0.1,0-0.2,0.1-0.3,0.1c-0.2,0.1-0.5,0.1-0.8,0c-0.6-0.3-1.2-0.5-1.7-0.8c-0.3-0.2-0.5-0.2-0.8-0.1c-0.6,0.1-1.3,0.3-2.1,0.3
			c-1,0.1-1.6,0.2-1.3,0.7c0.1,0.2,0.1,0.4,0.8,0.6c0.4,0.1,0.5,0.3,0.6,0.4c0.1,0.1,0.1,0.3,0.3,0.4c0.3,0.2,0.1,0.4-0.2,0.6
			c-0.1,0.1-0.4,0.1-0.5,0c-0.3-0.2-0.6-0.1-0.9-0.1c-0.4,0-0.7-0.1-1.1-0.2C146.8,64.1,146.7,63.8,146.6,63.6z M150.2,60
			c-0.6-0.4-0.6-0.7-1-1.1c-0.8-0.8-1.2-1.1-3.1-1.1c-0.6,0-0.7-0.1-0.6-0.3v-0.1c0-0.1,0.1-0.2-0.3-0.2c-0.3,0-0.7-0.2-0.8,0
			c-0.1,0.1-0.2,0.1-0.4,0.1c-0.3,0-0.2-0.1-0.3-0.2c0-0.1,0-0.2,0-0.3c0.3-0.3,0.2-0.6,0.3-0.9c0.1-0.3-0.4-0.4-1.2-0.4
			c-0.3,0-0.5,0.1-0.7,0.1c-0.8,0.3-0.8,0.7-0.8,1.1c0,0.3,0.4,0.5,0.9,0.7c0.2,0.1,0.4,0.2,0.6,0.1c0.1,0,0.1-0.1,0.3-0.1
			s0.1,0.1,0.1,0.2c-0.2,0.3-0.4,0.7-0.9,0.9c-0.5,0.3-1.1,0.6-1.6,0.8c-0.9,0.4-1.5,1-1.3,1.6c0.1,0.3,0.2,0.5,0.7,0.7
			c0.4,0.2,1.1,0.3,1.4,0.2c0.6-0.3,0.7-0.5-0.2-0.9c-0.3-0.1-0.7-0.3-1.2-0.3c0.2-0.1,0.3-0.2,0.7-0.2c0.6,0,1,0.2,1.4,0.4
			c0.3-0.6,0.7-1.1,1.5-1.6c0.4,0.1,0.1,0.2,0.4,0.4c0.3,0,0.5-0.1,0.3-0.2c0.3,0,0.2,0.2,0.5,0.2c0.8,0.1,0.3,0.2,0.1,0.2
			c-0.3,0.1-0.7,0.1-1.1,0c-0.5-0.1-0.6,0-0.7,0.1c-0.5,0.4-0.7,1-0.7,1.5c0,0.3-0.4,0.5-1.1,0.6c-0.7,0-1.4,0-2.1-0.3
			c-0.4-0.1-0.5-0.2-0.7,0c-0.2,0.1-0.3,0.3,0,0.5s0.8,0.1,1.2,0.2c0.4,0,0.7,0,1-0.1c0.7-0.1,1.4-0.2,2-0.3c1.9-0.4,3.4-1,4-1.9
			c0-0.1-0.1-0.2,0.2-0.1c0.3,0,0.2,0.2,0.2,0.2c-0.1,0.3-0.4,0.6-0.9,0.8c-0.6,0.3-1.1,0.5-1.7,0.8c1.1-0.1,2.2-0.2,2.9-0.6
			c0.1,0,0.2-0.1,0.3,0c0.8,0.4,0.7,0,0.9-0.1c0.1,0,0.1-0.1,0.3,0c0.1,0,0.2,0.1,0.2,0.1c0,0.2-0.2,0.3-0.6,0.3
			c-0.4,0-0.8,0-1.2,0.1c-1,0.2-2.2,0.4-3.4,0.5c-0.8,0.1-1.4,0.2-2.1,0.4c1.5,0,2.8,0,4-0.2c0.8-0.1,1.3-0.4,2.2-0.4
			c1.9-0.1,3.5-0.4,4.8-0.8c0.2-0.1,0.3-0.2,0.1-0.3c-0.5-0.3-1.1-0.6-1.8-0.9c-0.2-0.1-0.4-0.1-0.7-0.1
			C149.9,59.6,150.5,59.8,150.2,60z M152.5,59.2c0.3,0.1,0.6,0.1,0.8,0.2c0.9,0.1,1.8,0.3,2.6,0.5c1.2,0.3,1.9,0.7,2.2,1.2
			c0.3,0.4,0.4,0.9,0.4,1.3c0.3,0,0.6,0,0.9,0c2.7-0.1,4.8-0.6,6.5-1.3c1-0.4,1-1.4-0.7-2.1c-2-0.8-4.3-1.3-6.9-1.4
			c-0.3,0-0.6,0-0.7,0.1c-0.4,0.2-1,0.4-1.5,0.6C155,58.7,153.7,58.9,152.5,59.2z M134.7,67.1c-0.1,0.1-0.1,0.1-0.1,0.1
			c-0.6,1.2-0.5,2.4,0.6,3.7c0.3,0.4,0.9,0.8,1.8,1.1c1.7,0.6,3.5,0.8,5.3,0.8c0.3,0,0.4-0.1,0.4-0.2c-0.1-0.4,0.1-0.8,0.3-1.2
			c0.1-0.1,0.5-0.2-0.2-0.4c-0.2,0-0.1-0.1-0.1-0.2c0.1-0.1,0.2-0.3,0.4-0.4c0.1-0.1,0.2-0.1-0.1-0.2c-1.2-0.4-1.6-1-2.3-1.5
			c-0.2-0.1-0.3-0.2-0.5-0.1c-0.5,0.2-1.1,0.1-1.8-0.1C136.9,68.1,135.8,67.7,134.7,67.1z M161.5,62.6c1.7,0.4,3.3,1,5.1,1.3
			c3.7,0.8,7.3,1.5,10.7,2.6c2.2,0.7,4.3,1.4,6,2.2c0.6,0.3,1.2,0.6,1.7,0.9c-1.5-2.9-6.7-5-10.1-5.6c0.2,0.2,0.4,0.3,0.6,0.5
			c0.1,0.1,0.2,0.2,0,0.3c-0.2,0-0.4,0-0.6-0.1c-0.5-0.1-0.9-0.2-1.4-0.3c0.2,0.1,0.4,0.3,0.6,0.4c0.1,0.1,0.1,0.1,0,0.1
			s-0.2,0-0.3-0.1c-1.1-0.4-2.2-0.7-3.5-0.9c-0.2,0-0.5,0-0.4-0.1c0-0.1,0.3-0.1,0.5,0c1.1,0.1,2.3,0.3,3.4,0.5
			c0.3,0.1,0.7,0.1,1.2,0.2c-0.4-0.3-0.7-0.5-1-0.7s-0.7-0.3-0.9-0.5c-0.5-0.3-1.2-0.4-1.8-0.4c-0.7-0.1-1.4-0.1-2-0.1
			s-1.3,0.1-1.8-0.3c0,0-0.1,0-0.2-0.1c-0.6-0.1-1.2-0.3-1.9-0.4c-0.2,0-0.4-0.1-0.6,0c-0.4,0.1-0.8,0.2-1.2,0.2
			c-0.2,0-0.2,0.1-0.1,0.2c0.4,0.2,1.9,0.7,2.5,0.7c0.5,0,1,0.1,1.5,0.3c0.4,0.1,1,0.3,0.6,0.5c-0.3,0.1-0.8,0-1.2-0.2
			c-1.3-0.4-2.5-0.8-3.6-1.2c-0.2-0.1-0.4-0.1-0.7-0.1C162.1,62.5,161.7,62.5,161.5,62.6z M168.2,80.2c-0.2,0-0.4,0.1-0.5,0.1
			c-0.9,0.3-1.6,0.7-1.5,1.2s0.9,0.9,2.3,1c0.6,0,1.2,0,1.8,0c0.4,0,0.8-0.2,1.1-0.1c0.7,0.1,0.9-0.1,1.5-0.1c0.3,0,0.8-0.1,1.2-0.2
			c1.9-0.3,3.6-0.7,5.2-1.1c0.3-0.1,0.2-0.2-0.1-0.3c-2.2-0.7-4.5-1-6.9-1C170.6,79.6,169.4,79.9,168.2,80.2z M127.3,66.1
			c0.8,0.2,1.3,0.4,1.9,0.6c0.1,0.1,0.3,0.1,0.5,0.1s0.2-0.1,0-0.2s-0.3-0.2-0.5-0.2c-1.4-0.5-2.9-0.9-4.6-1
			c-1.2-0.1-1.9,0.1-2.1,0.5c-0.2,0.6,0.3,1.3,1.1,2c0.3,0.3,0.9,0.5,1.6,0.7c1.3,0.3,2.5,0.6,3.8,0.9c0.9,0.2,1.9,0.4,2.9,0.5
			c-1-0.9-2.8-1.3-5-1.6c0.1,0.1,0.2,0.1,0.3,0.2c0.2,0.1,0.9,0.3,0.5,0.4c-0.4,0.1-0.8-0.2-1.2-0.3c0,0,0,0-0.1,0
			c-1-0.3-1-0.7-1.4-1.1s-0.6-0.7-0.7-1.1c0-0.1-0.5-0.2-0.2-0.3c0.2,0,0.5,0.1,0.8,0.2c0.8,0.2,1.5,0.5,2.4,0.7
			c0-0.1-0.5-0.2-0.5-0.3c0.8,0.1,1.3,0.4,2.1,0.5c-1.2-0.4-2.3-0.7-3.6-1.2c0.5,0,0.6,0.1,0.7,0.1c1,0.3,2,0.6,3,0.9
			c0.1,0,0.3,0.1,0.4,0.1c0.1-0.1-0.1-0.1-0.3-0.2c-1-0.3-1.9-0.6-2.9-0.9c-0.2-0.1-0.5-0.1-0.6-0.3c1,0.2,1.7,0.5,2.7,0.8
			C128,66.3,127.5,66.3,127.3,66.1z M138.2,56.1c-3.1-0.8-6-1.6-9.1-2.3c0.2,0.2,0.7,0.3,0.3,0.5c-0.3,0.1-0.5-0.2-0.8-0.1
			c-0.2,0.4-0.2,0.4,0.9,0.5c1,0.1,1.8,0.6,1.6,0.9c0,0.1-0.2,0.1,0,0.2c4.5-0.6,9.4,0.9,10.6,2.7c0.3-0.2,0.8-0.3,0.7-0.5
			c-0.1-0.4-1.2-0.7-1.9-1c0.9,0.1,0.5-0.1,0.3-0.3c-0.1-0.1-0.3-0.3-0.7-0.3s0,0.2-0.1,0.3l0,0c0,0,0,0.1-0.1,0.1s-0.2-0.1-0.2-0.1
			c0-0.3-0.2-0.7,0.2-0.9c0.2-0.1,0.4-0.2,0.8-0.1c0.2,0.1,0.3,0,0.4,0c0.1-0.1,0.1-0.1-0.1-0.2c-0.7-0.3-1.9-0.4-2.6-0.2
			C138,55.5,138.1,55.8,138.2,56.1z M135.6,65.1C135.6,65.1,135.5,65.1,135.6,65.1c-0.9-0.3-1.7-0.7-2.6-1c-0.1,0.6,0.3,1.1,0.9,1.7
			c0.1,0.1,0.2,0.1,0.3,0.1c0.5,0,0.8,0.1,1.3,0.2c0.6,0.1,1,0.3,1.4,0.5c0.8,0.3,1.3,0.6,2.3,0.9c-0.5-0.4-0.8-0.7-1.5-1
			c-0.3-0.1-0.9-0.2-0.5-0.4c0.1,0-0.2-0.1-0.3-0.2c-0.4-0.1-0.4-0.2-0.2-0.3c0.4-0.2,0.7-0.4,1.2-0.7c-0.5,0-0.9,0.1-1.2,0.1
			c-0.4,0.1-0.6,0.1-0.7-0.2c0-0.1-0.2-0.2-0.5-0.2c-0.5,0-0.6-0.1-0.7-0.3c-0.4-0.7-0.4-1.3-0.4-1.9c0-0.1,0-0.2-0.4-0.2
			c-0.3,0-0.5-0.1-0.6,0.1c-0.2,0.4-0.3,0.8-0.2,1.3c0.1,0.2,0,0.5,0.6,0.8C134.4,64.5,135,64.8,135.6,65.1z M179.8,81.6
			c0.8-0.2,1.6-0.5,2.4-0.8c0.3-0.1,0.1-0.2-0.1-0.3c-0.3-0.1-0.5-0.2-0.8-0.1c-0.4,0.1-0.9,0.3-1.3,0.4c-1.6,0.5-3.3,0.9-5.1,1.2
			c-2,0.4-3.9,0.8-6.7,0.6c-0.5,0-0.6,0.1-0.6,0.3c0,0.2,0.4,0.2,0.7,0.2c0.9,0.1,1.8,0.1,2.6,0C174.2,82.9,177,82.3,179.8,81.6z
			 M172.6,79.3c0.2,0,0.2,0.1,0.3,0.1c2.4,0.1,4.6,0.5,6.7,1.2c0.3,0.1,0.4,0.1,0.5,0c1.2-0.3,2.3-0.7,3.1-1.2
			c0.3-0.1,0.1-0.3-0.5-0.4c-0.4-0.1-0.7-0.1-1,0c-0.7,0.1-1.2,0.3-1.6,0.6c-0.1,0.1-0.1,0.2-0.4,0c-0.9-0.4-2-0.5-3.1-0.7
			C174.9,78.8,173.7,79,172.6,79.3z M128.4,53.4c0.3-0.2,0.2-0.5-0.2-0.7c-0.5-0.3-1.2-0.3-1.9-0.4c-0.3,0-0.5,0-0.6,0.1
			c-0.2,0.3-0.3,0.5-0.6,0.7c-0.6,0.4-1.3,0.8-2.3,1c-1,0.3-1.9,0.6-3.5,0.5c-0.2,0-0.2,0-0.2,0.1c0,0.2-0.1,0.4-0.1,0.6
			c0,0.3,0.6,0.7,1.2,0.7c0.8,0.1,1.3,0,1.6-0.2c0.1,0,0.3-0.1,0.3-0.1c-0.7,0-0.8-0.1-0.7-0.3c0-0.1,0.1-0.2,0.2-0.3
			c1-0.8,2.8-1.4,4.8-1.9c0.4-0.1,1-0.1,1.4-0.2C128.1,53.1,128.3,53.2,128.4,53.4z M119.8,54c0.2,0.1,0.2,0.3,0.6,0.4
			c0-0.1,0.1-0.1,0.1-0.2c0.4-0.5,1-0.9,2.3-1.2c1.1-0.2,1.2-0.2,0.6-0.7c-0.1-0.1-0.2-0.1-0.2-0.2c-0.2-0.2-0.4-0.3-0.8-0.2
			c-0.2,0.1-1,0-0.3,0.3c0.5,0.2,0.4,0.4,0,0.6c-0.2,0.1-0.5,0.1-0.8,0c-0.5-0.1-0.7-0.3-0.7-0.5s0-0.4-0.2-0.6
			c-0.1-0.1-0.3-0.2-0.7-0.2c-0.8,0-1.4,0.3-1.4,0.7s0.6,0.4,1.3,0.6c0.1-0.1-0.3-0.1-0.1-0.2c0.4,0.2,0.8,0.4,1.2,0.6
			c-0.4-0.1-0.4-0.1-0.5,0s-0.2,0.3-0.6,0.3s-0.7-0.1-1-0.3c0,0-0.1-0.1-0.2,0c0,0.2-0.7,0.4,0.1,0.7C118.7,54,119.3,54.2,119.8,54z
			 M154.9,62c0.7-0.3,1.4-0.5,2.2-0.6c0.3-0.1,0.4-0.2,0.3-0.3c-0.5-0.8-3.9-1.8-5.7-1.7c-0.3,0-0.5,0.1-0.1,0.2
			c0.5,0.2,1,0.4,1.4,0.6C153.8,60.8,154.9,61.3,154.9,62z M194,77.2c1.8-0.5,3.3-1.4,4.4-2.3c0.2-0.2,0.2-0.4,0.1-0.6
			c-0.1-0.1-0.3-0.2-0.7-0.2c-0.3,0-0.5,0-0.5,0.2c0.1,0.2,0,0.3-0.1,0.5c-0.6,0.6-1.4,1.2-2.6,1.6c-1.6,0.6-3.6,1.1-5.7,1.6
			c-0.2,0-0.5,0.1-0.3,0.2s0.5,0,0.7,0C191,78,192.4,77.7,194,77.2z M147.9,62c-0.6,0.2-1.2,0.3-1.8,0.3c-1.3,0.1-2.6,0.3-4.2,0.2
			c-0.1,0-0.3,0-0.3,0c-0.1,0.1-0.3,0.3-0.1,0.4c0.2,0.2,0.5,0.3,0.9,0.3c1.4,0.2,2.6,0.1,3.9,0.2c0.2,0,0.2,0,0.2-0.1
			c0-0.2,0.3-0.3,0.7-0.4C148.1,62.8,148,62.4,147.9,62z M156.4,58c-0.7-0.1-1.3-0.2-1.9-0.2c-0.3,0-0.7,0-0.8,0.1
			c-0.3,0.4-0.9,0.6-1.5,1C154,58.8,155.3,58.5,156.4,58z M148.8,64.1c0.7-0.2,0.9-0.5,0.6-0.7c-0.2-0.2-0.5-0.3-1-0.3
			c-0.8-0.1-0.9,0.2-1.2,0.3c-0.1,0.1-0.1,0.2-0.1,0.3c0,0.2,0.1,0.3,0.6,0.5C148.2,64.2,148.6,64.1,148.8,64.1z M136.4,62.3
			c1.6,0.4,3.1,0.6,4.7,0.8c-0.3-0.3-0.2-0.5,0.1-0.7c-0.2,0-0.3,0-0.3,0c-0.8,0.1-1.6,0.1-2.5-0.2c-0.2-0.1-0.3,0-0.4,0
			C137.5,62.2,137.1,62.2,136.4,62.3z M184.3,79.6c0.5,0.2,0.7,0.3,0.9,0c0.3-0.3,0.6-0.7,0.8-1c0.1-0.1,0.1-0.2-0.1-0.3
			c-0.1-0.1-0.3-0.2-0.5-0.2c-0.3,0-0.2,0.1-0.2,0.1c-0.2,0.4-0.5,0.7-1,1C184,79.4,184,79.4,184.3,79.6z M139.8,68
			c-1.4-0.9-3.5-1.4-5.6-2C135.9,66.8,137.6,67.5,139.8,68z M183.4,69.2c-0.9-0.4-1.6-0.8-2.4-1.1c0.2,0.3,0.3,0.6,0.3,0.9
			c0,0.2,0.2,0.2,0.6,0.2C182.3,69.2,182.8,69.1,183.4,69.2z M151.5,58.6c-0.4,0-0.7,0-1,0.1c-1,0.1-1,0.1-0.6,0.5
			c0.1,0.1,0,0.2,0.3,0.2c0.2,0,0.4,0,0.4-0.1C150.7,59,151.1,58.8,151.5,58.6z M154.5,62.1c-0.2-0.2,0.1-0.3-0.4-0.4
			c-0.4-0.1-0.8-0.2-1.2-0.4c-0.1-0.1-0.2-0.1-0.4,0c-0.1,0,0,0.1,0.1,0.1C153.2,61.7,153.6,61.9,154.5,62.1z M182.6,80
			c0.5,0,1-0.1,1.5-0.1c0.3,0,0.3-0.1,0.1-0.2c-0.3-0.2-0.6-0.2-0.9-0.1C183.1,79.8,182.9,79.9,182.6,80z M157.8,62.4
			c0.2-0.2,0.1-0.3-0.5-0.4c-0.1,0-0.3-0.1-0.4-0.1c-0.2,0-0.3-0.1-0.5-0.1c-0.1,0.1,0.1,0.1,0.3,0.2
			C157,62.2,157.4,62.3,157.8,62.4z M142.1,61.1c-0.1-0.2-0.2-0.4-0.8-0.5c-0.2,0-0.4,0-0.4,0c-0.1,0.1,0.1,0.1,0.3,0.2
			C141.4,60.8,141.7,60.9,142.1,61.1z M176.5,74c-0.5,0.2-1,0.4-1.5,0.6C175.7,74.5,176.2,74.3,176.5,74z M131,69.1
			c0.3,0.3,0.8,0.6,1.7,0.9C132,69.6,131.5,69.3,131,69.1z M118.8,52.7c-0.1,0.1,0,0.1,0.2,0.2c0.1,0.1,0.4,0.1,0.6,0.1
			c0.1,0,0.2-0.1,0-0.2C119.3,52.8,119.1,52.7,118.8,52.7z M152.2,58.6c-0.5,0.1-0.8,0.3-1,0.5C151.9,59,151.8,58.8,152.2,58.6z
			 M121,52.3c0,0.1,0,0.2,0.4,0.3c0.2,0,0.4,0,0.4-0.1C121.6,52.3,121.3,52.3,121,52.3z M186.7,78.4c0.1-0.1,0.2-0.1,0.3-0.2
			c0.1,0,0.2-0.1,0.1-0.1C186.5,78.2,186.5,78.2,186.7,78.4z M140.3,55.9c0,0-0.2,0.1,0,0.2c0.1,0,0.3,0.1,0.4,0
			c0.1,0,0.3-0.1,0.1-0.1C140.6,55.9,140.5,55.8,140.3,55.9z M178.7,75.8c0-0.1,0-0.2-0.3-0.3C178.4,75.6,178.5,75.7,178.7,75.8z
			 M129,66.8c0.1,0.1,0.3,0.2,0.6,0.2C129.4,66.8,129.2,66.8,129,66.8z M181.5,75.2L181.5,75.2C181.5,75.2,181.5,75.1,181.5,75.2
			c-0.1-0.1-0.1,0-0.1,0H181.5z M128.5,66.6L128.5,66.6c0.1,0.1,0.1,0.1,0.2,0.1l0,0C128.6,66.6,128.6,66.6,128.5,66.6z M176.3,77.3
			L176.3,77.3L176.3,77.3L176.3,77.3z M151.2,59.2L151.2,59.2L151.2,59.2L151.2,59.2z"/>
		<path class="st9" d="M177.5,82.4c0.5-0.2,1.1-0.4,1.9-0.5C178.8,82,178.2,82.2,177.5,82.4z"/>
		<path class="st10" d="M174,77.2c0.6,0,1.3,0,1.9,0.1c-0.4,0.1-1.1-0.1-1.5,0.1C174.2,77.3,174.1,77.2,174,77.2z"/>
		<path class="st10" d="M134.5,66.4c0.4,0.1,0.3,0.2,0.6,0.3l0,0c-0.2,0-0.1,0,0,0.1l0,0c-0.1,0,0,0.1,0.1,0.1l0,0
			c-0.1,0.1,0.1,0.2,0.3,0.2l0,0c-0.1,0,0,0.1,0.1,0.1l0,0c-0.5-0.1-0.7-0.3-0.9-0.5C134.7,66.7,134.7,66.6,134.5,66.4
			C134.4,66.5,134.4,66.5,134.5,66.4z"/>
		<path class="st11" d="M146.6,63.6c0.1,0.2,0.2,0.5,0.9,0.7c0.3,0.1,0.7,0.2,1.1,0.2c0.3,0,0.6-0.1,0.9,0.1c0.1,0.1,0.4,0,0.5,0
			c0.3-0.2,0.5-0.4,0.2-0.6c-0.2-0.2-0.2-0.3-0.3-0.4c-0.1-0.2-0.2-0.3-0.6-0.4c-0.8-0.2-0.7-0.4-0.8-0.6c-0.3-0.5,0.2-0.7,1.3-0.7
			c0.8,0,1.4-0.2,2.1-0.3c0.3-0.1,0.5-0.1,0.8,0.1c0.5,0.3,1.1,0.5,1.7,0.8c0.3,0.1,0.6,0.2,0.8,0c0.1,0,0.2-0.1,0.3-0.1
			c0.3-0.1,0.5-0.2,1,0c0.1,0.1,0.3,0.1,0.4,0.1c1.1,0.4,2.1,0.5,3.1,0.3c0.5-0.1,0.9-0.1,1.6,0.1c3,0.8,6.1,1.6,9.3,2.2
			c0.1,0,0.1,0,0.2,0c0.6,0.1,1.1,0.3,0.6,0.5l0,0c0,0.1-0.3,0.3,0.1,0.3c0.4,0.1,0.2-0.2,0.3-0.3c0.2-0.3,0.2-0.3,1-0.1
			c2,0.4,3.8,1,5.6,1.6c0.4,0.1,0.5,0.2,0.6,0.4c0.3,0.9,0.2,1.7-0.1,2.5c-0.3,0.7-0.9,1.2-1.6,1.8c-0.2,0.1-0.4,0.2-1,0.1
			c-2.1-0.3-4.2-0.6-6.3-0.8c-0.3,0-0.6,0-0.9-0.1c-1.7-0.1-1.7-0.1-1.9,0.6c-0.2,0.8-0.2,1.7,0,2.6c0,0.1,0.1,0.2-0.3,0.3
			c-3.1,0.4-6.4,0.6-9.9,0.5c-0.5,0-0.8-0.1-1-0.3c-0.9-0.7-1.8-1.4-2.7-2.1c-0.4-0.3-0.4-0.3,0.5-0.3c0.2,0,0.4,0.1,0.6,0
			c-0.4-0.1-0.8-0.1-1.2-0.1c-0.3,0-0.5,0-0.7-0.2c-0.7-0.5-1.4-1.1-2.2-1.6c-0.9-0.6-2.1-1.1-3.1-1.6c-1.9-1-3.9-2-5.6-3.1
			c-0.3-0.2-0.4-0.3,0.2-0.3c0.1,0,0.3,0,0.3-0.1h-0.1c-1.1,0.1-1.5-0.2-2-0.6c-1.2-0.7-2.4-1.5-3.8-2.3c1.8,0.4,3.5,0.6,5.2,0.8
			C143.3,63.5,145,63.7,146.6,63.6z M149.7,69.2c-0.2-0.2,0.2-0.3,0.3-0.5c0.3-0.2,0.7-0.5,1-0.7c-0.1,0-0.1,0-0.2-0.1
			c-0.6,0.4-1.3,0.7-1.6,1.2c0,0,0,0.1,0.1,0.1C149.6,69.3,149.5,69.2,149.7,69.2c0.3,0.1,0.1,0.1,0.1,0.2c-0.1,0.1-0.1,0.2-0.1,0.3
			c0,0.1,0,0.1,0.3,0.2c0.2,0,0.2-0.1,0.2-0.1c-0.1-0.3,0.2-0.5,0.4-0.6c0.8-0.7,1.8-1.4,3.3-1.9c0.3-0.1,0-0.2-0.1-0.2
			c-0.1-0.1-0.2,0-0.3,0c-2.2,0-2.9,0.7-4,1.3c-0.1,0.1-0.1,0.1,0.2,0.2s0.3,0,0.4-0.1c0.4-0.5,1.5-0.8,2.5-1.1c0,0,0.2-0.1,0.2,0
			c-0.1,0.1,0.5,0.1,0.2,0.2c-1.3,0.5-2.2,1.1-2.9,1.8C149.9,69.2,150,69.3,149.7,69.2z M163.1,64.2c0-0.1,0.2-0.1,0-0.2
			c-0.1,0-0.3,0-0.4,0c-0.4,0.1-0.9,0.1-1.2,0.2c-0.9,0.4-2.1,0.6-2.9,1c-0.1,0.1-0.2,0.2-0.5,0.1c0.7-0.6,1.8-0.9,3.1-1.3
			c-2.1,0.3-3.3,0.9-3.9,1.7c-0.5-0.1-1-0.2-1.5-0.2c-0.9,0-1.4,0.3-1.5,0.6c-0.1,0.4,0.3,0.8,1.2,1c1.1,0.3,2.2,0.3,2.4-0.2
			c0-0.1,0-0.2,0-0.3c-0.1-0.3-0.1-0.6,0.4-0.8c1.3-0.5,2.6-1,4.2-1.3c0.3-0.1,0.6-0.1,0.9-0.2c0.2-0.1,0.1-0.1-0.2-0.1
			C163.2,64.3,163.1,64.3,163.1,64.2z M166.7,69.6c-0.5-0.2-1.3-0.4-1.9-0.3c-0.7,0.1-1.1,0.5-0.8,0.9s0.7,0.6,1.8,0.7
			c0.1,0,0.2,0,0.3,0c0.7,0.3,1,0.1,1.2,0c0.5-0.4-0.1-0.8-0.4-1.3C166.9,69.6,166.8,69.6,166.7,69.6z"/>
		<path class="st10" d="M144.8,69.2c-0.2,0.4-0.6,0.8-1.2,1.2c0-0.1-0.1-0.3-0.4-0.4c-1.6-0.8-2.6-1.6-3.5-2.4
			c-0.3-0.3-0.8-0.6-1.1-0.9c0.8,0.3,1.6,0.5,2.4,0.8c1.8,0.6,3.6,1.2,5.4,1.9c0.5,0.2,0.8,0.3,1.2,0.5c0.2,0.1,0.3,0.2,0.2,0.3
			c-0.2,0.4-0.2,0.7,0.4,1.1c0.1,0.1,0.1,0.1,0.2,0.2c0.2,0.1,0.5,0.2,0.7,0.2s0.1-0.1,0.1-0.2c-0.2-0.8-1.1-1.6-2.9-2.3
			c-2.2-0.9-4.6-1.7-6.8-2.5c-0.7-0.3-1.4-0.5-2.1-0.8c-0.2-0.1-0.3-0.2-0.1-0.2c0.3-0.3,0.8-0.5,1.2-0.7c0.1,0,0.3,0,0.2-0.1
			s-0.3-0.1-0.5-0.1c-0.8-0.1-1.6-0.2-2.4-0.2c-0.4,0-0.5-0.1-0.5-0.2c-0.4-0.6-0.5-1.2-0.5-1.7c0-0.1,0.1-0.2,0.4-0.2
			c0.3,0,0.5,0.1,0.7,0.2c1.1,0.7,2.1,1.4,3.3,2.1c1.7,1,3.3,1.9,5.2,2.9c1.1,0.6,2,1.2,3.2,1.7c2.5,1.1,4.1,2.3,5.6,3.6
			c1.4,1.1,2.7,2.3,4.1,3.4c0.6,0.5,1.5,1.1,2.4,1.6c0.1,0.1,0.4,0.2,0.3,0.2c-0.1,0.1-0.4,0-0.5,0c-1.2-0.1-2.5-0.2-3.7-0.3
			c-2.3-0.2-4.2-0.8-6-1.4c-2-0.7-3.2-1.5-4.2-2.4c1.4,0.4,2.5,0.8,3.6,1.2c-0.1-0.4-0.8-0.7-0.9-1.1c0.5,0.1,0.8,0.3,1.2,0.4
			c0.1,0,0.3,0.1,0.4,0.1c0.1,0,0-0.1-0.1-0.2c-0.9-0.5-1.7-1.1-2-1.7c0-0.1-0.2-0.1-0.4-0.1c-0.3,0-0.2,0.1-0.3,0.1
			c-0.1,0.4,0.1,0.8,0.4,1.2c0.1,0.2,0.4,0.5,0.6,0.8c-1.3-0.6-2.9-0.9-4.2-1.4c-0.5-0.2-0.5-0.3-0.4-0.5c0.1-0.4,0.1-0.8,0.4-1.1
			c0.1-0.1,0-0.1,0.2-0.2c0.3,0,0.4-0.1,0.2-0.2s-0.4,0-0.6,0c-0.1,0-0.3,0-0.5,0c0.1-0.1-0.1-0.4,0.7-0.3c0.3,0,0.4-0.1,0.6-0.2
			c0.4-0.4,0.8-0.8,0.6-1.2c0,0,0.1-0.1-0.1-0.1C144.8,69.1,144.8,69.1,144.8,69.2z M145.8,69.9L145.8,69.9
			C145.8,70,145.8,70,145.8,69.9c-0.1,0.3-0.2,0.4-0.3,0.6s-0.2,0.4-0.7,0.4c-0.1,0-0.4,0-0.2,0.1s0.4,0,0.5,0
			c0.8-0.2,0.8-0.6,0.9-1C145.9,70,145.9,70,145.8,69.9C145.9,70,145.9,69.9,145.8,69.9C145.9,69.9,145.9,69.9,145.8,69.9
			C145.8,69.8,145.8,69.9,145.8,69.9z"/>
		<path class="st12" d="M129.8,56.1c0.8,0,1.5-0.1,2.2-0.2c2.7-0.2,4.5,0.1,6.9,1c1.5,0.6,2.1,1.3,1.8,2c-0.1,0.3-0.6,0.4-1,0.6
			c-0.4,0.2-0.8,0.5-1,0.7c-0.1,0.1-0.2,0.2-0.4,0.3c-2.4,0.5-4.7,0.6-7.7-0.4c-2.7-0.9-3.1-1.9-2.4-3c0.1-0.2,0.5-0.3,0.3-0.5
			C128.9,56.4,129.3,56.2,129.8,56.1z M131.2,57.1c1.2,0.8,1.9,1.1,2.4,1.1C132.8,57.9,132,57.5,131.2,57.1z M131.8,57.1
			c0.8,0.3,1.7,0.6,2.8,0.9C134.2,57.7,132.8,57.3,131.8,57.1z M133.5,57.2C133.6,57.2,133.6,57.1,133.5,57.2
			c-0.4-0.3-1.1-0.4-1.7-0.4C132.4,56.9,133,57,133.5,57.2z M131.2,57.7c0.2,0.2,0.3,0.4,0.9,0.6C131.9,58.1,131.7,57.9,131.2,57.7z
			 M130,57.3c0.2,0.2,0.2,0.4,0.6,0.6h0.1C130.7,57.7,130.6,57.6,130,57.3z M131.8,56.5c0.4,0,0.7,0.2,1.1,0.1v-0.1
			C132.6,56.5,132.3,56.4,131.8,56.5C131.9,56.4,131.9,56.5,131.8,56.5z"/>
		<path class="st12" d="M150.2,60c0.3-0.1-0.3-0.4,0.4-0.4c0.3,0,0.5,0,0.7,0.1c0.7,0.3,1.3,0.6,1.8,0.9c0.2,0.1,0.2,0.2-0.1,0.3
			c-1.4,0.4-2.9,0.7-4.8,0.8c-0.9,0-1.4,0.3-2.2,0.4c-1.2,0.2-2.5,0.2-4,0.2c0.7-0.2,1.3-0.3,2.1-0.4c1.2-0.1,2.3-0.2,3.4-0.5
			c0.4-0.1,0.8-0.1,1.2-0.1s0.7-0.1,0.6-0.3c0,0-0.1-0.1-0.2-0.1c-0.1,0-0.2,0-0.3,0c-0.2,0.1-0.1,0.4-0.9,0.1c-0.1,0-0.2,0-0.3,0
			c-0.7,0.3-1.8,0.5-2.9,0.6c0.6-0.2,1.2-0.5,1.7-0.8c0.5-0.2,0.8-0.5,0.9-0.8c0-0.1,0.1-0.2-0.2-0.2s-0.2,0.1-0.2,0.1
			c-0.6,0.9-2.1,1.4-4,1.9c-0.6,0.1-1.3,0.2-2,0.3c-0.3,0-0.7,0.1-1,0.1c-0.4,0-0.9,0-1.2-0.2s-0.2-0.3,0-0.5c0.2-0.1,0.4-0.1,0.7,0
			c0.6,0.2,1.4,0.3,2.1,0.3c0.7-0.1,1.1-0.3,1.1-0.6c0.1-0.5,0.2-1,0.7-1.5c0.1-0.1,0.2-0.2,0.7-0.1c0.4,0.1,0.8,0.1,1.1,0
			c0.2-0.1,0.7-0.1-0.1-0.2c-0.3,0-0.2-0.2-0.5-0.2c0.1,0.1,0,0.2-0.3,0.2c-0.3-0.1,0-0.2-0.4-0.4c-0.9,0.4-1.2,1-1.5,1.6
			c-0.4-0.2-0.8-0.4-1.4-0.4c-0.4,0-0.6,0.1-0.7,0.2c0.5,0.1,0.9,0.2,1.2,0.3c0.9,0.4,0.8,0.6,0.2,0.9c-0.3,0.1-1,0-1.4-0.2
			c-0.5-0.2-0.7-0.5-0.7-0.7c-0.2-0.7,0.4-1.2,1.3-1.6c0.6-0.3,1.1-0.6,1.6-0.8c0.5-0.3,0.7-0.6,0.9-0.9c0-0.1,0.1-0.1-0.1-0.2
			c-0.2-0.1-0.3,0-0.3,0.1c-0.2,0.1-0.4,0-0.6-0.1c-0.5-0.2-0.9-0.4-0.9-0.7c-0.1-0.4,0-0.8,0.8-1.1c0.2-0.1,0.4-0.1,0.7-0.1
			c0.7,0,1.2,0.1,1.2,0.4c-0.1,0.3,0,0.6-0.3,0.9c-0.1,0.1-0.1,0.2,0,0.3c0,0.1,0,0.2,0.3,0.2c0.2,0,0.4,0,0.4-0.1
			c0.2-0.2,0.6,0,0.8,0c0.3,0,0.2,0.2,0.3,0.2v0.1c-0.1,0.2,0.1,0.3,0.6,0.3c1.9,0,2.4,0.2,3.1,1.1C149.6,59.2,149.7,59.6,150.2,60z
			"/>
		<path class="st10" d="M152.5,59.2c1.2-0.3,2.5-0.5,3.5-0.8c0.6-0.2,1.1-0.3,1.5-0.6c0.2-0.1,0.4-0.1,0.7-0.1
			c2.6,0.1,4.9,0.6,6.9,1.4c1.7,0.7,1.8,1.6,0.7,2.1c-1.6,0.7-3.8,1.1-6.5,1.3c-0.3,0-0.5,0-0.9,0c0-0.4-0.2-0.9-0.4-1.3
			c-0.3-0.5-1-0.9-2.2-1.2c-0.9-0.2-1.7-0.4-2.6-0.5C153.1,59.4,152.8,59.3,152.5,59.2z M160.8,60.3c-0.7,0.2-0.7,1,0,1.3
			c0.2,0.1,0.4,0.1,0.6,0.2c0.6,0.1,1.1,0,1.6,0c0.7,0,0.7-0.1,0.7-0.3c0-0.3-0.5-0.5-0.7-0.8C162.6,60.3,161.3,60.2,160.8,60.3z"/>
		<path class="st10" d="M134.7,67.1c1,0.5,2.2,1,3.5,1.4c0.6,0.2,1.3,0.3,1.8,0.1c0.2-0.1,0.4,0,0.5,0.1c0.7,0.5,1.2,1,2.3,1.5
			c0.2,0.1,0.1,0.2,0.1,0.2c-0.1,0.1-0.2,0.3-0.4,0.4c0,0.1-0.1,0.2,0.1,0.2c0.7,0.2,0.3,0.3,0.2,0.4c-0.2,0.4-0.4,0.8-0.3,1.2
			c0,0.1,0,0.2-0.4,0.2c-1.9,0-3.7-0.2-5.3-0.8c-0.9-0.3-1.5-0.7-1.8-1.1c-1-1.3-1.2-2.5-0.6-3.7C134.6,67.2,134.7,67.2,134.7,67.1z
			"/>
		<path class="st10" d="M161.5,62.6c0.2-0.1,0.6-0.1,0.8-0.1c0.2-0.1,0.4,0,0.7,0.1c1.1,0.5,2.3,0.9,3.6,1.2
			c0.4,0.1,0.9,0.3,1.2,0.2c0.4-0.2-0.2-0.3-0.6-0.5c-0.4-0.1-0.9-0.3-1.5-0.3s-2.2-0.4-2.5-0.7c-0.1-0.1-0.1-0.1,0.1-0.2
			c0.4-0.1,0.8-0.1,1.2-0.2c0.2,0,0.4,0,0.6,0c0.6,0.1,1.2,0.3,1.9,0.4c0.1,0,0.2,0,0.2,0.1c0.5,0.4,1.2,0.3,1.8,0.3s1.3,0,2,0.1
			s1.4,0.2,1.8,0.4c0.3,0.2,0.7,0.3,0.9,0.5c0.3,0.2,0.6,0.4,1,0.7c-0.5-0.1-0.9-0.2-1.2-0.2c-1.1-0.2-2.3-0.4-3.4-0.5
			c-0.2,0-0.5-0.1-0.5,0s0.3,0.1,0.4,0.1c1.2,0.3,2.4,0.6,3.5,0.9c0.1,0,0.2,0.1,0.3,0.1s0.1-0.1,0-0.1c-0.2-0.1-0.4-0.2-0.6-0.4
			c0.6,0.1,1,0.2,1.4,0.3c0.2,0,0.4,0.1,0.6,0.1c0.2-0.1,0.1-0.2,0-0.3c-0.2-0.2-0.4-0.3-0.6-0.5c3.4,0.5,8.6,2.6,10.1,5.6
			c-0.5-0.3-1.1-0.6-1.7-0.9c-1.6-0.9-3.8-1.6-6-2.2c-3.4-1-7-1.8-10.7-2.6C164.8,63.5,163.2,63,161.5,62.6z"/>
		<path class="st12" d="M127.2,53.8c0.2-0.1,0.3-0.3,1-0.2c-0.6,0.6,0.1,1.2,0.3,2c-0.9-0.4-1.6-0.8-2.5-1.2
			c-0.1,0.2,0.2,0.3,0.4,0.4c0.8,0.3,1.5,0.7,2.3,1c-0.1,0-0.1,0-0.2,0.1c-0.6-0.1-1,0-1.5,0c-0.9,0.1-1.6,0.3-2.3,0.5
			c-0.2,0.1-0.3,0.1-0.4,0.2c-0.1,0.1,0,0.2,0.2,0.2c0.2,0.1,0.4,0.1,0.6,0.1s0.3-0.1,0.2-0.2c-0.1-0.1-0.1-0.1,0-0.2
			c0.8,0.3,1.7,0.5,2.6,0.3c-0.1,0.4-0.7,0.4-1.8,0.1c0.1,0.2,0.4,0.3,1.5,0.3c-0.8,1.1,0.2,2.3,3,3.2c2.7,0.9,5.5,1,7.9,0.5
			c0.1,0.2,0.3,0.3,0.1,0.5c-0.7,0.8-2.7,0.6-4.7,0.4c-1.1-0.1-2.2-0.3-3.1-0.6c-0.1,0-0.2-0.1-0.3,0c-0.1,0,0,0.1,0.1,0.1
			c0.1,0.1,0.7,0.2,0.5,0.3c-0.2,0.2-0.6,0.3-1.1,0.3c-0.9,0-1.7,0-2.6-0.3l0,0c0.5,0,0.5-0.1,0.2-0.3c-0.1-0.1-0.3-0.1-0.5-0.2
			c-0.2-0.1-0.1-0.1,0-0.2c0.2,0,0.2,0,0.4,0.1c0.9,0.5,1.8,0.6,2.8,0.4c-0.3-0.1-0.6-0.1-0.9-0.2c-0.3-0.1-0.6-0.1-0.7-0.3
			c0.2-0.1,0.5,0.1,0.6,0c-0.9-0.3-2.1-0.3-2.8-0.1c-0.7,0.2,0.1,0.5,0.4,0.7c-1.5-0.3-2.3-1.1-1.5-1.5c0.2-0.1,0.7-0.1,1.1-0.1
			c0.3,0,0.5,0,0.8,0.1c0.7,0.1,0.8,0,0.4-0.3c-1.1-0.8-2.2-1.5-3.3-2.3c-0.3-0.2-0.5-0.5-1-0.7c-0.1,0,0-0.1,0.1-0.1
			c0.2,0,0.1,0.1,0.3,0.1c0.2,0,0.1-0.1,0.1-0.1c0-0.3,0.4-0.5,0.9-0.6c0.2-0.1,0.4-0.1,0.7-0.2c-0.5,0-0.9,0.1-1.4,0.1
			c0.5-0.3,1.3-0.4,2.2-0.5c0.1,0,0.2,0,0.2,0c-0.1,0-0.2,0-0.3,0c-0.6,0-1.2,0-1.7,0.1c-0.6,0.1-1.2,0.2-1.1,0.5
			c0.1,0.2,0,0.4,0,0.6c-0.7-0.3-1-0.7-1.5-1.1c-0.2-0.2,0.1-0.3,0.3-0.4c1-0.7,2.5-1.2,4.5-1.6c0.1,0,0.1,0,0.2,0
			c0.2,0.1-0.1,0.2,0,0.3c0,0,0,0,0,0.1V54c0,0.1-0.1,0.2,0.3,0.4c0-0.2-0.1-0.3-0.1-0.4C127.2,53.9,127.2,53.9,127.2,53.8
			L127.2,53.8z M127.8,55.6L127.8,55.6L127.8,55.6c-0.6-0.2-1.1-0.5-1.7-0.7c-0.1,0-0.2-0.1-0.3,0V55
			C126.5,55.1,126.9,55.4,127.8,55.6z M127.2,54.2c-0.2,0.2,0.1,0.3,0.2,0.5C127.6,54.5,127.4,54.4,127.2,54.2z"/>
		<path class="st13" d="M168.2,80.2c1.2-0.3,2.4-0.6,3.9-0.6c2.4,0,4.7,0.3,6.9,1c0.3,0.1,0.5,0.2,0.1,0.3c-1.6,0.5-3.3,0.9-5.2,1.1
			c-0.4,0.1-0.8,0.2-1.2,0.2c-0.5,0-0.8,0.2-1.5,0.1c-0.3,0-0.7,0.1-1.1,0.1c-0.6,0-1.2,0-1.8,0c-1.3-0.1-2.2-0.5-2.3-1
			c-0.1-0.6,0.6-0.9,1.5-1.2C167.8,80.3,168,80.2,168.2,80.2z"/>
		<path class="st13" d="M188.1,76c0.1-0.4,0.2-0.9,0.7-1.2c0.9-0.6,2.4-1,4.1-1.2c0.5-0.1,1.1-0.1,1.7-0.1c1.6,0,2.6,0.6,2.1,1
			c-0.6,0.6-1.5,1.1-2.4,1.5c-1.1,0.5-2.5,0.9-4,1.3c-0.4,0.1-0.7,0.1-1-0.1c-0.5-0.3-0.8-0.7-1-1C188.3,76.2,188.3,76.1,188.1,76
			L188.1,76z"/>
		<path class="st9" d="M127.3,66.1c0.3,0.2,0.8,0.3,1,0.5c-1-0.2-1.7-0.6-2.7-0.8c0.1,0.2,0.4,0.2,0.6,0.3c1,0.3,1.9,0.6,2.9,0.9
			c0.1,0,0.4,0.1,0.3,0.2c-0.1,0.1-0.3,0-0.4-0.1c-1-0.3-2-0.6-3-0.9c-0.2-0.1-0.3-0.1-0.7-0.1c1.3,0.4,2.5,0.8,3.6,1.2
			c-0.8-0.1-1.3-0.4-2.1-0.5c0,0.1,0.5,0.2,0.5,0.3c-0.9-0.2-1.6-0.4-2.4-0.7c-0.3-0.1-0.5-0.2-0.8-0.2c-0.3,0.1,0.2,0.2,0.2,0.3
			c0.1,0.4,0.3,0.7,0.7,1.1c0.4,0.4,0.5,0.8,1.4,1.1c0,0,0,0,0.1,0c0.4,0.1,0.8,0.4,1.2,0.3s-0.3-0.3-0.5-0.4
			c-0.1,0-0.2-0.1-0.3-0.2c2.1,0.3,4,0.8,5,1.6c-0.9-0.2-1.9-0.3-2.9-0.5c-1.3-0.3-2.5-0.6-3.8-0.9c-0.7-0.2-1.3-0.4-1.6-0.7
			c-0.8-0.7-1.3-1.3-1.1-2c0.2-0.4,0.9-0.6,2.1-0.5c1.7,0.2,3.2,0.5,4.6,1c0.2,0.1,0.4,0.2,0.5,0.2c0.2,0.1,0.2,0.2,0,0.2
			c-0.2,0.1-0.4,0-0.5-0.1C128.6,66.5,128.1,66.3,127.3,66.1z"/>
		<path class="st12" d="M138.2,56.1c-0.1-0.3-0.2-0.7,0.4-0.8c0.7-0.2,1.9-0.1,2.6,0.2c0.2,0.1,0.2,0.1,0.1,0.2
			c-0.1,0.1-0.2,0.1-0.4,0c-0.4-0.1-0.7-0.1-0.8,0.1c-0.4,0.3-0.3,0.6-0.2,0.9c0,0.1,0.1,0.1,0.2,0.1c0.2,0,0.1,0,0.1-0.1l0,0
			c0.1-0.1-0.3-0.3,0.1-0.3c0.4,0,0.6,0.2,0.7,0.3c0.1,0.1,0.5,0.4-0.3,0.3c0.8,0.3,1.8,0.6,1.9,1c0.1,0.2-0.4,0.4-0.7,0.5
			c-1.3-1.8-6.1-3.4-10.6-2.7c-0.2-0.1,0-0.2,0-0.2c0.1-0.3-0.7-0.8-1.6-0.9c-1.1-0.1-1.2-0.1-0.9-0.5c0.3,0,0.5,0.3,0.8,0.1
			c0.4-0.1-0.2-0.3-0.3-0.5C132.2,54.5,135.1,55.3,138.2,56.1z M131.9,55.5c0.1-0.2-0.1-0.4-0.7-0.6c-0.1,0-0.3-0.1-0.4,0
			c-0.1,0,0,0.1,0.1,0.1C131.6,55.1,131.6,55.3,131.9,55.5z M131.9,55.5C131.8,55.5,131.8,55.5,131.9,55.5
			C131.8,55.5,131.8,55.5,131.9,55.5C131.8,55.6,131.9,55.6,131.9,55.5L131.9,55.5z"/>
		<path class="st9" d="M180.2,77.6c0.4,0,0-0.2,0.4-0.2c0.6,0,0.9,0.1,0.8,0.4c0,0.1,0,0.1-0.1,0.3c0.4-0.1,0.4-0.2,0.5-0.3
			c0.1-0.2,1-0.4,1.7-0.3c0.6,0.1,1.2,0.4,1.2,0.7c-0.1,0.4-0.5,0.7-0.9,1c-0.2,0.1-0.3,0-0.5,0c-0.6-0.3-1.2-0.3-1.8-0.2
			c-0.6,0.1-1,0.3-1.4,0.5c-0.1,0-0.1,0.2-0.4,0c-1.2-0.4-2.4-0.6-3.7-0.7c-0.1,0-0.3,0-0.5,0c0.2-0.3,0.8-0.4,1.3-0.6
			c0.1,0,0.3,0,0.4,0.1c0.7,0.3,1.3,0.2,2,0.2c0.1,0,0.3,0,0.2-0.1s-0.2-0.1-0.4-0.1c-0.1,0-0.3,0.1-0.4,0c-0.3,0-0.6,0-0.9-0.1
			c-0.1,0-0.2-0.1-0.1-0.2c0.2-0.1,0.4-0.2,0.9-0.1c1,0.1,1.7,0,2-0.3C180.4,77.7,180.3,77.6,180.2,77.6L180.2,77.6z"/>
		<path class="st10" d="M135.6,65.1c-0.6-0.3-1.2-0.6-1.8-0.8c-0.7-0.3-0.5-0.5-0.6-0.8c-0.2-0.5,0-0.9,0.2-1.3
			c0.1-0.1,0.3-0.1,0.6-0.1c0.4,0,0.4,0.1,0.4,0.2c0,0.6,0,1.2,0.4,1.9c0.1,0.2,0.2,0.3,0.7,0.3c0.3,0,0.5,0.1,0.5,0.2
			c0,0.2,0.3,0.2,0.7,0.2c0.3,0,0.7-0.1,1.2-0.1c-0.5,0.3-0.8,0.5-1.2,0.7c-0.2,0.1-0.2,0.2,0.2,0.3c0.1,0,0.4,0.1,0.3,0.2
			c-0.4,0.2,0.2,0.3,0.5,0.4c0.6,0.3,1,0.6,1.5,1c-0.9-0.3-1.5-0.6-2.3-0.9c-0.5-0.2-0.8-0.3-1.4-0.5c-0.4-0.1-0.8-0.2-1.3-0.2
			c-0.1,0-0.2,0-0.3-0.1c-0.6-0.5-1.1-1.1-0.9-1.7C133.9,64.4,134.7,64.8,135.6,65.1C135.5,65.1,135.6,65.1,135.6,65.1z"/>
		<path class="st9" d="M179.8,81.6c-2.8,0.7-5.6,1.3-8.8,1.6c-0.8,0.1-1.7,0.1-2.6,0c-0.4,0-0.8-0.1-0.7-0.2c0-0.1,0-0.3,0.6-0.3
			c2.7,0.2,4.7-0.2,6.7-0.6c1.8-0.4,3.5-0.8,5.1-1.2c0.5-0.1,0.9-0.3,1.3-0.4c0.3-0.1,0.5,0,0.8,0.1s0.4,0.2,0.1,0.3
			C181.4,81.1,180.6,81.5,179.8,81.6z"/>
		<path class="st14" d="M172.6,79.3c1.1-0.4,2.3-0.5,4-0.3c1.1,0.1,2.2,0.2,3.1,0.7c0.3,0.1,0.3,0,0.4,0c0.4-0.3,0.9-0.5,1.6-0.6
			c0.3-0.1,0.6-0.1,1,0c0.5,0.1,0.7,0.3,0.5,0.4c-0.8,0.5-2,0.8-3.1,1.2c-0.1,0-0.3,0.1-0.5,0c-2-0.7-4.3-1.1-6.7-1.2
			C172.8,79.4,172.8,79.4,172.6,79.3z"/>
		<path class="st13" d="M128.4,53.4c-0.1-0.2-0.3-0.2-0.6-0.2c-0.5,0.1-1,0.1-1.4,0.2c-2,0.5-3.8,1-4.8,1.9
			c-0.1,0.1-0.2,0.2-0.2,0.3c-0.1,0.2-0.1,0.3,0.7,0.3c0,0.1-0.2,0.1-0.3,0.1c-0.3,0.2-0.8,0.3-1.6,0.2c-0.6-0.1-1.1-0.5-1.2-0.7
			c0-0.2,0.1-0.4,0.1-0.6c0-0.1,0-0.1,0.2-0.1c1.6,0.1,2.5-0.2,3.5-0.5s1.7-0.6,2.3-1c0.4-0.2,0.4-0.5,0.6-0.7
			c0.1-0.1,0.2-0.2,0.6-0.1c0.7,0,1.4,0.1,1.9,0.4C128.7,52.9,128.8,53.1,128.4,53.4z"/>
		<path class="st13" d="M119.8,54c-0.4,0.2-1.1,0.1-1.4-0.1c-0.8-0.3,0-0.5-0.1-0.7c0.1,0,0.2,0,0.2,0c0.3,0.1,0.5,0.3,1,0.3
			c0.4,0,0.5-0.2,0.6-0.3s0.1-0.1,0.5,0c-0.4-0.2-0.8-0.4-1.2-0.6c-0.2,0.1,0.2,0.1,0.1,0.2c-0.7-0.1-1.3-0.2-1.3-0.6
			c0-0.4,0.6-0.7,1.4-0.7c0.4,0,0.6,0.1,0.7,0.2c0.2,0.2,0.2,0.4,0.2,0.6c0,0.2,0.2,0.4,0.7,0.5c0.3,0.1,0.6,0.1,0.8,0
			c0.4-0.2,0.5-0.4,0-0.6c-0.7-0.3,0.1-0.2,0.3-0.3c0.4-0.1,0.6,0,0.8,0.2c0.1,0.1,0.1,0.1,0.2,0.2c0.6,0.5,0.5,0.5-0.6,0.7
			c-1.2,0.2-1.9,0.7-2.3,1.2c-0.1,0.1-0.1,0.1-0.1,0.2C120,54.2,120,54.1,119.8,54z M119.8,52.6c0.2,0.2,0.6,0.3,0.9,0.5
			c0.1,0,0.1,0,0.2,0c-0.3-0.1-0.5-0.2-0.8-0.4c-0.4-0.2-0.5-0.4-1-0.6C119.2,52.3,119.5,52.4,119.8,52.6z M121,52.9
			c-0.4-0.3-0.9-0.6-1.3-0.9c-0.1,0,0-0.2-0.3-0.1c-0.2,0-0.1,0.1,0,0.2C119.9,52.3,120.3,52.6,121,52.9z M119.2,52.4L119.2,52.4
			C119.3,52.4,119.3,52.4,119.2,52.4C119.3,52.4,119.3,52.4,119.2,52.4C119.3,52.4,119.3,52.4,119.2,52.4z"/>
		<path class="st13" d="M154.9,62c-0.1-0.6-1.1-1.2-2-1.8c-0.3-0.2-0.9-0.4-1.4-0.6c-0.3-0.1-0.2-0.2,0.1-0.2
			c1.8-0.1,5.2,0.9,5.7,1.7c0.1,0.2,0.1,0.2-0.3,0.3C156.3,61.5,155.6,61.7,154.9,62z"/>
		<path class="st9" d="M194,77.2c-1.6,0.5-3.1,0.7-4.7,0.9c-0.2,0-0.5,0.1-0.7,0s0.1-0.1,0.3-0.2c2.1-0.4,4.1-0.9,5.7-1.6
			c1.2-0.4,2-1,2.6-1.6c0.1-0.1,0.2-0.3,0.1-0.5c0-0.1,0.1-0.2,0.5-0.2s0.6,0.1,0.7,0.2c0.2,0.2,0.1,0.4-0.1,0.6
			C197.3,75.8,195.9,76.7,194,77.2z"/>
		<path class="st14" d="M188.1,76c-0.2,0.4,0.3,0.8,0.8,1.1c0.6,0.4,0.7,0.4-0.3,0.6c-0.6,0.1-1.2,0.2-1.9,0.3c-0.4,0-0.7,0-1.1-0.1
			c-0.5-0.1-0.8-0.3-0.5-0.4c0.3-0.2,0.8-0.4,1.4-0.4c0.4,0,0.4-0.1,0.3-0.3c-0.5-0.7-0.4-1.2,0.5-1.7c0.2-0.1,0.5-0.2,1-0.2
			c-0.1,0.3-0.4,0.5-0.3,0.8C187.9,75.8,187.8,75.9,188.1,76L188.1,76z"/>
		<path class="st13" d="M147.9,62c0,0.4,0.2,0.8-0.6,1c-0.3,0.1-0.7,0.2-0.7,0.4c0,0,0,0.1-0.2,0.1c-1.3-0.1-2.6-0.1-3.9-0.2
			c-0.4-0.1-0.7-0.2-0.9-0.3c-0.2-0.2,0-0.3,0.1-0.4c0,0,0.2,0,0.3,0c1.6,0.1,2.9,0,4.2-0.2C146.8,62.2,147.3,62.2,147.9,62z"/>
		<path class="st13" d="M128.6,55.8c0.1,0,0.1,0,0.2-0.1c0.5,0.1,0.9,0.1,0.9-0.1c0-0.2-0.1-0.3-0.8-0.4c-0.5-0.1-0.2-0.3-0.4-0.5
			c-0.1-0.1,0.2-0.1,0.4-0.1c0.7,0.1,1.3,0.2,1.7,0.5s0.2,0.7-0.3,0.8c-0.2,0-0.5,0-0.4,0.1c-0.6,0.1-0.9,0.3-1.3,0.5
			c-0.4,0-0.8,0.1-1.1,0.1c-0.3,0-0.6,0-0.9-0.1c-0.7-0.2-0.8-0.2-0.3-0.4c0.2-0.1,0.4-0.1,0.6-0.2c0.3-0.1,0.5-0.2,0.9,0.1
			c0.2,0.1,0.6,0.1,0.9,0.1C129,56.2,129,56,128.6,55.8z"/>
		<path class="st9" d="M184.6,76.3c0.3,0,0-0.1,0-0.2c-0.1-0.1-0.2-0.2,0.2-0.2s0.5,0.1,0.6,0.2s0.1,0.3,0.2,0.4
			c-0.1,0-0.2,0.1-0.1,0.1h0.1c0.1,0,0.1-0.1,0.1-0.1c0.2-0.1,0.2-0.3-0.1-0.5c-0.5-0.3-0.2-0.4,0.3-0.5c0.2,0.5,0,0.9,0.4,1.4
			c-0.6,0.2-1.2,0.3-1.8,0.5c-0.6-0.2-1.2-0.2-1.7-0.2c-0.1-0.3-0.1-0.3,0.6-0.2C184.4,77.1,185.1,76.7,184.6,76.3L184.6,76.3z"/>
		<path class="st10" d="M156.4,58c-1.1,0.5-2.4,0.8-4.3,0.9c0.6-0.3,1.3-0.6,1.5-1c0.1-0.1,0.5-0.1,0.8-0.1
			C155,57.8,155.6,57.9,156.4,58z"/>
		<path class="st3" d="M148.8,64.1c-0.2,0.1-0.6,0.1-1.1,0s-0.5-0.3-0.6-0.5c0-0.1,0-0.2,0.1-0.3c0.3-0.2,0.5-0.4,1.2-0.3
			c0.4,0,0.8,0.2,1,0.3C149.6,63.6,149.4,63.9,148.8,64.1z"/>
		<path class="st13" d="M136.4,62.3c0.6,0,1.1,0,1.5-0.1c0.1,0,0.3,0,0.4,0c0.9,0.3,1.7,0.3,2.5,0.2c0.1,0,0.2,0,0.3,0
			c-0.3,0.2-0.4,0.4-0.1,0.7C139.5,62.9,138,62.6,136.4,62.3z"/>
		<path class="st10" d="M136.7,67.3c0.1,0,0.1,0,0.2,0c0.5,0.1,0.6,0.4,1.3,0.5c0.6,0.1,0.8,0.4,1.3,0.7c-1-0.1-1.9-0.2-2.4-0.6
			c-0.2-0.1-0.4,0-0.6-0.1c-0.3-0.2-0.5-0.3-0.8-0.5l0,0c0.1,0,0-0.1-0.1-0.1l0,0c0-0.1-0.1-0.2-0.3-0.2l0,0c0.1,0,0-0.1-0.1-0.1
			l0,0c0.1,0,0.1,0,0-0.1l0,0c0.5,0.2,0.9,0.3,1.4,0.5L136.7,67.3c0,0,0,0.1,0.2,0.1C136.7,67.4,136.7,67.3,136.7,67.3z M136.3,67.5
			c0,0.1,0.1,0.1,0.3,0.2c-0.1-0.1-0.2-0.1-0.2-0.2C136.4,67.4,136.4,67.4,136.3,67.5C136.1,67.4,136.3,67.4,136.3,67.5z
			 M138.5,68.2c-0.1,0-0.1,0-0.1,0s0,0,0,0.1C138.4,68.2,138.5,68.2,138.5,68.2L138.5,68.2z M135.9,67.1c0,0,0.1,0,0.1,0.1
			c0.1,0,0.1,0,0.1,0s0,0-0.1,0C136,67.1,135.9,67.1,135.9,67.1z"/>
		<path class="st9" d="M184.3,79.6c-0.3-0.1-0.3-0.2-0.1-0.3c0.5-0.3,0.8-0.6,1-1c0-0.1-0.1-0.2,0.2-0.1c0.2,0,0.4,0.1,0.5,0.2
			c0.2,0.1,0.1,0.2,0.1,0.3c-0.3,0.3-0.5,0.7-0.8,1C185,79.8,184.8,79.8,184.3,79.6z"/>
		<path class="st10" d="M139.8,68c-2.2-0.5-3.9-1.2-5.6-2C136.3,66.6,138.4,67.2,139.8,68z"/>
		<path class="st10" d="M183.4,69.2c-0.7-0.1-1.1,0-1.6,0c-0.4,0-0.6,0-0.6-0.2c0-0.3-0.1-0.6-0.3-0.9
			C181.8,68.4,182.6,68.8,183.4,69.2z"/>
		<path class="st10" d="M151.5,58.6c-0.4,0.2-0.8,0.4-0.9,0.7c0,0.1-0.2,0.1-0.4,0.1c-0.3,0-0.2-0.1-0.3-0.2
			c-0.4-0.4-0.4-0.4,0.6-0.5C150.8,58.7,151,58.6,151.5,58.6z"/>
		<path class="st13" d="M154.5,62.1c-0.9-0.2-1.3-0.5-1.9-0.7c-0.1,0-0.2-0.1-0.1-0.1c0.1,0,0.2,0,0.4,0c0.4,0.1,0.8,0.3,1.2,0.4
			C154.6,61.8,154.3,62,154.5,62.1z"/>
		<path class="st9" d="M182.6,80c0.3-0.1,0.5-0.2,0.7-0.3c0.3-0.1,0.6-0.1,0.9,0.1c0.2,0.1,0.2,0.1-0.1,0.2
			C183.6,79.9,183.1,80,182.6,80z"/>
		<path class="st10" d="M157.8,62.4c-0.4-0.1-0.8-0.2-1.1-0.3c-0.1-0.1-0.4-0.1-0.3-0.2c0.1-0.1,0.3,0,0.5,0.1
			c0.1,0,0.3,0.1,0.4,0.1C157.8,62.1,158,62.2,157.8,62.4z"/>
		<path class="st13" d="M184.6,76.3c-0.2,0.1-0.1,0.4-0.5,0.5c-0.2,0.1-0.3,0.1-0.6,0.1c0.3-0.2,0.5-0.4,0.8-0.6
			C184.5,76.1,184.5,76.3,184.6,76.3L184.6,76.3z"/>
		<path class="st12" d="M142.1,61.1c-0.4-0.1-0.6-0.3-1-0.4c-0.1,0-0.4-0.1-0.3-0.2c0.1,0,0.3,0,0.4,0
			C141.9,60.6,142,60.8,142.1,61.1z"/>
		<path class="st13" d="M180.2,77.6c-0.4,0.1-0.6,0.4-1.6,0.3c0.5-0.1,0.9-0.2,1.2-0.3C180.1,77.5,180.1,77.6,180.2,77.6L180.2,77.6
			z"/>
		<path class="st10" d="M176.5,74c-0.3,0.3-0.8,0.5-1.5,0.6C175.5,74.4,176,74.2,176.5,74z"/>
		<path class="st10" d="M177.5,76c0.2,0,0.3,0.1,0.4,0.2c-0.6,0-1.1,0.1-1.9,0C176.5,76,177.2,76.2,177.5,76z"/>
		<path class="st9" d="M131,69.1c0.5,0.3,1.1,0.5,1.7,0.9C131.8,69.7,131.3,69.4,131,69.1z"/>
		<path class="st13" d="M118.8,52.7c0.3,0,0.5,0.1,0.7,0.2c0.2,0.1,0.1,0.1,0,0.2c-0.2,0-0.4,0-0.6-0.1
			C118.9,52.9,118.7,52.8,118.8,52.7z"/>
		<path class="st10" d="M152.2,58.6c-0.4,0.1-0.3,0.4-1,0.5C151.5,58.9,151.7,58.7,152.2,58.6z"/>
		<path class="st13" d="M121,52.3c0.3,0.1,0.6,0.1,0.7,0.2c0,0-0.2,0.1-0.4,0.1C121,52.5,121,52.4,121,52.3z"/>
		<path class="st12" d="M140.3,55.9c0.2-0.1,0.4,0,0.5,0.1c0.2,0.1,0,0.1-0.1,0.1c-0.1,0.1-0.3,0-0.4,0
			C140,55.9,140.3,55.9,140.3,55.9z"/>
		<path class="st10" d="M176.2,75.8c0.2,0,0.3,0.1,0.5,0.1c-0.3,0.1-0.6,0.1-1.1,0C175.7,75.8,176,75.9,176.2,75.8z"/>
		<path class="st10" d="M178.7,75.8c-0.2-0.1-0.3-0.2-0.3-0.3C178.8,75.6,178.7,75.7,178.7,75.8z"/>
		<path class="st10" d="M178.9,76.1c-0.1,0-0.2-0.1-0.3-0.1c0,0,0-0.1,0.1-0.1C179,76,178.9,76,178.9,76.1z"/>
		<path class="st10" d="M181.1,74.8c0.1,0,0.2,0.1,0.3,0.1c0,0,0.1,0.1-0.1,0.2C181.2,74.9,181.1,74.8,181.1,74.8z"/>
		<path class="st9" d="M129,66.8c0.3,0,0.4,0.1,0.6,0.2C129.3,66.9,129.1,66.9,129,66.8z"/>
		<path class="st10" d="M181.5,75.2h-0.1C181.4,75.2,181.4,75.2,181.5,75.2C181.5,75.1,181.5,75.2,181.5,75.2L181.5,75.2z"/>
		<path class="st9" d="M128.5,66.6c0.1,0,0.1,0,0.2,0.1l0,0C128.6,66.7,128.6,66.7,128.5,66.6L128.5,66.6z"/>
		<path class="st10" d="M176.3,77.3h-0.1H176.3z"/>
		<path class="st10" d="M151.2,59.2L151.2,59.2L151.2,59.2z"/>
		<path class="st12" d="M127.3,61.6c-0.1,0-0.2,0-0.2-0.1C127.2,61.5,127.3,61.5,127.3,61.6C127.3,61.5,127.3,61.6,127.3,61.6z"/>
		<path class="st15" d="M122.5,56.3C122.4,56.3,122.4,56.2,122.5,56.3L122.5,56.3C122.5,56.3,122.5,56.3,122.5,56.3z"/>
		<path class="st8" d="M135.2,66.9c0.2,0.1,0.3,0.1,0.3,0.2C135.3,67.1,135.2,67,135.2,66.9z"/>
		<path class="st8" d="M135.1,66.8c0.1,0,0.2,0.1,0.1,0.1C135.1,66.9,135,66.8,135.1,66.8z"/>
		<path class="st8" d="M135.5,67.1c0.1,0,0.2,0.1,0.1,0.1C135.5,67.2,135.4,67.2,135.5,67.1z"/>
		<path class="st8" d="M135.1,66.7C135.2,66.8,135.2,66.8,135.1,66.7C135,66.8,134.9,66.7,135.1,66.7z"/>
		<path class="st8" d="M163.2,64.3c0.3,0,0.4,0.1,0.2,0.1c-0.3,0.1-0.6,0.1-0.9,0.2c-1.5,0.4-2.9,0.8-4.2,1.3
			c-0.6,0.2-0.5,0.5-0.4,0.8c0,0.1,0,0.2,0,0.3c-0.2,0.4-1.3,0.5-2.4,0.2c-0.9-0.3-1.3-0.6-1.2-1s0.6-0.6,1.5-0.6
			c0.5,0,1,0.1,1.5,0.2c0.6-0.8,1.8-1.4,3.9-1.7c-1.3,0.3-2.4,0.7-3.1,1.3c0.4,0.1,0.4-0.1,0.5-0.1c0.8-0.4,2-0.6,2.9-1
			c0.2-0.1,0.8-0.1,1.2-0.2c0.1,0,0.3,0,0.4,0c0.2,0.1,0,0.1,0,0.2c-0.3,0.1-0.7,0.1-1,0.2c-0.5,0.1-1,0.3-1.5,0.4
			c-0.4,0.1-0.7,0.3-1.1,0.4c0.5-0.1,0.9-0.2,1.3-0.3c0.4-0.1,0.8-0.2,1.3-0.3C162.4,64.5,162.8,64.4,163.2,64.3z M157,66.9
			c0.1,0,0.3-0.1,0.4-0.2c0.3-0.2,0.1-0.5-0.3-0.7c-0.5-0.2-1.3-0.3-1.8-0.1c-0.3,0.1-0.5,0.2-0.6,0.3c-0.2,0.2,0.1,0.6,0.6,0.8
			C156,67,156.5,67,157,66.9z M159.3,65.4c-0.1,0-0.1,0-0.2-0.1c-0.3,0.1-0.5,0.2-0.5,0.3C158.9,65.5,159.1,65.5,159.3,65.4z"/>
		<path class="st8" d="M149.7,69.2c0.3,0.1,0.3,0,0.3-0.1c0.7-0.7,1.6-1.3,2.9-1.8c0.3-0.1-0.3-0.1-0.2-0.2c0-0.1-0.1,0-0.2,0
			c-1.1,0.3-2.1,0.6-2.5,1.1c-0.1,0.1-0.1,0.1-0.4,0.1c-0.2-0.1-0.3-0.1-0.2-0.2c1.1-0.5,1.7-1.2,4-1.3c0.1,0,0.3-0.1,0.3,0
			s0.4,0.1,0.1,0.2c-1.5,0.5-2.5,1.2-3.3,1.9c-0.2,0.2-0.5,0.4-0.4,0.6c0,0.1,0,0.1-0.2,0.1s-0.2-0.1-0.3-0.2c0-0.1,0-0.2,0.1-0.3
			C149.8,69.3,150,69.3,149.7,69.2L149.7,69.2z"/>
		<path class="st8" d="M166.7,69.6l0.1,0.1c0.2,0.4,0.9,0.9,0.4,1.3c-0.2,0.1-0.5,0.3-1.2,0c-0.1,0-0.2,0-0.3,0
			c-1.1-0.1-1.6-0.3-1.8-0.7c-0.3-0.4,0.1-0.8,0.8-0.9C165.4,69.2,166.2,69.3,166.7,69.6z M166.5,69.7c-0.5-0.2-1.2-0.3-1.7-0.2
			c-0.7,0.2-0.7,0.7-0.2,1c0.4,0.2,1.2,0.3,1.7,0.2C167,70.5,167.1,69.9,166.5,69.7z"/>
		<path class="st8" d="M149.7,69.2c-0.2,0-0.1,0.1-0.3,0.1s-0.2-0.1-0.1-0.1c0.3-0.5,1-0.8,1.6-1.2c0.1,0,0.1,0,0.2,0.1
			c-0.4,0.2-0.7,0.5-1,0.7C149.8,68.9,149.5,69,149.7,69.2L149.7,69.2z"/>
		<path class="st11" d="M162.1,64.5c0.3-0.1,0.7-0.1,1-0.2h0.1c-0.4,0.1-0.8,0.2-1.2,0.3C162,64.5,162,64.5,162.1,64.5z"/>
		<path class="st8" d="M145.9,70.1c0,0.4-0.1,0.8-0.9,1c-0.1,0-0.3,0.1-0.5,0s0.1-0.1,0.2-0.1c0.4-0.1,0.6-0.3,0.7-0.4
			c0.1-0.1,0.2-0.3,0.3-0.5C145.8,70.1,145.9,70.1,145.9,70.1z"/>
		<path class="st8" d="M144.8,69.2L144.8,69.2c0.2-0.1,0.1,0,0.1,0C144.9,69.2,144.8,69.2,144.8,69.2z"/>
		<path class="st8" d="M145.8,70L145.8,70c0.1-0.1,0.1-0.1,0.1-0.1V70C145.9,70.1,145.8,70.1,145.8,70z"/>
		<path class="st8" d="M145.9,69.9C145.9,69.9,145.9,70,145.9,69.9c0,0.1-0.1,0.1-0.1,0.1C145.8,69.9,145.8,69.9,145.9,69.9
			L145.9,69.9z"/>
		<path class="st8" d="M145.8,69.9C145.8,69.9,145.8,69.8,145.8,69.9C145.9,69.9,145.9,69.9,145.8,69.9
			C145.9,69.9,145.9,69.9,145.8,69.9z"/>
		<path class="st8" d="M131.2,57.1c0.8,0.4,1.6,0.8,2.4,1.1C133.1,58.2,132.4,57.9,131.2,57.1z"/>
		<path class="st8" d="M131.8,57.1c1,0.2,2.4,0.6,2.8,0.9C133.5,57.7,132.7,57.4,131.8,57.1z"/>
		<path class="st8" d="M133.5,57.2c-0.6-0.1-1.2-0.3-1.7-0.4C132.5,56.8,133.1,56.9,133.5,57.2C133.6,57.1,133.6,57.2,133.5,57.2z"
			/>
		<path class="st8" d="M131.2,57.7c0.5,0.2,0.7,0.4,0.9,0.6C131.5,58.1,131.4,57.9,131.2,57.7z"/>
		<path class="st8" d="M130,57.3c0.6,0.2,0.7,0.4,0.7,0.6h-0.1C130.2,57.8,130.2,57.6,130,57.3z"/>
		<path class="st8" d="M131.8,56.5C131.9,56.5,131.9,56.4,131.8,56.5c0.4-0.1,0.7,0,1.1,0c0,0,0.1,0.1,0,0.1
			C132.6,56.7,132.3,56.5,131.8,56.5z"/>
		<path class="st8" d="M160.8,60.3c0.5-0.2,1.8,0,2.2,0.4c0.3,0.3,0.8,0.5,0.7,0.8c0,0.2,0,0.3-0.7,0.3c-0.5,0-1,0.1-1.6,0
			c-0.2,0-0.5-0.1-0.6-0.2C160.1,61.3,160.1,60.5,160.8,60.3z M162.6,60.8c-0.5-0.2-1.2-0.3-1.5-0.2c-0.4,0.2-0.6,0.5-0.2,0.8
			c0.3,0.2,0.7,0.3,1.2,0.3C163,61.6,163.2,61.1,162.6,60.8z"/>
		<path class="st8" d="M126.4,55.5c-0.8,0.1-1.7,0.2-2.2,0.5c0.4-0.1,0.8-0.2,1.4-0.1c-0.2,0.1-0.4,0.1-0.7,0.2
			c-0.5,0.1-1,0.3-0.9,0.6c0,0.1,0,0.1-0.1,0.1c-0.2,0-0.2-0.1-0.3-0.1l0,0c0-0.2,0.1-0.4,0-0.6c-0.1-0.3,0.5-0.4,1.1-0.5
			C125.2,55.5,125.8,55.5,126.4,55.5L126.4,55.5z"/>
		<path class="st8" d="M127.8,55.6c-0.9-0.1-1.4-0.4-2-0.7v-0.1c0.1,0,0.2,0,0.3,0C126.7,55.1,127.2,55.3,127.8,55.6L127.8,55.6z"/>
		<path class="st8" d="M127.2,54.2c0.2,0.2,0.4,0.3,0.2,0.5C127.3,54.5,127.1,54.4,127.2,54.2z"/>
		<path class="st8" d="M127.2,53.9c0,0.1,0.1,0.2,0.1,0.4c-0.5-0.2-0.3-0.3-0.3-0.4C127.1,53.9,127.1,53.9,127.2,53.9z"/>
		<path class="st8" d="M126.4,55.4c0.1,0,0.2,0,0.3,0C126.6,55.5,126.5,55.5,126.4,55.4C126.4,55.5,126.4,55.5,126.4,55.4z"/>
		<path class="st8" d="M127.8,55.6L127.8,55.6L127.8,55.6z"/>
		<path class="st8" d="M127.2,53.8C127.2,53.9,127.2,53.9,127.2,53.8c-0.1,0.1-0.1,0.1-0.2,0v-0.1C127.1,53.8,127.1,53.8,127.2,53.8
			z"/>
		<path class="st8" d="M127.2,53.8L127.2,53.8c-0.1,0.1-0.1,0.1-0.2,0c0,0,0,0,0-0.1C127.1,53.8,127.1,53.8,127.2,53.8z"/>
		<path class="st8" d="M131.9,55.5c-0.3-0.2-0.3-0.4-1-0.5c-0.2,0-0.2-0.1-0.1-0.1c0.1-0.1,0.3,0,0.4,0
			C131.8,55,132,55.2,131.9,55.5z"/>
		<path class="st8" d="M131.9,55.5L131.9,55.5C131.9,55.6,131.8,55.6,131.9,55.5C131.8,55.5,131.8,55.5,131.9,55.5
			C131.8,55.5,131.8,55.5,131.9,55.5z"/>
		<path class="st8" d="M121,52.9c-0.7-0.2-1.1-0.5-1.6-0.8c-0.1-0.1-0.2-0.1,0-0.2c0.3,0,0.2,0.1,0.3,0.1
			C120.1,52.3,120.6,52.6,121,52.9z"/>
		<path class="st9" d="M120.1,52.6c0.3,0.1,0.5,0.2,0.8,0.4c-0.1,0-0.1,0-0.2,0c-0.3-0.1-0.7-0.3-0.9-0.5
			C119.9,52.6,120,52.6,120.1,52.6z"/>
		<path class="st8" d="M120.1,52.6c-0.1,0-0.2,0-0.3-0.1c-0.3-0.2-0.6-0.3-0.7-0.5C119.6,52.2,119.7,52.5,120.1,52.6z"/>
		<path class="st8" d="M119.2,52.4C119.3,52.4,119.3,52.4,119.2,52.4C119.3,52.4,119.3,52.4,119.2,52.4
			C119.3,52.4,119.3,52.4,119.2,52.4L119.2,52.4z"/>
		<path class="st8" d="M185.8,76.5c0,0.1,0,0.1-0.1,0.1h-0.1c-0.1-0.1,0-0.1,0.1-0.1C185.7,76.5,185.7,76.5,185.8,76.5z"/>
		<path class="st8" d="M136.4,67.5c0.1,0,0.1,0.1,0.2,0.2c-0.3,0-0.3-0.1-0.3-0.2C136.3,67.5,136.3,67.5,136.4,67.5z"/>
		<path class="st8" d="M138.5,68.2L138.5,68.2c0,0.1-0.1,0-0.1,0s0,0,0-0.1C138.4,68.1,138.4,68.1,138.5,68.2z"/>
		<path class="st8" d="M135.9,67.1c0.1,0,0.1,0,0.1,0s0,0,0.1,0c0,0,0,0-0.1,0C135.9,67.2,135.9,67.2,135.9,67.1z"/>
		<path class="st8" d="M136.3,67.5C136.3,67.4,136.1,67.4,136.3,67.5c0.1-0.1,0.1,0,0.1,0C136.3,67.5,136.3,67.5,136.3,67.5z"/>
		<path class="st8" d="M136.7,67.3l0.1,0.1C136.6,67.4,136.6,67.3,136.7,67.3C136.6,67.3,136.6,67.3,136.7,67.3z"/>
		<path class="st3" d="M157,66.9c-0.5,0.1-1,0.2-1.7,0c-0.5-0.2-0.8-0.5-0.6-0.8c0.1-0.1,0.3-0.2,0.6-0.3c0.5-0.1,1.3,0,1.8,0.1
			c0.5,0.2,0.7,0.6,0.3,0.7C157.3,66.8,157.1,66.8,157,66.9z"/>
		<path class="st11" d="M162.1,64.5L162.1,64.5c-0.4,0.2-0.8,0.3-1.3,0.4c-0.1,0-0.1,0-0.2-0.1C161.1,64.7,161.6,64.6,162.1,64.5z"
			/>
		<path class="st11" d="M160.6,64.8c0.1,0,0.1,0,0.2,0.1c-0.4,0.1-0.8,0.2-1.3,0.3C159.8,65.1,160.2,65,160.6,64.8z"/>
		<path class="st11" d="M159.3,65.4c-0.2,0.1-0.5,0.2-0.7,0.3c0-0.2,0.2-0.3,0.5-0.3C159.2,65.3,159.2,65.3,159.3,65.4z"/>
		<path class="st3" d="M166.5,69.7c0.5,0.3,0.4,0.8-0.2,0.9c-0.4,0.1-1.3,0-1.7-0.2c-0.6-0.3-0.5-0.8,0.2-1
			C165.3,69.4,166,69.5,166.5,69.7z"/>
		<path class="st10" d="M162.6,60.8c0.7,0.3,0.4,0.9-0.5,0.9c-0.5,0-1-0.1-1.2-0.3c-0.4-0.3-0.2-0.6,0.2-0.8
			C161.4,60.4,162.1,60.5,162.6,60.8z"/>
	</g>
</g>
</svg>
