<?xml version="1.0" encoding="utf-8"?>
<!-- Generator: Adobe Illustrator 25.2.0, SVG Export Plug-In . SVG Version: 6.00 Build 0)  -->
<svg version="1.1" id="Calque_1" xmlns="http://www.w3.org/2000/svg" xmlns:xlink="http://www.w3.org/1999/xlink" x="0px" y="0px"
	 viewBox="0 0 244.6 92.6" style="enable-background:new 0 0 244.6 92.6;" xml:space="preserve">
<style type="text/css">
	.st0{fill:#FFEACC;}
	.st1{fill:#FFFFFF;}
	.st2{fill:#121821;}
	.st3{fill:#640E13;}
	.st4{fill:#0D0B0D;}
	.st5{fill:#1F7E77;}
	.st6{opacity:0.2;fill:#121821;enable-background:new    ;}
</style>
<g>
	<polygon class="st1" points="221.1,61.2 138.5,84.1 21.6,31.4 104.2,8.5 	"/>
	<g>
		<path class="st2" d="M60.6,26.1l0.6-0.2l2.6,0.4l0,0l-1.5-0.7l0.6-0.2l2.4,1.1l-0.6,0.2l-2.6-0.4l0,0l1.5,0.7L63,27.2L60.6,26.1z"
			/>
		<path class="st2" d="M64.5,25.4l0.4,0.2l0.7-0.2l0.5,0.2l-0.7,0.2l0.4,0.2l0.7-0.2L67,26l-1.3,0.4l-2.4-1.1l1.3-0.4l0.5,0.2
			L64.5,25.4z"/>
		<path class="st2" d="M67.5,25.3L67.5,25.3l-1.1-0.8l0.5-0.1l2,0.6l0,0l-1.1-0.8l0.6-0.2l1.7,1.3l-0.6,0.2L67.7,25l0,0l0.9,0.8
			L68,26l-3.1-0.9l0.6-0.2L67.5,25.3z"/>
		<path class="st2" d="M73.2,24.4l-0.6,0.2l-1.9-0.8l-0.5,0.1l-0.5-0.2l1.6-0.4l0.5,0.2l-0.5,0.1L73.2,24.4z"/>
		<path class="st2" d="M74,23.5l-0.9-0.8l0.7-0.2l1.4,1.4L74.7,24l-3.4-0.8L72,23L74,23.5z"/>
	</g>
	<polygon class="st2" points="101.7,15.6 76.3,22.7 77.4,23.2 102.8,16.2 	"/>
	<ellipse transform="matrix(0.111 -0.9938 0.9938 0.111 78.9956 115.2223)" class="st2" cx="103.9" cy="13.5" rx="1.8" ry="5.1"/>
	<g>
		<path class="st3" d="M50.4,34.3L49,33.6L47.7,34l6.9,3.1l1-0.3l2.3,1.1l-4.6,1.3L51,38.1l1-0.3l-6.9-3.1l-1.3,0.4l1.4,0.7L43,36.4
			l-3.8-1.7l9.6-2.7l3.8,1.7L50.4,34.3z"/>
		<path class="st3" d="M68.1,35.2l-3.3,0.9l-12-3.4l-1,0.3l-2.3-1.1l4.6-1.3l2.3,1.1l-0.8,0.2l4.5,1.3c2.4,0.7,3.8,1.2,3.9,1.2h0.1
			c0,0-1-0.6-2.3-1.6l-2.7-1.9l-0.7,0.2L56.1,30l4.3-1.2l2.3,1.1l-1,0.3L68.1,35.2z"/>
		<path class="st3" d="M75.8,27.3l-1.4-0.7L73.1,27l6.9,3.1l1-0.3l2.3,1.1l-4.6,1.3l-2.3-1.1l1-0.3l-6.9-3.1l-1.3,0.4l1.4,0.7
			l-2.2,0.6l-3.8-1.7l9.6-2.7l3.8,1.7L75.8,27.3z"/>
		<path class="st3" d="M89.1,27.6l2.3,1.1l-4.5,1.2l-2.3-1.1l1-0.3l-6.9-3.1l-1,0.3l-2.3-1.1l4.5-1.2l2.3,1.1l-1,0.3l6.9,3.1
			L89.1,27.6z"/>
		<path class="st3" d="M102.5,23.9l2.3,1.1l-4.5,1.2L98,25.1l1-0.3l-1.3-0.6c-1.7-0.8-3.5-1.7-3.5-1.7h-0.1c0,0,0.7,0.6,1.4,1.4
			l1.1,1.1l-1.5,0.4l-2.8-0.6c-2-0.4-3.8-0.9-3.8-0.9h-0.1c0,0,2.1,0.9,3.8,1.7l1.3,0.6l0.9-0.2l2.3,1.1l-4.1,1.1l-2.3-1.1l1-0.3
			l-6.9-3.1l-1,0.3l-2.3-1.1l3.8-1l7.5,1.6h0.1l-2.8-3l3.7-1l2.3,1.1l-1,0.3l6.9,3.1L102.5,23.9z"/>
		<path class="st3" d="M106,24.7l-2.3-1.1l1-0.3l-6.9-3.1l-1,0.3l-2.3-1.1l8.5-2.3l3.7,1.7l-2.4,0.7l-1.4-0.6l-2.5,0.7l2.2,1
			l2.4-0.7l2.2,1l-2.4,0.7l2.5,1.1l2.6-0.7l-1.6-0.7l2.4-0.7l3.9,1.8L106,24.7z"/>
		<path class="st3" d="M114.4,19.7c1.1,0.5,2.3,0.6,3.3,0.3c1-0.3,1-0.6,0.2-0.9c-1-0.5-2.2-0.3-4-0.1c-1.8,0.2-4.3,0.4-6.8-0.8
			c-2.2-1-1.8-2,0-2.4c1-0.3,2.2-0.4,3.1-0.3l0,0l-0.5-0.3l2.2-0.6l3.9,1.8l-2.3,0.6l-0.4-0.2c-1.1-0.5-2.4-0.5-3.3-0.3
			c-0.8,0.2-1,0.5-0.3,0.8c1,0.4,2.2,0.3,3.6,0.2c2.2-0.2,4.7-0.4,7.2,0.7c2.4,1.1,1.9,2,0,2.5c-1.2,0.3-2.4,0.4-3.1,0.3h-0.1
			l0.5,0.3l-2.2,0.6l-4-1.8l2.3-0.6L114.4,19.7z"/>
	</g>
	<polygon class="st2" points="60.4,27.1 36.8,33.6 38,34.1 61.6,27.6 	"/>
	<polygon class="st2" points="76.2,34.2 52.6,40.7 53.8,41.3 77.4,34.7 	"/>
	<polygon class="st2" points="92.1,29.8 85.7,31.6 86.8,32.1 93.3,30.3 	"/>
	<polygon class="st2" points="163.4,59.4 149.8,63.1 151,63.7 164.5,59.9 	"/>
	<polygon class="st2" points="169,59.4 148.5,65.1 149.3,65.4 169.8,59.8 	"/>
	<g>
		<polygon class="st2" points="139.1,67.7 122.5,72.3 123.3,72.6 139.9,68 		"/>
		<polygon class="st2" points="143.9,68.8 125.9,73.8 126.7,74.1 144.6,69.2 		"/>
		<polygon class="st2" points="148.8,72.4 132.6,76.8 133.4,77.2 149.5,72.7 		"/>
		<polygon class="st2" points="133.4,70.5 124.2,73 125,73.4 134.2,70.8 		"/>
		<polygon class="st2" points="139.5,71.3 127.6,74.6 128.4,74.9 140.3,71.6 		"/>
		<polygon class="st2" points="139.9,72.4 129.3,75.3 130.1,75.7 140.6,72.7 		"/>
		<polygon class="st2" points="143.2,72.7 131,76.1 131.7,76.4 144,73 		"/>
	</g>
	<g>
		<polygon class="st2" points="143.4,66.5 142.1,66.9 142.9,67.2 144.2,66.8 		"/>
		<polygon class="st2" points="146.8,68 145.5,68.4 146.2,68.7 147.6,68.4 		"/>
		<polygon class="st2" points="153.5,71.1 152.2,71.4 153,71.8 154.3,71.4 		"/>
		<polygon class="st2" points="145.1,67.2 143.8,67.6 144.6,68 145.9,67.6 		"/>
		<polygon class="st2" points="148.5,68.8 147.2,69.1 147.9,69.5 149.3,69.1 		"/>
		<polygon class="st2" points="150.2,69.5 148.8,69.9 149.6,70.2 150.9,69.9 		"/>
		<polygon class="st2" points="151.8,70.3 150.5,70.7 151.3,71 152.6,70.6 		"/>
	</g>
	<g>
		<polygon class="st2" points="190.9,53.3 174.3,57.9 175.1,58.3 191.7,53.7 		"/>
		<polygon class="st2" points="195.7,54.5 177.7,59.5 178.5,59.8 196.4,54.8 		"/>
		<polygon class="st2" points="200.5,58 184.4,62.5 185.2,62.9 201.3,58.4 		"/>
		<polygon class="st2" points="185.2,56.2 176,58.7 176.8,59 186,56.5 		"/>
		<polygon class="st2" points="191.3,56.9 179.4,60.2 180.2,60.6 192.1,57.3 		"/>
		<polygon class="st2" points="191.6,58 181.1,61 181.8,61.3 192.4,58.4 		"/>
		<polygon class="st2" points="195,58.3 182.7,61.7 183.5,62.1 195.8,58.7 		"/>
	</g>
	<g>
		<polygon class="st2" points="195.2,52.2 193.9,52.5 194.7,52.9 196,52.5 		"/>
		<polygon class="st2" points="198.6,53.7 197.3,54 198,54.4 199.4,54 		"/>
		<polygon class="st2" points="205.3,56.7 204,57.1 204.8,57.4 206.1,57.1 		"/>
		<polygon class="st2" points="196.9,52.9 195.6,53.3 196.3,53.6 197.7,53.3 		"/>
		<polygon class="st2" points="200.3,54.4 198.9,54.8 199.7,55.2 201,54.8 		"/>
		<polygon class="st2" points="201.9,55.2 200.6,55.6 201.4,55.9 202.7,55.5 		"/>
		<polygon class="st2" points="203.6,56 202.3,56.3 203.1,56.7 204.4,56.3 		"/>
	</g>
	<polygon class="st2" points="174.9,65 162.5,68.4 163.2,68.8 175.6,65.3 	"/>
	<polygon class="st2" points="171.6,59.7 148.7,66 149.5,66.4 172.3,60 	"/>
	<polygon class="st2" points="172.9,60.3 150,66.6 150.8,67 173.7,60.6 	"/>
	<polygon class="st2" points="174.3,60.9 151.4,67.2 152.2,67.6 175,61.3 	"/>
	<polygon class="st2" points="175.6,61.5 152.7,67.9 153.5,68.2 176.4,61.9 	"/>
	<polygon class="st2" points="177,62.1 154.1,68.5 154.9,68.8 177.8,62.5 	"/>
	<polygon class="st2" points="165,66.4 155.5,69.1 156.2,69.4 165.8,66.8 	"/>
	<polygon class="st2" points="116.3,23.1 103.4,26.7 104.6,27.2 117.5,23.6 	"/>
	<g>
		<path class="st2" d="M96,29.6c-0.5,0.1-1.3,0.1-1.8-0.2c-0.5-0.2-0.6-0.5-0.1-0.7s1.3-0.1,1.8,0.2C96.4,29.2,96.5,29.5,96,29.6z
			 M94.4,28.9c-0.3,0.1-0.2,0.3,0.1,0.4s0.8,0.2,1.1,0.1c0.4-0.1,0.2-0.3-0.1-0.4C95.3,28.9,94.8,28.8,94.4,28.9z"/>
		<path class="st2" d="M96.9,28.4c-0.2,0-0.4,0-0.6,0c-0.3,0.1-0.2,0.3,0.1,0.4s0.8,0.2,1.1,0.1c0.1,0,0.2-0.1,0.2-0.2l0.4,0.2
			C98,29,98,29,97.8,29.1c-0.5,0.1-1.3,0-1.8-0.2s-0.6-0.5-0.1-0.7c0.1,0,0.3-0.1,0.5-0.1L96.9,28.4z"/>
		<path class="st2" d="M99.1,28.7l-0.3,0.1l-1.5-0.7l-0.4,0.1l-0.3-0.1l1.1-0.3l0.3,0.1L97.6,28L99.1,28.7z"/>
		<path class="st2" d="M99.1,27.6l-0.3-0.1l0.6-0.2l1.8,0.8l-0.3,0.1l-1.5-0.7L99.1,27.6z"/>
		<path class="st2" d="M100.4,27.4c-0.3-0.1-0.3-0.3,0-0.4s0.7-0.1,1,0.1c0.1,0.1,0.2,0.1,0.2,0.2c0.2,0,0.5,0.1,0.7,0.1
			c0.4,0.2,0.3,0.3,0,0.4s-0.8,0-1.2-0.1l0.3-0.1c0.2,0.1,0.4,0.1,0.5,0c0.2,0,0.1-0.1-0.1-0.2c-0.1-0.1-0.4-0.1-0.5-0.1h-0.1
			l-0.3-0.1l0,0c0.1,0,0.1-0.1,0-0.2s-0.3-0.1-0.4,0c-0.1,0-0.1,0.1,0,0.2L100.4,27.4z"/>
	</g>
	<g>
		<path class="st2" d="M119.6,23.1c-0.5,0.1-1.3,0.1-1.8-0.2c-0.5-0.2-0.6-0.5-0.1-0.7c0.5-0.1,1.3-0.1,1.8,0.2
			C120.1,22.6,120.1,22.9,119.6,23.1z M118,22.4c-0.3,0.1-0.2,0.3,0.1,0.4s0.8,0.2,1.1,0.1c0.4-0.1,0.2-0.3-0.1-0.4
			C118.9,22.4,118.4,22.3,118,22.4z"/>
		<path class="st2" d="M120.5,21.8c-0.2,0-0.4,0-0.6,0c-0.3,0.1-0.2,0.3,0.1,0.4s0.8,0.2,1.1,0.1c0.1,0,0.2-0.1,0.2-0.2l0.4,0.2
			c-0.1,0.1-0.1,0.1-0.3,0.2c-0.5,0.1-1.3,0-1.8-0.2s-0.6-0.5-0.1-0.7c0.1,0,0.3-0.1,0.5-0.1L120.5,21.8z"/>
		<path class="st2" d="M122.7,22.2l-0.3,0.1l-1.5-0.7l-0.4,0.1l-0.3-0.1l1.1-0.3l0.3,0.1l-0.4,0.1L122.7,22.2z"/>
		<path class="st2" d="M122.7,21.1l-0.3-0.1l0.6-0.2l1.8,0.8l-0.3,0.1L123,21L122.7,21.1z"/>
		<path class="st2" d="M124,20.8c-0.3-0.1-0.3-0.3,0-0.4s0.7-0.1,1,0.1c0.1,0.1,0.2,0.1,0.2,0.2c0.2,0,0.5,0.1,0.7,0.1
			c0.4,0.2,0.3,0.3,0,0.4s-0.8,0-1.2-0.1L125,21c0.2,0.1,0.4,0.1,0.5,0c0.2,0,0.1-0.1-0.1-0.2c-0.1-0.1-0.4-0.1-0.5-0.1h-0.1
			l-0.3-0.1l0,0c0.1,0,0.1-0.1,0-0.2s-0.3-0.1-0.4,0c-0.1,0-0.1,0.1,0,0.2L124,20.8z"/>
	</g>
	<polygon class="st4" points="158.4,71.2 158,71.3 142.7,64.4 143.2,64.3 	"/>
	<polygon class="st4" points="184.2,64.1 183.7,64.2 168.5,57.3 168.9,57.2 	"/>
	<path class="st4" d="M209.3,59.1l-70.9,19.6c-0.5,0.1-1.3,0.1-1.8-0.2l0,0c-0.5-0.2-0.5-0.5,0-0.7l70.9-19.6
		c0.5-0.1,1.3-0.1,1.8,0.2l0,0C209.8,58.7,209.8,59,209.3,59.1z"/>
	<path class="st5" d="M129.1,23.4c0,0-0.1,0.3-0.1,0C103.3,28.6,80,35,59.7,42.6c17.3,9.5,37.5,18.2,59.2,26.5c0-0.1,0-0.1,0,0
		c25.4-5.2,48.4-11.6,68.8-19C170.1,40.6,150.9,31.6,129.1,23.4z"/>
	<path class="st6" d="M132.4,28.4c-2.9-0.5-6.2-1-8.8-0.5C104,31,89.7,35.8,74.8,40.8c-3,1.1-4.4,3-1.6,4.7
		c11.2,6.9,25.3,12.7,40.9,18.3c1.3,0.5,3.2,0.7,4.9,0.9c3,0.2,5.8,0.2,8.1-0.2c16.9-3.5,32-7.7,45.6-12.7c3-1,3.8-3,1.3-4.6
		c-11.1-6.7-24.4-12.3-38.4-17.9C134.7,28.9,133.6,28.6,132.4,28.4z"/>
	<g>
		<path class="st5" d="M174.5,52.3c-4.2-1.7-11.1-2.4-16.4-2.7s-8.8-0.6-8.8-0.6s-2.3-0.6-3.8-0.7c-1.5-0.1-3.4-0.5-3.6-0.4
			c-0.3,0.1-0.3,0.3-0.3,0.3s-1.3-0.3-1.3-0.6s-0.2-2.1-1.3-2.6s-1.8-0.9-1.8-0.9s-1.5-2.1-3.8-3.2s-2.2-0.7-3.6-1.9
			c-1.4-1.2-5.8-2.9-5.8-2.9s2-1.1,2.4-1.9c0.4-0.8,0.6-1.2,0.6-1.2l-2.2,0.1c0,0,4.8-1.3,3.5-4.7c0,0-0.7,1.9-4.4,2.7
			c-3.7,0.9-5,3.3-5,3.3s-5.6-1.1-7.4-1.4s-1.8,2-2,2.3s-1.1,1.7-1.1,1.7s-7.1,1.5-7.5,2.4c-0.5,0.9-1.7,1.5-3.5,1.7
			c-1.8,0.3-4.8,0.8-4.8,0.8L96,42c0,0-6,3.4,1,6s13.9,1.7,15.8,1.8c1.9,0.1,4.6,0,6,0.6s3.4,1.8,6.9,2s8.8-0.1,9.3,0.1
			c0.5,0.2,1.6,3,1.6,3s-3.3,1-3.8,2.4s2.2,4.9,2.2,4.9s3.7,0.1,8.6,0.3c11.7-3,22.8-6.2,33.3-9.7C176.3,53.1,175.5,52.6,174.5,52.3
			z"/>
	</g>
</g>
</svg>
