<?xml version="1.0" encoding="utf-8"?>
<!-- Generator: Adobe Illustrator 25.2.0, SVG Export Plug-In . SVG Version: 6.00 Build 0)  -->
<svg version="1.1" id="Calque_1" xmlns="http://www.w3.org/2000/svg" xmlns:xlink="http://www.w3.org/1999/xlink" x="0px" y="0px"
	 viewBox="0 0 213.7 342.5" style="enable-background:new 0 0 213.7 342.5;" xml:space="preserve">
<style type="text/css">
	.st0{fill:#FFEACC;}
	.st1{fill:#F95421;}
	.st2{fill:#FCAF42;}
	.st3{fill:#924764;}
	.st4{fill:#121821;}
	.st5{fill:#CE2128;}
	.st6{fill:#E98E3A;}
</style>
<g style="display:none">
	<path class="st0" d="M8,8.5l197.1,11.1l0.1,30.7c0,0,0,0,0,0v0c0,0,0,0,0,0l0,3.5c0,0,0,0,0,0v0c0,0,0,0,0,0l0,3.5c0,0,0,0,0,0
		l0.5,228.9c0,0,0,0,0,0s0,0,0,0l0,3.5v0l0.1,27.2l-0.1,0l-79.2,6.9L8.7,333.8L8,8.5 M0,0l0,8.5l0.7,325.3l0,8.7l8.7-0.8l117.7-10.2
		l79.2-6.9l0.1,0l7.3-0.6l0-7.4l-0.1-27.2l0-3.5l-0.5-228.9l0-3.5l0-3.5l-0.1-30.7l0-7.5l-7.5-0.4L8.5,0.5L0,0L0,0z"/>
</g>
<g>
	<polygon class="st1" points="205.7,316.7 8.7,333.8 8,8.5 205.1,19.5 	"/>
	<path class="st2" d="M41.3,49.1c0,0.6-0.1,1.3-0.1,1.9v0c0,0.6,0,1.3,0.1,1.9c0-0.3,0-0.6,0.1-0.9l0-3.8
		C41.3,48.5,41.3,48.8,41.3,49.1z"/>
	<path class="st0" d="M115.1,92.4c-0.4-0.2-0.7-0.4-1-0.6c-0.3-0.2-0.6-0.5-0.9-0.8c-0.3-0.3-0.5-0.6-0.7-0.9
		c-0.2-0.3-0.3-0.7-0.4-1c-0.2-0.7-0.3-6.9-0.3-18.5l0.1-17.4l0.7-0.8c0.7-0.7,1.4-1.2,2.3-1.3c0.9-0.1,3-0.1,6.2,0
		c1.8,0.1,3.1,0.1,4,0.2c0.9,0.1,1.6,0.2,2.3,0.4c0.7,0.2,1.1,0.4,1.4,0.6c0.3,0.2,0.6,0.6,0.9,1.1c0.1,0.2,0.3,0.4,0.3,0.6
		c0.1,0.2,0.1,0.5,0.2,1.1c0,0.5,0.1,1.1,0.1,1.8l0,9.2l-0.7,1.2c-0.5,0.8-1.2,1.4-1.9,1.8c-0.7,0.4-1.4,0.5-2.3,0.5
		c-0.9,0-1.7-0.1-2.4-0.5c-0.8-0.3-1.3-0.7-1.6-1.3c-0.2-0.3-0.3-0.5-0.2-0.6c0.1-0.1,0.3-0.2,0.8-0.4c1-0.3,1.7-0.9,2.1-1.8
		c0.4-0.9,0.4-1.9,0.1-2.9c-0.4-1.1-0.9-1.9-1.7-2.3c-0.8-0.5-1.6-0.6-2.6-0.3c-1.4,0.3-2.4,1.3-3.1,3c-0.7,1.7-0.9,3.5-0.6,5.6
		c0.4,2.2,1.3,4.2,2.7,5.7c0.9,1,1.8,1.7,2.8,2.2c1,0.5,2.1,0.7,3.4,0.8c0.9,0,2-0.1,3-0.3c1.1-0.3,1.7-0.5,1.9-0.8
		c0.3-0.5,0.5-0.3,0.6,0.6c0.1,0.8,0.1,2.6,0.1,5.3c0,3.3-0.1,5.5-0.2,6.7c-0.1,1.2-0.4,2.1-0.9,2.7c-0.6,0.9-1.3,1.4-2.2,1.6
		c-0.8,0.2-2.7,0.3-5.7,0.3C118,92.8,115.9,92.7,115.1,92.4z"/>
	<path class="st0" d="M133.1,92.7c-0.2-0.2-0.3-1.5-0.4-3.8c0-2.3-0.1-7.9-0.1-16.8c0-9.7,0-15.5,0-17.4c0-1.8,0.2-2.8,0.5-3
		c0.4-0.2,3-0.2,7.9,0c3,0.1,5,0.2,6,0.3c1.1,0.1,1.8,0.3,2.2,0.5c0.7,0.3,1.2,0.7,1.7,1.2c0.5,0.5,0.9,1.1,1.3,1.9
		c0.2,0.4,0.3,0.8,0.4,1.2c0.1,0.4,0.1,1,0.2,1.7c0,0.8,0,2.1,0.1,3.9c0,0.8,0,1.5,0,2c0,0.5,0,1,0,1.6c0,0.5,0,1-0.1,1.3l-0.1,1
		c0,0.3-0.1,0.6-0.2,0.7c-0.1,0.2-0.2,0.4-0.3,0.5c-0.1,0.2-0.2,0.3-0.4,0.5c-0.2,0.1-0.4,0.3-0.6,0.4c-0.2,0.1-0.4,0.2-0.8,0.4
		c-0.9,0.5-1.4,0.8-1.4,0.9c0,0,0.1,0.1,0.3,0.3c0.2,0.2,0.5,0.3,0.8,0.5c0.4,0.2,0.8,0.4,1,0.6c0.2,0.2,0.5,0.4,0.7,0.6
		c0.2,0.2,0.4,0.6,0.5,0.9c0.1,0.4,0.2,0.8,0.3,1.3c0.1,0.5,0.2,1.1,0.2,1.9c0,0.8,0.1,1.6,0.1,2.5c0,0.9,0,2,0,3.4c0,0.7,0,1.4,0,2
		c0,0.6,0,1.1,0,1.6c0,0.5,0,0.9,0,1.3c0,0.4,0,0.7,0,1.1c0,0.3,0,0.6,0.1,0.8c0,0.2,0.1,0.4,0.1,0.6c0,0.2,0.1,0.3,0.1,0.5
		c0,0.1,0.1,0.3,0.1,0.3c0.1,0.2,0.1,0.3,0.2,0.4c0.1,0.1,0.1,0.3,0.1,0.4c0,0.1,0.1,0.2,0.1,0.3l0,0.1c0,0.1-0.2,0.1-0.6,0.1
		c-0.4,0-0.9,0-1.4-0.1c-1.8-0.2-3.4-0.7-4.8-1.7c-1.4-1-2.7-2.5-3.9-4.4c-1.7-2.8-2.6-5.8-2.8-9.1c-0.2-3.5,0.3-6.4,1.6-8.9
		l0.9-1.8l1.3,0.1c0.5,0.1,1.1,0,1.5-0.1c0.5-0.2,0.9-0.4,1.2-0.7c0.3-0.3,0.6-0.7,0.8-1.2c0.2-0.5,0.3-1,0.3-1.6
		c0-1.1-0.3-2.1-1-2.8c-0.6-0.7-1.5-1.1-2.6-1.1c-1.1,0-2,0.3-2.7,1c-0.7,0.7-1.3,1.8-1.8,3.4c-0.5,1.6-0.9,3.9-1.3,6.8
		c-0.2,1.5-0.3,2.7-0.3,3.5c0,0.8,0.1,2,0.2,3.5c0.2,2,0.5,4.3,1.1,6.7c0.6,2.4,1.1,4.4,1.8,6l0.8,2.1l-4.3-0.1
		C135,93.2,133.4,93,133.1,92.7z"/>
	<path class="st0" d="M155.9,92.7l0-19.7c0-13.1,0.1-19.8,0.4-20.1c0.1-0.1,0.3-0.2,0.5-0.2c0.2-0.1,0.6-0.1,1.2-0.1
		c0.6,0,1.3,0,2.1,0c0.9,0,2.1,0.1,3.6,0.1c1.5,0.1,2.6,0.1,3.4,0.2c0.8,0,1.6,0.1,2.4,0.2c0.8,0.1,1.3,0.2,1.7,0.2
		c0.3,0.1,0.7,0.2,1,0.4c0.3,0.2,0.6,0.4,0.7,0.6c0.2,0.2,0.3,0.5,0.5,0.8c0.3,0.5,0.5,1.1,0.5,1.7c0.1,0.6,0.1,2.2,0.1,4.7l0,5.3
		l-0.8,1.1c-0.5,0.7-1.1,1.2-1.8,1.5c-0.6,0.3-1.4,0.3-2.3,0.2c-0.9-0.1-1.5-0.4-1.9-0.8c-0.3-0.3-0.4-0.5-0.4-0.6
		c0-0.1,0.3-0.4,0.7-0.9c0.4-0.4,0.6-0.7,0.7-1c0.1-0.3,0.1-0.8,0.1-1.5s-0.1-1.3-0.2-1.5c-0.1-0.3-0.4-0.7-0.8-1.2
		c-0.3-0.3-0.6-0.6-0.8-0.7c-0.2-0.1-0.5-0.3-0.9-0.3c-0.4-0.1-0.8-0.1-1.3,0c-0.9,0-1.6,0.4-2.1,1.1c-0.5,0.7-0.8,1.6-0.8,2.8
		c0,1.7,0.6,3.2,1.7,4.5c1.1,1.3,2.7,2.2,4.6,2.6c1,0.2,2.2,0.5,3.5,0.6c0.9,0.1,1.5,0.2,1.6,0.3c0.2,0.1,0.3,0.3,0.3,0.7
		c0,0.3-0.1,0.5-0.2,0.6c-0.1,0.1-0.4,0.1-1,0.1c-1,0-2.2,0.1-3.4,0.3c-1.2,0.2-2.2,0.5-2.9,0.8c-2.8,1.3-4.2,3.4-4.2,6.2
		c0,0.5,0,0.9,0,1.1c0,0.2,0.1,0.5,0.3,0.7c0.1,0.2,0.3,0.5,0.6,0.8c0.5,0.6,1.1,1,1.7,1.2c0.7,0.2,1.4,0.2,2,0
		c0.7-0.2,1.2-0.6,1.6-1.2c0.2-0.3,0.3-0.6,0.4-1c0.1-0.4,0.1-0.8,0.1-1.4c0-0.7-0.1-1.3-0.2-1.5c-0.1-0.3-0.4-0.7-0.8-1.1l-0.9-1
		l0.7-0.4c0.5-0.4,1.1-0.6,1.8-0.7c0.7-0.1,1.3,0,2,0.2c0.6,0.2,1.2,0.5,1.6,1c0.7,0.8,1.1,1.6,1.3,2.6c0.2,1,0.3,2.8,0.2,5.3
		c0,1.8-0.1,3.2-0.2,4c-0.1,0.8-0.3,1.4-0.5,1.9c-0.2,0.4-0.7,0.8-1.2,1.2c-0.4,0.2-1,0.4-1.8,0.4c-0.9,0-2.9,0.1-6.1,0.1
		c-3.1,0-5.1-0.1-6-0.1c-0.9-0.1-1.5-0.2-1.7-0.4L155.9,92.7z"/>
	<path class="st0" d="M176.2,93.1l0-19.5c0-13,0.1-19.6,0.4-20c0.1-0.1,0.3-0.2,0.5-0.2c0.2-0.1,0.6-0.1,1.1-0.1c0.6,0,1.3,0,2.1,0
		c0.8,0,2,0.1,3.6,0.1c1.4,0.1,2.5,0.1,3.3,0.2c0.8,0,1.6,0.1,2.3,0.2c0.7,0.1,1.3,0.2,1.6,0.2c0.3,0.1,0.7,0.2,1,0.4
		c0.3,0.2,0.6,0.4,0.7,0.6c0.2,0.2,0.3,0.5,0.5,0.8c0.3,0.5,0.4,1.1,0.5,1.7c0.1,0.6,0.1,2.2,0.1,4.6l0,5.3l-0.7,1.1
		c-0.5,0.7-1.1,1.2-1.8,1.5c-0.6,0.3-1.4,0.3-2.2,0.2c-0.9-0.1-1.5-0.4-1.8-0.8c-0.3-0.3-0.4-0.5-0.4-0.6c0-0.1,0.2-0.4,0.7-0.8
		c0.4-0.4,0.6-0.7,0.7-1c0.1-0.3,0.1-0.8,0.1-1.5c0-0.7-0.1-1.2-0.1-1.5c-0.1-0.3-0.4-0.7-0.8-1.1c-0.3-0.3-0.6-0.6-0.8-0.7
		c-0.2-0.1-0.5-0.3-0.9-0.3c-0.3-0.1-0.8-0.1-1.3,0c-0.9,0-1.6,0.4-2.1,1.1c-0.5,0.7-0.8,1.6-0.8,2.8c0,1.7,0.6,3.2,1.7,4.4
		c1.1,1.3,2.6,2.1,4.5,2.6c1,0.2,2.1,0.4,3.4,0.6c0.9,0.1,1.4,0.2,1.6,0.3c0.2,0.1,0.3,0.3,0.3,0.6c0,0.3-0.1,0.5-0.2,0.6
		c-0.1,0.1-0.4,0.1-0.9,0.1c-1,0-2.1,0.1-3.3,0.3c-1.2,0.2-2.1,0.5-2.8,0.8c-2.8,1.3-4.1,3.3-4.1,6.1c0,0.5,0,0.9,0,1.1
		c0,0.2,0.1,0.5,0.3,0.7c0.1,0.2,0.3,0.5,0.6,0.8c0.5,0.6,1,0.9,1.7,1.2c0.7,0.2,1.3,0.2,2,0c0.7-0.2,1.2-0.6,1.6-1.1
		c0.2-0.3,0.3-0.6,0.4-0.9c0.1-0.4,0.1-0.8,0.1-1.4c0-0.7-0.1-1.2-0.1-1.5c-0.1-0.3-0.4-0.7-0.8-1.1l-0.9-1l0.7-0.4
		c0.5-0.4,1.1-0.6,1.8-0.7c0.7-0.1,1.3,0,1.9,0.2c0.6,0.2,1.1,0.5,1.6,1c0.7,0.7,1.1,1.6,1.3,2.6c0.2,1,0.2,2.7,0.2,5.3
		c0,1.8-0.1,3.1-0.2,3.9c-0.1,0.8-0.3,1.4-0.5,1.8c-0.2,0.4-0.6,0.8-1.2,1.2c-0.4,0.2-1,0.4-1.8,0.4c-0.8,0-2.8,0.1-5.9,0.1
		c-3,0-5-0.1-5.9-0.1c-0.9-0.1-1.5-0.2-1.7-0.4L176.2,93.1z"/>
	<path class="st0" d="M91.6,141.3c-0.2-0.1-0.4-1.2-0.5-3.3c-0.1-2.1-0.1-7.9-0.1-17.5c0-13.7,0.1-20.7,0.3-20.9
		c0.2-0.3,2.8-0.3,7.6-0.3c3.3,0.1,5.3,0.1,6.2,0.2c0.9,0.1,1.5,0.3,2,0.6c0.4,0.2,0.7,0.5,1.1,0.8c0.4,0.3,0.7,0.7,1,1.1
		c0.3,0.4,0.6,0.8,0.8,1.2c0.2,0.4,0.4,0.8,0.5,1.2c0.1,0.2,0.1,0.7,0.2,1.4c0,0.8,0.1,1.8,0.1,3.2c0,1.4,0.1,3.1,0.1,5.1
		c0,2,0,4.4,0,7.2l0,15.7l-0.8,1.5c-0.3,0.7-0.6,1.1-0.9,1.4c-0.3,0.3-0.7,0.6-1.3,0.9c-0.4,0.2-0.7,0.4-0.9,0.5
		c-0.2,0.1-0.6,0.2-1.3,0.2c-0.7,0.1-1.5,0.1-2.2,0.1l-4.2,0C94.6,141.7,92,141.6,91.6,141.3z M102.5,132.2c0.5-0.5,0.9-1.1,1.2-1.9
		c0.3-0.7,0.5-1.7,0.6-2.9c0.1-1.2,0.2-2.9,0.2-5.1c0.1-5.4-0.1-9.2-0.8-11.3c-0.7-2.1-2-3.2-3.8-3.2c-0.3,0-0.6,0-0.8,0
		c-0.2,0-0.4,0.1-0.6,0.2c-0.2,0.1-0.3,0.2-0.5,0.3c-0.2,0.1-0.3,0.3-0.5,0.5c-0.4,0.4-0.7,0.8-0.8,1.1c-0.1,0.3-0.2,0.8-0.2,1.4
		c0,1.4,0.4,2.4,1,3.1c0.7,0.7,1.7,1,2.9,1c0.6,0,1,0,1.2,0.1c0.2,0.1,0.4,0.4,0.6,0.9c0.4,0.8,0.5,2.1,0.5,4c0,1.9-0.2,3.2-0.6,4
		c-0.1,0.3-0.2,0.5-0.3,0.6c-0.1,0.1-0.2,0.3-0.3,0.3c-0.1,0.1-0.2,0.1-0.3,0.1c-0.1,0-0.2,0-0.4,0c-0.4-0.1-0.9-0.1-1.3,0
		c-0.5,0.1-0.9,0.3-1.3,0.5c-0.4,0.2-0.7,0.5-1,0.8c-0.4,0.5-0.7,1.3-0.7,2.2c-0.1,0.9,0.1,1.7,0.4,2.3c0.2,0.4,0.4,0.7,0.8,1
		c0.3,0.3,0.7,0.5,1.2,0.6c0.4,0.1,0.8,0.2,1.3,0.2c0.4,0,0.8-0.1,1.2-0.2C101.9,132.7,102.2,132.5,102.5,132.2z"/>
	<path class="st0" d="M113.3,140.7l0-20c0-13.4,0.1-20.2,0.4-20.6c0.1-0.1,0.3-0.2,0.5-0.2c0.2-0.1,0.6-0.1,1.2-0.1
		c0.6,0,1.3,0,2.2,0c0.9,0,2.2,0,3.8,0c1.5,0,2.7,0.1,3.5,0.1c0.8,0,1.7,0.1,2.5,0.2c0.8,0.1,1.4,0.1,1.7,0.2
		c0.4,0.1,0.7,0.2,1.1,0.4c0.4,0.2,0.6,0.4,0.8,0.6c0.2,0.2,0.3,0.5,0.6,0.8c0.3,0.5,0.5,1.1,0.5,1.7c0.1,0.6,0.1,2.2,0.1,4.8l0,5.4
		l-0.8,1.1c-0.6,0.7-1.2,1.3-1.9,1.6c-0.6,0.3-1.4,0.4-2.4,0.3c-0.9-0.1-1.6-0.4-1.9-0.8c-0.3-0.3-0.4-0.5-0.4-0.6
		c0-0.1,0.3-0.4,0.7-0.9c0.4-0.4,0.6-0.8,0.7-1.1c0.1-0.3,0.1-0.8,0.1-1.6s-0.1-1.3-0.2-1.6c-0.1-0.3-0.4-0.7-0.8-1.2
		c-0.3-0.3-0.6-0.6-0.8-0.7c-0.2-0.1-0.5-0.2-0.9-0.3c-0.4-0.1-0.8-0.1-1.3,0c-0.9,0.1-1.6,0.4-2.2,1.2c-0.5,0.7-0.8,1.7-0.8,2.9
		c0,1.7,0.6,3.2,1.8,4.5c1.2,1.3,2.8,2.1,4.8,2.6c1.1,0.2,2.3,0.4,3.6,0.5c0.9,0.1,1.5,0.2,1.7,0.3c0.2,0.1,0.3,0.3,0.3,0.7
		c0,0.3-0.1,0.5-0.2,0.6c-0.1,0.1-0.5,0.1-1,0.1c-1.1,0-2.3,0.1-3.5,0.4c-1.3,0.2-2.3,0.5-3,0.9c-2.9,1.4-4.4,3.5-4.4,6.4
		c0,0.5,0,0.9,0,1.1c0,0.3,0.1,0.5,0.3,0.7c0.1,0.2,0.3,0.5,0.6,0.8c0.5,0.6,1.1,1,1.8,1.2c0.7,0.2,1.4,0.2,2.1,0
		c0.7-0.2,1.3-0.6,1.7-1.2c0.2-0.3,0.3-0.6,0.4-1c0.1-0.4,0.1-0.8,0.1-1.4c0-0.8-0.1-1.3-0.2-1.6c-0.1-0.3-0.4-0.7-0.8-1.1l-1-1
		l0.7-0.5c0.5-0.4,1.1-0.6,1.9-0.7c0.7-0.1,1.4-0.1,2,0.2c0.7,0.2,1.2,0.5,1.7,1c0.7,0.8,1.2,1.6,1.4,2.6c0.2,1,0.3,2.8,0.2,5.4
		c0,1.9-0.1,3.2-0.2,4.1c-0.1,0.8-0.3,1.5-0.5,1.9c-0.2,0.4-0.7,0.9-1.3,1.3c-0.4,0.3-1,0.4-1.9,0.5c-0.9,0.1-3,0.1-6.3,0.2
		c-3.2,0-5.3,0-6.2,0c-0.9,0-1.5-0.2-1.8-0.4L113.3,140.7z"/>
	<path class="st0" d="M134.7,141.2c-0.2-0.2-0.3-7.1-0.3-20.7l0-20.3l5.9-0.1l0.2,1.5c0.4,3.1,1.1,6,2,8.5c0.9,2.5,1.9,4.2,3,5.1
		c0.6,0.5,1.3,0.8,2.1,0.8c0.8,0,1.6-0.2,2.2-0.6c0.3-0.2,0.5-0.4,0.7-0.7c0.2-0.3,0.4-0.5,0.5-0.8c0.1-0.3,0.2-0.6,0.3-0.9
		c0.1-0.3,0.1-0.6,0.1-0.9c0-0.3-0.1-0.6-0.2-0.9c-0.1-0.3-0.2-0.6-0.3-0.8c-0.1-0.3-0.3-0.5-0.5-0.7c-0.2-0.2-0.4-0.4-0.6-0.6
		c-0.2-0.2-0.5-0.3-0.8-0.4c-0.3-0.1-0.6-0.1-0.9-0.2c-0.6,0-1.3,0.1-1.9,0.4c-0.6,0.3-1,0.5-1,0.8c0,0.1,0,0.1,0,0.2
		c0,0-0.1,0.1-0.1,0.1c0,0-0.1,0-0.1,0c-0.2,0-0.4-0.5-0.6-1.5c-0.2-1-0.3-1.9-0.3-2.8c0-1,0.1-2,0.3-3c0.2-1,0.5-1.6,0.8-1.9
		c0.2-0.2,0.6-0.4,1.1-0.5c0.5-0.1,1.6-0.1,3.3-0.1c2.5,0,3.9,0.2,4.1,0.4c0.2,0.3,0.3,7.1,0.4,20.4c0,9,0,14.6,0,16.8
		c0,2.2-0.2,3.3-0.4,3.4c-0.3,0.1-1.2,0.2-2.9,0.2l-2.5,0l0-1.2c0-1.2-0.2-2.9-0.4-5c-0.3-2.1-0.7-4.3-1.1-6.4
		c-0.4-2.2-0.9-4.3-1.4-6.3c-0.5-2-1-3.5-1.4-4.5c-0.5-1.3-1.3-2.1-2.4-2.6c-1.1-0.4-2.1-0.4-3.1,0.3c-0.5,0.3-0.8,0.8-1.2,1.4
		c-0.3,0.6-0.5,1.3-0.5,1.9c0,0.6,0.1,1.3,0.4,1.8c0.1,0.3,0.4,0.6,0.7,0.9c0.3,0.3,0.7,0.5,1.1,0.6c0.4,0.2,0.8,0.3,1.2,0.3
		c0.4,0.1,0.8,0.1,1.2,0c0.4-0.1,0.7-0.2,1-0.4c0.3-0.3,0.6-0.3,0.7-0.2c0.1,0.2,0.3,0.8,0.6,2c0.4,1.6,0.6,3.6,0.8,5.9
		c0.1,2.3,0.2,4.6,0,6.6c0,0.1,0,0.2,0,0.5c-0.1,0.7-0.1,1.2-0.1,1.5c0,0.3-0.1,0.7-0.2,1.1c-0.1,0.4-0.2,0.7-0.2,0.8
		c0,0.1-0.2,0.3-0.4,0.5c-0.2,0.2-0.4,0.3-0.5,0.4c-0.1,0-0.4,0.1-0.8,0.1c-0.4,0.1-0.8,0.1-1.1,0.1l-2,0
		C136.4,141.6,134.9,141.4,134.7,141.2z"/>
	<path class="st0" d="M159.4,141.1c-0.3-0.2-0.7-0.3-1-0.6c-0.3-0.2-0.6-0.5-0.9-0.7c-0.3-0.3-0.5-0.6-0.7-0.9
		c-0.2-0.3-0.3-0.6-0.4-0.9c-0.2-0.7-0.3-6.8-0.3-18.2l0.1-17.1l0.7-0.8c0.6-0.7,1.4-1.2,2.2-1.3c0.9-0.2,2.9-0.2,6-0.2
		c1.7,0,3,0.1,3.8,0.1c0.8,0,1.5,0.1,2.2,0.3c0.6,0.2,1.1,0.4,1.3,0.6c0.3,0.2,0.5,0.6,0.8,1c0.1,0.2,0.2,0.4,0.3,0.6
		c0.1,0.2,0.1,0.5,0.2,1c0,0.5,0.1,1.1,0.1,1.8l0,9l-0.7,1.2c-0.5,0.8-1.1,1.4-1.8,1.8c-0.6,0.4-1.4,0.6-2.2,0.6
		c-0.8,0-1.6-0.1-2.3-0.4c-0.7-0.3-1.2-0.7-1.6-1.2c-0.2-0.3-0.3-0.5-0.2-0.6c0.1-0.1,0.3-0.2,0.8-0.4c1-0.3,1.6-0.9,2-1.8
		c0.4-0.9,0.4-1.8,0.1-2.9c-0.3-1-0.9-1.8-1.6-2.2c-0.7-0.4-1.6-0.5-2.5-0.2c-1.3,0.4-2.3,1.4-3,3c-0.7,1.7-0.9,3.5-0.6,5.5
		c0.3,2.2,1.2,4,2.6,5.6c0.8,0.9,1.7,1.6,2.7,2.1c1,0.5,2,0.7,3.2,0.7c0.9,0,1.9-0.1,2.9-0.4c1-0.3,1.6-0.5,1.8-0.8
		c0.3-0.5,0.5-0.3,0.5,0.6c0.1,0.8,0.1,2.6,0.1,5.2c0,3.2-0.1,5.4-0.2,6.5c-0.1,1.1-0.4,2-0.8,2.6c-0.6,0.9-1.3,1.4-2.1,1.6
		c-0.8,0.2-2.6,0.3-5.4,0.4C162.2,141.5,160.1,141.4,159.4,141.1z"/>
	<path class="st0" d="M176.3,140.6l0-19.5c0-13,0.1-19.6,0.4-20c0.1-0.1,0.3-0.2,0.5-0.2c0.2-0.1,0.6-0.1,1.1-0.1c0.6,0,1.3,0,2.1,0
		c0.8,0,2,0,3.6,0c1.4,0,2.5,0.1,3.3,0.1c0.8,0,1.6,0.1,2.3,0.2c0.7,0.1,1.3,0.1,1.6,0.2c0.3,0.1,0.7,0.2,1,0.4
		c0.3,0.2,0.6,0.4,0.7,0.6c0.2,0.2,0.3,0.4,0.5,0.8c0.3,0.5,0.4,1.1,0.5,1.7c0.1,0.6,0.1,2.2,0.1,4.6l0,5.3l-0.7,1.1
		c-0.5,0.7-1.1,1.2-1.8,1.5c-0.6,0.3-1.4,0.4-2.2,0.3c-0.9-0.1-1.5-0.3-1.8-0.7c-0.3-0.3-0.4-0.5-0.4-0.6c0-0.1,0.2-0.4,0.7-0.9
		c0.4-0.4,0.6-0.7,0.7-1c0.1-0.3,0.1-0.8,0.1-1.5c0-0.7-0.1-1.2-0.1-1.5c-0.1-0.3-0.4-0.7-0.8-1.1c-0.3-0.3-0.6-0.6-0.8-0.7
		c-0.2-0.1-0.5-0.2-0.9-0.3c-0.3-0.1-0.8-0.1-1.3,0c-0.9,0.1-1.6,0.4-2.1,1.1c-0.5,0.7-0.8,1.6-0.8,2.8c0,1.7,0.6,3.1,1.7,4.4
		c1.1,1.2,2.6,2.1,4.5,2.5c1,0.2,2.1,0.4,3.4,0.5c0.9,0.1,1.4,0.2,1.6,0.3c0.2,0.1,0.3,0.3,0.3,0.6c0,0.3-0.1,0.5-0.2,0.6
		c-0.1,0.1-0.4,0.1-0.9,0.1c-1,0-2.1,0.1-3.3,0.3c-1.2,0.2-2.1,0.5-2.8,0.9c-2.8,1.4-4.1,3.4-4.1,6.2c0,0.5,0,0.9,0,1.1
		c0,0.2,0.1,0.5,0.3,0.7c0.1,0.2,0.3,0.5,0.6,0.8c0.5,0.6,1,0.9,1.7,1.1c0.7,0.2,1.3,0.2,2,0c0.7-0.2,1.2-0.6,1.6-1.2
		c0.2-0.3,0.3-0.6,0.4-1c0.1-0.4,0.1-0.8,0.1-1.4c0-0.7-0.1-1.2-0.1-1.5c-0.1-0.3-0.4-0.6-0.8-1.1l-0.9-1l0.7-0.5
		c0.5-0.4,1.1-0.6,1.8-0.7c0.7-0.1,1.3-0.1,1.9,0.1c0.6,0.2,1.1,0.5,1.6,0.9c0.7,0.7,1.1,1.6,1.3,2.6c0.2,1,0.2,2.7,0.2,5.3
		c0,1.8-0.1,3.1-0.2,3.9c-0.1,0.8-0.3,1.4-0.5,1.8c-0.2,0.4-0.6,0.8-1.2,1.2c-0.4,0.2-1,0.4-1.8,0.5c-0.8,0.1-2.8,0.1-5.9,0.2
		c-3,0-5,0-5.9,0c-0.9,0-1.5-0.2-1.7-0.4L176.3,140.6z"/>
	<path class="st2" d="M95.5,190.5c-0.4-0.1-0.7-0.3-1-0.5c-0.3-0.2-0.6-0.5-0.9-0.7c-0.3-0.3-0.5-0.6-0.7-0.9
		c-0.2-0.3-0.3-0.7-0.4-1c-0.2-0.7-0.3-7-0.3-18.7l0.1-17.6l0.7-0.9c0.7-0.8,1.5-1.2,2.4-1.4c0.9-0.2,3-0.3,6.4-0.3
		c1.8,0,3.2,0,4.1,0c0.9,0,1.6,0.1,2.3,0.3c0.7,0.2,1.1,0.3,1.4,0.6c0.3,0.2,0.6,0.6,0.9,1c0.1,0.2,0.3,0.4,0.3,0.6
		c0.1,0.2,0.1,0.5,0.2,1.1c0,0.5,0.1,1.2,0.1,1.8l0,9.3l-0.8,1.3c-0.5,0.9-1.2,1.5-1.9,1.9c-0.7,0.4-1.5,0.6-2.4,0.6
		c-0.9,0-1.7-0.1-2.5-0.3c-0.8-0.3-1.3-0.7-1.6-1.2c-0.2-0.3-0.3-0.5-0.2-0.6c0.1-0.1,0.4-0.2,0.8-0.4c1-0.4,1.7-1,2.1-1.9
		c0.4-0.9,0.4-1.9,0.1-3c-0.4-1.1-0.9-1.8-1.7-2.3c-0.8-0.4-1.7-0.5-2.7-0.2c-1.4,0.4-2.4,1.5-3.2,3.2c-0.7,1.7-1,3.6-0.6,5.7
		c0.4,2.3,1.3,4.1,2.7,5.7c0.9,0.9,1.8,1.6,2.9,2.1c1,0.4,2.2,0.7,3.4,0.6c1,0,2-0.2,3.1-0.5c1.1-0.3,1.7-0.6,1.9-0.9
		c0.3-0.5,0.5-0.3,0.6,0.6c0.1,0.9,0.1,2.6,0.1,5.4c0,3.3-0.1,5.6-0.2,6.7c-0.1,1.2-0.4,2.1-0.9,2.7c-0.6,0.9-1.4,1.5-2.2,1.7
		c-0.8,0.2-2.8,0.4-5.8,0.5C98.5,190.8,96.3,190.8,95.5,190.5z"/>
	<path class="st2" d="M114.7,190.2c-0.1-0.1-0.2-0.1-0.4-0.2c-0.1-0.1-0.2-0.2-0.3-0.3c-0.1-0.1-0.2-0.2-0.2-0.3
		c-0.1-0.3-0.3-3.8-0.3-10.4c-0.1-6.7-0.1-13.3,0-19.9c0-6.6,0.1-10,0.3-10.1c0.2-0.3,2.9-0.4,7.9-0.4c4.6,0,7.2,0.1,7.6,0.2
		c0.2,0.1,0.4,0.2,0.5,0.4c0.6,0.6,0.8,1.4,0.6,2.5c-0.2,1.1-0.7,2.4-1.7,3.9c-0.9,1.6-2.3,3.6-4.2,6c-2.1,2.7-3.6,4.9-4.6,6.7
		c-1,1.7-1.7,3.4-2.1,5.1c-0.2,0.8-0.3,1.7-0.4,2.6c-0.1,0.9-0.1,1.7,0,2.5c0.1,0.7,0.2,1.3,0.4,1.6c0.5,0.9,1.3,1.5,2.3,1.7
		c1,0.2,2,0,2.8-0.6c0.6-0.4,1-0.9,1.2-1.6c0.3-0.7,0.4-1.4,0.3-2.1c-0.1-0.7-0.3-1.3-0.8-1.9c-0.4-0.6-0.9-1-1.6-1.1l-0.9-0.2
		l0.1-2.4c0.1-2.1,0.5-3.8,1.3-5c0.8-1.2,1.9-1.9,3.3-2.1c1.7-0.2,3,0.5,4.1,1.9c0.1,0.2,0.3,0.4,0.4,0.7c0.3,0.7,0.5,1.5,0.6,2.5
		c0.1,1,0.1,3.9,0,9c0,4.6-0.1,7.5-0.1,8.6c-0.1,1.1-0.2,1.8-0.4,2c-0.1,0.2-0.3,0.3-0.4,0.3c-0.2,0.1-0.6,0.1-1.2,0.2
		c-0.6,0.1-1.3,0.1-2.2,0.1c-0.9,0-2.2,0.1-4,0.1C117.7,190.3,115.1,190.3,114.7,190.2z"/>
	<path class="st2" d="M133.1,189.1l0-19.9c0-13.2,0.1-20,0.4-20.4c0.1-0.1,0.3-0.2,0.5-0.2c0.2-0.1,0.6-0.1,1.2-0.1
		c0.6,0,1.3-0.1,2.2-0.1c0.9,0,2.1,0,3.7,0c1.5,0,2.6,0,3.5,0c0.8,0,1.6,0,2.4,0.1c0.8,0.1,1.3,0.1,1.7,0.2c0.3,0.1,0.7,0.2,1,0.4
		c0.3,0.2,0.6,0.4,0.8,0.6c0.2,0.2,0.3,0.4,0.5,0.8c0.3,0.5,0.5,1.1,0.5,1.7c0.1,0.6,0.1,2.2,0.1,4.7l0,5.4l-0.8,1.1
		c-0.5,0.8-1.2,1.3-1.8,1.6c-0.6,0.3-1.4,0.4-2.3,0.3c-0.9-0.1-1.5-0.3-1.9-0.7c-0.3-0.3-0.4-0.5-0.4-0.6c0-0.1,0.3-0.4,0.7-0.9
		c0.4-0.4,0.6-0.8,0.7-1.1c0.1-0.3,0.1-0.8,0.1-1.6s-0.1-1.3-0.2-1.6c-0.1-0.3-0.4-0.7-0.8-1.1c-0.3-0.3-0.6-0.6-0.8-0.7
		c-0.2-0.1-0.5-0.2-0.9-0.3c-0.4-0.1-0.8-0.1-1.3,0c-0.9,0.1-1.6,0.5-2.2,1.2c-0.5,0.7-0.8,1.7-0.8,2.9c0,1.7,0.6,3.2,1.7,4.4
		c1.1,1.2,2.7,2.1,4.7,2.4c1,0.2,2.2,0.4,3.5,0.5c0.9,0.1,1.5,0.2,1.7,0.3c0.2,0.1,0.3,0.3,0.3,0.6c0,0.3-0.1,0.5-0.2,0.6
		c-0.1,0.1-0.5,0.1-1,0.1c-1.1,0-2.2,0.2-3.5,0.4c-1.3,0.3-2.2,0.6-2.9,1c-2.9,1.4-4.3,3.6-4.3,6.4c0,0.5,0,0.9,0,1.1
		c0,0.2,0.1,0.5,0.3,0.7c0.1,0.2,0.3,0.5,0.6,0.8c0.5,0.6,1.1,0.9,1.8,1.1c0.7,0.2,1.4,0.2,2.1-0.1c0.7-0.2,1.2-0.6,1.7-1.2
		c0.2-0.3,0.3-0.6,0.4-1c0.1-0.4,0.1-0.8,0.1-1.4c0-0.7-0.1-1.3-0.2-1.6c-0.1-0.3-0.4-0.7-0.8-1.1l-1-1l0.7-0.5
		c0.5-0.4,1.1-0.6,1.8-0.8c0.7-0.1,1.4-0.1,2,0.1c0.6,0.2,1.2,0.5,1.7,0.9c0.7,0.7,1.1,1.6,1.3,2.6c0.2,1,0.3,2.8,0.2,5.4
		c0,1.9-0.1,3.2-0.2,4c-0.1,0.8-0.3,1.5-0.5,1.9c-0.2,0.4-0.7,0.9-1.3,1.3c-0.4,0.3-1,0.4-1.9,0.5c-0.9,0.1-2.9,0.2-6.2,0.3
		c-3.1,0.1-5.2,0.2-6.1,0.1c-0.9,0-1.5-0.1-1.8-0.4L133.1,189.1z"/>
	<path class="st2" d="M157.1,189c-0.7-0.3-1.2-0.6-1.6-1c-0.4-0.4-0.8-0.9-1.1-1.6c-0.2-0.5-0.4-1.2-0.4-2.1
		c-0.1-0.9-0.1-2.8-0.1-5.6c0-2.7,0-4.6,0.1-5.8c0.1-1.2,0.3-2.1,0.5-2.8c0.3-0.7,0.7-1.4,1.3-2.1c0.1-0.2,0.3-0.3,0.4-0.4
		c0.1-0.1,0.3-0.3,0.4-0.4c0.2-0.1,0.3-0.3,0.5-0.4c0.2-0.1,0.4-0.2,0.6-0.4c0.2-0.1,0.5-0.2,0.7-0.4c0.3-0.1,0.6-0.3,0.9-0.4
		c0.3-0.1,0.7-0.3,1.2-0.5c2.4-1,3.8-1.7,4.3-2.1c0.7-0.5,1.1-1.2,1.3-2.2c0.2-0.9,0.1-1.8-0.3-2.6c-0.2-0.5-0.5-0.8-1-1.1
		c-0.4-0.3-0.9-0.5-1.4-0.6c-0.5-0.1-1-0.1-1.5,0.1c-0.5,0.1-1,0.4-1.4,0.7c-0.4,0.4-0.8,1-1,1.7c-0.3,0.7-0.3,1.4-0.2,1.9
		c0,0.2,0,0.3,0,0.5c0,0.2-0.1,0.3-0.2,0.5c-0.1,0.2-0.2,0.3-0.4,0.5c-0.1,0.1-0.3,0.3-0.5,0.4c-0.2,0.1-0.4,0.2-0.7,0.3
		c-0.3,0.1-0.5,0.2-0.7,0.2c-0.2,0-0.4,0-0.6,0c-0.2,0-0.4-0.1-0.8-0.3c-0.5-0.3-1-0.7-1.2-1.1c-0.3-0.4-0.5-1-0.6-1.8
		c-0.1-0.8-0.2-1.9-0.2-3.3c0-2,0.1-3.6,0.3-4.6c0.2-1.1,0.5-1.8,0.9-2.3c0.6-0.7,1.3-1.1,2.1-1.3c0.9-0.2,2.8-0.3,5.7-0.2
		c1.8,0,3.1,0,4,0c0.9,0,1.6,0.1,2.3,0.3c0.6,0.2,1.1,0.4,1.4,0.7c0.3,0.3,0.5,0.7,0.8,1.2c0.3,0.6,0.4,1.7,0.5,3.4
		c0.1,1.7,0.1,7,0.1,16c0,8.1,0,13.1,0,15.2c0,2.1-0.2,3.2-0.4,3.5c-0.3,0.3-1.4,0.5-3.2,0.5l-2.8,0.1l0.4-1.6
		c0.5-2.3,0.8-5.2,0.9-8.7c0-3.6-0.2-5.9-0.7-7.2c-0.5-1.1-1.1-1.8-2-2.1c-0.9-0.3-1.8-0.2-2.7,0.4c-0.3,0.3-0.7,0.6-1,0.9
		c-0.3,0.4-0.5,0.8-0.7,1.2c-0.2,0.4-0.3,0.8-0.3,1.2c0,1,0.4,1.9,1.2,2.7c0.8,0.8,1.7,1.1,2.7,1c0.2-0.1,0.3-0.1,0.5,0
		c0.1,0.1,0.2,0.1,0.3,0c0.1,0,0.1,0,0.2,0.2c0.1,0.2,0.1,0.3,0.2,0.4c0,0.1,0.1,0.4,0.2,0.7c0.2,1,0.3,2.5,0.3,4.6
		c0,0.6,0,1.2,0,1.7c0,0.5-0.1,0.9-0.1,1.3c-0.1,0.4-0.1,0.7-0.2,1c-0.1,0.3-0.2,0.5-0.3,0.8c-0.1,0.2-0.3,0.4-0.5,0.6
		c-0.2,0.1-0.4,0.3-0.6,0.4c-0.6,0.3-1.6,0.4-2.9,0.5C158.8,189.4,157.8,189.2,157.1,189z"/>
	<path class="st2" d="M174.4,188.5c-0.2-0.2-0.3-1.4-0.4-3.7c0-2.2-0.1-7.7-0.1-16.5c0-9.6,0-15.2,0-17c0-1.8,0.2-2.8,0.4-2.9
		c0.4-0.2,2.9-0.3,7.6-0.4c2.8,0,4.8,0,5.8,0.1c1,0.1,1.7,0.2,2.1,0.4c0.6,0.3,1.2,0.7,1.6,1.1c0.4,0.5,0.8,1,1.2,1.8
		c0.2,0.4,0.3,0.8,0.4,1.2c0.1,0.4,0.1,0.9,0.1,1.7c0,0.7,0,2,0,3.8c0,0.8,0,1.5,0,2c0,0.5,0,1,0,1.5c0,0.5,0,1-0.1,1.3l-0.1,1
		c0,0.3-0.1,0.5-0.2,0.7c-0.1,0.2-0.2,0.4-0.3,0.6c-0.1,0.2-0.2,0.3-0.4,0.5c-0.2,0.1-0.4,0.3-0.5,0.4c-0.2,0.1-0.4,0.2-0.7,0.4
		c-0.9,0.5-1.4,0.8-1.4,1c0,0,0.1,0.1,0.3,0.3c0.2,0.1,0.5,0.3,0.8,0.4c0.4,0.2,0.7,0.4,1,0.6c0.2,0.2,0.5,0.4,0.7,0.6
		c0.2,0.2,0.4,0.5,0.5,0.9c0.1,0.4,0.2,0.8,0.3,1.2c0.1,0.5,0.2,1.1,0.2,1.9c0,0.8,0.1,1.6,0.1,2.5c0,0.8,0,2,0,3.4
		c0,0.7,0,1.4,0,1.9c0,0.6,0,1.1,0,1.6c0,0.5,0,0.9,0,1.3c0,0.4,0,0.7,0,1c0,0.3,0,0.6,0.1,0.8c0,0.2,0.1,0.4,0.1,0.6
		c0,0.2,0.1,0.3,0.1,0.5c0,0.1,0.1,0.2,0.1,0.3c0.1,0.2,0.1,0.3,0.2,0.4c0.1,0.1,0.1,0.3,0.1,0.4c0,0.1,0.1,0.2,0.1,0.3l0,0.1
		c0,0.1-0.2,0.1-0.6,0.1c-0.4,0-0.8,0-1.4,0c-1.7-0.1-3.2-0.6-4.6-1.5c-1.3-0.9-2.6-2.3-3.7-4.2c-1.6-2.6-2.5-5.6-2.7-8.8
		c-0.2-3.4,0.3-6.3,1.6-8.8l0.9-1.8l1.3,0c0.5,0.1,1,0,1.5-0.2c0.5-0.2,0.8-0.4,1.2-0.7c0.3-0.3,0.6-0.7,0.7-1.2
		c0.2-0.5,0.3-1,0.3-1.6c0-1.1-0.3-2-0.9-2.7c-0.6-0.6-1.4-1-2.5-1c-1.1,0-1.9,0.4-2.6,1.1c-0.7,0.7-1.3,1.9-1.7,3.5
		c-0.5,1.6-0.9,3.8-1.3,6.7c-0.2,1.5-0.3,2.7-0.3,3.5c0,0.8,0.1,2,0.2,3.5c0.2,2,0.5,4.2,1.1,6.5c0.5,2.4,1.1,4.3,1.7,5.8l0.8,2
		l-4.1,0.1C176.2,188.9,174.7,188.8,174.4,188.5z"/>
	<path class="st2" d="M80,240.4c-1.4-0.6-2.4-2.3-2.8-4.9c-0.2-1.3-0.3-7.5-0.4-18.7c0-11.2,0.1-17.1,0.2-17.6
		c0.2-0.4,0.4-0.6,0.7-0.7l2.2-0.2c1.3,0,2.1,0,2.4,0.1c0.3,0.1,0.7,0.3,1.1,0.8c0.2,0.2,0.4,0.4,0.6,0.8c0.2,0.3,0.4,0.7,0.6,1.1
		c0.2,0.4,0.5,0.8,0.7,1.2c0.2,0.4,0.5,0.9,0.7,1.4c0.2,0.5,0.4,1,0.6,1.4c0.2,0.5,0.4,0.9,0.5,1.4c0.2,0.5,0.3,0.9,0.4,1.3
		c0.3,1.4,0.5,3.1,0.5,4.9c0,1.9-0.2,3.4-0.5,4.7c-0.3,1.3-0.9,2.8-1.6,4.5l-1.1,2.5l-1.2,0c-0.8,0-1.4,0.2-1.9,0.5
		c-0.5,0.3-0.9,0.7-1.3,1.4c-0.5,0.9-0.7,1.7-0.5,2.7c0.2,0.9,0.5,1.6,1.2,2.2c0.6,0.5,1.3,0.9,2.2,1c0.8,0.2,1.7-0.1,2.5-0.8
		c0.7-0.5,1.3-1.4,1.8-2.5c0.5-1.1,0.9-2.9,1.4-5.3c0.4-2,0.8-4.1,1.1-6.2c0.3-2.2,0.6-4.3,0.8-6.4c0.2-2.1,0.4-4.1,0.5-6.1
		c0.1-2,0.2-3.8,0.2-5.6c0-0.6,0-1,0.1-1.1c0.1-0.1,0.3-0.2,0.8-0.2l0.9,0l0,2.7c0,6.9,0.9,14.4,2.5,22.5c0.5,2.5,0.9,4.1,1.2,5
		c0.3,0.9,0.8,1.6,1.4,2.2c0.2,0.2,0.4,0.4,0.5,0.5c0.1,0.1,0.3,0.2,0.4,0.3c0.1,0.1,0.3,0.1,0.5,0.1c0.2,0,0.3,0,0.5,0
		c0.2,0,0.5,0,0.8,0c0.5,0,0.9-0.1,1.1-0.1c0.3,0,0.5-0.1,0.7-0.2c0.2-0.1,0.4-0.3,0.6-0.5c0.5-0.6,0.9-1.2,1.1-1.9
		c0.2-0.7,0.1-1.5-0.1-2.2c-0.2-0.7-0.6-1.3-1.1-1.8c-0.5-0.4-0.8-0.6-1.1-0.7c-0.3-0.1-0.8-0.1-1.6-0.1c-0.3,0-0.5,0-0.7-0.1
		c-0.2-0.1-0.3-0.3-0.5-0.6c-0.2-0.3-0.4-0.8-0.8-1.5c-0.8-1.6-1.4-3.3-1.8-5.1c-0.4-1.8-0.5-3.5-0.4-5c0.1-0.9,0.2-1.8,0.4-2.8
		c0.2-1,0.4-2,0.7-2.9c0.3-0.9,0.6-1.9,0.9-2.7c0.3-0.9,0.7-1.7,1.1-2.4c0.4-0.7,0.8-1.3,1.2-1.8c0.5-0.5,0.8-0.8,1.1-0.9
		c0.3-0.1,1-0.2,2.2-0.2c0.5,0,0.8,0,1.1,0c0.3,0,0.6,0,0.8,0c0.2,0,0.4,0.1,0.5,0.1c0.1,0,0.2,0.1,0.3,0.2
		c0.2,0.3,0.3,6.6,0.3,18.9c0,9-0.1,14.4-0.1,16.2c-0.1,1.8-0.2,3-0.5,3.7c-0.4,0.9-0.9,1.7-1.6,2.2c-0.4,0.3-0.9,0.6-1.3,0.7
		c-0.5,0.1-1.4,0.2-2.8,0.4c-1.9,0.2-3.3,0.1-4.1-0.1c-0.8-0.2-1.6-0.7-2.2-1.4c-0.5-0.5-0.9-1.3-1.3-2.3c-0.4-1-0.6-1.9-0.6-2.5
		c0-0.7-0.1-0.8-0.4-0.3c-0.2,0.4-0.4,1-0.6,1.7c-0.6,2.5-1.7,4.2-3.1,5c-0.9,0.5-2.3,0.7-4.3,0.8C82.3,240.8,80.9,240.7,80,240.4z"
		/>
	<path class="st2" d="M113.1,238.9c-0.7-0.3-1.3-0.6-1.7-1c-0.4-0.4-0.8-0.9-1.1-1.7c-0.2-0.5-0.4-1.2-0.5-2.1
		c-0.1-0.9-0.1-2.8-0.1-5.7c0-2.7,0-4.7,0.1-5.9c0.1-1.2,0.3-2.2,0.6-2.9c0.3-0.7,0.8-1.4,1.4-2.2c0.1-0.2,0.3-0.3,0.4-0.4
		c0.1-0.1,0.3-0.3,0.4-0.4c0.2-0.1,0.3-0.3,0.5-0.4c0.2-0.1,0.4-0.3,0.6-0.4c0.2-0.1,0.5-0.3,0.8-0.4c0.3-0.2,0.6-0.3,1-0.5
		c0.3-0.2,0.7-0.3,1.2-0.5c2.5-1.1,4-1.9,4.5-2.2c0.7-0.5,1.2-1.3,1.4-2.2c0.2-1,0.1-1.9-0.3-2.7c-0.2-0.5-0.5-0.8-1-1.1
		c-0.5-0.3-1-0.5-1.5-0.6c-0.5-0.1-1.1,0-1.6,0.1c-0.5,0.1-1,0.4-1.4,0.8c-0.4,0.4-0.8,1-1.1,1.8c-0.3,0.7-0.3,1.4-0.2,2
		c0,0.2,0,0.3,0,0.5c0,0.2-0.1,0.3-0.2,0.5c-0.1,0.2-0.2,0.3-0.4,0.5c-0.1,0.1-0.3,0.3-0.5,0.4c-0.2,0.1-0.4,0.2-0.7,0.3
		c-0.3,0.1-0.5,0.2-0.7,0.2c-0.2,0-0.4,0-0.6,0c-0.2,0-0.5-0.1-0.8-0.3c-0.6-0.3-1-0.7-1.3-1.1c-0.3-0.4-0.5-1-0.6-1.8
		c-0.1-0.8-0.2-1.9-0.2-3.4c0-2.1,0.1-3.7,0.3-4.7c0.2-1.1,0.5-1.9,1-2.4c0.6-0.7,1.3-1.2,2.2-1.4c0.9-0.2,2.9-0.3,6-0.4
		c1.8-0.1,3.2-0.1,4.1-0.1c0.9,0,1.7,0.1,2.4,0.3c0.7,0.2,1.1,0.4,1.4,0.7c0.3,0.3,0.6,0.7,0.8,1.2c0.3,0.6,0.4,1.8,0.5,3.5
		c0.1,1.8,0.1,7.2,0.1,16.3c0,8.2,0,13.4,0,15.5c0,2.1-0.2,3.3-0.4,3.5c-0.3,0.3-1.4,0.5-3.4,0.6l-2.9,0.1l0.4-1.6
		c0.6-2.3,0.9-5.3,0.9-8.9c0-3.6-0.2-6.1-0.7-7.3c-0.5-1.1-1.2-1.8-2.1-2.1c-0.9-0.3-1.8-0.1-2.8,0.5c-0.4,0.3-0.7,0.6-1,1
		c-0.3,0.4-0.6,0.8-0.8,1.3c-0.2,0.4-0.3,0.8-0.3,1.2c0,1,0.4,1.9,1.3,2.7c0.8,0.8,1.8,1.1,2.8,0.9c0.2-0.1,0.3-0.1,0.5,0
		c0.1,0.1,0.3,0.1,0.3,0c0.1,0,0.1,0,0.2,0.2c0.1,0.2,0.1,0.3,0.2,0.4c0,0.1,0.1,0.4,0.2,0.7c0.2,1,0.4,2.5,0.4,4.6
		c0,0.7,0,1.2,0,1.7c0,0.5-0.1,1-0.1,1.4c-0.1,0.4-0.1,0.8-0.2,1c-0.1,0.3-0.2,0.6-0.4,0.8c-0.1,0.2-0.3,0.4-0.5,0.6
		c-0.2,0.2-0.4,0.3-0.6,0.4c-0.7,0.3-1.7,0.5-3.1,0.5C114.9,239.3,113.8,239.2,113.1,238.9z"/>
	<path class="st2" d="M131.4,238c-0.2-0.2-0.3-0.4-0.3-0.5c0-0.2,0.1-0.5,0.3-1c0.4-1.1,1.6-3.4,3.4-6.9c0.4-0.8,0.8-1.6,1.2-2.3
		c0.3-0.7,0.6-1.3,0.9-2c0.3-0.6,0.5-1.3,0.7-1.9c0.2-0.6,0.4-1.2,0.6-1.9c0.4-1.5,0.7-3.2,1-5.2c0.3-2,0.5-3.8,0.5-5.3
		c0.1-1.5,0-2.7-0.2-3.5c-0.5-1.7-1.6-2.5-3.4-2.5c-0.5,0-0.9,0.1-1.3,0.3c-0.4,0.2-0.8,0.4-1.1,0.7c-0.3,0.3-0.6,0.6-0.8,1
		c-0.2,0.4-0.3,0.8-0.4,1.3c-0.1,1.3,0.1,2.3,0.8,3.1c0.7,0.8,1.6,1.2,2.9,1.1l1.3,0l0,1.3c0,1.4-0.3,3-1,4.8
		c-0.7,1.8-1.5,3.4-2.4,4.8c-0.9,1.4-1.8,2.2-2.7,2.5l-0.9,0.3l0-14.1c0-3,0-5.6,0-7.8c0-2.1,0.1-3.8,0.1-5c0-1.2,0.1-1.8,0.1-2
		c0.1-0.3,0.7-0.5,1.6-0.5c0.9-0.1,3.8-0.2,8.5-0.3c4.7-0.1,7.5-0.2,8.5-0.2c0.9,0,1.5,0.2,1.6,0.4c0.2,0.4,0.3,5.2,0.3,14.5l0,13.9
		l-0.9-0.2c-0.3-0.1-0.6-0.2-0.8-0.3c-0.2-0.1-0.5-0.3-0.7-0.6c-0.2-0.3-0.5-0.6-0.7-0.9c-0.2-0.3-0.6-0.8-0.9-1.4
		c-1.6-2.6-2.6-5.2-2.8-7.8l-0.2-1.9l1.4-0.1c0.4,0,0.8-0.1,1-0.1c0.2-0.1,0.5-0.2,0.7-0.3c0.2-0.1,0.5-0.4,0.8-0.7
		c0.8-0.9,1.2-1.9,1.2-3.1c0-1.2-0.5-2.1-1.4-2.7c-0.6-0.4-1.3-0.6-2.2-0.6c-0.9,0.1-1.6,0.3-2.1,0.9c-0.7,0.6-1.1,1.4-1.2,2.2
		c-0.1,0.8-0.1,2.4,0.1,4.6c0.1,1.9,0.3,3.6,0.6,5c0.2,1.5,0.6,2.9,1.1,4.4c0.5,1.5,1,2.9,1.7,4.3c0.7,1.4,1.5,3,2.5,4.8
		c1.4,2.4,2.2,3.9,2.4,4.7c0.3,0.8,0.3,1.2,0,1.4c-0.5,0.4-2.6,0.6-6.6,0.8l-3.3,0.2c-5.9,0.3-9.1,0.3-9.6,0.1
		C131.5,238.1,131.5,238,131.4,238z"/>
	<path class="st2" d="M153.7,236.5l0-19.7c0-13.1,0.1-19.8,0.4-20.2c0.1-0.1,0.3-0.2,0.5-0.2c0.2-0.1,0.6-0.1,1.2-0.2
		c0.6,0,1.3-0.1,2.1-0.1c0.9,0,2.1-0.1,3.6-0.1c1.5,0,2.6-0.1,3.4-0.1c0.8,0,1.6,0,2.4,0c0.8,0,1.3,0.1,1.7,0.1
		c0.3,0.1,0.7,0.2,1,0.3c0.3,0.2,0.6,0.4,0.7,0.5c0.2,0.2,0.3,0.4,0.5,0.8c0.3,0.5,0.5,1.1,0.5,1.7c0.1,0.6,0.1,2.2,0.1,4.7l0,5.3
		l-0.8,1.1c-0.5,0.8-1.1,1.3-1.8,1.6c-0.6,0.3-1.4,0.4-2.3,0.4c-0.9-0.1-1.5-0.3-1.9-0.7c-0.3-0.3-0.4-0.5-0.4-0.6
		c0-0.1,0.3-0.4,0.7-0.9c0.4-0.4,0.6-0.8,0.7-1.1c0.1-0.3,0.1-0.8,0.1-1.5c0-0.7-0.1-1.3-0.2-1.5c-0.1-0.3-0.4-0.7-0.8-1.1
		c-0.3-0.3-0.6-0.6-0.8-0.7c-0.2-0.1-0.5-0.2-0.9-0.3c-0.4-0.1-0.8,0-1.3,0c-0.9,0.1-1.6,0.5-2.1,1.2c-0.5,0.7-0.8,1.7-0.8,2.9
		c0,1.7,0.6,3.1,1.7,4.4c1.1,1.2,2.7,2,4.6,2.3c1,0.2,2.2,0.3,3.5,0.4c0.9,0.1,1.5,0.1,1.7,0.2c0.2,0.1,0.3,0.3,0.3,0.6
		c0,0.3-0.1,0.5-0.2,0.6c-0.1,0.1-0.4,0.1-1,0.2c-1,0-2.2,0.2-3.4,0.5c-1.2,0.3-2.2,0.6-2.9,1c-2.8,1.5-4.2,3.6-4.2,6.5
		c0,0.5,0,0.9,0,1.1c0,0.2,0.1,0.5,0.3,0.7c0.1,0.2,0.3,0.5,0.6,0.8c0.5,0.5,1.1,0.9,1.8,1.1c0.7,0.2,1.4,0.1,2-0.1
		c0.7-0.2,1.2-0.7,1.6-1.3c0.2-0.3,0.3-0.6,0.4-1c0.1-0.4,0.1-0.8,0.1-1.4c0-0.7-0.1-1.3-0.2-1.5c-0.1-0.3-0.4-0.6-0.8-1.1l-0.9-1
		l0.7-0.5c0.5-0.4,1.1-0.7,1.8-0.8c0.7-0.1,1.3-0.1,2,0.1c0.6,0.2,1.2,0.5,1.6,0.9c0.7,0.7,1.1,1.6,1.3,2.5c0.2,1,0.3,2.7,0.2,5.3
		c0,1.8-0.1,3.2-0.2,4c-0.1,0.8-0.3,1.4-0.5,1.9c-0.2,0.4-0.7,0.9-1.2,1.3c-0.4,0.3-1,0.4-1.8,0.5c-0.9,0.1-2.9,0.3-6.1,0.5
		c-3.1,0.2-5.1,0.3-6,0.3c-0.9,0-1.5-0.1-1.7-0.3L153.7,236.5z"/>
	<path class="st2" d="M174.5,236c-0.2-0.2-0.3-1.4-0.4-3.7c0-2.2-0.1-7.7-0.1-16.4c0-9.6,0-15.2,0-17c0-1.8,0.2-2.8,0.4-2.9
		c0.4-0.2,2.9-0.4,7.6-0.5c2.8-0.1,4.8-0.1,5.8-0.1c1,0,1.7,0.1,2.1,0.3c0.6,0.3,1.2,0.7,1.6,1.1c0.4,0.4,0.8,1,1.2,1.7
		c0.2,0.4,0.3,0.8,0.4,1.1c0.1,0.4,0.1,0.9,0.1,1.7c0,0.7,0,2,0,3.8c0,0.8,0,1.5,0,2c0,0.5,0,1,0,1.5c0,0.5,0,1-0.1,1.3l-0.1,1
		c0,0.3-0.1,0.5-0.2,0.7c-0.1,0.2-0.2,0.4-0.3,0.6c-0.1,0.2-0.2,0.4-0.4,0.5c-0.2,0.1-0.4,0.3-0.5,0.4c-0.2,0.1-0.4,0.3-0.7,0.4
		c-0.9,0.5-1.4,0.9-1.4,1c0,0,0.1,0.1,0.3,0.3c0.2,0.1,0.5,0.3,0.8,0.4c0.4,0.2,0.7,0.4,1,0.6c0.2,0.2,0.5,0.4,0.7,0.6
		c0.2,0.2,0.4,0.5,0.5,0.9c0.1,0.4,0.2,0.8,0.3,1.2c0.1,0.5,0.2,1.1,0.2,1.9c0,0.8,0.1,1.6,0.1,2.5c0,0.8,0,2,0,3.4
		c0,0.7,0,1.4,0,1.9c0,0.6,0,1.1,0,1.6c0,0.5,0,0.9,0,1.3c0,0.4,0,0.7,0,1c0,0.3,0,0.6,0.1,0.8c0,0.2,0.1,0.4,0.1,0.6
		c0,0.2,0.1,0.3,0.1,0.5c0,0.1,0.1,0.2,0.1,0.3c0.1,0.1,0.1,0.3,0.2,0.4c0.1,0.1,0.1,0.3,0.1,0.4c0,0.1,0.1,0.2,0.1,0.3l0,0.1
		c0,0.1-0.2,0.1-0.6,0.1c-0.4,0-0.8,0-1.4,0c-1.7,0-3.2-0.5-4.6-1.4c-1.3-0.9-2.6-2.2-3.7-4.1c-1.6-2.6-2.5-5.5-2.7-8.7
		c-0.2-3.4,0.3-6.3,1.6-8.8l0.9-1.8l1.3,0c0.5,0,1,0,1.5-0.2c0.5-0.2,0.8-0.4,1.2-0.7c0.3-0.3,0.6-0.7,0.7-1.2
		c0.2-0.5,0.3-1,0.3-1.6c0-1.1-0.3-2-0.9-2.6c-0.6-0.6-1.4-0.9-2.5-0.9c-1.1,0-1.9,0.4-2.6,1.1c-0.7,0.7-1.3,1.9-1.7,3.5
		c-0.5,1.6-0.9,3.8-1.3,6.7c-0.2,1.5-0.3,2.7-0.3,3.5c0,0.8,0.1,2,0.2,3.5c0.2,2,0.5,4.1,1.1,6.5c0.5,2.4,1.1,4.3,1.7,5.8l0.8,2
		l-4.1,0.2C176.3,236.3,174.8,236.3,174.5,236z"/>
	<path class="st3" d="M56.1,291.7c-0.2-0.2-0.4-1.5-0.4-3.9c-0.1-2.4-0.1-8.1-0.1-17.4c0-10.1,0-16.1,0-18c0-1.9,0.2-2.9,0.5-3.1
		c0.4-0.2,3.2-0.5,8.4-0.8c3.2-0.2,5.3-0.2,6.5-0.2c1.1,0,1.9,0.1,2.4,0.3c0.7,0.3,1.3,0.7,1.8,1.1c0.5,0.5,0.9,1.1,1.3,1.8
		c0.2,0.4,0.4,0.8,0.4,1.2c0.1,0.4,0.1,1,0.2,1.8c0,0.8,0.1,2.1,0.1,4.1c0,0.9,0,1.6,0,2.1c0,0.5,0,1.1,0,1.6c0,0.6-0.1,1-0.1,1.4
		l-0.1,1c0,0.3-0.1,0.6-0.2,0.8c-0.1,0.2-0.2,0.4-0.3,0.6c-0.1,0.2-0.3,0.4-0.5,0.5c-0.2,0.2-0.4,0.3-0.6,0.4
		c-0.2,0.1-0.5,0.3-0.8,0.5c-1,0.6-1.5,0.9-1.5,1.1c0,0,0.1,0.1,0.4,0.3c0.2,0.1,0.5,0.3,0.9,0.4c0.5,0.2,0.8,0.4,1.1,0.6
		c0.3,0.2,0.5,0.4,0.8,0.6c0.3,0.2,0.5,0.5,0.6,0.9c0.1,0.4,0.2,0.8,0.3,1.3c0.1,0.5,0.2,1.1,0.2,2c0,0.8,0.1,1.7,0.1,2.6
		c0,0.9,0,2.1,0,3.6c0,0.8,0,1.4,0,2c0,0.6,0,1.1,0,1.7c0,0.5,0,1,0,1.4c0,0.4,0,0.8,0,1.1c0,0.3,0,0.6,0.1,0.9
		c0,0.2,0.1,0.5,0.1,0.6c0,0.2,0.1,0.4,0.1,0.5c0,0.1,0.1,0.3,0.1,0.4c0.1,0.2,0.1,0.3,0.2,0.4c0.1,0.1,0.1,0.3,0.1,0.4
		c0,0.1,0.1,0.2,0.1,0.3l0,0.1c0,0.1-0.2,0.1-0.6,0.1c-0.4,0-0.9,0-1.5,0.1c-1.9,0-3.6-0.4-5.1-1.3c-1.5-0.9-2.9-2.3-4.2-4.2
		c-1.8-2.7-2.8-5.8-3-9.1c-0.2-3.6,0.4-6.7,1.8-9.3l1-1.9l1.4,0c0.6,0,1.1-0.1,1.7-0.3c0.5-0.2,0.9-0.5,1.3-0.8
		c0.4-0.3,0.6-0.8,0.8-1.3c0.2-0.5,0.3-1.1,0.3-1.7c0-1.2-0.3-2.1-1-2.8c-0.7-0.7-1.6-0.9-2.7-0.9c-1.2,0.1-2.2,0.5-2.9,1.3
		c-0.8,0.8-1.4,2-1.9,3.7c-0.5,1.7-1,4.1-1.4,7.1c-0.2,1.6-0.3,2.8-0.3,3.7c0,0.9,0.1,2.1,0.2,3.6c0.2,2.1,0.6,4.4,1.2,6.8
		c0.6,2.5,1.2,4.5,1.9,6.1l0.8,2.1l-4.6,0.3C58.1,292,56.4,292,56.1,291.7z"/>
	<path class="st3" d="M80.5,289.6l0-20.3c0-13.6,0.1-20.5,0.4-20.9c0.1-0.1,0.3-0.2,0.5-0.3c0.2-0.1,0.6-0.1,1.2-0.2
		c0.6-0.1,1.4-0.1,2.3-0.2c0.9-0.1,2.2-0.1,3.9-0.2c1.6-0.1,2.8-0.1,3.6-0.2c0.9,0,1.7,0,2.5,0c0.8,0,1.4,0.1,1.8,0.1
		c0.4,0,0.7,0.2,1.1,0.3c0.4,0.2,0.6,0.3,0.8,0.5c0.2,0.2,0.4,0.4,0.6,0.8c0.3,0.5,0.5,1.1,0.5,1.7c0.1,0.6,0.1,2.2,0.1,4.8l0,5.5
		l-0.8,1.2c-0.6,0.8-1.2,1.4-1.9,1.7c-0.7,0.3-1.5,0.5-2.4,0.4c-1,0-1.6-0.3-2-0.6c-0.3-0.3-0.4-0.5-0.4-0.6c0-0.1,0.3-0.4,0.7-0.9
		c0.4-0.4,0.6-0.8,0.7-1.1c0.1-0.3,0.1-0.8,0.1-1.6c0-0.8-0.1-1.3-0.2-1.6c-0.1-0.3-0.4-0.7-0.8-1.1c-0.3-0.3-0.6-0.6-0.9-0.7
		c-0.2-0.1-0.6-0.2-0.9-0.3c-0.4,0-0.8,0-1.4,0.1c-0.9,0.1-1.7,0.6-2.3,1.3c-0.6,0.8-0.8,1.8-0.8,3c0,1.8,0.6,3.2,1.8,4.5
		c1.2,1.2,2.8,2,4.9,2.3c1.1,0.2,2.3,0.3,3.7,0.3c1,0,1.6,0.1,1.8,0.2c0.2,0.1,0.3,0.3,0.3,0.6c0,0.3-0.1,0.5-0.2,0.6
		c-0.1,0.1-0.5,0.1-1,0.2c-1.1,0.1-2.3,0.3-3.7,0.6c-1.3,0.3-2.3,0.7-3.1,1.1c-3,1.6-4.5,3.9-4.5,6.8c0,0.5,0,0.9,0,1.1
		c0,0.3,0.1,0.5,0.3,0.7c0.1,0.2,0.3,0.5,0.6,0.8c0.5,0.5,1.1,0.9,1.9,1c0.7,0.2,1.5,0.1,2.2-0.2c0.7-0.3,1.3-0.7,1.7-1.4
		c0.2-0.3,0.3-0.6,0.4-1c0.1-0.4,0.1-0.9,0.1-1.4c0-0.8-0.1-1.3-0.2-1.6c-0.1-0.3-0.4-0.7-0.8-1.1l-1-1l0.7-0.5
		c0.5-0.4,1.2-0.7,1.9-0.9c0.7-0.2,1.4-0.2,2.1,0c0.7,0.2,1.2,0.5,1.7,0.9c0.7,0.7,1.2,1.6,1.4,2.6c0.2,1,0.3,2.8,0.2,5.5
		c0,1.9-0.1,3.3-0.2,4.1c-0.1,0.8-0.3,1.5-0.5,2c-0.3,0.5-0.7,0.9-1.3,1.4c-0.4,0.3-1.1,0.5-2,0.6c-0.9,0.1-3.1,0.3-6.5,0.6
		c-3.3,0.3-5.4,0.4-6.4,0.4c-1,0-1.6-0.1-1.9-0.3L80.5,289.6z"/>
	<path class="st3" d="M106.1,288.1c-1.5-0.6-2.5-1.9-3.2-4c-0.1-0.3-0.2-0.7-0.3-1.3c-0.1-0.5-0.1-1.5-0.2-3c0-1.4-0.1-3.2-0.1-5.3
		c0-2.1,0-5.1-0.1-9c0-5.7-0.1-10,0-13c0-3,0.1-4.7,0.2-5c0.1-0.4,0.3-0.6,0.6-0.7c0.2-0.1,0.9-0.2,2-0.2c0.6,0,1.1,0,1.5,0
		c0.4,0,0.8,0.1,1.1,0.3c0.3,0.1,0.7,0.4,0.9,0.8c0.3,0.4,0.6,0.8,0.8,1.3c0.3,0.5,0.6,1.2,1,2.1c1.7,3.7,2.9,7.2,3.4,10.5
		c0.5,3.3,0.4,6.3-0.4,8.9l-0.5,1.6l-1.5,0.1c-1.2,0.1-2.2,0.5-2.8,1.2c-0.7,0.7-1,1.7-1,2.9c0,1.2,0.3,2.1,1,2.7
		c0.7,0.6,1.6,0.9,2.8,0.8c0.5,0,0.9-0.1,1.2-0.3c0.3-0.2,0.7-0.5,1.2-1.1c0.8-1,1.4-2.1,1.7-3.4c0.3-1.3,0.5-3.3,0.6-6.1
		c0.1-1.8,0.1-3.5,0-5c0-1.5-0.2-3-0.4-4.6c-0.2-1.5-0.5-3.1-0.9-4.7c-0.3-1.6-0.8-3.3-1.4-5.2l-1-3.4l3.9-0.2
		c1.9-0.1,3.1-0.1,3.5-0.1c0.4,0,0.7,0.2,0.9,0.5c0.2,0.3,0.3,1.4,0.4,3.4c0.1,2,0.1,6.7,0.1,14.1c0,9.2,0,14.7-0.2,16.6
		c-0.1,1.9-0.6,3.5-1.3,4.8c-0.6,1.1-1.4,1.7-2.4,2.1c-0.9,0.3-2.7,0.6-5.5,0.8c-3,0.2-4.9,0.2-5.7-0.1
		C106.2,288.2,106.1,288.1,106.1,288.1z"/>
	<path class="st3" d="M124.2,287c-0.2-0.2-0.3-1-0.4-2.4c-0.1-1.4-0.1-4.7-0.1-9.9l0-11.9l1.4-0.1c0.9-0.1,2.2-0.4,3.7-1
		c0.9-0.4,1.7-0.8,2.2-1.2c0.6-0.4,1-0.9,1.3-1.4c0.3-0.5,0.4-1.1,0.4-1.7c0-1.2-0.3-2.2-0.9-2.8c-0.6-0.6-1.5-0.9-2.6-0.9
		c-0.8,0-1.4,0.2-2,0.6c-0.6,0.4-1,0.9-1.2,1.5c-0.3,0.6-0.4,1.3-0.3,2.2c0.1,0.7,0,1-0.2,1c-0.3,0-0.6-0.2-1.2-0.8l-0.8-0.8
		l0.1-5.3c0.1-3.5,0.3-5.5,0.5-6c0.2-0.4,0.5-0.6,1-0.7c0.5-0.1,1.9-0.2,4.2-0.3c2.9-0.1,4.6-0.1,4.9,0.1c0.1,0.1,0.2,0.2,0.3,0.4
		c0.2,0.3,0.3,1.6,0.4,3.9c0,2.3,0.1,7.8,0.1,16.4l0,10.5c0,2.3,0,4.3-0.1,5.9c0,1.6-0.1,2.5-0.1,3c0,0.4-0.1,0.7-0.2,0.8
		c0,0-0.1,0.1-0.1,0.1c0,0-0.1,0.1-0.2,0.1c-0.1,0-0.2,0.1-0.2,0.1c-0.1,0-0.2,0.1-0.3,0.1c-0.1,0-0.2,0.1-0.4,0.1
		c-0.1,0-0.3,0-0.5,0.1c-0.2,0-0.4,0-0.6,0.1c-0.2,0-0.5,0.1-0.8,0.1l-2,0.1c-1.4,0.1-2.4,0.1-3,0.2c-0.7,0-1.2,0-1.5,0
		C124.6,287.2,124.3,287.1,124.2,287z"/>
	<path class="st3" d="M140.9,285.7c-1.4-0.6-2.5-1.9-3.1-3.9c-0.1-0.3-0.2-0.7-0.3-1.2c-0.1-0.5-0.1-1.5-0.2-2.9
		c0-1.4-0.1-3.2-0.1-5.2c0-2.1,0-5-0.1-8.9c0-5.6,0-9.9,0-12.8c0-3,0.1-4.6,0.2-4.9c0.1-0.4,0.3-0.6,0.6-0.7c0.2-0.1,0.9-0.2,2-0.2
		c0.6,0,1.1,0,1.5,0c0.4,0,0.7,0.1,1.1,0.2c0.3,0.1,0.6,0.4,0.9,0.7c0.3,0.4,0.5,0.8,0.8,1.3c0.3,0.5,0.6,1.1,1,2
		c1.7,3.6,2.8,7,3.3,10.3c0.5,3.3,0.4,6.2-0.4,8.8l-0.5,1.6l-1.4,0.1c-1.2,0.1-2.1,0.5-2.8,1.2c-0.7,0.7-1,1.7-1,2.8
		c0,1.2,0.3,2,1,2.7c0.7,0.6,1.6,0.9,2.7,0.8c0.5,0,0.9-0.1,1.1-0.3c0.3-0.2,0.7-0.5,1.1-1.1c0.8-1,1.4-2.1,1.7-3.3
		c0.3-1.3,0.5-3.3,0.6-6c0.1-1.8,0.1-3.4,0-4.9c0-1.5-0.2-3-0.4-4.5c-0.2-1.5-0.5-3-0.8-4.6c-0.3-1.5-0.8-3.2-1.3-5.1l-1-3.3
		l3.8-0.2c1.8-0.1,3-0.1,3.4-0.1c0.4,0,0.7,0.2,0.9,0.5c0.2,0.3,0.3,1.4,0.4,3.4c0.1,2,0.1,6.6,0.1,13.9c0,9,0,14.5-0.2,16.4
		c-0.1,1.9-0.6,3.5-1.3,4.7c-0.6,1-1.4,1.7-2.3,2c-0.9,0.3-2.7,0.6-5.3,0.8c-2.9,0.2-4.8,0.2-5.5-0.1
		C141,285.7,140.9,285.7,140.9,285.7z"/>
	<path class="st3" d="M161.1,284.5c-0.7-0.2-1.2-0.5-1.6-0.9c-0.4-0.4-0.8-0.9-1.1-1.6c-0.2-0.5-0.4-1.2-0.4-2.1
		c-0.1-0.9-0.1-2.7-0.1-5.6c0-2.7,0-4.6,0.1-5.8c0.1-1.2,0.3-2.1,0.5-2.8c0.3-0.7,0.7-1.4,1.3-2.2c0.1-0.2,0.3-0.3,0.4-0.4
		c0.1-0.1,0.3-0.3,0.4-0.4c0.2-0.1,0.3-0.3,0.5-0.4c0.2-0.1,0.4-0.3,0.6-0.4c0.2-0.1,0.5-0.3,0.7-0.4c0.3-0.2,0.6-0.3,0.9-0.5
		c0.3-0.2,0.7-0.3,1.2-0.6c2.4-1.2,3.8-1.9,4.3-2.3c0.7-0.5,1.1-1.3,1.3-2.2c0.2-0.9,0.1-1.8-0.3-2.6c-0.2-0.4-0.5-0.8-1-1.1
		c-0.4-0.3-0.9-0.5-1.4-0.5c-0.5-0.1-1,0-1.5,0.1c-0.5,0.2-1,0.4-1.4,0.8c-0.4,0.4-0.8,1-1,1.7c-0.3,0.7-0.3,1.4-0.2,1.9
		c0,0.2,0,0.3,0,0.5c0,0.2-0.1,0.3-0.2,0.5c-0.1,0.2-0.2,0.3-0.4,0.5c-0.1,0.1-0.3,0.3-0.5,0.4c-0.2,0.1-0.4,0.2-0.7,0.3
		c-0.3,0.1-0.5,0.2-0.7,0.2c-0.2,0-0.4,0-0.6,0c-0.2,0-0.4-0.1-0.7-0.3c-0.5-0.3-0.9-0.6-1.2-1c-0.3-0.4-0.5-1-0.6-1.8
		c-0.1-0.8-0.2-1.9-0.2-3.3c0-2,0.1-3.6,0.3-4.6c0.2-1.1,0.5-1.8,0.9-2.4c0.6-0.7,1.3-1.2,2.1-1.4c0.9-0.2,2.8-0.4,5.7-0.5
		c1.8-0.1,3.1-0.1,3.9-0.2c0.9,0,1.6,0.1,2.3,0.2c0.6,0.2,1.1,0.4,1.4,0.6c0.3,0.3,0.5,0.7,0.8,1.2c0.3,0.6,0.4,1.7,0.5,3.4
		c0.1,1.7,0.1,7,0.1,15.9c0,8.1,0,13.1,0,15.2c0,2.1-0.2,3.2-0.4,3.5c-0.3,0.3-1.3,0.6-3.2,0.7l-2.8,0.2l0.4-1.6
		c0.5-2.3,0.8-5.2,0.9-8.7c0-3.5-0.2-5.9-0.7-7.1c-0.5-1.1-1.1-1.8-2-2c-0.9-0.3-1.7-0.1-2.7,0.6c-0.3,0.3-0.7,0.6-1,1
		c-0.3,0.4-0.5,0.8-0.7,1.2c-0.2,0.4-0.3,0.8-0.3,1.2c0,1,0.4,1.9,1.2,2.6c0.8,0.7,1.7,1,2.7,0.9c0.2-0.1,0.3-0.1,0.5,0
		c0.1,0.1,0.2,0.1,0.3,0c0.1,0,0.1,0,0.2,0.2c0.1,0.2,0.1,0.3,0.2,0.4c0,0.1,0.1,0.4,0.1,0.7c0.2,1,0.3,2.5,0.3,4.5
		c0,0.6,0,1.2,0,1.7c0,0.5-0.1,0.9-0.1,1.3c-0.1,0.4-0.1,0.7-0.2,1c-0.1,0.3-0.2,0.5-0.3,0.8c-0.1,0.2-0.3,0.4-0.5,0.6
		c-0.2,0.2-0.4,0.3-0.6,0.4c-0.6,0.3-1.6,0.5-2.9,0.6C162.7,284.8,161.7,284.7,161.1,284.5z"/>
	<path class="st3" d="M179.1,283.4c-0.1-0.1-0.2-0.1-0.3-0.2c-0.1-0.1-0.2-0.2-0.3-0.3c-0.1-0.1-0.2-0.2-0.2-0.3
		c-0.1-0.3-0.2-3.6-0.3-10.1c-0.1-6.5-0.1-12.9,0-19.3c0-6.4,0.1-9.7,0.3-9.9c0.2-0.3,2.7-0.5,7.5-0.7c4.4-0.2,6.7-0.2,7.2-0.1
		c0.2,0.1,0.3,0.2,0.5,0.4c0.6,0.5,0.7,1.3,0.6,2.4c-0.2,1-0.7,2.3-1.6,3.9c-0.9,1.6-2.2,3.6-4,6c-2,2.7-3.4,5-4.3,6.7
		c-0.9,1.7-1.6,3.4-2,5.1c-0.2,0.8-0.3,1.7-0.4,2.5c-0.1,0.9-0.1,1.7,0,2.4c0.1,0.7,0.2,1.2,0.4,1.6c0.5,0.9,1.2,1.4,2.1,1.6
		c0.9,0.2,1.8,0,2.7-0.7c0.5-0.4,0.9-1,1.2-1.7c0.2-0.7,0.3-1.4,0.2-2.1c-0.1-0.7-0.3-1.3-0.7-1.8c-0.4-0.6-0.9-0.9-1.5-1l-0.8-0.2
		l0.1-2.3c0.1-2,0.5-3.7,1.2-4.9c0.7-1.2,1.7-1.9,3.1-2.1c1.6-0.2,2.9,0.3,3.8,1.7c0.1,0.2,0.3,0.4,0.4,0.6c0.3,0.6,0.5,1.4,0.5,2.4
		c0.1,0.9,0.1,3.8,0,8.7c0,4.5-0.1,7.3-0.1,8.4c-0.1,1.1-0.2,1.8-0.4,2c-0.1,0.2-0.2,0.3-0.4,0.3c-0.2,0.1-0.5,0.2-1.1,0.2
		c-0.6,0.1-1.3,0.2-2.1,0.2c-0.8,0.1-2.1,0.2-3.7,0.3C182,283.4,179.5,283.5,179.1,283.4z"/>
	<g>
		<path class="st4" d="M41.3,10.3l0.1,37.9c0-0.3,0.1-0.7,0.1-1c0.1-0.6,0.2-1.3,0.3-1.9c0.1-0.6,0.3-1.3,0.5-1.9
			c0.2-0.6,0.4-1.3,0.6-1.9c0.2-0.6,0.5-1.2,0.8-1.9c0.3-0.6,0.6-1.2,1-1.8c4.3-7.2,12.1-11.7,21-11.2l60.5,3l57.3,2.8
			c7.9,0.4,14.8,5.3,18.5,12.3c0.3,0.6,0.6,1.2,0.9,1.8c0.3,0.6,0.5,1.2,0.7,1.8c0.2,0.6,0.4,1.2,0.6,1.8c0.2,0.6,0.3,1.2,0.4,1.8
			c0.1,0.6,0.2,1.2,0.3,1.8c0.1,0.6,0.1,1.2,0.2,1.8c0,0.6,0.1,1.2,0.1,1.8l-0.1-37.7L41.3,10.3z"/>
		<path class="st2" d="M204.9,53.7c-0.1-0.6-0.2-1.2-0.3-1.8c-0.1-0.6-0.3-1.2-0.4-1.8c-0.2-0.6-0.4-1.2-0.6-1.8
			c-0.2-0.6-0.5-1.2-0.7-1.8c-0.3-0.6-0.6-1.2-0.9-1.8c-3.8-7-10.7-11.9-18.5-12.3l-57.3-2.8l-60.5-3c-8.9-0.4-16.7,4.1-21,11.2
			c-0.4,0.6-0.7,1.2-1,1.8c-0.3,0.6-0.6,1.2-0.8,1.9c-0.2,0.6-0.5,1.2-0.6,1.9c-0.2,0.6-0.3,1.2-0.5,1.9c-0.1,0.6-0.3,1.2-0.3,1.9
			c0,0.3-0.1,0.7-0.1,1l0,3.8c0-0.3,0.1-0.7,0.1-1c0.1-0.6,0.2-1.3,0.3-1.9c0.1-0.6,0.3-1.3,0.5-1.9c0.2-0.6,0.4-1.3,0.6-1.9
			c0.2-0.6,0.5-1.3,0.8-1.9c0.3-0.6,0.6-1.2,1-1.8c0.4-0.6,0.8-1.2,1.2-1.8c4.5-6.1,11.7-9.8,19.8-9.4l60.5,2.9l57.3,2.7
			c7.2,0.3,13.5,4.5,17.5,10.5c0.4,0.6,0.7,1.2,1.1,1.8c0.3,0.6,0.6,1.2,0.9,1.8c0.3,0.6,0.5,1.2,0.7,1.8c0.2,0.6,0.4,1.2,0.6,1.8
			c0.2,0.6,0.3,1.2,0.4,1.8c0.1,0.6,0.2,1.2,0.3,1.8c0.1,0.6,0.1,1.2,0.2,1.8c0-0.6,0.1-1.2,0.1-1.7v0c0-0.6,0-1.2-0.1-1.8
			C205.1,54.9,205,54.3,204.9,53.7z"/>
		<path class="st3" d="M205.1,44.9c0-0.6-0.1-1.2-0.2-1.8c-0.1-0.6-0.2-1.2-0.3-1.8c-0.1-0.6-0.3-1.2-0.4-1.8
			c-2.7-9.8-10.9-17.3-20.7-17.8l-57.3-3.1l-60.5-3.3c-11-0.6-20.4,6.4-23.5,16.7c-0.2,0.6-0.3,1.2-0.5,1.9
			c-0.1,0.6-0.3,1.2-0.3,1.9c-0.1,0.6-0.2,1.2-0.2,1.9c0,0.6-0.1,1.3-0.1,1.9v0v0c0,0.6,0,1.3,0.1,1.9c0-0.6,0.1-1.3,0.2-1.9
			c0.1-0.6,0.2-1.3,0.3-1.9c0.1-0.6,0.3-1.3,0.5-1.9c0.2-0.6,0.4-1.3,0.6-1.9c3.6-9.2,12.5-15.4,22.8-14.9l60.5,3.2l57.3,3
			c9.2,0.5,17,7.1,20.1,16c0.2,0.6,0.4,1.2,0.6,1.8c0.2,0.6,0.3,1.2,0.4,1.8c0.1,0.6,0.2,1.2,0.3,1.8c0.1,0.6,0.1,1.2,0.2,1.8
			c0-0.6,0.1-1.2,0.1-1.7v0v0C205.2,46.1,205.1,45.5,205.1,44.9z"/>
		<path class="st5" d="M205.1,48.5c0-0.6-0.1-1.2-0.2-1.8c-0.1-0.6-0.2-1.2-0.3-1.8c-0.1-0.6-0.3-1.2-0.4-1.8
			c-0.2-0.6-0.4-1.2-0.6-1.8c-3.2-8.9-11-15.5-20.1-16l-57.3-3l-60.5-3.2C55.4,18.6,46.6,24.8,42.9,34c-0.2,0.6-0.5,1.2-0.6,1.9
			c-0.2,0.6-0.3,1.2-0.5,1.9c-0.1,0.6-0.3,1.2-0.3,1.9c-0.1,0.6-0.2,1.2-0.2,1.9c0,0.6-0.1,1.3-0.1,1.9v0c0,0.6,0,1.3,0.1,1.9
			c0-0.6,0.1-1.3,0.2-1.9c0.1-0.6,0.2-1.3,0.3-1.9c0.1-0.6,0.3-1.3,0.5-1.9c0.2-0.6,0.4-1.3,0.6-1.9c0.2-0.6,0.5-1.2,0.8-1.9
			c4-8.2,12.4-13.5,22-13l60.5,3.1l57.3,2.9c8.5,0.4,15.9,6.2,19.4,14.2c0.3,0.6,0.5,1.2,0.7,1.8c0.2,0.6,0.4,1.2,0.6,1.8
			c0.2,0.6,0.3,1.2,0.4,1.8c0.1,0.6,0.2,1.2,0.3,1.8c0.1,0.6,0.1,1.2,0.2,1.8c0-0.6,0.1-1.2,0.1-1.7v0
			C205.2,49.6,205.1,49,205.1,48.5z"/>
		<path class="st6" d="M205.1,52c0-0.6-0.1-1.2-0.2-1.8c-0.1-0.6-0.2-1.2-0.3-1.8c-0.1-0.6-0.3-1.2-0.4-1.8
			c-0.2-0.6-0.4-1.2-0.6-1.8c-0.2-0.6-0.5-1.2-0.7-1.8c-3.5-8-10.9-13.7-19.4-14.2L126.2,26l-60.5-3.1c-9.6-0.5-18,4.8-22,13
			c-0.3,0.6-0.6,1.2-0.8,1.9c-0.2,0.6-0.5,1.2-0.6,1.9c-0.2,0.6-0.3,1.2-0.5,1.9c-0.1,0.6-0.3,1.2-0.3,1.9c-0.1,0.6-0.2,1.2-0.2,1.9
			c0,0.6-0.1,1.3-0.1,1.9v0c0,0.6,0,1.3,0.1,1.9c0-0.6,0.1-1.3,0.2-1.9c0.1-0.6,0.2-1.3,0.3-1.9c0.1-0.6,0.3-1.3,0.5-1.9
			c0.2-0.6,0.4-1.3,0.6-1.9c0.2-0.6,0.5-1.2,0.8-1.9c0.3-0.6,0.6-1.2,1-1.8c4.3-7.2,12.1-11.7,21-11.2l60.5,3l57.3,2.8
			c7.9,0.4,14.8,5.3,18.5,12.3c0.3,0.6,0.6,1.2,0.9,1.8c0.3,0.6,0.5,1.2,0.7,1.8c0.2,0.6,0.4,1.2,0.6,1.8c0.2,0.6,0.3,1.2,0.4,1.8
			c0.1,0.6,0.2,1.2,0.3,1.8c0.1,0.6,0.1,1.2,0.2,1.8c0-0.6,0.1-1.2,0.1-1.7v0C205.2,53.1,205.1,52.5,205.1,52z"/>
	</g>
	<g>
		<path class="st4" d="M205.6,316.7l-0.1-35.1c0,0.3-0.1,0.6-0.1,0.9c-0.1,0.6-0.2,1.2-0.3,1.8c-0.1,0.6-0.3,1.2-0.4,1.8
			c-0.2,0.6-0.4,1.2-0.6,1.8c-0.2,0.6-0.5,1.2-0.7,1.8c-0.3,0.6-0.6,1.2-0.9,1.8c-3.8,7.1-10.6,12.3-18.5,12.9l-57.2,4.6l-60.4,4.8
			c-8.9,0.7-16.7-3.6-21.1-10.6c-0.4-0.6-0.7-1.2-1-1.8c-0.3-0.6-0.6-1.2-0.8-1.8c-0.2-0.6-0.5-1.2-0.7-1.8
			c-0.2-0.6-0.4-1.2-0.5-1.9c-0.1-0.6-0.3-1.2-0.3-1.9c-0.1-0.6-0.2-1.2-0.2-1.9c0-0.6-0.1-1.2-0.1-1.9l0.1,40.6L205.6,316.7z"/>
		<path class="st2" d="M42,294c0.1,0.6,0.2,1.3,0.3,1.9c0.1,0.6,0.3,1.2,0.5,1.9c0.2,0.6,0.4,1.2,0.7,1.8c0.3,0.6,0.5,1.2,0.8,1.8
			c0.3,0.6,0.7,1.2,1,1.8c4.4,7,12.2,11.3,21.1,10.6l60.4-4.8l57.2-4.6c7.9-0.6,14.7-5.8,18.5-12.9c0.3-0.6,0.6-1.2,0.9-1.8
			c0.3-0.6,0.5-1.2,0.7-1.8c0.2-0.6,0.4-1.2,0.6-1.8c0.2-0.6,0.3-1.2,0.4-1.8c0.1-0.6,0.2-1.2,0.3-1.8c0-0.3,0.1-0.6,0.1-0.9l0-3.5
			c0,0.3-0.1,0.6-0.1,0.9c-0.1,0.6-0.2,1.2-0.3,1.8c-0.1,0.6-0.3,1.2-0.4,1.8c-0.2,0.6-0.4,1.2-0.6,1.8c-0.2,0.6-0.5,1.2-0.7,1.8
			c-0.3,0.6-0.6,1.2-0.9,1.8c-0.3,0.6-0.7,1.2-1.1,1.8c-3.9,6.2-10.2,10.5-17.4,11l-57.2,4.5l-60.4,4.7c-8.1,0.6-15.3-2.9-19.8-8.8
			c-0.4-0.6-0.9-1.2-1.2-1.8c-0.4-0.6-0.7-1.2-1-1.8c-0.3-0.6-0.6-1.2-0.8-1.8c-0.2-0.6-0.5-1.2-0.7-1.8c-0.2-0.6-0.4-1.2-0.5-1.9
			c-0.1-0.6-0.3-1.2-0.3-1.9c-0.1-0.6-0.2-1.2-0.2-1.9c0,0.6-0.1,1.3-0.1,1.9v0c0,0.6,0,1.3,0.1,1.9C41.8,292.8,41.9,293.4,42,294z"
			/>
		<path class="st3" d="M41.8,303.5c0,0.6,0.1,1.3,0.2,1.9c0.1,0.6,0.2,1.3,0.3,1.9c0.1,0.6,0.3,1.2,0.5,1.9
			c3.2,10.1,12.6,16.9,23.6,16l60.4-5.1l57.2-4.9c9.8-0.8,17.9-8.5,20.6-18.4c0.2-0.6,0.3-1.2,0.4-1.8c0.1-0.6,0.2-1.2,0.3-1.8
			c0.1-0.6,0.1-1.2,0.2-1.8c0-0.6,0.1-1.2,0.1-1.8v0v0c0-0.6,0-1.2-0.1-1.7c0,0.6-0.1,1.2-0.2,1.8c-0.1,0.6-0.2,1.2-0.3,1.8
			c-0.1,0.6-0.3,1.2-0.4,1.8c-0.2,0.6-0.4,1.2-0.6,1.8c-3.1,9-10.9,15.8-20.1,16.6l-57.2,4.8l-60.4,5c-10.3,0.9-19.2-5-22.9-14.2
			c-0.2-0.6-0.5-1.2-0.7-1.8c-0.2-0.6-0.4-1.2-0.5-1.9c-0.1-0.6-0.3-1.2-0.3-1.9c-0.1-0.6-0.2-1.2-0.2-1.9c0,0.6-0.1,1.3-0.1,1.9v0
			v0C41.7,302.3,41.8,302.9,41.8,303.5z"/>
		<path class="st5" d="M41.8,299.7c0,0.6,0.1,1.3,0.2,1.9c0.1,0.6,0.2,1.3,0.3,1.9c0.1,0.6,0.3,1.2,0.5,1.9c0.2,0.6,0.4,1.2,0.7,1.8
			c3.7,9.1,12.6,15,22.9,14.2l60.4-5l57.2-4.8c9.2-0.8,16.9-7.6,20.1-16.6c0.2-0.6,0.4-1.2,0.6-1.8c0.2-0.6,0.3-1.2,0.4-1.8
			c0.1-0.6,0.2-1.2,0.3-1.8c0.1-0.6,0.1-1.2,0.2-1.8c0-0.6,0.1-1.2,0.1-1.8v0c0-0.6,0-1.2-0.1-1.7c0,0.6-0.1,1.2-0.2,1.8
			c-0.1,0.6-0.2,1.2-0.3,1.8c-0.1,0.6-0.3,1.2-0.4,1.8c-0.2,0.6-0.4,1.2-0.6,1.8c-0.2,0.6-0.5,1.2-0.7,1.8
			c-3.5,8.1-10.8,14-19.4,14.7l-57.2,4.7l-60.4,4.9c-9.6,0.8-18-4.3-22.1-12.4c-0.3-0.6-0.6-1.2-0.8-1.8c-0.2-0.6-0.5-1.2-0.7-1.8
			c-0.2-0.6-0.4-1.2-0.5-1.9c-0.1-0.6-0.3-1.2-0.3-1.9c-0.1-0.6-0.2-1.2-0.2-1.9c0,0.6-0.1,1.3-0.1,1.9v0
			C41.7,298.5,41.7,299.1,41.8,299.7z"/>
		<path class="st6" d="M41.8,296c0,0.6,0.1,1.3,0.2,1.9c0.1,0.6,0.2,1.3,0.3,1.9c0.1,0.6,0.3,1.2,0.5,1.9c0.2,0.6,0.4,1.2,0.7,1.8
			c0.3,0.6,0.5,1.2,0.8,1.8c4.1,8.1,12.5,13.2,22.1,12.4l60.4-4.9l57.2-4.7c8.5-0.7,15.9-6.7,19.4-14.7c0.3-0.6,0.5-1.2,0.7-1.8
			c0.2-0.6,0.4-1.2,0.6-1.8c0.2-0.6,0.3-1.2,0.4-1.8c0.1-0.6,0.2-1.2,0.3-1.8c0.1-0.6,0.1-1.2,0.2-1.8c0-0.6,0.1-1.2,0.1-1.8v0
			c0-0.6,0-1.2-0.1-1.7c0,0.6-0.1,1.2-0.2,1.8c-0.1,0.6-0.2,1.2-0.3,1.8c-0.1,0.6-0.3,1.2-0.4,1.8c-0.2,0.6-0.4,1.2-0.6,1.8
			c-0.2,0.6-0.5,1.2-0.7,1.8c-0.3,0.6-0.6,1.2-0.9,1.8c-3.8,7.1-10.6,12.3-18.5,12.9l-57.2,4.6l-60.4,4.8
			c-8.9,0.7-16.7-3.6-21.1-10.6c-0.4-0.6-0.7-1.2-1-1.8c-0.3-0.6-0.6-1.2-0.8-1.8c-0.2-0.6-0.5-1.2-0.7-1.8
			c-0.2-0.6-0.4-1.2-0.5-1.9c-0.1-0.6-0.3-1.2-0.3-1.9c-0.1-0.6-0.2-1.2-0.2-1.9c0,0.6-0.1,1.3-0.1,1.9v0
			C41.7,294.7,41.7,295.3,41.8,296z"/>
	</g>
	<polygon class="st4" points="41.8,330.9 8.7,333.8 8,8.5 41.1,10.3 	"/>
	<g>
		<path class="st0" d="M13.7,14.3c0.1-0.1,0.1-0.3,0.1-0.4c0-0.1,0-0.3,0-0.4c0-0.2,0-0.4-0.1-0.5c-0.1-0.1-0.1-0.2-0.2-0.2
			c-0.1,0-0.2,0.1-0.3,0.2c-0.1,0.1-0.1,0.3-0.2,0.5c-0.1,0.2-0.1,0.4-0.1,0.7c0,0.3,0,0.5,0,0.8c0,0.5,0.1,1,0.2,1.3
			c0.1,0.3,0.3,0.5,0.5,0.5c0.1,0,0.3-0.1,0.4-0.2c0.1-0.2,0.2-0.4,0.2-0.8c0.1,0,0.1,0.1,0.2,0.1c0.1,0.1,0.1,0.2,0.2,0.3
			c0.1,0.1,0.1,0.2,0.1,0.4c0,0.1,0.1,0.3,0.1,0.5c0,0.2,0,0.5-0.1,0.7c-0.1,0.2-0.1,0.4-0.3,0.6c-0.1,0.2-0.3,0.3-0.4,0.4
			c-0.2,0.1-0.3,0.1-0.5,0.1c-0.3,0-0.5-0.1-0.7-0.3c-0.2-0.2-0.4-0.5-0.5-0.8c-0.1-0.4-0.3-0.8-0.3-1.2c-0.1-0.5-0.1-1-0.1-1.5
			c0-0.5,0-1,0.1-1.5c0.1-0.5,0.2-0.9,0.4-1.3c0.2-0.4,0.4-0.7,0.6-0.9c0.2-0.2,0.5-0.3,0.9-0.3c0.2,0,0.4,0.1,0.5,0.2
			c0.1,0.1,0.3,0.2,0.3,0.4c0.1,0.1,0.1,0.3,0.2,0.5c0,0.2,0.1,0.4,0.1,0.6c0,0.3,0,0.5-0.1,0.7c-0.1,0.2-0.1,0.4-0.2,0.5
			c-0.1,0.1-0.2,0.3-0.3,0.4C14,14.2,13.8,14.2,13.7,14.3z"/>
		<path class="st0" d="M16.3,14.3c0.1-0.2,0.2-0.4,0.3-0.6c0.1-0.2,0.2-0.3,0.2-0.4c0.1-0.1,0.2-0.2,0.2-0.2c0.1,0,0.2,0,0.3,0
			c0.1,0,0.2,0,0.2,0.1c0.1,0.1,0.1,0.2,0.2,0.3c0.1,0.1,0.1,0.2,0.1,0.4c0,0.1,0,0.3,0,0.5c0,0.2,0,0.3,0,0.5
			c0,0.2-0.1,0.3-0.1,0.5c-0.1,0.2-0.2,0.3-0.3,0.4c-0.1,0.1-0.2,0.2-0.4,0.3c0.1-0.2,0.1-0.3,0.1-0.4c0-0.1,0-0.2,0-0.3
			c0-0.2,0-0.3,0-0.3c0-0.1-0.1-0.1-0.1-0.1c-0.1,0-0.1,0-0.2,0.1c-0.1,0.1-0.2,0.2-0.2,0.4c-0.1,0.2-0.1,0.4-0.2,0.6
			c0,0.2-0.1,0.5-0.1,0.8c0,0.3,0,0.6,0.1,1c0.1,0.3,0.2,0.7,0.3,1.1c-0.1,0-0.2-0.1-0.3-0.1c-0.1,0-0.2,0-0.3,0c-0.2,0-0.4,0-0.5,0
			c-0.2,0-0.3,0-0.5,0c0-0.1,0.1-0.3,0.1-0.4c0-0.1,0.1-0.3,0.1-0.5c0-0.2,0.1-0.5,0.1-0.8c0-0.3,0-0.7,0-1.1c0-0.4,0-0.8,0-1.1
			c0-0.3,0-0.5-0.1-0.7c0-0.2-0.1-0.3-0.1-0.4c-0.1-0.1-0.1-0.2-0.2-0.2c0.1-0.2,0.2-0.3,0.4-0.4c0.2-0.1,0.3-0.2,0.5-0.2
			c0.1,0,0.3,0.1,0.3,0.2c0.1,0.1,0.1,0.3,0.1,0.5c0,0.1,0,0.2,0,0.3C16.3,14.2,16.3,14.2,16.3,14.3z"/>
		<path class="st0" d="M19.4,13.2c0.2,0,0.3,0.1,0.4,0.2c0.1,0.1,0.2,0.2,0.3,0.4c0.1,0.2,0.1,0.3,0.2,0.5c0,0.2,0.1,0.4,0.1,0.6
			c0,0.2,0,0.4,0.1,0.5c0,0.2,0,0.3,0,0.4c0,0.1,0,0.2,0,0.2c0,0.1,0,0.2,0,0.2c-0.1,0-0.2,0-0.4,0.1c-0.1,0-0.3,0.1-0.4,0.2
			c-0.1,0.1-0.2,0.2-0.3,0.3c-0.1,0.1-0.1,0.2-0.1,0.4c0,0.1,0,0.2,0.1,0.3c0.1,0.1,0.1,0.1,0.2,0.1c0.1,0,0.2,0,0.2-0.1
			c0.1,0,0.2-0.1,0.2-0.2c0.1-0.1,0.1-0.2,0.2-0.2c0-0.1,0.1-0.2,0.1-0.2c0.1,0.1,0.1,0.2,0.1,0.3c0,0.1,0,0.3,0,0.4
			c0,0.5-0.1,0.8-0.3,1.1c-0.2,0.3-0.4,0.4-0.7,0.4c-0.2,0-0.5-0.1-0.6-0.3c-0.2-0.2-0.3-0.4-0.4-0.7c-0.1-0.3-0.2-0.6-0.2-1
			c0-0.3-0.1-0.7-0.1-1c0-0.4,0-0.7,0.1-1.1c0.1-0.4,0.1-0.7,0.2-0.9c0.1-0.3,0.2-0.5,0.4-0.7C19,13.3,19.2,13.2,19.4,13.2z
			 M19.2,15.3c0,0.1,0,0.1,0,0.2c0,0.1,0,0.1,0,0.1c0.1-0.1,0.1-0.1,0.2-0.2c0.1-0.1,0.1-0.1,0.2-0.2c0-0.2,0-0.4,0-0.5
			c0-0.1-0.1-0.2-0.1-0.2c0,0-0.1,0-0.1,0.1c0,0,0,0.1-0.1,0.2c0,0.1,0,0.2,0,0.3C19.2,15.1,19.2,15.2,19.2,15.3z"/>
		<path class="st0" d="M22.2,13.3c0.2,0,0.3,0.1,0.4,0.2c0.1,0.1,0.2,0.2,0.3,0.4c0.1,0.2,0.1,0.3,0.2,0.5c0,0.2,0.1,0.4,0.1,0.6
			c0,0.2,0,0.4,0.1,0.5c0,0.2,0,0.3,0,0.4c0,0.1,0,0.2,0,0.2c0,0.1,0,0.2,0,0.2c-0.1,0-0.2,0-0.4,0.1c-0.1,0-0.3,0.1-0.4,0.2
			c-0.1,0.1-0.2,0.2-0.3,0.3c-0.1,0.1-0.1,0.2-0.1,0.4c0,0.1,0,0.2,0.1,0.3c0.1,0.1,0.1,0.1,0.2,0.1c0.1,0,0.2,0,0.2-0.1
			c0.1,0,0.2-0.1,0.2-0.2c0.1-0.1,0.1-0.2,0.2-0.2c0-0.1,0.1-0.2,0.1-0.2c0.1,0.1,0.1,0.2,0.1,0.3c0,0.1,0,0.3,0,0.4
			c0,0.5-0.1,0.8-0.3,1.1c-0.2,0.3-0.4,0.4-0.7,0.4c-0.2,0-0.5-0.1-0.6-0.3c-0.2-0.2-0.3-0.4-0.4-0.7c-0.1-0.3-0.2-0.6-0.2-0.9
			c0-0.3-0.1-0.7-0.1-1c0-0.3,0-0.7,0.1-1.1c0.1-0.4,0.1-0.7,0.2-0.9c0.1-0.3,0.2-0.5,0.4-0.7C21.8,13.4,22,13.3,22.2,13.3z
			 M22,15.5c0,0.1,0,0.1,0,0.1c0,0.1,0,0.1,0,0.1c0.1-0.1,0.1-0.1,0.2-0.2c0.1-0.1,0.1-0.1,0.2-0.2c0-0.2,0-0.4,0-0.5
			c0-0.1-0.1-0.2-0.1-0.2c0,0-0.1,0-0.1,0.1c0,0,0,0.1-0.1,0.2c0,0.1,0,0.2,0,0.3C22,15.3,22,15.4,22,15.5z"/>
		<path class="st0" d="M26.9,17.8c0,0.1,0.1,0.2,0.1,0.3c0,0.1,0,0.2,0,0.3c0,0.2,0,0.3-0.1,0.5c-0.1,0.2-0.1,0.3-0.2,0.4
			c-0.1,0.1-0.2,0.2-0.3,0.3c-0.1,0.1-0.2,0.1-0.3,0.1c-0.1,0-0.2-0.1-0.3-0.2c-0.1-0.1-0.2-0.3-0.2-0.5c-0.2,0.3-0.4,0.5-0.7,0.5
			c-0.2,0-0.4-0.1-0.5-0.3c-0.1-0.2-0.3-0.4-0.4-0.7c-0.1-0.3-0.2-0.6-0.2-0.9c0-0.4-0.1-0.7-0.1-1.1c0-0.3,0-0.7,0.1-1
			c0-0.3,0.1-0.6,0.2-0.9c0.1-0.3,0.2-0.5,0.3-0.7c0.1-0.2,0.3-0.2,0.4-0.2c0.2,0,0.3,0.1,0.4,0.2c0.1,0.1,0.3,0.3,0.3,0.6
			c0-0.1,0-0.3,0-0.5c0-0.2,0-0.3,0-0.5c0-0.3,0-0.7-0.1-1c-0.1-0.3-0.3-0.5-0.5-0.7c0.1-0.1,0.2-0.1,0.4-0.2c0.1,0,0.3-0.1,0.5,0
			c0.3,0,0.5,0.1,0.7,0.3c0.2,0.2,0.2,0.5,0.2,1c0,0.2,0,0.5,0,0.8c0,0.3-0.1,0.5-0.1,0.8c0,0.3-0.1,0.6-0.1,0.9c0,0.3,0,0.6,0,1
			c0,0.2,0,0.4,0,0.6c0,0.2,0,0.3,0.1,0.5c0,0.1,0.1,0.3,0.1,0.3c0,0.1,0.1,0.1,0.2,0.1C26.7,17.9,26.8,17.9,26.9,17.8z M24.8,16.7
			c0,0.4,0,0.8,0.1,1c0,0.2,0.1,0.3,0.2,0.3c0.1,0,0.1,0,0.1-0.2c0-0.1,0.1-0.2,0.1-0.4c0-0.2,0-0.3,0.1-0.5c0-0.2,0-0.4,0-0.6
			c0-0.1,0-0.3,0-0.5c0-0.2,0-0.3,0-0.4c0-0.1,0-0.2-0.1-0.3c0-0.1-0.1-0.1-0.1-0.1c-0.1,0-0.1,0-0.1,0.1c0,0.1-0.1,0.2-0.1,0.4
			c0,0.2,0,0.3-0.1,0.5C24.8,16.2,24.8,16.4,24.8,16.7z"/>
		<path class="st0" d="M28.5,13.7c0.1,0,0.3,0.1,0.4,0.2c0.1,0.1,0.2,0.2,0.3,0.4c0.1,0.2,0.1,0.3,0.2,0.5c0,0.2,0.1,0.4,0.1,0.6
			c0,0.2,0,0.4,0.1,0.5c0,0.2,0,0.3,0,0.4c0,0.1,0,0.2,0,0.2c0,0.1,0,0.2,0,0.2c-0.1,0-0.2,0-0.4,0.1c-0.1,0-0.3,0.1-0.4,0.2
			c-0.1,0.1-0.2,0.2-0.3,0.3c-0.1,0.1-0.1,0.2-0.1,0.4c0,0.1,0,0.2,0.1,0.3c0.1,0.1,0.1,0.1,0.2,0.1c0.1,0,0.2,0,0.2-0.1
			c0.1,0,0.2-0.1,0.2-0.2c0.1-0.1,0.1-0.2,0.2-0.2c0-0.1,0.1-0.2,0.1-0.2c0.1,0.1,0.1,0.2,0.1,0.3c0,0.1,0,0.3,0,0.4
			c0,0.5-0.1,0.8-0.3,1.1c-0.2,0.3-0.4,0.4-0.7,0.4c-0.2,0-0.5-0.1-0.6-0.3c-0.2-0.2-0.3-0.4-0.4-0.7c-0.1-0.3-0.2-0.6-0.2-0.9
			c0-0.3-0.1-0.7-0.1-1c0-0.3,0-0.7,0.1-1c0.1-0.3,0.1-0.7,0.2-0.9c0.1-0.3,0.2-0.5,0.4-0.7C28.1,13.7,28.3,13.7,28.5,13.7z
			 M28.3,15.8c0,0,0,0.1,0,0.1c0,0,0,0.1,0,0.1c0.1-0.1,0.1-0.1,0.2-0.2c0.1-0.1,0.1-0.1,0.2-0.2c0-0.2,0-0.4,0-0.5
			c0-0.1-0.1-0.2-0.1-0.2c0,0-0.1,0-0.1,0.1c0,0,0,0.1-0.1,0.2c0,0.1,0,0.2,0,0.2C28.3,15.6,28.3,15.7,28.3,15.8z"/>
		<path class="st0" d="M29.8,14.3c0,0,0.1-0.1,0.2-0.1c0.1,0,0.1-0.1,0.2-0.1c0.1,0,0.2-0.1,0.2-0.1c0.1,0,0.2,0,0.2,0
			c0.1,0,0.3,0.1,0.3,0.2c0.1,0.1,0.1,0.3,0.1,0.5c0,0.1,0,0.2,0,0.2c0,0.1,0,0.1,0,0.2c0-0.1,0.1-0.3,0.2-0.4
			c0.1-0.1,0.1-0.3,0.2-0.4c0.1-0.1,0.2-0.2,0.2-0.2c0.1-0.1,0.2-0.1,0.3-0.1c0.1,0,0.2,0.1,0.3,0.1c0.1,0.1,0.1,0.2,0.2,0.3
			c0,0.1,0.1,0.3,0.1,0.5c0,0.2,0,0.4,0,0.6c0,0.2,0,0.4,0,0.6c0,0.2,0,0.5,0,0.7c0,0.2,0,0.5,0,0.7c0,0.2,0,0.4,0,0.6
			c0,0.3,0,0.5,0,0.7c0,0.2,0.1,0.5,0.1,0.7c-0.3,0-0.5,0-0.7,0c-0.2,0-0.4,0-0.6,0c0-0.3,0-0.5,0.1-0.8c0-0.3,0-0.6,0.1-0.9
			c0-0.3,0-0.6,0-0.8c0-0.3,0-0.5,0-0.7c0-0.2,0-0.4,0-0.5c0-0.1-0.1-0.2-0.1-0.2c-0.1,0-0.1,0-0.1,0.1c0,0.1-0.1,0.2-0.1,0.4
			c0,0.2,0,0.3-0.1,0.6c0,0.2,0,0.4,0,0.7c0,0.2,0,0.4,0,0.6c0,0.2,0,0.4,0,0.6c0,0.2,0,0.4,0,0.6c0,0.2,0,0.3,0,0.3
			c-0.2,0-0.4,0-0.6,0c-0.2,0-0.4,0-0.6,0.1c0-0.1,0-0.3,0-0.5c0-0.2,0-0.5,0-0.8c0-0.3,0-0.6,0-0.9c0-0.3,0-0.6,0-0.9
			c0-0.3,0-0.5,0-0.7c0-0.2,0-0.5,0-0.7c0-0.2-0.1-0.4-0.1-0.5C29.9,14.4,29.9,14.3,29.8,14.3z"/>
		<path class="st0" d="M34.9,16.3c0-0.1,0-0.2,0-0.3c0-0.2,0-0.4-0.1-0.5c0-0.1-0.1-0.2-0.2-0.2c-0.1,0-0.2,0.1-0.3,0.4
			c-0.1,0.3-0.1,0.6-0.1,1c0,0.3,0,0.5,0.1,0.7c0,0.2,0.1,0.4,0.1,0.5c0.1,0.1,0.1,0.2,0.2,0.3c0.1,0.1,0.1,0.1,0.2,0.1
			c0.1,0,0.2-0.1,0.3-0.3c0.1-0.2,0.1-0.5,0.1-0.8c0.1,0.1,0.3,0.2,0.3,0.4c0.1,0.2,0.1,0.4,0.1,0.7c0,0.3,0,0.5-0.1,0.7
			c-0.1,0.2-0.1,0.4-0.3,0.5c-0.1,0.1-0.2,0.2-0.4,0.3c-0.1,0.1-0.3,0.1-0.4,0.1c-0.2,0-0.4-0.1-0.6-0.3c-0.2-0.2-0.3-0.4-0.4-0.7
			c-0.1-0.3-0.2-0.6-0.3-1c-0.1-0.4-0.1-0.7-0.1-1.1c0-0.3,0-0.7,0.1-1c0-0.3,0.1-0.6,0.2-0.9c0.1-0.3,0.2-0.5,0.4-0.6
			c0.2-0.2,0.4-0.2,0.6-0.2c0.3,0,0.6,0.2,0.7,0.4c0.2,0.3,0.3,0.6,0.3,1c0,0.2,0,0.3-0.1,0.4c0,0.1-0.1,0.2-0.1,0.3
			c-0.1,0.1-0.1,0.1-0.2,0.2C35,16.3,34.9,16.3,34.9,16.3z"/>
		<path class="st0" d="M37.3,14.2c0.1,0,0.3,0.1,0.4,0.2c0.1,0.1,0.2,0.2,0.3,0.4c0.1,0.2,0.1,0.3,0.2,0.5c0,0.2,0.1,0.4,0.1,0.6
			c0,0.2,0,0.4,0.1,0.5c0,0.2,0,0.3,0,0.4c0,0.1,0,0.2,0,0.2c0,0.1,0,0.2,0,0.2c-0.1,0-0.2,0-0.4,0.1c-0.1,0-0.3,0.1-0.4,0.2
			c-0.1,0.1-0.2,0.2-0.3,0.3c-0.1,0.1-0.1,0.2-0.1,0.4c0,0.1,0,0.2,0.1,0.3c0.1,0.1,0.1,0.1,0.2,0.1c0.1,0,0.2,0,0.2-0.1
			c0.1,0,0.2-0.1,0.2-0.2c0.1-0.1,0.1-0.2,0.2-0.2c0-0.1,0.1-0.2,0.1-0.2c0.1,0.1,0.1,0.2,0.1,0.3c0,0.1,0,0.3,0,0.4
			c0,0.5-0.1,0.8-0.3,1.1c-0.2,0.3-0.4,0.4-0.7,0.4c-0.2,0-0.4-0.1-0.6-0.3c-0.2-0.2-0.3-0.4-0.4-0.7c-0.1-0.3-0.2-0.6-0.2-0.9
			c0-0.3-0.1-0.7-0.1-1c0-0.3,0-0.7,0.1-1c0.1-0.3,0.1-0.7,0.2-0.9c0.1-0.3,0.2-0.5,0.4-0.7C36.9,14.2,37.1,14.1,37.3,14.2z
			 M37.1,16.3c0,0,0,0.1,0,0.1c0,0,0,0.1,0,0.1c0.1-0.1,0.1-0.1,0.2-0.2c0.1-0.1,0.1-0.1,0.2-0.1c0-0.2,0-0.4,0-0.5
			c0-0.1-0.1-0.2-0.1-0.2c0,0-0.1,0-0.1,0.1c0,0,0,0.1-0.1,0.2c0,0.1,0,0.2,0,0.2C37.1,16.1,37.1,16.2,37.1,16.3z"/>
		<path class="st0" d="M14.3,22.6c0.1-0.1,0.1-0.3,0.1-0.4c0-0.1,0-0.3,0-0.4c0-0.2,0-0.4-0.1-0.5c-0.1-0.1-0.1-0.2-0.2-0.2
			c-0.1,0-0.2,0.1-0.3,0.2c-0.1,0.1-0.1,0.3-0.2,0.5c-0.1,0.2-0.1,0.4-0.1,0.7c0,0.3,0,0.5,0,0.8c0,0.5,0.1,1,0.2,1.3
			c0.1,0.3,0.3,0.5,0.5,0.5c0.1,0,0.3-0.1,0.4-0.2c0.1-0.2,0.2-0.4,0.2-0.8c0.1,0,0.1,0.1,0.2,0.1c0.1,0.1,0.1,0.2,0.2,0.3
			c0.1,0.1,0.1,0.2,0.1,0.4c0,0.1,0.1,0.3,0.1,0.5c0,0.2,0,0.5-0.1,0.7c-0.1,0.2-0.1,0.4-0.3,0.6c-0.1,0.2-0.3,0.3-0.4,0.4
			c-0.2,0.1-0.3,0.2-0.5,0.1c-0.3,0-0.5-0.1-0.7-0.3c-0.2-0.2-0.4-0.5-0.5-0.8c-0.1-0.4-0.3-0.8-0.3-1.2c-0.1-0.5-0.1-1-0.1-1.5
			c0-0.5,0-1,0.1-1.5c0.1-0.5,0.2-0.9,0.4-1.3c0.2-0.4,0.4-0.7,0.6-0.9c0.2-0.2,0.5-0.3,0.9-0.3c0.2,0,0.4,0.1,0.5,0.2
			c0.1,0.1,0.3,0.2,0.3,0.4c0.1,0.1,0.1,0.3,0.2,0.5c0,0.2,0.1,0.4,0.1,0.6c0,0.3,0,0.5-0.1,0.7c-0.1,0.2-0.1,0.4-0.2,0.5
			c-0.1,0.1-0.2,0.3-0.3,0.4C14.6,22.5,14.4,22.6,14.3,22.6z"/>
		<path class="st0" d="M15.7,19.5c0.1-0.1,0.3-0.2,0.4-0.2c0.1-0.1,0.3-0.1,0.4-0.1c0.3,0,0.5,0.1,0.6,0.3c0.1,0.2,0.2,0.6,0.2,1.1
			c0,0.3,0,0.5,0,0.9c0,0.3-0.1,0.7-0.1,1c0,0.4-0.1,0.8-0.1,1.2c0,0.4,0,0.9,0,1.5c0,0.2,0,0.5,0,0.9c0,0.3,0,0.7,0.1,1
			c-0.1,0-0.1,0-0.2,0c-0.1,0-0.1,0-0.2,0c-0.2,0-0.3,0-0.5,0c-0.2,0-0.3,0-0.5,0c0-0.3,0.1-0.6,0.1-0.9c0-0.4,0.1-0.8,0.1-1.2
			c0-0.4,0.1-0.8,0.1-1.3c0-0.4,0-0.9,0-1.3c0-0.3,0-0.6,0-0.9c0-0.3,0-0.6-0.1-0.8c0-0.3-0.1-0.5-0.1-0.7
			C15.8,19.8,15.7,19.7,15.7,19.5z"/>
		<path class="st0" d="M18.8,21.5c0.2,0,0.3,0.1,0.4,0.2c0.1,0.1,0.2,0.2,0.3,0.4c0.1,0.2,0.1,0.3,0.2,0.5c0,0.2,0.1,0.4,0.1,0.6
			c0,0.2,0,0.4,0.1,0.5c0,0.2,0,0.3,0,0.4c0,0.1,0,0.2,0,0.2c0,0.1,0,0.2,0,0.2c-0.1,0-0.2,0-0.4,0.1c-0.1,0-0.3,0.1-0.4,0.2
			c-0.1,0.1-0.2,0.2-0.3,0.3c-0.1,0.1-0.1,0.2-0.1,0.4c0,0.1,0,0.2,0.1,0.3c0.1,0.1,0.1,0.1,0.2,0.1c0.1,0,0.2,0,0.2-0.1
			c0.1,0,0.2-0.1,0.2-0.2c0.1-0.1,0.1-0.2,0.2-0.2c0-0.1,0.1-0.2,0.1-0.2c0.1,0.1,0.1,0.2,0.1,0.3c0,0.1,0,0.3,0,0.4
			c0,0.5-0.1,0.8-0.3,1.1c-0.2,0.3-0.4,0.4-0.7,0.4c-0.2,0-0.5-0.1-0.6-0.3c-0.2-0.2-0.3-0.4-0.4-0.7c-0.1-0.3-0.2-0.6-0.2-0.9
			c0-0.3-0.1-0.7-0.1-1c0-0.4,0-0.7,0.1-1.1c0.1-0.4,0.1-0.7,0.2-0.9c0.1-0.3,0.2-0.5,0.4-0.7C18.4,21.5,18.6,21.4,18.8,21.5z
			 M18.6,23.6c0,0.1,0,0.1,0,0.2c0,0.1,0,0.1,0,0.1c0.1-0.1,0.1-0.1,0.2-0.2c0.1-0.1,0.1-0.1,0.2-0.2c0-0.2,0-0.4,0-0.5
			c0-0.1-0.1-0.2-0.1-0.2c0,0-0.1,0-0.1,0.1c0,0,0,0.1-0.1,0.2c0,0.1,0,0.2,0,0.3C18.6,23.4,18.6,23.5,18.6,23.6z"/>
		<path class="st0" d="M23,25.2c0.1,0.3,0.1,0.5,0.1,0.9c0,0.2,0,0.4,0,0.6c0,0.2-0.1,0.3-0.1,0.5c-0.1,0.1-0.1,0.2-0.2,0.3
			c-0.1,0.1-0.2,0.1-0.3,0.1c-0.1,0-0.2,0-0.3-0.1C22.1,27.3,22,27.2,22,27c-0.1,0.2-0.2,0.3-0.3,0.4c-0.1,0.1-0.2,0.1-0.4,0.1
			c-0.1,0-0.3-0.1-0.4-0.2c-0.1-0.1-0.2-0.2-0.3-0.4c-0.1-0.2-0.2-0.3-0.2-0.5c0-0.2-0.1-0.4-0.1-0.6c0-0.3,0-0.5,0.1-0.7
			c0.1-0.2,0.2-0.3,0.3-0.4c0.1-0.1,0.2-0.2,0.4-0.3c0.1-0.1,0.3-0.2,0.4-0.2c0.1-0.1,0.2-0.1,0.3-0.2c0.1-0.1,0.1-0.2,0.1-0.3
			c0-0.1,0-0.2-0.1-0.3c-0.1-0.1-0.1-0.1-0.2-0.1c-0.1,0-0.2,0-0.3,0.1c-0.1,0.1-0.2,0.1-0.3,0.2c-0.1,0.1-0.2,0.2-0.2,0.3
			c-0.1,0.1-0.1,0.2-0.2,0.3c0-0.1,0-0.2,0-0.3c0-0.1,0-0.2,0-0.3c0-0.3,0-0.6,0.1-0.9c0.1-0.2,0.1-0.4,0.3-0.6
			c0.1-0.2,0.2-0.3,0.4-0.4c0.1-0.1,0.3-0.1,0.5-0.1c0.2,0,0.3,0.1,0.5,0.2c0.1,0.1,0.2,0.2,0.3,0.4c0.1,0.2,0.2,0.3,0.2,0.5
			c0,0.2,0.1,0.4,0.1,0.6c0,0.2,0,0.5-0.1,0.7c0,0.3-0.1,0.5-0.1,0.8c0,0.2,0,0.4,0.1,0.5c0,0.1,0.1,0.2,0.1,0.2
			C22.9,25.6,23,25.4,23,25.2z M21.3,25.8c0,0.2,0,0.2,0.1,0.2c0.1,0,0.1,0,0.2-0.1c0-0.1,0.1-0.2,0.1-0.3c0-0.1,0.1-0.2,0.1-0.4
			c0-0.1,0-0.3,0-0.4c-0.2,0.2-0.3,0.3-0.4,0.5C21.3,25.5,21.3,25.6,21.3,25.8z"/>
		<path class="st0" d="M24.1,21.6c0,0.1,0,0.1,0,0.2c0,0.1,0,0.1,0,0.2c0,0.2,0,0.4,0.1,0.5c0.1,0.1,0.1,0.3,0.2,0.4
			c0.1,0.1,0.2,0.2,0.3,0.3c0.1,0.1,0.2,0.2,0.3,0.3c0.1,0.1,0.1,0.3,0.2,0.4c0.1,0.2,0.1,0.4,0.1,0.7c0,0.1,0,0.3,0,0.4
			c0,0.1,0,0.2-0.1,0.3c0,0.1,0,0.2-0.1,0.3c0,0.1,0,0.2-0.1,0.3c0.1-0.2,0.2-0.4,0.3-0.6c0.1-0.3,0.1-0.6,0.1-0.9
			c0-0.2,0-0.4-0.1-0.5c0-0.1-0.1-0.3-0.2-0.4c0.1,0,0.1-0.1,0.2-0.1c0.1,0,0.2,0,0.3,0.1c0.1,0.1,0.2,0.1,0.2,0.3
			c0.1,0.1,0.1,0.2,0.2,0.4c0,0.2,0.1,0.3,0.1,0.5c0,0.2,0,0.4,0,0.6c0,0.2,0,0.4,0,0.6c0-0.1,0-0.2,0.1-0.3c0-0.1,0.1-0.2,0.1-0.3
			c0-0.1,0.1-0.2,0.1-0.3c0-0.1,0-0.3,0-0.4c0-0.2,0-0.3,0-0.5c0-0.1-0.1-0.2-0.1-0.3c0-0.1-0.1-0.2-0.2-0.3
			c-0.1-0.1-0.1-0.2-0.1-0.2c-0.1-0.1-0.1-0.2-0.1-0.3c0-0.1,0-0.2,0-0.3c0-0.1,0-0.3,0.1-0.4c0-0.1,0.1-0.3,0.3-0.4
			c0,0.2,0,0.3,0.1,0.4c0,0.1,0.1,0.2,0.1,0.3c0.1,0.1,0.1,0.2,0.2,0.2c0.1,0.1,0.2,0.2,0.3,0.3c0.4,0.4,0.6,0.9,0.6,1.6
			c0,0.3,0,0.6-0.1,0.9c-0.1,0.3-0.2,0.5-0.3,0.8c-0.1,0.2-0.1,0.4-0.2,0.5c-0.1,0.2-0.1,0.4-0.1,0.6c0,0.1,0,0.1,0,0.2
			c0,0.1,0,0.1,0.1,0.2c-0.1,0.1-0.2,0.1-0.3,0.1c-0.1,0-0.2-0.1-0.3-0.2c-0.1-0.1-0.2-0.2-0.2-0.4c-0.1-0.2-0.1-0.4-0.2-0.6
			c0-0.2-0.1-0.4-0.1-0.6c-0.1,0.2-0.1,0.3-0.1,0.5c0,0.2-0.1,0.4-0.1,0.6c0,0.2,0,0.4,0.1,0.5c-0.1,0-0.2,0-0.3,0
			c-0.1,0-0.2,0-0.3,0c-0.1,0-0.3,0-0.4,0c-0.1,0-0.3,0-0.4,0c0.1-0.2,0.1-0.4,0.2-0.6c0-0.2,0.1-0.4,0.1-0.6c0-0.3,0-0.6-0.1-0.8
			c-0.1-0.3-0.2-0.5-0.3-0.8c-0.1-0.2-0.2-0.5-0.3-0.8c-0.1-0.3-0.1-0.5-0.1-0.8c0-0.1,0-0.3,0-0.5c0-0.2,0.1-0.3,0.1-0.5
			c0.1-0.2,0.1-0.3,0.2-0.4C23.9,21.7,24,21.6,24.1,21.6z"/>
		<path class="st0" d="M30.2,25.5c0.1,0.3,0.1,0.5,0.1,0.9c0,0.2,0,0.4,0,0.6c0,0.2-0.1,0.3-0.1,0.5c-0.1,0.1-0.1,0.2-0.2,0.3
			c-0.1,0.1-0.2,0.1-0.3,0.1c-0.1,0-0.2,0-0.3-0.1c-0.1-0.1-0.2-0.2-0.2-0.4c-0.1,0.2-0.2,0.3-0.3,0.4c-0.1,0.1-0.2,0.1-0.4,0.1
			c-0.1,0-0.3-0.1-0.4-0.2c-0.1-0.1-0.2-0.2-0.3-0.4c-0.1-0.1-0.2-0.3-0.2-0.5c0-0.2-0.1-0.4-0.1-0.6c0-0.3,0-0.5,0.1-0.7
			c0.1-0.2,0.2-0.3,0.3-0.4c0.1-0.1,0.2-0.2,0.4-0.3c0.1-0.1,0.2-0.2,0.4-0.2c0.1-0.1,0.2-0.1,0.3-0.2c0.1-0.1,0.1-0.2,0.1-0.3
			c0-0.1,0-0.2-0.1-0.3c-0.1-0.1-0.1-0.1-0.2-0.1c-0.1,0-0.2,0-0.3,0.1c-0.1,0.1-0.2,0.1-0.3,0.2c-0.1,0.1-0.2,0.2-0.2,0.3
			c-0.1,0.1-0.1,0.2-0.2,0.3c0-0.1,0-0.2,0-0.3c0-0.1,0-0.2,0-0.3c0-0.3,0-0.6,0.1-0.9c0.1-0.2,0.1-0.4,0.3-0.6
			c0.1-0.2,0.2-0.3,0.4-0.4c0.1-0.1,0.3-0.1,0.5-0.1c0.2,0,0.3,0.1,0.5,0.2c0.1,0.1,0.2,0.2,0.3,0.4c0.1,0.2,0.2,0.3,0.2,0.5
			c0,0.2,0.1,0.4,0.1,0.6c0,0.2,0,0.5-0.1,0.7c0,0.3-0.1,0.5-0.1,0.8c0,0.2,0,0.4,0.1,0.5c0,0.1,0.1,0.2,0.1,0.2
			C30,25.9,30.1,25.8,30.2,25.5z M28.4,26.1c0,0.2,0,0.2,0.1,0.2c0.1,0,0.1,0,0.2-0.1c0-0.1,0.1-0.2,0.1-0.3c0-0.1,0.1-0.2,0.1-0.4
			c0-0.1,0-0.3,0-0.4c-0.2,0.2-0.3,0.3-0.4,0.5C28.5,25.8,28.4,26,28.4,26.1z"/>
		<path class="st0" d="M32,23c0,0.1,0,0.3,0,0.4c0,0.1,0,0.2,0,0.4c0.1,0,0.2-0.1,0.4-0.1c0.1,0,0.2-0.1,0.3-0.1
			c0,0.3-0.1,0.6-0.2,0.7c-0.1,0.1-0.4,0.2-0.7,0.2c-0.1,0.1-0.1,0.3-0.1,0.5c0,0.2,0,0.4,0,0.6c0,0.1,0,0.1,0,0.2
			c0,0.1,0,0.1,0,0.2c0,0.1,0,0.1,0.1,0.2c0,0,0.1,0.1,0.1,0.1c0,0,0.1,0,0.1-0.1c0-0.1,0.1-0.1,0.1-0.2c0-0.1,0.1-0.2,0.1-0.3
			c0-0.1,0.1-0.2,0.1-0.2c0.1,0.1,0.1,0.2,0.2,0.4c0,0.2,0,0.3,0,0.5c0,0.2,0,0.4-0.1,0.6c0,0.2-0.1,0.4-0.2,0.6
			c-0.1,0.2-0.2,0.3-0.3,0.4c-0.1,0.1-0.2,0.1-0.4,0.1c-0.1,0-0.3-0.1-0.4-0.2c-0.1-0.1-0.2-0.2-0.3-0.4c-0.1-0.2-0.1-0.3-0.2-0.6
			c0-0.2-0.1-0.5-0.1-0.7c0-0.1,0-0.2,0-0.4c0-0.2,0-0.3,0-0.5c0-0.2,0-0.3,0-0.5c0-0.2,0-0.3,0-0.5c0-0.2,0-0.4,0-0.6
			c0-0.2,0-0.4-0.1-0.6c0-0.2-0.1-0.4-0.2-0.5c-0.1-0.2-0.2-0.3-0.3-0.5c0.1-0.1,0.2-0.2,0.4-0.3c0.2,0,0.3-0.1,0.5-0.1
			c0.3,0,0.5,0.1,0.7,0.3C32,22.2,32,22.6,32,23z"/>
		<path class="st0" d="M34.2,22.2c0.1,0,0.3,0.1,0.4,0.2c0.1,0.1,0.2,0.2,0.3,0.4c0.1,0.2,0.1,0.3,0.2,0.5c0,0.2,0.1,0.4,0.1,0.6
			c0,0.2,0,0.4,0.1,0.5c0,0.2,0,0.3,0,0.4c0,0.1,0,0.2,0,0.2c0,0.1,0,0.2,0,0.2c-0.1,0-0.2,0-0.4,0.1c-0.1,0-0.3,0.1-0.4,0.2
			c-0.1,0.1-0.2,0.2-0.3,0.3c-0.1,0.1-0.1,0.2-0.1,0.4c0,0.1,0,0.2,0.1,0.3c0.1,0.1,0.1,0.1,0.2,0.1c0.1,0,0.2,0,0.2-0.1
			c0.1,0,0.2-0.1,0.2-0.2c0.1-0.1,0.1-0.2,0.2-0.2c0-0.1,0.1-0.2,0.1-0.2c0.1,0.1,0.1,0.2,0.1,0.3c0,0.1,0,0.3,0,0.4
			c0,0.5-0.1,0.8-0.3,1.1c-0.2,0.3-0.4,0.4-0.7,0.4c-0.2,0-0.4-0.1-0.6-0.3c-0.2-0.2-0.3-0.4-0.4-0.7c-0.1-0.3-0.2-0.6-0.2-0.9
			c0-0.3-0.1-0.7-0.1-1c0-0.3,0-0.7,0.1-1c0.1-0.3,0.1-0.7,0.2-0.9c0.1-0.3,0.2-0.5,0.4-0.7C33.8,22.3,34,22.2,34.2,22.2z M34,24.4
			c0,0,0,0.1,0,0.1c0,0,0,0.1,0,0.1c0.1-0.1,0.1-0.1,0.2-0.2c0.1-0.1,0.1-0.1,0.2-0.2c0-0.2,0-0.4,0-0.5c0-0.1-0.1-0.2-0.1-0.2
			c0,0-0.1,0-0.1,0.1c0,0,0,0.1-0.1,0.2c0,0.1,0,0.2,0,0.2C34,24.2,34,24.3,34,24.4z"/>
		<path class="st0" d="M36.8,23.7c0.1-0.2,0.2-0.4,0.3-0.6c0.1-0.2,0.2-0.3,0.2-0.4c0.1-0.1,0.2-0.1,0.2-0.2c0.1,0,0.2-0.1,0.3,0
			c0.1,0,0.2,0,0.2,0.1c0.1,0.1,0.1,0.2,0.2,0.3c0,0.1,0.1,0.2,0.1,0.4c0,0.1,0,0.3,0,0.5c0,0.2,0,0.3,0,0.5c0,0.2-0.1,0.3-0.1,0.5
			c-0.1,0.1-0.2,0.3-0.3,0.4c-0.1,0.1-0.2,0.2-0.4,0.3c0.1-0.2,0.1-0.3,0.1-0.4c0-0.1,0-0.2,0-0.3c0-0.2,0-0.3,0-0.3
			c0-0.1-0.1-0.1-0.1-0.1c-0.1,0-0.1,0-0.2,0.1c-0.1,0.1-0.2,0.2-0.2,0.4c-0.1,0.2-0.1,0.4-0.2,0.6c0,0.2-0.1,0.5-0.1,0.8
			c0,0.3,0,0.6,0.1,1c0.1,0.3,0.2,0.7,0.3,1.1c-0.1,0-0.2-0.1-0.3-0.1c-0.1,0-0.2,0-0.3,0c-0.2,0-0.3,0-0.5,0c-0.2,0-0.3,0-0.5,0
			c0-0.1,0.1-0.3,0.1-0.4c0-0.1,0.1-0.3,0.1-0.5c0-0.2,0.1-0.5,0.1-0.8c0-0.3,0-0.7,0-1.1c0-0.4,0-0.8,0-1.1c0-0.3,0-0.5-0.1-0.7
			c0-0.2-0.1-0.3-0.1-0.4c0-0.1-0.1-0.2-0.2-0.2c0.1-0.2,0.2-0.3,0.4-0.4c0.2-0.1,0.3-0.2,0.5-0.2c0.1,0,0.3,0.1,0.3,0.2
			c0.1,0.1,0.1,0.3,0.1,0.5c0,0.1,0,0.2,0,0.3C36.8,23.5,36.8,23.6,36.8,23.7z"/>
		<path class="st0" d="M18.7,28C18.7,28,18.7,28,18.7,28c0.1,0,0.1,0,0.2,0c0.1,0,0.2,0,0.3,0c0.1,0,0.3,0,0.4,0c0.1,0,0.3,0,0.4,0
			c0.1,0,0.3,0,0.4,0c0.4,0,0.7,0.2,0.9,0.5c0.2,0.3,0.4,0.7,0.4,1.2c0,0.4-0.1,0.8-0.2,1.1c-0.1,0.3-0.3,0.6-0.5,0.8
			c0,0.1,0,0.3,0.1,0.5c0,0.2,0.1,0.4,0.1,0.6c0,0.2,0.1,0.4,0.2,0.6c0.1,0.2,0.1,0.4,0.2,0.6c0.1,0.1,0.1,0.2,0.2,0.3
			c0.1,0.1,0.1,0.1,0.2,0.1c0.1,0,0.2-0.1,0.2-0.2c0.1-0.1,0.1-0.2,0.1-0.4c0,0,0-0.1,0-0.1c0,0,0,0,0,0c0.1,0.1,0.1,0.2,0.2,0.3
			c0,0.1,0,0.3,0,0.5c0,0.2,0,0.4-0.1,0.6c0,0.2-0.1,0.4-0.2,0.5c-0.1,0.1-0.2,0.3-0.3,0.3c-0.1,0.1-0.2,0.1-0.4,0.1
			c-0.1,0-0.3-0.1-0.4-0.2c-0.1-0.1-0.3-0.3-0.4-0.5c-0.1-0.2-0.2-0.6-0.4-1c-0.1-0.4-0.2-0.9-0.3-1.5c0,0.1,0,0.2,0,0.3
			c0,0.1,0,0.2,0,0.3c0,0.4,0,0.8,0.1,1.1c0.1,0.4,0.1,0.7,0.3,1.2c-0.1,0-0.3-0.1-0.5-0.1c-0.2,0-0.4,0-0.5,0c-0.2,0-0.4,0-0.5,0
			c0.1-0.6,0.1-1.2,0.2-1.9c0-0.7,0.1-1.4,0.1-2.2c0-0.6,0-1.3-0.1-1.9C18.8,29,18.8,28.5,18.7,28z M20.1,29.5
			c0,0.1-0.1,0.2-0.1,0.3c0,0.1,0,0.3,0,0.5c0,0.1,0,0.2,0,0.3c0,0.1,0,0.2,0,0.3c0.1-0.2,0.2-0.4,0.3-0.6c0.1-0.2,0.1-0.4,0.1-0.6
			c0-0.1,0-0.2,0-0.3c0-0.1-0.1-0.1-0.1-0.1C20.2,29.4,20.2,29.4,20.1,29.5z"/>
		<path class="st0" d="M23.9,30c0.2,0,0.3,0.1,0.4,0.2c0.1,0.1,0.2,0.2,0.3,0.4c0.1,0.2,0.1,0.3,0.2,0.5c0,0.2,0.1,0.4,0.1,0.6
			c0,0.2,0,0.4,0.1,0.5c0,0.2,0,0.3,0,0.4c0,0.1,0,0.2,0,0.2c0,0.1,0,0.2,0,0.2c-0.1,0-0.2,0-0.4,0.1c-0.1,0-0.3,0.1-0.4,0.2
			c-0.1,0.1-0.2,0.2-0.3,0.3c-0.1,0.1-0.1,0.2-0.1,0.4c0,0.1,0,0.2,0.1,0.3c0.1,0.1,0.1,0.1,0.2,0.1c0.1,0,0.2,0,0.2-0.1
			c0.1,0,0.2-0.1,0.2-0.2c0.1-0.1,0.1-0.2,0.2-0.2c0-0.1,0.1-0.2,0.1-0.2c0.1,0.1,0.1,0.2,0.1,0.3c0,0.1,0,0.3,0,0.4
			c0,0.5-0.1,0.8-0.3,1.1c-0.2,0.3-0.4,0.4-0.7,0.4c-0.2,0-0.5-0.1-0.6-0.3c-0.2-0.2-0.3-0.4-0.4-0.7c-0.1-0.3-0.2-0.6-0.2-0.9
			c0-0.3-0.1-0.7-0.1-1c0-0.3,0-0.7,0.1-1.1c0.1-0.4,0.1-0.7,0.2-0.9c0.1-0.3,0.2-0.5,0.4-0.7C23.5,30.1,23.7,30,23.9,30z
			 M23.7,32.1c0,0.1,0,0.1,0,0.1c0,0.1,0,0.1,0,0.1c0.1-0.1,0.1-0.1,0.2-0.2c0.1-0.1,0.1-0.1,0.2-0.2c0-0.2,0-0.4,0-0.5
			c0-0.1-0.1-0.2-0.1-0.2c0,0-0.1,0-0.1,0.1c0,0,0,0.1-0.1,0.2c0,0.1,0,0.2,0,0.3C23.7,31.9,23.7,32,23.7,32.1z"/>
		<path class="st0" d="M27.3,29.8c0,0.1,0,0.1,0,0.2c0,0.1,0,0.1,0,0.1c0,0.2,0,0.3,0.1,0.5c0.1,0.1,0.2,0.2,0.3,0.3
			c0.1,0.1,0.2,0.3,0.3,0.5c0.1,0.2,0.1,0.4,0.1,0.8c0,0.3,0,0.6-0.1,0.9c-0.1,0.2-0.2,0.5-0.3,0.7c-0.1,0.2-0.2,0.4-0.3,0.6
			c-0.1,0.2-0.1,0.4-0.1,0.7c0,0.3,0.1,0.6,0.2,1c-0.1,0-0.3,0-0.4,0c-0.1,0-0.3,0-0.4,0c-0.1,0-0.3,0-0.4,0c-0.1,0-0.3,0-0.4,0
			c0.1-0.1,0.1-0.3,0.2-0.4c0-0.1,0.1-0.3,0.1-0.5c0-0.2,0-0.5-0.1-0.7c-0.1-0.2-0.2-0.5-0.3-0.8c-0.1-0.1-0.1-0.3-0.2-0.4
			c-0.1-0.1-0.1-0.3-0.1-0.5c0-0.2-0.1-0.3-0.1-0.5c0-0.2,0-0.3,0-0.4c0-0.2,0-0.4,0.1-0.6c0-0.2,0.1-0.4,0.2-0.5
			c0.1-0.2,0.2-0.3,0.3-0.4c0.1-0.1,0.2-0.2,0.4-0.1c0,0,0.1,0,0.1,0c-0.1,0.2-0.1,0.4-0.1,0.6c0,0.2,0,0.4,0.1,0.6
			c0.1,0.2,0.2,0.3,0.2,0.4c0.1,0.2,0.2,0.5,0.3,0.7c0.1,0.2,0.1,0.5,0.1,0.8c0,0.1,0,0.3,0,0.5c0,0.2,0,0.5-0.1,0.8
			c0-0.1,0.1-0.2,0.1-0.3c0-0.1,0.1-0.2,0.1-0.3c0-0.1,0.1-0.2,0.1-0.3c0-0.1,0-0.2,0-0.4c0-0.2,0-0.4-0.1-0.6
			c0-0.2-0.1-0.3-0.1-0.5c0-0.2-0.1-0.3-0.1-0.4c0-0.1-0.1-0.3-0.1-0.5c0-0.1,0-0.3,0-0.4c0-0.1,0.1-0.3,0.1-0.4
			c0-0.1,0.1-0.2,0.2-0.3C27.2,29.9,27.2,29.8,27.3,29.8z"/>
		<path class="st0" d="M28.3,30.7c0.1-0.1,0.2-0.2,0.4-0.2c0.1,0,0.3-0.1,0.4-0.1c0.2,0,0.3,0,0.4,0.1c0.1,0.1,0.2,0.2,0.3,0.3
			c0.1,0.1,0.1,0.3,0.1,0.4c0,0.2,0,0.3,0,0.5s0,0.4,0,0.6c0,0.2,0,0.4-0.1,0.7c0,0.2,0,0.5-0.1,0.7c0,0.2,0,0.4,0,0.6
			c0,0.2,0,0.4,0,0.6c0,0.2,0,0.3,0.1,0.4c0,0.1,0.1,0.2,0.1,0.4c0,0.1,0.1,0.2,0.1,0.3c-0.1,0-0.2,0-0.3,0c-0.2,0-0.3,0-0.4,0
			c-0.2,0-0.3,0-0.4,0c-0.1,0-0.3,0-0.4,0c0.1-0.2,0.1-0.4,0.2-0.6c0-0.2,0.1-0.5,0.1-0.7c0-0.3,0.1-0.5,0.1-0.8c0-0.3,0-0.6,0-0.8
			c0-0.3,0-0.6,0-0.8c0-0.3-0.1-0.5-0.1-0.7c0-0.2-0.1-0.4-0.2-0.5C28.4,30.9,28.4,30.8,28.3,30.7z M28.6,29c0-0.2,0.1-0.4,0.2-0.6
			c0.1-0.1,0.2-0.2,0.4-0.2c0.2,0,0.3,0.1,0.4,0.2c0.1,0.2,0.2,0.4,0.2,0.6c0,0.2-0.1,0.4-0.2,0.6c-0.1,0.1-0.2,0.2-0.4,0.2
			c-0.2,0-0.3-0.1-0.4-0.2C28.6,29.5,28.6,29.3,28.6,29z"/>
		<path class="st0" d="M32.5,30c0,0.1,0,0.1,0,0.2c0,0.1,0,0.1,0,0.1c0,0.2,0,0.3,0.1,0.5c0.1,0.1,0.2,0.2,0.3,0.3
			c0.1,0.1,0.2,0.3,0.3,0.5c0.1,0.2,0.1,0.4,0.1,0.8c0,0.3,0,0.6-0.1,0.9c-0.1,0.2-0.2,0.5-0.3,0.7c-0.1,0.2-0.2,0.4-0.3,0.6
			c-0.1,0.2-0.1,0.4-0.1,0.7c0,0.3,0.1,0.6,0.2,1c-0.1,0-0.3,0-0.4,0c-0.1,0-0.3,0-0.4,0c-0.1,0-0.3,0-0.4,0c-0.1,0-0.3,0-0.4,0
			c0.1-0.1,0.1-0.3,0.2-0.4c0-0.1,0.1-0.3,0.1-0.5c0-0.2,0-0.5-0.1-0.7c-0.1-0.2-0.2-0.5-0.3-0.8c-0.1-0.1-0.1-0.3-0.2-0.4
			c-0.1-0.1-0.1-0.3-0.1-0.5c0-0.2-0.1-0.3-0.1-0.5c0-0.2,0-0.3,0-0.4c0-0.2,0-0.4,0.1-0.6c0-0.2,0.1-0.4,0.2-0.5
			c0.1-0.2,0.2-0.3,0.3-0.4c0.1-0.1,0.2-0.2,0.4-0.1c0,0,0.1,0,0.1,0c-0.1,0.2-0.1,0.4-0.1,0.6c0,0.2,0,0.4,0.1,0.6
			c0.1,0.2,0.2,0.3,0.2,0.4c0.1,0.2,0.2,0.5,0.3,0.7c0.1,0.2,0.1,0.5,0.1,0.8c0,0.1,0,0.3,0,0.5c0,0.2,0,0.5-0.1,0.8
			c0-0.1,0.1-0.2,0.1-0.3c0-0.1,0.1-0.2,0.1-0.3c0-0.1,0.1-0.2,0.1-0.3c0-0.1,0-0.2,0-0.4c0-0.2,0-0.4-0.1-0.6
			c0-0.2-0.1-0.3-0.1-0.5c0-0.2-0.1-0.3-0.1-0.4c0-0.1-0.1-0.3-0.1-0.5c0-0.1,0-0.3,0-0.4c0-0.1,0.1-0.3,0.1-0.4
			c0-0.1,0.1-0.2,0.2-0.3C32.3,30.1,32.4,30.1,32.5,30z"/>
		<path class="st0" d="M36.2,34.1c0.1,0.3,0.1,0.5,0.1,0.9c0,0.2,0,0.4,0,0.6c0,0.2-0.1,0.3-0.1,0.5c-0.1,0.1-0.1,0.2-0.2,0.3
			c-0.1,0.1-0.2,0.1-0.3,0.1c-0.1,0-0.2,0-0.3-0.1c-0.1-0.1-0.2-0.2-0.2-0.4c-0.1,0.2-0.2,0.3-0.3,0.4c-0.1,0.1-0.2,0.1-0.4,0.1
			c-0.1,0-0.3-0.1-0.4-0.2c-0.1-0.1-0.2-0.2-0.3-0.4c-0.1-0.1-0.2-0.3-0.2-0.5c0-0.2-0.1-0.4-0.1-0.6c0-0.3,0-0.5,0.1-0.7
			c0.1-0.2,0.2-0.3,0.3-0.4c0.1-0.1,0.2-0.2,0.4-0.3c0.1-0.1,0.2-0.2,0.4-0.2c0.1-0.1,0.2-0.1,0.3-0.2c0.1-0.1,0.1-0.2,0.1-0.3
			c0-0.1,0-0.2-0.1-0.3c-0.1-0.1-0.1-0.1-0.2-0.1c-0.1,0-0.2,0-0.3,0.1c-0.1,0.1-0.2,0.1-0.3,0.2c-0.1,0.1-0.2,0.2-0.2,0.3
			c-0.1,0.1-0.1,0.2-0.2,0.3c0-0.1,0-0.2,0-0.3c0-0.1,0-0.2,0-0.3c0-0.3,0-0.6,0.1-0.9c0.1-0.2,0.1-0.4,0.3-0.6
			c0.1-0.2,0.2-0.3,0.4-0.4c0.1-0.1,0.3-0.1,0.5-0.1c0.2,0,0.3,0.1,0.5,0.2c0.1,0.1,0.2,0.2,0.3,0.4c0.1,0.2,0.2,0.3,0.2,0.5
			c0,0.2,0.1,0.4,0.1,0.6c0,0.2,0,0.5-0.1,0.7c0,0.3-0.1,0.5-0.1,0.8c0,0.2,0,0.4,0.1,0.5c0,0.1,0.1,0.2,0.1,0.2
			C36.1,34.5,36.2,34.3,36.2,34.1z M34.5,34.6c0,0.2,0,0.2,0.1,0.2c0.1,0,0.1,0,0.2-0.1c0-0.1,0.1-0.2,0.1-0.3
			c0-0.1,0.1-0.2,0.1-0.4c0-0.1,0-0.3,0-0.4c-0.2,0.2-0.3,0.3-0.4,0.5C34.6,34.4,34.5,34.5,34.5,34.6z"/>
		<path class="st0" d="M36.7,28.9c0.1-0.1,0.3-0.2,0.4-0.2c0.1-0.1,0.2-0.1,0.4-0.1c0.3,0,0.4,0.1,0.6,0.3c0.1,0.2,0.2,0.6,0.2,1
			c0,0.3,0,0.5,0,0.8c0,0.3-0.1,0.6-0.1,1c0,0.4-0.1,0.8-0.1,1.2c0,0.4,0,0.9,0,1.4c0,0.2,0,0.5,0,0.9c0,0.3,0,0.7,0.1,1
			c-0.1,0-0.1,0-0.2,0c-0.1,0-0.1,0-0.2,0c-0.2,0-0.3,0-0.5,0c-0.2,0-0.3,0-0.5,0c0-0.3,0.1-0.6,0.1-0.9c0-0.4,0.1-0.7,0.1-1.2
			c0-0.4,0.1-0.8,0.1-1.3c0-0.4,0-0.9,0-1.3c0-0.3,0-0.6,0-0.9c0-0.3,0-0.6-0.1-0.8c0-0.2-0.1-0.5-0.1-0.7
			C36.8,29.1,36.8,29,36.7,28.9z"/>
		<path class="st0" d="M13.5,41.3c0.1,0.3,0.1,0.5,0.1,0.9c0,0.2,0,0.4,0,0.6c0,0.2-0.1,0.3-0.1,0.5c-0.1,0.1-0.1,0.2-0.2,0.3
			c-0.1,0.1-0.2,0.1-0.3,0.1c-0.1,0-0.2,0-0.3-0.1c-0.1-0.1-0.2-0.2-0.2-0.4c-0.1,0.2-0.2,0.3-0.3,0.4c-0.1,0.1-0.2,0.1-0.4,0.1
			c-0.1,0-0.3-0.1-0.4-0.2c-0.1-0.1-0.2-0.2-0.3-0.4c-0.1-0.2-0.2-0.3-0.2-0.5c0-0.2-0.1-0.4-0.1-0.6c0-0.3,0-0.5,0.1-0.7
			c0.1-0.2,0.2-0.3,0.3-0.4c0.1-0.1,0.2-0.2,0.4-0.3c0.1-0.1,0.3-0.2,0.4-0.2c0.1-0.1,0.2-0.1,0.3-0.2c0.1-0.1,0.1-0.2,0.1-0.3
			c0-0.1,0-0.2-0.1-0.3c-0.1-0.1-0.1-0.1-0.2-0.1c-0.1,0-0.2,0-0.3,0.1c-0.1,0.1-0.2,0.1-0.3,0.2c-0.1,0.1-0.2,0.2-0.2,0.3
			c-0.1,0.1-0.1,0.2-0.2,0.3c0-0.1,0-0.2,0-0.3c0-0.1,0-0.2,0-0.4c0-0.3,0-0.6,0.1-0.9c0.1-0.2,0.1-0.4,0.3-0.6
			c0.1-0.2,0.2-0.3,0.4-0.4c0.1-0.1,0.3-0.1,0.5-0.1c0.2,0,0.3,0.1,0.5,0.2c0.1,0.1,0.3,0.2,0.3,0.4c0.1,0.2,0.2,0.3,0.2,0.5
			c0,0.2,0.1,0.4,0.1,0.6c0,0.2,0,0.5-0.1,0.7c0,0.3-0.1,0.5-0.1,0.8c0,0.3,0,0.4,0.1,0.6c0,0.1,0.1,0.2,0.1,0.2
			C13.4,41.7,13.5,41.6,13.5,41.3z M11.8,41.9c0,0.2,0,0.2,0.1,0.2c0.1,0,0.1,0,0.2-0.1c0.1-0.1,0.1-0.2,0.1-0.3
			c0-0.1,0.1-0.2,0.1-0.4c0-0.1,0-0.3,0-0.4c-0.2,0.2-0.3,0.3-0.4,0.5C11.8,41.6,11.8,41.8,11.8,41.9z"/>
		<path class="st0" d="M14,36.1c0.1-0.1,0.3-0.2,0.4-0.2c0.1-0.1,0.3-0.1,0.4-0.1c0.3,0,0.5,0.1,0.6,0.3c0.1,0.2,0.2,0.6,0.2,1.1
			c0,0.3,0,0.5,0,0.9c0,0.3-0.1,0.7-0.1,1c0,0.4-0.1,0.8-0.1,1.2c0,0.4,0,0.9,0,1.5c0,0.2,0,0.5,0,0.9c0,0.3,0,0.7,0.1,1
			c-0.1,0-0.1,0-0.2,0c-0.1,0-0.1,0-0.2,0c-0.2,0-0.3,0-0.5,0c-0.2,0-0.3,0-0.5,0c0-0.3,0.1-0.6,0.1-0.9c0-0.4,0.1-0.8,0.1-1.2
			c0-0.4,0.1-0.8,0.1-1.3c0-0.4,0-0.9,0-1.3c0-0.3,0-0.6,0-0.9c0-0.3,0-0.6-0.1-0.8c0-0.3-0.1-0.5-0.1-0.7
			C14.1,36.4,14.1,36.2,14,36.1z"/>
		<path class="st0" d="M17.9,40c0-0.1,0-0.2,0-0.2c0-0.1-0.1-0.2-0.1-0.3c0-0.1-0.1-0.1-0.1-0.2c-0.1-0.1-0.1-0.1-0.2-0.1
			c-0.1,0-0.1,0-0.1,0.1c0,0-0.1,0.1-0.1,0.2c0,0.1,0,0.2,0.1,0.3c0,0.1,0.1,0.2,0.2,0.3c0.1,0.1,0.1,0.3,0.2,0.4
			c0.1,0.1,0.2,0.3,0.2,0.5c0.1,0.2,0.1,0.4,0.2,0.6c0,0.2,0.1,0.4,0.1,0.6c0,0.3,0,0.5-0.1,0.7c-0.1,0.2-0.1,0.4-0.2,0.5
			c-0.1,0.1-0.2,0.2-0.4,0.3c-0.1,0.1-0.3,0.1-0.5,0.1c-0.3,0-0.6-0.2-0.8-0.4c-0.2-0.3-0.3-0.6-0.3-1.1c0-0.2,0-0.4,0.1-0.5
			c0-0.2,0.1-0.3,0.2-0.4c0,0.3,0.1,0.5,0.2,0.7c0.1,0.1,0.2,0.2,0.3,0.2c0.1,0,0.1,0,0.2-0.1c0-0.1,0.1-0.2,0.1-0.3
			c0-0.1,0-0.2-0.1-0.4c0-0.1-0.1-0.2-0.2-0.4c-0.1-0.1-0.1-0.3-0.2-0.4c-0.1-0.1-0.1-0.3-0.2-0.4c-0.1-0.2-0.1-0.3-0.2-0.5
			c0-0.2-0.1-0.4-0.1-0.6c0-0.2,0-0.4,0.1-0.6c0.1-0.2,0.1-0.3,0.2-0.5c0.1-0.1,0.2-0.2,0.3-0.3c0.1-0.1,0.3-0.1,0.4-0.1
			c0.1,0,0.3,0,0.4,0.1c0.1,0.1,0.2,0.1,0.3,0.3c0.1,0.1,0.2,0.2,0.2,0.4c0.1,0.1,0.1,0.3,0.1,0.5c0,0.1,0,0.3-0.1,0.4
			C18,39.7,17.9,39.8,17.9,40z"/>
		<path class="st0" d="M22.9,38.9c0-0.1,0-0.2,0-0.3c0-0.1,0-0.2-0.1-0.3c0-0.1-0.1-0.2-0.1-0.2c-0.1-0.1-0.1-0.1-0.2-0.1
			c-0.1,0-0.2,0-0.2,0.1c0,0.1-0.1,0.2-0.1,0.3c0,0.1,0,0.3,0.1,0.4c0.1,0.1,0.1,0.3,0.2,0.4c0.1,0.1,0.2,0.3,0.3,0.5
			c0.1,0.2,0.2,0.4,0.3,0.6c0.1,0.2,0.1,0.5,0.2,0.8c0.1,0.3,0.1,0.6,0.1,0.9c0,0.4,0,0.7-0.1,1c-0.1,0.3-0.2,0.5-0.3,0.7
			c-0.1,0.2-0.3,0.3-0.5,0.4c-0.2,0.1-0.3,0.1-0.5,0.1c-0.4,0-0.7-0.2-1-0.6c-0.2-0.4-0.4-0.8-0.4-1.4c0-0.2,0-0.5,0.1-0.7
			c0.1-0.2,0.1-0.4,0.3-0.5c0.1,0.4,0.1,0.7,0.2,0.9c0.1,0.2,0.2,0.3,0.3,0.3c0.1,0,0.2,0,0.3-0.2c0.1-0.1,0.1-0.2,0.1-0.4
			c0-0.1,0-0.3-0.1-0.5c-0.1-0.2-0.1-0.3-0.2-0.5c-0.1-0.2-0.2-0.3-0.3-0.5C21.1,40,21,39.8,21,39.6c-0.1-0.2-0.2-0.4-0.2-0.7
			c-0.1-0.3-0.1-0.5-0.1-0.8c0-0.3,0-0.6,0.1-0.8c0.1-0.2,0.2-0.4,0.3-0.6c0.1-0.2,0.3-0.3,0.4-0.3c0.2-0.1,0.3-0.1,0.5-0.1
			c0.2,0,0.4,0.1,0.5,0.2c0.1,0.1,0.3,0.2,0.4,0.4c0.1,0.1,0.2,0.3,0.2,0.5c0,0.2,0.1,0.4,0.1,0.5c0,0.2,0,0.4-0.1,0.6
			C23.1,38.6,23,38.8,22.9,38.9z"/>
		<path class="st0" d="M23.6,38.5c0.1-0.1,0.2-0.1,0.3-0.1c0.1,0,0.2,0,0.3,0c0.3,0,0.5,0.1,0.6,0.3c0.2,0.2,0.2,0.4,0.2,0.8
			c0,0.2,0,0.4-0.1,0.7c0,0.3-0.1,0.5-0.1,0.8c0,0.3-0.1,0.5-0.1,0.7c0,0.2-0.1,0.4-0.1,0.6c0,0.1,0,0.2,0,0.3
			c0,0.1,0.1,0.1,0.1,0.1c0,0,0.1-0.1,0.2-0.2c0.1-0.2,0.1-0.4,0.1-0.6c0-0.3,0.1-0.5,0.1-0.8c0-0.3,0-0.6,0-0.9c0-0.4,0-0.7-0.1-1
			c-0.1-0.2-0.1-0.4-0.2-0.6c0.1-0.1,0.3-0.1,0.4-0.1c0.1,0,0.2,0,0.4,0.1c0.1,0.1,0.2,0.1,0.3,0.2c0.1,0.1,0.1,0.2,0.2,0.4
			c0.1,0.2,0.1,0.3,0.1,0.6c0,0.2,0,0.4,0,0.6c0,0.2-0.1,0.4-0.1,0.6c0,0.2-0.1,0.4-0.1,0.6c0,0.2,0,0.4,0,0.5c0,0.2,0,0.3,0.1,0.4
			c0,0.1,0.1,0.2,0.2,0.2c0.1,0,0.2-0.1,0.3-0.3c0,0.2,0.1,0.4,0.1,0.6c0,0.2,0,0.4-0.1,0.5c0,0.2-0.1,0.3-0.1,0.4
			c-0.1,0.1-0.1,0.2-0.2,0.3c-0.1,0.1-0.2,0.1-0.3,0.1c-0.1,0-0.2-0.1-0.3-0.2c-0.1-0.1-0.2-0.3-0.3-0.6c-0.1,0.2-0.2,0.4-0.3,0.5
			c-0.1,0.1-0.3,0.2-0.5,0.2c-0.2,0-0.3-0.1-0.4-0.2c-0.1-0.1-0.2-0.2-0.3-0.4c-0.1-0.2-0.1-0.3-0.1-0.5c0-0.2,0-0.4,0-0.6
			c0-0.2,0-0.4,0-0.6c0-0.2,0-0.4,0.1-0.7c0-0.2,0-0.5,0.1-0.7c0-0.2,0-0.4,0-0.7c0-0.3,0-0.5-0.1-0.7
			C23.8,38.9,23.7,38.7,23.6,38.5z"/>
		<path class="st0" d="M27.1,38.8c0.2-0.1,0.4-0.2,0.6-0.3c0.2-0.1,0.4-0.1,0.6-0.1c0.2,0,0.3,0.1,0.5,0.1c0.2,0.1,0.3,0.2,0.4,0.4
			c0.1,0.2,0.2,0.4,0.3,0.6c0.1,0.3,0.1,0.6,0.1,0.9c0,0.6-0.1,1-0.3,1.3c-0.1,0.1-0.2,0.2-0.2,0.3c-0.1,0.1-0.2,0.1-0.2,0.1
			c-0.1,0-0.1,0-0.2,0.1c-0.1,0-0.1,0-0.1,0c0,0-0.1,0-0.1,0c0,0,0,0-0.1,0c-0.1,0-0.1,0-0.2,0.1c0,0.1,0,0.1,0,0.2
			c0,0.1,0,0.3,0,0.4c0,0.2,0.1,0.3,0.1,0.5c0,0.2,0.1,0.3,0.2,0.4c0.1,0.1,0.1,0.3,0.2,0.4c-0.1,0-0.2,0-0.4,0c-0.2,0-0.3,0-0.5,0
			c-0.1,0-0.3,0-0.4,0c-0.1,0-0.3,0-0.4,0c0.1-0.4,0.1-0.9,0.2-1.4c0-0.5,0.1-1.1,0.1-1.6c0-0.4,0-0.9,0-1.3
			C27.2,39.5,27.2,39.1,27.1,38.8z M28.2,41.5c0.2-0.1,0.3-0.3,0.4-0.5c0.1-0.2,0.1-0.4,0.1-0.6c0-0.2,0-0.4-0.1-0.5
			c0-0.1-0.1-0.2-0.2-0.2c0,0-0.1,0-0.1,0.1c0,0.1-0.1,0.1-0.1,0.3c0,0.1,0,0.2-0.1,0.4c0,0.1,0,0.3,0,0.5c0,0.1,0,0.2,0,0.3
			C28.2,41.3,28.2,41.4,28.2,41.5z"/>
		<path class="st0" d="M31.3,38.6c0.1,0,0.3,0.1,0.4,0.2c0.1,0.1,0.2,0.2,0.3,0.4c0.1,0.2,0.1,0.3,0.2,0.5c0,0.2,0.1,0.4,0.1,0.6
			c0,0.2,0,0.4,0.1,0.5c0,0.2,0,0.3,0,0.4c0,0.1,0,0.2,0,0.2c0,0.1,0,0.2,0,0.2c-0.1,0-0.2,0-0.4,0.1c-0.1,0-0.3,0.1-0.4,0.2
			c-0.1,0.1-0.2,0.2-0.3,0.3c-0.1,0.1-0.1,0.2-0.1,0.4c0,0.1,0,0.2,0.1,0.3c0.1,0.1,0.1,0.1,0.2,0.1c0.1,0,0.2,0,0.2-0.1
			c0.1-0.1,0.2-0.1,0.2-0.2c0.1-0.1,0.1-0.2,0.2-0.2c0-0.1,0.1-0.2,0.1-0.2c0.1,0.1,0.1,0.2,0.1,0.3c0,0.1,0,0.3,0,0.4
			c0,0.5-0.1,0.8-0.3,1.1c-0.2,0.3-0.4,0.4-0.7,0.4c-0.2,0-0.4-0.1-0.6-0.3c-0.2-0.2-0.3-0.4-0.4-0.7c-0.1-0.3-0.2-0.6-0.2-0.9
			c0-0.3-0.1-0.7-0.1-1c0-0.3,0-0.7,0.1-1c0.1-0.3,0.1-0.7,0.2-0.9c0.1-0.3,0.2-0.5,0.4-0.7C30.9,38.7,31.1,38.6,31.3,38.6z
			 M31.1,40.7c0,0,0,0.1,0,0.1c0,0,0,0.1,0,0.1c0.1-0.1,0.1-0.1,0.2-0.2c0.1-0.1,0.1-0.1,0.2-0.2c0-0.2,0-0.4,0-0.5
			c0-0.1-0.1-0.2-0.1-0.2c0,0-0.1,0-0.1,0.1c0,0,0,0.1-0.1,0.2c0,0.1,0,0.2,0,0.2C31.1,40.5,31.1,40.6,31.1,40.7z"/>
		<path class="st0" d="M33.9,40c0.1-0.2,0.2-0.4,0.3-0.6c0.1-0.2,0.2-0.3,0.2-0.4c0.1-0.1,0.2-0.2,0.2-0.2c0.1,0,0.2-0.1,0.3,0
			c0.1,0,0.2,0,0.2,0.1c0.1,0.1,0.1,0.2,0.2,0.3c0,0.1,0.1,0.2,0.1,0.4c0,0.1,0,0.3,0,0.5c0,0.2,0,0.3,0,0.5c0,0.2-0.1,0.3-0.1,0.5
			c-0.1,0.1-0.2,0.3-0.3,0.4c-0.1,0.1-0.2,0.2-0.4,0.3c0.1-0.2,0.1-0.3,0.1-0.4c0-0.1,0-0.2,0-0.3c0-0.2,0-0.3,0-0.3
			c0-0.1-0.1-0.1-0.1-0.1c-0.1,0-0.1,0-0.2,0.1c-0.1,0.1-0.2,0.2-0.2,0.4c-0.1,0.2-0.1,0.4-0.2,0.6c0,0.2-0.1,0.5-0.1,0.8
			c0,0.3,0,0.6,0.1,1c0.1,0.3,0.2,0.7,0.3,1.1c-0.1,0-0.2-0.1-0.3-0.1c-0.1,0-0.2,0-0.3,0c-0.2,0-0.3,0-0.5,0c-0.2,0-0.3,0-0.5,0
			c0-0.1,0.1-0.3,0.1-0.4c0-0.1,0.1-0.3,0.1-0.5c0-0.2,0.1-0.5,0.1-0.8c0-0.3,0-0.7,0-1.1c0-0.4,0-0.8,0-1.1c0-0.3,0-0.5-0.1-0.7
			c0-0.2-0.1-0.3-0.1-0.4c0-0.1-0.1-0.2-0.2-0.2c0.1-0.2,0.2-0.3,0.4-0.4c0.2-0.1,0.3-0.2,0.5-0.2c0.1,0,0.3,0.1,0.3,0.2
			c0.1,0.1,0.1,0.3,0.1,0.5c0,0.1,0,0.2,0,0.3C33.9,39.8,33.9,39.9,33.9,40z"/>
		<path class="st0" d="M38.2,40.4c0.1,0,0.1,0,0.2,0c0,0,0,0.1,0,0.2c0,0.2,0,0.4-0.1,0.5c-0.1,0.1-0.2,0.2-0.4,0.2l-1.9,0
			c-0.1,0-0.1,0-0.2-0.1c0-0.1-0.1-0.2-0.1-0.3c0,0,0-0.1,0-0.2c0-0.1,0-0.2,0.1-0.3c0-0.1,0.1-0.1,0.1-0.2c0,0,0.1,0,0.2,0
			L38.2,40.4z"/>
		<path class="st0" d="M21.7,44.7c0.2,0,0.4,0,0.6,0c0.2,0,0.4,0,0.5,0c0.2,0,0.4,0,0.6,0.1c0.2,0.1,0.4,0.2,0.6,0.3
			c0.2,0.2,0.3,0.4,0.4,0.7c0.1,0.3,0.2,0.7,0.2,1.1c0,0.4,0,0.7-0.1,1c-0.1,0.3-0.2,0.5-0.3,0.7c-0.1,0.2-0.3,0.4-0.4,0.5
			c-0.2,0.1-0.3,0.2-0.5,0.3c-0.1,0-0.2,0.1-0.3,0.1c-0.1,0-0.1,0.1-0.2,0.1c0,0-0.1,0-0.1,0.1c0,0,0,0.1,0,0.1c0,0.3,0,0.5,0.1,0.7
			c0,0.2,0.1,0.4,0.1,0.7c0.1,0.2,0.1,0.4,0.2,0.6c0.1,0.2,0.1,0.4,0.2,0.6c-0.2,0-0.3,0-0.5,0c-0.2,0-0.3,0-0.5,0
			c-0.1,0-0.3,0-0.4,0c-0.1,0-0.3,0-0.4,0c0.1-0.8,0.2-1.6,0.2-2.5c0.1-0.8,0.1-1.7,0.1-2.5c0-0.5,0-0.9,0-1.4
			C21.8,45.5,21.8,45.1,21.7,44.7z M23,48.3c0.2-0.1,0.3-0.2,0.4-0.4c0.1-0.2,0.1-0.5,0.1-0.7c0-0.2,0-0.4-0.1-0.6
			c-0.1-0.2-0.1-0.2-0.2-0.2c-0.1,0-0.1,0-0.1,0.1c0,0.1-0.1,0.2-0.1,0.3c0,0.1,0,0.2-0.1,0.3c0,0.1,0,0.2,0,0.3c0,0.1,0,0.3,0,0.5
			C23,48,23,48.1,23,48.3z"/>
		<path class="st0" d="M26.3,46.6c0.2,0,0.4,0.1,0.6,0.3c0.2,0.2,0.3,0.4,0.4,0.7c0.1,0.3,0.2,0.6,0.2,0.9c0,0.3,0.1,0.7,0.1,1.1
			c0,0.3,0,0.6-0.1,1c0,0.3-0.1,0.7-0.2,1c-0.1,0.3-0.2,0.5-0.4,0.7c-0.2,0.2-0.4,0.3-0.6,0.3c-0.3,0-0.5-0.1-0.7-0.3
			c-0.2-0.2-0.3-0.5-0.4-0.8c-0.1-0.3-0.2-0.6-0.2-1c0-0.3-0.1-0.7-0.1-0.9c0-0.3,0-0.6,0.1-1c0-0.3,0.1-0.6,0.2-0.9
			c0.1-0.3,0.2-0.5,0.4-0.7C25.9,46.7,26.1,46.6,26.3,46.6z M26,49.5c0,0.4,0,0.8,0.1,1.1c0.1,0.3,0.1,0.4,0.2,0.4
			c0.1,0,0.2-0.1,0.2-0.4c0-0.3,0.1-0.6,0.1-1.1c0-0.5,0-0.9-0.1-1.2c-0.1-0.2-0.1-0.3-0.2-0.3c-0.1,0-0.2,0.1-0.2,0.4
			C26,48.6,26,49,26,49.5z"/>
		<path class="st0" d="M29.9,48.7c0-0.1,0-0.2,0-0.2c0-0.1-0.1-0.2-0.1-0.2c0-0.1-0.1-0.1-0.1-0.2c0-0.1-0.1-0.1-0.2-0.1
			c-0.1,0-0.1,0-0.1,0.1c0,0-0.1,0.1-0.1,0.2c0,0.1,0,0.2,0.1,0.3c0,0.1,0.1,0.2,0.2,0.3c0.1,0.1,0.1,0.3,0.2,0.4
			c0.1,0.1,0.2,0.3,0.2,0.5c0.1,0.2,0.1,0.4,0.2,0.6c0,0.2,0.1,0.4,0.1,0.6c0,0.3,0,0.5-0.1,0.7c-0.1,0.2-0.1,0.4-0.2,0.5
			c-0.1,0.1-0.2,0.2-0.4,0.3c-0.1,0.1-0.3,0.1-0.5,0.1c-0.3,0-0.6-0.2-0.8-0.4C28.1,52,28,51.6,28,51.2c0-0.2,0-0.4,0.1-0.5
			c0-0.2,0.1-0.3,0.2-0.4c0,0.3,0.1,0.5,0.2,0.7c0.1,0.1,0.2,0.2,0.3,0.2c0.1,0,0.1,0,0.2-0.1c0-0.1,0.1-0.2,0.1-0.3
			c0-0.1,0-0.2-0.1-0.4c0-0.1-0.1-0.2-0.2-0.4c-0.1-0.1-0.1-0.3-0.2-0.4c-0.1-0.1-0.1-0.3-0.2-0.4c-0.1-0.2-0.1-0.3-0.2-0.5
			c0-0.2-0.1-0.4-0.1-0.6c0-0.2,0-0.4,0.1-0.6c0.1-0.2,0.1-0.3,0.2-0.5c0.1-0.1,0.2-0.2,0.3-0.3c0.1-0.1,0.3-0.1,0.4-0.1
			c0.1,0,0.3,0,0.4,0.1c0.1,0.1,0.2,0.1,0.3,0.3c0.1,0.1,0.2,0.2,0.2,0.4c0.1,0.1,0.1,0.3,0.1,0.5c0,0.1,0,0.3-0.1,0.4
			C30.1,48.5,30,48.6,29.9,48.7z"/>
		<path class="st0" d="M32.1,47.8c0,0.1,0,0.3,0,0.4c0,0.1,0,0.2,0,0.4c0.1,0,0.2-0.1,0.4-0.1c0.1,0,0.2-0.1,0.3-0.1
			c0,0.3-0.1,0.6-0.2,0.7c-0.1,0.1-0.4,0.2-0.7,0.2c-0.1,0.1-0.1,0.3-0.1,0.5c0,0.2,0,0.4,0,0.6c0,0.1,0,0.1,0,0.2
			c0,0.1,0,0.1,0,0.2c0,0.1,0,0.1,0.1,0.2c0,0,0.1,0.1,0.1,0.1c0,0,0.1,0,0.1-0.1c0-0.1,0.1-0.1,0.1-0.2c0-0.1,0.1-0.2,0.1-0.3
			c0-0.1,0.1-0.2,0.1-0.2c0.1,0.1,0.1,0.2,0.2,0.4c0,0.2,0,0.3,0,0.5c0,0.2,0,0.4-0.1,0.6c0,0.2-0.1,0.4-0.2,0.6
			c-0.1,0.2-0.2,0.3-0.3,0.4c-0.1,0.1-0.2,0.1-0.4,0.1c-0.1,0-0.3-0.1-0.4-0.1c-0.1-0.1-0.2-0.2-0.3-0.4c-0.1-0.2-0.1-0.3-0.2-0.6
			c0-0.2-0.1-0.5-0.1-0.7c0-0.1,0-0.2,0-0.4c0-0.2,0-0.3,0-0.5c0-0.2,0-0.3,0-0.5c0-0.2,0-0.3,0-0.5c0-0.2,0-0.4,0-0.6
			c0-0.2,0-0.4-0.1-0.6c0-0.2-0.1-0.4-0.2-0.5c-0.1-0.2-0.2-0.3-0.3-0.5c0.1-0.1,0.2-0.2,0.4-0.3c0.2-0.1,0.3-0.1,0.5-0.1
			c0.3,0,0.5,0.1,0.7,0.3C32,47,32.1,47.3,32.1,47.8z"/>
		<path class="st0" d="M34.3,47c0.1,0,0.3,0.1,0.4,0.2c0.1,0.1,0.2,0.2,0.3,0.4c0.1,0.2,0.1,0.3,0.2,0.5c0,0.2,0.1,0.4,0.1,0.6
			c0,0.2,0,0.4,0.1,0.5c0,0.2,0,0.3,0,0.4c0,0.1,0,0.2,0,0.2c0,0.1,0,0.2,0,0.2c-0.1,0-0.2,0-0.4,0.1c-0.1,0-0.3,0.1-0.4,0.2
			c-0.1,0.1-0.2,0.2-0.3,0.3c-0.1,0.1-0.1,0.2-0.1,0.4c0,0.1,0,0.2,0.1,0.3c0.1,0.1,0.1,0.1,0.2,0.1c0.1,0,0.2,0,0.2-0.1
			c0.1-0.1,0.2-0.1,0.2-0.2c0.1-0.1,0.1-0.2,0.2-0.2c0-0.1,0.1-0.2,0.1-0.2c0.1,0.1,0.1,0.2,0.1,0.3c0,0.1,0,0.3,0,0.4
			c0,0.5-0.1,0.8-0.3,1.1c-0.2,0.3-0.4,0.4-0.7,0.4c-0.2,0-0.4-0.1-0.6-0.3c-0.2-0.2-0.3-0.4-0.4-0.7c-0.1-0.3-0.2-0.6-0.2-0.9
			c0-0.3-0.1-0.7-0.1-1c0-0.3,0-0.7,0.1-1c0.1-0.3,0.1-0.7,0.2-0.9c0.1-0.3,0.2-0.5,0.4-0.7C33.9,47,34.1,47,34.3,47z M34.1,49.1
			c0,0,0,0.1,0,0.1c0,0,0,0.1,0,0.1c0.1-0.1,0.1-0.1,0.2-0.2c0.1-0.1,0.1-0.1,0.2-0.2c0-0.2,0-0.4,0-0.5c0-0.1-0.1-0.2-0.1-0.2
			c0,0-0.1,0-0.1,0.1c0,0,0,0.1-0.1,0.2c0,0.1,0,0.2,0,0.2C34.1,48.9,34.1,49,34.1,49.1z"/>
		<path class="st0" d="M36.8,48.4c0.1-0.2,0.2-0.4,0.3-0.6c0.1-0.2,0.2-0.3,0.2-0.4c0.1-0.1,0.2-0.2,0.2-0.2c0.1,0,0.2-0.1,0.3,0
			c0.1,0,0.2,0,0.2,0.1c0.1,0.1,0.1,0.2,0.2,0.3c0,0.1,0.1,0.2,0.1,0.4c0,0.1,0,0.3,0,0.5c0,0.2,0,0.3,0,0.5c0,0.2-0.1,0.3-0.1,0.5
			c-0.1,0.1-0.2,0.3-0.3,0.4c-0.1,0.1-0.2,0.2-0.4,0.3c0.1-0.2,0.1-0.3,0.1-0.4c0-0.1,0-0.2,0-0.3c0-0.2,0-0.3,0-0.3
			c0-0.1-0.1-0.1-0.1-0.1c-0.1,0-0.1,0-0.2,0.1c-0.1,0.1-0.2,0.2-0.2,0.4C37,49.6,37,49.8,36.9,50c0,0.2-0.1,0.5-0.1,0.8
			c0,0.3,0,0.6,0.1,0.9c0.1,0.3,0.2,0.7,0.3,1.1c-0.1,0-0.2-0.1-0.3-0.1c-0.1,0-0.2,0-0.3,0c-0.2,0-0.3,0-0.5,0c-0.2,0-0.3,0-0.5,0
			c0-0.1,0.1-0.3,0.1-0.4c0-0.1,0.1-0.3,0.1-0.5c0-0.2,0.1-0.5,0.1-0.8c0-0.3,0-0.7,0-1.1c0-0.4,0-0.8,0-1.1c0-0.3,0-0.5-0.1-0.7
			c0-0.2-0.1-0.3-0.1-0.4c0-0.1-0.1-0.1-0.2-0.2c0.1-0.2,0.2-0.3,0.4-0.4c0.2-0.1,0.3-0.2,0.5-0.2c0.1,0,0.3,0.1,0.3,0.2
			c0.1,0.1,0.1,0.3,0.1,0.5c0,0.1,0,0.2,0,0.3C36.9,48.2,36.9,48.3,36.8,48.4z"/>
	</g>
	<g>
		<path class="st0" d="M10.8,237.5c0.3,0.1,0.5,0.1,0.7,0.1c0.2,0,0.4,0,0.6,0c0.2,0,0.4,0.1,0.6,0.1c0.2,0.1,0.3,0.2,0.5,0.4
			c0.3,0.3,0.5,0.7,0.6,1.3c0.2,0.5,0.2,1.2,0.2,1.9c0,0.5,0,1-0.1,1.4c-0.1,0.5-0.2,0.9-0.4,1.2c-0.2,0.3-0.4,0.5-0.6,0.7
			c-0.2,0.1-0.5,0.2-0.7,0.3c-0.2,0.1-0.5,0.1-0.7,0.2c-0.3,0-0.5,0.1-0.7,0.2c0.1-0.5,0.2-1.1,0.2-1.7c0-0.6,0.1-1.3,0.1-2
			c0-0.8,0-1.5-0.1-2.2C11,238.7,10.9,238,10.8,237.5z M12.8,241.8c0-0.2,0-0.5,0-0.8c0-0.3,0-0.6-0.1-0.9c0-0.3-0.1-0.5-0.1-0.7
			c-0.1-0.2-0.1-0.3-0.2-0.3c-0.1,0-0.1,0.1-0.1,0.1c0,0.1-0.1,0.2-0.1,0.4c0,0.1,0,0.3,0,0.5c0,0.2,0,0.3,0,0.5c0,0.1,0,0.3,0,0.4
			c0,0.2,0,0.4,0,0.6c0,0.2,0,0.4,0,0.7c0,0.2,0,0.4,0.1,0.6c0,0.2,0.1,0.3,0.1,0.4c0,0.1,0.1,0.2,0.1,0.2c0.1,0,0.2-0.2,0.2-0.5
			C12.8,242.8,12.8,242.4,12.8,241.8z"/>
		<path class="st0" d="M16,239.1c0.2,0,0.4,0.1,0.6,0.2c0.2,0.2,0.3,0.4,0.4,0.6c0.1,0.3,0.2,0.6,0.2,0.9c0,0.3,0.1,0.7,0.1,1.1
			c0,0.3,0,0.6-0.1,1c0,0.3-0.1,0.7-0.2,1c-0.1,0.3-0.2,0.6-0.4,0.8c-0.2,0.2-0.4,0.3-0.6,0.3c-0.3,0-0.5-0.1-0.7-0.3
			c-0.2-0.2-0.3-0.5-0.4-0.8c-0.1-0.3-0.2-0.6-0.2-1c0-0.3-0.1-0.7-0.1-0.9c0-0.3,0-0.7,0.1-1c0-0.3,0.1-0.7,0.2-0.9
			c0.1-0.3,0.2-0.5,0.4-0.7C15.5,239.2,15.7,239.2,16,239.1z M15.7,242.1c0,0.4,0,0.8,0.1,1.1c0.1,0.3,0.1,0.4,0.2,0.4
			c0.1,0,0.2-0.1,0.2-0.4c0-0.3,0.1-0.7,0.1-1.1c0-0.6,0-0.9-0.1-1.2c-0.1-0.2-0.1-0.3-0.2-0.3c-0.1,0-0.2,0.1-0.2,0.4
			C15.7,241.2,15.7,241.6,15.7,242.1z"/>
		<path class="st0" d="M17.6,239.3c0.1-0.1,0.2-0.1,0.3-0.2c0.1,0,0.2-0.1,0.4-0.1c0.3,0,0.5,0.1,0.6,0.2c0.2,0.2,0.2,0.4,0.2,0.8
			c0,0.2,0,0.4-0.1,0.7c0,0.3-0.1,0.5-0.1,0.8c0,0.3-0.1,0.5-0.1,0.8c0,0.2-0.1,0.4-0.1,0.6c0,0.1,0,0.2,0,0.3
			c0,0.1,0.1,0.1,0.1,0.1c0.1,0,0.1-0.1,0.2-0.2c0.1-0.2,0.1-0.4,0.1-0.6c0-0.3,0.1-0.5,0.1-0.9c0-0.3,0-0.6,0-0.9
			c0-0.4,0-0.7-0.1-1c-0.1-0.2-0.1-0.4-0.2-0.6c0.1-0.1,0.3-0.1,0.4-0.1c0.1,0,0.2,0,0.4,0.1c0.1,0,0.2,0.1,0.3,0.2
			c0.1,0.1,0.1,0.2,0.2,0.4c0.1,0.2,0.1,0.3,0.1,0.6c0,0.2,0,0.4,0,0.6c0,0.2-0.1,0.4-0.1,0.6c0,0.2-0.1,0.4-0.1,0.6
			c0,0.2,0,0.4,0,0.5c0,0.2,0,0.3,0.1,0.4c0,0.1,0.1,0.1,0.2,0.1c0.1,0,0.2-0.1,0.3-0.3c0,0.2,0.1,0.4,0.1,0.6c0,0.2,0,0.4-0.1,0.5
			c0,0.2-0.1,0.3-0.1,0.5c-0.1,0.1-0.1,0.2-0.2,0.3c-0.1,0.1-0.2,0.1-0.3,0.1c-0.1,0-0.2,0-0.3-0.2c-0.1-0.1-0.2-0.3-0.3-0.6
			c-0.1,0.2-0.2,0.4-0.3,0.6c-0.1,0.1-0.3,0.2-0.5,0.2c-0.2,0-0.3,0-0.4-0.1c-0.1-0.1-0.2-0.2-0.3-0.4c-0.1-0.2-0.1-0.3-0.1-0.5
			c0-0.2,0-0.4,0-0.6c0-0.2,0-0.4,0-0.6c0-0.2,0-0.5,0.1-0.7c0-0.2,0-0.5,0.1-0.7c0-0.2,0-0.4,0-0.7c0-0.3,0-0.5-0.1-0.7
			C17.8,239.7,17.7,239.5,17.6,239.3z"/>
		<path class="st0" d="M22.5,241.1c0-0.1,0.1-0.2,0.1-0.3c0-0.1,0-0.2,0-0.3c0-0.2-0.1-0.4-0.2-0.4c-0.1,0-0.2,0.1-0.3,0.3
			c-0.1,0.2-0.1,0.6-0.1,1.2c0,0.5,0,0.9,0.1,1.2c0.1,0.3,0.2,0.4,0.3,0.4c0.1,0,0.1-0.1,0.2-0.2c0.1-0.1,0.1-0.4,0.1-0.7
			c0,0,0,0-0.1,0c0,0,0,0-0.1,0c-0.2,0-0.3-0.1-0.4-0.2c-0.1-0.2-0.1-0.4-0.1-0.6c0-0.1,0-0.1,0-0.2c0-0.1,0-0.1,0-0.2
			c0.1,0.1,0.2,0.1,0.2,0.1c0.1,0,0.1,0,0.2,0c0.1,0,0.2,0,0.3-0.1c0.1-0.1,0.2-0.1,0.3-0.1c0.1,0,0.2,0,0.2,0.1
			c0.1,0.1,0.1,0.2,0.1,0.3c0,0.1,0,0.2,0.1,0.3c0,0.1,0,0.2,0,0.3c0,0.4,0,0.7-0.1,1c-0.1,0.3-0.1,0.6-0.2,0.8
			c-0.1,0.2-0.2,0.4-0.4,0.5c-0.1,0.1-0.3,0.2-0.5,0.2c-0.2,0-0.3-0.1-0.5-0.2c-0.2-0.1-0.3-0.3-0.4-0.6c-0.1-0.3-0.2-0.6-0.3-0.9
			c-0.1-0.4-0.1-0.8-0.1-1.2c0-0.5,0-0.9,0.1-1.2c0.1-0.4,0.2-0.7,0.3-0.9c0.1-0.3,0.3-0.4,0.5-0.6c0.2-0.1,0.4-0.2,0.6-0.2
			c0.2,0,0.3,0,0.4,0.1c0.1,0.1,0.2,0.2,0.3,0.3c0.1,0.1,0.1,0.3,0.2,0.4c0,0.1,0,0.3,0,0.4c0,0.2,0,0.4-0.1,0.5
			c-0.1,0.1-0.1,0.3-0.2,0.3c-0.1,0.1-0.2,0.1-0.3,0.2C22.7,241.2,22.6,241.2,22.5,241.1z"/>
		<path class="st0" d="M23.9,237c0.1-0.1,0.3-0.2,0.4-0.2c0.1-0.1,0.3-0.1,0.4-0.1c0.3,0,0.5,0.1,0.6,0.3c0.1,0.2,0.2,0.5,0.2,1
			c0,0.3,0,0.5,0,0.9c0,0.3-0.1,0.7-0.1,1c0,0.4-0.1,0.8-0.1,1.3c0,0.5,0,0.9,0,1.5c0,0.2,0,0.5,0,0.9c0,0.3,0,0.7,0.1,1
			c-0.1,0-0.1,0-0.2,0c-0.1,0-0.1,0-0.2,0c-0.2,0-0.3,0-0.5,0.1c-0.2,0-0.3,0.1-0.5,0.1c0-0.3,0.1-0.6,0.1-0.9
			c0-0.4,0.1-0.8,0.1-1.2c0-0.4,0.1-0.8,0.1-1.3c0-0.4,0-0.9,0-1.3c0-0.3,0-0.6,0-0.9c0-0.3,0-0.6-0.1-0.8c0-0.2-0.1-0.5-0.1-0.7
			C24,237.3,23.9,237.2,23.9,237z"/>
		<path class="st0" d="M28.4,242.1c0.1,0.3,0.1,0.5,0.1,0.8c0,0.2,0,0.4,0,0.6c0,0.2-0.1,0.3-0.1,0.5c-0.1,0.1-0.1,0.3-0.2,0.3
			c-0.1,0.1-0.2,0.1-0.3,0.1c-0.1,0-0.2,0-0.3-0.1c-0.1-0.1-0.2-0.2-0.2-0.3c-0.1,0.2-0.2,0.3-0.3,0.4c-0.1,0.1-0.2,0.1-0.4,0.1
			c-0.1,0-0.3,0-0.4-0.1c-0.1-0.1-0.2-0.2-0.3-0.3c-0.1-0.1-0.2-0.3-0.2-0.5c0-0.2-0.1-0.4-0.1-0.6c0-0.3,0-0.5,0.1-0.7
			c0.1-0.2,0.2-0.3,0.3-0.5c0.1-0.1,0.2-0.2,0.4-0.3c0.1-0.1,0.2-0.2,0.4-0.3c0.1-0.1,0.2-0.2,0.3-0.3c0.1-0.1,0.1-0.2,0.1-0.3
			c0-0.1,0-0.2-0.1-0.3c-0.1,0-0.1-0.1-0.2-0.1c-0.1,0-0.2,0-0.3,0.1c-0.1,0.1-0.2,0.1-0.3,0.2c-0.1,0.1-0.2,0.2-0.2,0.3
			c-0.1,0.1-0.1,0.2-0.2,0.3c0-0.1,0-0.2,0-0.3c0-0.1,0-0.2,0-0.3c0-0.3,0-0.6,0.1-0.9c0.1-0.2,0.1-0.5,0.3-0.6
			c0.1-0.2,0.2-0.3,0.4-0.4c0.1-0.1,0.3-0.1,0.5-0.1c0.2,0,0.3,0,0.5,0.1c0.1,0.1,0.2,0.2,0.3,0.3c0.1,0.1,0.2,0.3,0.2,0.5
			c0,0.2,0.1,0.4,0.1,0.6c0,0.2,0,0.5-0.1,0.7c0,0.3-0.1,0.5-0.1,0.8c0,0.2,0,0.4,0.1,0.5c0,0.1,0.1,0.2,0.1,0.2
			C28.3,242.5,28.4,242.4,28.4,242.1z M26.7,242.8c0,0.2,0,0.2,0.1,0.2c0.1,0,0.1,0,0.2-0.1c0-0.1,0.1-0.2,0.1-0.3
			c0-0.1,0.1-0.3,0.1-0.4c0-0.1,0-0.3,0-0.4c-0.2,0.2-0.3,0.4-0.4,0.5C26.8,242.5,26.7,242.7,26.7,242.8z"/>
		<path class="st0" d="M30.8,240.4c0-0.1,0-0.1,0-0.2c0-0.1-0.1-0.2-0.1-0.2c0-0.1-0.1-0.1-0.1-0.2c0,0-0.1-0.1-0.2-0.1
			c-0.1,0-0.1,0-0.1,0.1c0,0-0.1,0.1-0.1,0.2c0,0.1,0,0.2,0.1,0.3c0,0.1,0.1,0.2,0.2,0.3c0.1,0.1,0.1,0.2,0.2,0.4
			c0.1,0.1,0.2,0.3,0.2,0.5c0.1,0.2,0.1,0.4,0.2,0.6c0,0.2,0.1,0.4,0.1,0.6c0,0.3,0,0.5-0.1,0.7c-0.1,0.2-0.1,0.4-0.2,0.5
			c-0.1,0.2-0.2,0.3-0.4,0.3c-0.1,0.1-0.3,0.1-0.5,0.1c-0.3,0-0.6-0.1-0.8-0.4c-0.2-0.3-0.3-0.6-0.3-1c0-0.2,0-0.4,0.1-0.5
			c0-0.2,0.1-0.3,0.2-0.4c0,0.3,0.1,0.5,0.2,0.7c0.1,0.1,0.2,0.2,0.3,0.2c0.1,0,0.1,0,0.2-0.1c0-0.1,0.1-0.2,0.1-0.3
			c0-0.1,0-0.2-0.1-0.3c0-0.1-0.1-0.2-0.2-0.4c-0.1-0.1-0.1-0.2-0.2-0.4c-0.1-0.1-0.1-0.3-0.2-0.4c-0.1-0.2-0.1-0.3-0.2-0.5
			c0-0.2-0.1-0.4-0.1-0.6c0-0.2,0-0.4,0.1-0.6c0.1-0.2,0.1-0.3,0.2-0.5c0.1-0.1,0.2-0.2,0.3-0.3c0.1-0.1,0.3-0.1,0.4-0.1
			c0.1,0,0.3,0,0.4,0.1c0.1,0.1,0.2,0.1,0.3,0.2c0.1,0.1,0.2,0.2,0.2,0.4c0.1,0.1,0.1,0.3,0.1,0.5c0,0.1,0,0.3-0.1,0.4
			C31,240.1,30.9,240.3,30.8,240.4z"/>
		<path class="st0" d="M33.6,236.6C33.6,236.6,33.6,236.6,33.6,236.6c0.1,0,0.1,0,0.2,0c0.1,0,0.2,0,0.3,0c0.1,0,0.3-0.1,0.4-0.1
			c0.1,0,0.3-0.1,0.4-0.1c0.1,0,0.2,0,0.4,0c0.4,0,0.7,0.1,0.9,0.4c0.2,0.3,0.4,0.7,0.4,1.2c0,0.4-0.1,0.8-0.2,1.1
			c-0.1,0.3-0.3,0.6-0.5,0.8c0,0.1,0,0.3,0.1,0.5c0,0.2,0.1,0.4,0.1,0.6c0,0.2,0.1,0.4,0.2,0.6c0.1,0.2,0.1,0.4,0.2,0.5
			c0.1,0.1,0.1,0.2,0.2,0.3c0.1,0.1,0.1,0.1,0.2,0.1c0.1,0,0.2-0.1,0.2-0.2c0.1-0.1,0.1-0.2,0.1-0.4c0,0,0-0.1,0-0.1c0,0,0,0,0,0
			c0.1,0.1,0.1,0.2,0.2,0.3c0,0.1,0,0.3,0,0.4c0,0.2,0,0.4-0.1,0.6c0,0.2-0.1,0.4-0.2,0.5c-0.1,0.1-0.2,0.3-0.3,0.4
			c-0.1,0.1-0.2,0.1-0.4,0.2c-0.1,0-0.3,0-0.4-0.1c-0.1-0.1-0.3-0.3-0.4-0.5c-0.1-0.2-0.2-0.5-0.3-0.9c-0.1-0.4-0.2-0.9-0.3-1.4
			c0,0.1,0,0.2,0,0.3c0,0.1,0,0.2,0,0.3c0,0.4,0,0.8,0.1,1.1c0.1,0.4,0.1,0.7,0.3,1.1c-0.1,0-0.3,0-0.5,0c-0.2,0-0.4,0-0.5,0
			c-0.2,0-0.4,0-0.5,0.1c0.1-0.6,0.1-1.2,0.2-1.9c0-0.7,0.1-1.4,0.1-2.2c0-0.6,0-1.3-0.1-1.8C33.7,237.6,33.7,237.1,33.6,236.6z
			 M35,238c0,0.1-0.1,0.2-0.1,0.3c0,0.1,0,0.3,0,0.5c0,0.1,0,0.2,0,0.3c0,0.1,0,0.2,0,0.3c0.1-0.2,0.2-0.4,0.3-0.6
			c0.1-0.2,0.1-0.4,0.1-0.6c0-0.1,0-0.2,0-0.2c0-0.1-0.1-0.1-0.1-0.1C35.1,237.9,35,237.9,35,238z"/>
		<path class="st0" d="M37.6,243.2c0-0.2,0.1-0.4,0.2-0.6c0.1-0.2,0.2-0.2,0.4-0.2c0.2,0,0.3,0.1,0.4,0.2c0.1,0.1,0.2,0.3,0.2,0.6
			c0,0.2-0.1,0.4-0.2,0.6c-0.1,0.2-0.2,0.2-0.4,0.2c-0.2,0-0.3-0.1-0.4-0.2C37.6,243.6,37.6,243.5,37.6,243.2z"/>
		<path class="st0" d="M19.3,248.7c0.1-0.1,0.1-0.3,0.1-0.4c0-0.1,0-0.3,0-0.4c0-0.2,0-0.4-0.1-0.5c-0.1-0.1-0.1-0.2-0.2-0.2
			c-0.1,0-0.2,0.1-0.3,0.2c-0.1,0.1-0.1,0.3-0.2,0.5c-0.1,0.2-0.1,0.4-0.1,0.7c0,0.3,0,0.5,0,0.8c0,0.5,0.1,1,0.2,1.3
			c0.1,0.3,0.3,0.4,0.5,0.4c0.1,0,0.3-0.1,0.4-0.3c0.1-0.2,0.2-0.4,0.2-0.8c0.1,0,0.1,0.1,0.2,0.1c0.1,0.1,0.1,0.1,0.2,0.2
			c0.1,0.1,0.1,0.2,0.1,0.4c0,0.1,0.1,0.3,0.1,0.5c0,0.2,0,0.5-0.1,0.7c-0.1,0.2-0.1,0.4-0.3,0.6c-0.1,0.2-0.2,0.3-0.4,0.5
			c-0.2,0.1-0.3,0.2-0.5,0.2c-0.3,0-0.5-0.1-0.7-0.3c-0.2-0.2-0.4-0.5-0.5-0.8c-0.1-0.3-0.3-0.7-0.3-1.2c-0.1-0.5-0.1-0.9-0.1-1.5
			c0-0.5,0-1,0.1-1.5c0.1-0.5,0.2-0.9,0.4-1.3c0.2-0.4,0.4-0.7,0.6-0.9c0.2-0.2,0.5-0.4,0.9-0.4c0.2,0,0.4,0,0.5,0.1
			c0.1,0.1,0.3,0.2,0.3,0.3c0.1,0.1,0.1,0.3,0.2,0.5c0,0.2,0.1,0.4,0.1,0.6c0,0.3,0,0.5-0.1,0.7c-0.1,0.2-0.1,0.4-0.2,0.5
			c-0.1,0.2-0.2,0.3-0.3,0.4C19.5,248.6,19.4,248.7,19.3,248.7z"/>
		<path class="st0" d="M20.7,245.5c0.1-0.1,0.3-0.2,0.4-0.2c0.1-0.1,0.3-0.1,0.4-0.1c0.3,0,0.5,0.1,0.6,0.3c0.1,0.2,0.2,0.5,0.2,1
			c0,0.3,0,0.5,0,0.9c0,0.3-0.1,0.7-0.1,1c0,0.4-0.1,0.8-0.1,1.3c0,0.5,0,0.9,0,1.5c0,0.2,0,0.5,0,0.9c0,0.3,0,0.7,0.1,1
			c-0.1,0-0.1,0-0.2,0c-0.1,0-0.1,0-0.2,0c-0.2,0-0.3,0-0.5,0.1c-0.2,0-0.3,0.1-0.5,0.1c0-0.3,0.1-0.6,0.1-1c0-0.4,0.1-0.8,0.1-1.2
			c0-0.4,0.1-0.8,0.1-1.3c0-0.4,0-0.9,0-1.3c0-0.3,0-0.6,0-0.9c0-0.3,0-0.6-0.1-0.8c0-0.2-0.1-0.5-0.1-0.7
			C20.8,245.7,20.7,245.6,20.7,245.5z"/>
		<path class="st0" d="M22.5,247.6c0.1-0.1,0.2-0.2,0.4-0.3c0.1-0.1,0.3-0.1,0.4-0.1c0.2,0,0.3,0,0.4,0.1c0.1,0.1,0.2,0.1,0.3,0.3
			c0.1,0.1,0.1,0.3,0.1,0.4c0,0.2,0,0.3,0,0.5c0,0.2,0,0.4,0,0.6c0,0.2,0,0.4-0.1,0.7c0,0.2,0,0.5-0.1,0.7c0,0.2,0,0.4,0,0.6
			c0,0.2,0,0.4,0,0.6c0,0.2,0,0.3,0.1,0.4c0,0.1,0.1,0.2,0.1,0.4c0,0.1,0.1,0.2,0.1,0.3c-0.1,0-0.2,0-0.3,0c-0.2,0-0.3,0-0.4,0
			c-0.2,0-0.3,0-0.4,0c-0.1,0-0.3,0-0.4,0.1c0.1-0.2,0.1-0.4,0.2-0.6c0-0.2,0.1-0.5,0.1-0.7c0-0.3,0.1-0.5,0.1-0.8
			c0-0.3,0-0.6,0-0.8c0-0.3,0-0.6,0-0.8c0-0.3-0.1-0.5-0.1-0.7c0-0.2-0.1-0.4-0.2-0.5C22.7,247.8,22.6,247.7,22.5,247.6z
			 M22.9,245.9c0-0.2,0.1-0.4,0.2-0.6c0.1-0.2,0.2-0.2,0.4-0.2c0.2,0,0.3,0.1,0.4,0.2c0.1,0.1,0.2,0.3,0.2,0.6
			c0,0.2-0.1,0.4-0.2,0.6c-0.1,0.2-0.2,0.2-0.4,0.2c-0.2,0-0.3-0.1-0.4-0.2C22.9,246.4,22.9,246.2,22.9,245.9z"/>
		<path class="st0" d="M26.9,244.5c0.1,0.3,0.2,0.6,0.2,0.9c0,0.2,0,0.4-0.1,0.5c0,0.2-0.1,0.3-0.2,0.5c-0.1,0.1-0.2,0.2-0.3,0.3
			c-0.1,0.1-0.2,0.1-0.3,0.2c-0.1,0.1-0.2,0.2-0.3,0.3c-0.1,0.1-0.1,0.3-0.1,0.6c0.1,0,0.1-0.1,0.2-0.1c0.1,0,0.2-0.1,0.3-0.1
			c0.1,0,0.2-0.1,0.3-0.1c0.1,0,0.1-0.1,0.2-0.1c0.1,0,0.1,0.1,0.1,0.2c0,0.1,0,0.1,0,0.2c0,0.1,0,0.2-0.1,0.2
			c0,0.1-0.1,0.1-0.1,0.2c0,0.1-0.1,0.1-0.2,0.1c-0.1,0-0.2,0.1-0.4,0.1c-0.1,0-0.2,0.1-0.4,0.2c0,0.4,0.1,0.7,0.1,1.1
			c0,0.4,0.1,0.7,0.2,1c0.1,0.3,0.1,0.7,0.3,1c0.1,0.3,0.2,0.6,0.4,0.9c-0.1,0-0.3,0-0.4,0c-0.1,0-0.3,0-0.4,0c-0.2,0-0.4,0-0.6,0.1
			c-0.2,0-0.4,0.1-0.5,0.1c0.1-0.4,0.2-0.8,0.3-1.1c0.1-0.3,0.1-0.6,0.1-1c0-0.3,0-0.6-0.1-0.9c0-0.3-0.1-0.6-0.1-1
			c0-0.3-0.1-0.7-0.1-1c0-0.3-0.1-0.6-0.1-0.9c0-0.5,0-0.8,0.1-1.1c0.1-0.3,0.2-0.5,0.3-0.6c0.1-0.1,0.3-0.2,0.4-0.3
			c0.2-0.1,0.3-0.1,0.4-0.1c0.1,0,0.2,0,0.3,0c0.1,0,0.2,0,0.2-0.1c0.1,0,0.1-0.1,0.2-0.1C26.8,244.7,26.9,244.6,26.9,244.5z"/>
		<path class="st0" d="M29.5,244.4c0.1,0.3,0.2,0.6,0.2,0.9c0,0.2,0,0.4-0.1,0.5c0,0.2-0.1,0.3-0.2,0.5c-0.1,0.1-0.2,0.2-0.3,0.3
			c-0.1,0.1-0.2,0.1-0.3,0.2c-0.1,0.1-0.2,0.2-0.3,0.3c-0.1,0.1-0.1,0.3-0.1,0.6c0.1,0,0.1-0.1,0.2-0.1c0.1,0,0.2-0.1,0.3-0.1
			c0.1,0,0.2-0.1,0.3-0.1c0.1,0,0.1-0.1,0.2-0.1c0.1,0,0.1,0.1,0.1,0.2c0,0.1,0,0.1,0,0.2c0,0.1,0,0.2-0.1,0.2
			c0,0.1-0.1,0.1-0.1,0.2c0,0.1-0.1,0.1-0.2,0.1c-0.1,0-0.2,0.1-0.4,0.1c-0.1,0-0.2,0.1-0.4,0.2c0,0.4,0.1,0.7,0.1,1.1
			c0,0.4,0.1,0.7,0.2,1c0.1,0.3,0.1,0.7,0.3,1c0.1,0.3,0.2,0.6,0.4,0.9c-0.1,0-0.3,0-0.4,0c-0.1,0-0.3,0-0.4,0c-0.2,0-0.4,0-0.6,0.1
			c-0.2,0-0.4,0.1-0.5,0.1c0.1-0.4,0.2-0.8,0.3-1.1c0.1-0.3,0.1-0.6,0.1-1c0-0.3,0-0.6-0.1-0.9c0-0.3-0.1-0.6-0.1-1
			c0-0.3-0.1-0.7-0.1-1c0-0.3,0-0.6-0.1-0.9c0-0.5,0-0.8,0.1-1.1c0.1-0.3,0.2-0.5,0.3-0.6c0.1-0.1,0.3-0.2,0.4-0.3
			c0.2-0.1,0.3-0.1,0.4-0.1c0.1,0,0.2,0,0.3,0c0.1,0,0.2,0,0.2-0.1c0.1,0,0.1-0.1,0.2-0.1C29.4,244.6,29.5,244.5,29.5,244.4z"/>
		<path class="st0" d="M31,246.7c0.2,0,0.4,0.1,0.6,0.2c0.2,0.2,0.3,0.4,0.4,0.6c0.1,0.3,0.2,0.6,0.2,0.9c0,0.3,0.1,0.7,0.1,1.1
			c0,0.3,0,0.6-0.1,1c0,0.3-0.1,0.7-0.2,1c-0.1,0.3-0.2,0.6-0.4,0.8c-0.2,0.2-0.4,0.3-0.6,0.3c-0.3,0-0.5-0.1-0.7-0.3
			c-0.2-0.2-0.3-0.5-0.4-0.8c-0.1-0.3-0.2-0.6-0.2-1c0-0.3-0.1-0.6-0.1-0.9c0-0.3,0-0.7,0.1-1c0-0.3,0.1-0.7,0.2-0.9
			c0.1-0.3,0.2-0.5,0.4-0.7C30.6,246.8,30.8,246.7,31,246.7z M30.7,249.6c0,0.4,0,0.8,0.1,1.1c0.1,0.3,0.1,0.4,0.2,0.4
			c0.1,0,0.2-0.1,0.2-0.4c0-0.3,0.1-0.7,0.1-1.1c0-0.5,0-0.9-0.1-1.1c-0.1-0.2-0.1-0.3-0.2-0.3c-0.1,0-0.2,0.1-0.2,0.4
			C30.7,248.7,30.7,249.1,30.7,249.6z"/>
		<path class="st0" d="M33.8,247.9c0.1-0.2,0.2-0.4,0.3-0.6c0.1-0.2,0.2-0.3,0.2-0.4c0.1-0.1,0.2-0.2,0.2-0.2c0.1,0,0.2-0.1,0.3-0.1
			c0.1,0,0.2,0,0.2,0.1c0.1,0.1,0.1,0.1,0.2,0.3c0,0.1,0.1,0.2,0.1,0.4c0,0.1,0,0.3,0,0.5c0,0.2,0,0.3,0,0.5c0,0.2-0.1,0.3-0.1,0.5
			c-0.1,0.2-0.2,0.3-0.3,0.4c-0.1,0.1-0.2,0.2-0.4,0.3c0.1-0.2,0.1-0.3,0.1-0.4c0-0.1,0-0.2,0-0.3c0-0.2,0-0.3,0-0.3
			c0,0-0.1-0.1-0.1-0.1c-0.1,0-0.1,0-0.2,0.1c-0.1,0.1-0.2,0.2-0.2,0.4c-0.1,0.2-0.1,0.4-0.2,0.6c0,0.2-0.1,0.5-0.1,0.8
			c0,0.3,0,0.6,0.1,0.9c0.1,0.3,0.2,0.7,0.3,1.1c-0.1,0-0.2,0-0.3,0c-0.1,0-0.2,0-0.3,0c-0.2,0-0.3,0-0.5,0c-0.2,0-0.3,0-0.5,0.1
			c0-0.1,0.1-0.3,0.1-0.4c0-0.1,0.1-0.3,0.1-0.5c0-0.2,0.1-0.5,0.1-0.8c0-0.3,0-0.7,0-1.1c0-0.4,0-0.8,0-1.1c0-0.3,0-0.5-0.1-0.7
			c0-0.2-0.1-0.3-0.1-0.4c0-0.1-0.1-0.1-0.2-0.2c0.1-0.2,0.2-0.3,0.4-0.5c0.2-0.1,0.3-0.2,0.5-0.2c0.1,0,0.3,0,0.3,0.2
			c0.1,0.1,0.1,0.3,0.1,0.5c0,0.1,0,0.2,0,0.3C33.9,247.7,33.8,247.8,33.8,247.9z"/>
		<path class="st0" d="M38.8,250.5c0,0.1,0.1,0.2,0.1,0.3c0,0.1,0,0.2,0,0.3c0,0.2,0,0.3-0.1,0.5c-0.1,0.2-0.1,0.3-0.2,0.4
			c-0.1,0.1-0.2,0.2-0.3,0.3c-0.1,0.1-0.2,0.1-0.3,0.1c-0.1,0-0.2,0-0.3-0.1c-0.1-0.1-0.2-0.2-0.2-0.5c-0.2,0.4-0.4,0.6-0.7,0.6
			c-0.2,0-0.4-0.1-0.5-0.2c-0.1-0.1-0.3-0.4-0.4-0.6c-0.1-0.3-0.2-0.6-0.2-0.9c0-0.3-0.1-0.7-0.1-1.1c0-0.3,0-0.7,0.1-1
			c0-0.3,0.1-0.6,0.2-0.9c0.1-0.3,0.2-0.5,0.3-0.7c0.1-0.2,0.3-0.3,0.4-0.3c0.2,0,0.3,0.1,0.4,0.2c0.1,0.1,0.3,0.3,0.3,0.6
			c0-0.1,0-0.3,0-0.5c0-0.2,0-0.3,0-0.5c0-0.3,0-0.7-0.1-0.9c-0.1-0.3-0.3-0.5-0.5-0.6c0.1-0.1,0.2-0.2,0.3-0.2
			c0.1-0.1,0.3-0.1,0.5-0.1c0.3,0,0.5,0.1,0.7,0.3c0.2,0.2,0.2,0.5,0.2,1c0,0.2,0,0.5,0,0.8c0,0.3-0.1,0.5-0.1,0.8
			c0,0.3-0.1,0.6-0.1,0.9c0,0.3,0,0.7,0,1c0,0.2,0,0.4,0,0.6c0,0.2,0,0.3,0.1,0.5c0,0.1,0.1,0.2,0.1,0.3c0,0.1,0.1,0.1,0.2,0.1
			C38.7,250.7,38.8,250.6,38.8,250.5z M36.7,249.6c0,0.4,0,0.8,0.1,1c0,0.2,0.1,0.3,0.2,0.3c0.1,0,0.1-0.1,0.1-0.2
			c0-0.1,0.1-0.3,0.1-0.4c0-0.2,0-0.4,0.1-0.6c0-0.2,0-0.4,0-0.6c0-0.1,0-0.3,0-0.5c0-0.2,0-0.3,0-0.4c0-0.1,0-0.2-0.1-0.3
			c0-0.1-0.1-0.1-0.1-0.1c-0.1,0-0.1,0.1-0.1,0.1c0,0.1-0.1,0.2-0.1,0.4c0,0.2,0,0.3-0.1,0.5C36.7,249.2,36.7,249.4,36.7,249.6z"/>
	</g>
	<polygon class="st0" points="38.5,70.6 22.1,70.1 22,68.4 38.5,68.9 	"/>
	<polygon class="st0" points="38.5,74 26.5,73.7 26.5,72 38.5,72.3 	"/>
	<polygon class="st0" points="38.6,77.5 18.4,77 18.4,75.2 38.6,75.8 	"/>
	<polygon class="st0" points="38.6,81 21.1,80.5 21.1,78.8 38.6,79.2 	"/>
	<polygon class="st0" points="38.6,84.4 23.4,84.1 23.4,82.3 38.6,82.7 	"/>
	<polygon class="st0" points="38.6,87.9 22.1,87.5 22.1,85.8 38.6,86.1 	"/>
	<polygon class="st0" points="38.6,91.3 19.1,90.9 19,89.2 38.6,89.6 	"/>
	<polygon class="st0" points="38.6,94.8 22.1,94.5 22.1,92.7 38.6,93.1 	"/>
	<polygon class="st0" points="38.6,98.3 22.1,98 22.1,96.2 38.6,96.5 	"/>
	<polygon class="st0" points="38.6,101.7 19.4,101.4 19.4,99.7 38.6,100 	"/>
	<polygon class="st0" points="38.6,105.2 18.4,104.9 18.4,103.1 38.6,103.4 	"/>
	<polygon class="st0" points="38.6,108.6 21.8,108.4 21.8,106.7 38.6,106.9 	"/>
	<polygon class="st0" points="38.6,112.1 17.8,111.9 17.8,110.1 38.6,110.4 	"/>
	<polygon class="st0" points="38.6,115.5 19.1,115.4 19.1,113.6 38.6,113.8 	"/>
	<polygon class="st0" points="38.6,119 23.5,118.9 23.5,117.1 38.6,117.3 	"/>
	<polygon class="st0" points="38.7,122.5 19.4,122.3 19.4,120.6 38.6,120.7 	"/>
	<polygon class="st0" points="38.7,125.9 17,125.8 17,124.1 38.7,124.2 	"/>
	<polygon class="st0" points="38.7,129.4 22.9,129.3 22.9,127.6 38.7,127.6 	"/>
	<polygon class="st0" points="38.7,132.8 21.9,132.8 21.9,131.1 38.7,131.1 	"/>
	<polygon class="st0" points="38.7,136.3 21.2,136.3 21.2,134.5 38.7,134.6 	"/>
	<polygon class="st0" points="38.7,139.7 21.6,139.8 21.6,138 38.7,138 	"/>
	<polygon class="st0" points="23.7,326 39.1,324.7 39.1,326.4 23.7,327.7 	"/>
	<polygon class="st0" points="27.8,322.2 39.1,321.3 39.1,323 27.8,323.9 	"/>
	<polygon class="st0" points="20.2,319.3 39.1,317.8 39.1,319.5 20.2,321.1 	"/>
	<polygon class="st0" points="22.8,315.6 39.1,314.3 39.1,316.1 22.8,317.4 	"/>
	<polygon class="st0" points="24.9,312 39,310.9 39.1,312.6 24.9,313.7 	"/>
	<polygon class="st0" points="23.7,308.6 39,307.4 39,309.1 23.7,310.3 	"/>
	<polygon class="st0" points="20.8,305.3 39,304 39,305.7 20.8,307.1 	"/>
	<polygon class="st0" points="23.6,301.6 39,300.5 39,302.2 23.6,303.4 	"/>
	<polygon class="st0" points="23.6,298.1 39,297 39,298.8 23.6,299.9 	"/>
	<polygon class="st0" points="21.1,294.8 39,293.6 39,295.3 21.1,296.6 	"/>
	<polygon class="st0" points="20.2,291.4 39,290.1 39,291.9 20.2,293.2 	"/>
	<polygon class="st0" points="23.3,287.7 39,286.7 39,288.4 23.3,289.5 	"/>
	<polygon class="st0" points="19.5,284.5 39,283.2 39,284.9 19.5,286.2 	"/>
	<polygon class="st0" points="20.8,280.9 39,279.8 39,281.5 20.8,282.7 	"/>
	<polygon class="st0" points="24.8,277.2 39,276.3 39,278 24.8,278.9 	"/>
	<polygon class="st0" points="21,273.9 39,272.8 39,274.6 21,275.7 	"/>
	<polygon class="st0" points="18.8,270.6 39,269.4 39,271.1 18.8,272.3 	"/>
	<polygon class="st0" points="24.2,266.8 39,265.9 39,267.7 24.2,268.5 	"/>
	<polygon class="st0" points="23.3,263.3 38.9,262.5 38.9,264.2 23.3,265.1 	"/>
	<polygon class="st0" points="22.6,259.9 38.9,259 38.9,260.7 22.6,261.6 	"/>
	<polygon class="st0" points="23,256.4 38.9,255.5 38.9,257.3 23,258.1 	"/>
	<path class="st1" d="M39.3,67.3l-26.6-0.8l0-12.9l26.6,1L39.3,67.3z M13.5,65.7l25.1,0.8l0-11.2l-25.1-0.9L13.5,65.7z"/>
</g>
</svg>
