<?xml version="1.0" encoding="utf-8"?>
<!-- Generator: Adobe Illustrator 25.2.0, SVG Export Plug-In . SVG Version: 6.00 Build 0)  -->
<svg version="1.1" id="Calque_1" xmlns="http://www.w3.org/2000/svg" xmlns:xlink="http://www.w3.org/1999/xlink" x="0px" y="0px"
	 viewBox="0 0 131.7 196.3" style="enable-background:new 0 0 131.7 196.3;" xml:space="preserve">
<style type="text/css">
	.st0{fill:#FFEACC;}
	.st1{fill:#121821;}
	.st2{fill:#F95421;}
	.st3{clip-path:url(#SVGID_2_);}
	.st4{fill:none;stroke:#363D49;stroke-width:0.5722;stroke-miterlimit:10;}
	.st5{fill:#121821;stroke:#FFEACC;stroke-width:0.6406;stroke-miterlimit:10;}
	.st6{fill:none;stroke:#FFEACC;stroke-width:0.3203;stroke-miterlimit:10;}
</style>
<g style="display:none">
	<path class="st0" d="M87.6,8c4.1,0,8.2,1,11.8,3.2c11.4,3.8,20.4,16.9,19.1,42.4c-0.6,11-4.1,21.5-9.1,30
		c11.1,3.6,11.2,14.8,13,35.9c1.5,16.4,2.6,41.4-2.3,44.6c-3.6,2.3-9.5,4.4-13.2,5.6c-1.8,0.8-4.2,1.4-7.4,1.7l-1.1,5.7
		c-0.3,0.2-0.5,0.3-0.8,0.4l0.1,3.7c2.2,0.5,3.8,1.6,3.7,2.8c0,0,0,0,0,0.1l0.5,1.4c-0.1,1.6-3.1,2.8-6.7,2.8c-0.1,0-0.2,0-0.3,0
		c-3.8-0.1-6.8-1.4-6.8-3.1l0.4-1.5c0,0,0,0,0,0c0.1-1.2,1.6-2.1,3.7-2.6v-3.6c-0.8-0.2-1.4-0.5-1.3-0.5l-1.2-5.1
		c-3.1,0.8-6.3,1-8.2,1c-1.1,0-1.8-0.1-1.8-0.1s-7.7-0.7-17.4-3.7c-3.1-1-7.3-2.3-11.6-3.7c-6.2,1-15,2.4-18.8,3l0.2,0.7
		c0.1,1.5-2,2.8-4.6,2.9c-0.1,0-0.1,0-0.2,0c-2.5,0-4.6-1.2-4.6-2.6l0.1-0.4c-0.8-0.3-1.6-0.8-2.5-1.5c0,0-1.1-1.1,2.9-1.9
		c2.6-0.5,7.5-2,11.2-5.4c-2.7-0.9-4.8-1.5-5.9-1.9c-4.3-1.4-5.8-1.4-6.2-13.2c-0.4-11.8,0.1-27.4,1.5-31.9c0.7-2.3,1.6-4.7,2.8-7.1
		c-0.6,0.2-1.3,0.3-1.9,0.3c-0.2,0-0.4,0-0.6,0c-8.5-1-16.8-12.2-16-31.5c0.7-17.3,6.6-31.3,13.6-35.7c2.3-1.4,4.7-2.2,7.1-2.2
		c2.3,0,4.6,0.7,6.7,2.3c6.5,2.7,11.6,12.2,10.8,30.6c-0.2,5.6-1.3,11-2.9,15.9c2.3-1.1,5.8-2.4,10.8-3.5c-2.3-6.1-3.4-13.4-3-21.8
		c1.3-24,11.6-43.4,24-49.5C79.1,9.1,83.4,8,87.6,8 M84.9,46.1l18.7-20.8c-2.6-4.3-6-7.2-9.7-8.8c-1.1-0.2-2.2-0.3-3.3-0.3
		c-2.1,0-4.1,0.3-6.2,0.9l-0.3,28C84.4,45.4,84.7,45.7,84.9,46.1 M74.7,45.5l0.2-23.1c-4.2,3.8-8,9.4-10.7,16.4L74.7,45.5 M107,66.1
		c1.1-4,1.8-8.2,2-12.5c0.3-6.5-0.1-12.1-1.1-16.9L90.1,55.3L107,66.1 M27.2,64.5l10.6-15c-1.5-3.1-3.4-5.2-5.5-6.4
		C31.7,43.1,31,43,30.4,43c-1.2,0-2.3,0.2-3.5,0.6l-0.2,20.2C26.9,64.1,27,64.3,27.2,64.5 M21.4,64.1L21.4,64.1
		C21.4,64.1,21.4,64.1,21.4,64.1L21.4,64.1l0.1-16.7c-2.4,2.7-4.5,6.8-6.1,11.8L21.4,64.1 M60.2,73.5L70.6,62
		c-0.4-1.4-0.5-2.9-0.4-4.6c0.1-1,0.2-2,0.3-2.9l-9.3-6.1c-0.9,4.1-1.6,8.5-1.8,13.1C59.2,65.8,59.5,69.8,60.2,73.5 M39.7,79
		c0.6-2.9,1-5.9,1.1-9c0.2-4.7,0-8.7-0.6-12.2L30.1,71.2L39.7,79 M91.1,82.5c2,0,4.2,0,6.7-0.1c0.5,0,1.1,0,1.6,0c0.2,0,0.4,0,0.5,0
		c1.2-1.9,2.3-4,3.4-6.2L84.5,63.7c-0.2,0.3-0.4,0.6-0.6,0.9l-0.2,17.7C85.6,82.4,88,82.5,91.1,82.5 M13.2,84.3l5.9-8.3
		c-0.2-1-0.3-2.1-0.2-3.3c0-0.7,0.1-1.4,0.2-2.1l-5.2-4.4c-0.5,3-0.9,6.1-1,9.4C12.6,78.7,12.8,81.7,13.2,84.3 M28.3,69.9L28.3,69.9
		l0-0.2C28.3,69.8,28.3,69.9,28.3,69.9 M65.5,80.7c1.9-0.2,4-0.3,6.2-0.4c0.4,0,0.9,0,1.3,0c0.5,0,0.9,0,1.4,0c0-3.3,0-6.5,0.1-8.8
		L65.5,80.7 M26.4,101.2c4-1.4,8.4-7.2,11.2-15l-10.7-9c-0.1,0.2-0.2,0.5-0.3,0.7L26.4,101.2 M21.1,100.2l0.1-17.4l-6.3,8.4
		C16.4,95.3,18.7,98.3,21.1,100.2 M92.5,186.5C92.5,186.5,92.4,186.5,92.5,186.5C92.4,186.5,92.5,186.5,92.5,186.5 M97.3,186.6
		c0,0,0.1,0,0.1,0C97.4,186.6,97.3,186.6,97.3,186.6 M93.1,186.6c0,0-0.1,0-0.1,0C93.1,186.6,93.1,186.6,93.1,186.6 M96.6,186.7
		c0.1,0,0.2,0,0.2,0C96.8,186.7,96.7,186.7,96.6,186.7 M93.9,186.7c-0.1,0-0.2,0-0.3,0C93.7,186.7,93.8,186.7,93.9,186.7
		 M95.9,186.8c0.1,0,0.2,0,0.3,0C96.1,186.8,96,186.8,95.9,186.8 M94.9,186.8c-0.2,0-0.4,0-0.6,0C94.5,186.8,94.7,186.8,94.9,186.8
		 M95.4,186.8C95.4,186.8,95.4,186.8,95.4,186.8C95.4,186.8,95.4,186.8,95.4,186.8c-0.1,0-0.2,0-0.3,0c0,0,0,0,0,0c0,0,0,0,0,0
		c-0.1,0-0.2,0-0.2,0c0.1,0,0.2,0,0.2,0c0,0,0,0,0,0l0,0l0,0c0,0,0,0,0,0C95.2,186.8,95.3,186.8,95.4,186.8
		C95.4,186.8,95.4,186.8,95.4,186.8C95.4,186.8,95.4,186.8,95.4,186.8c0,0,0.1,0,0.1,0C95.5,186.8,95.5,186.8,95.4,186.8 M87.6,0
		c-5.4,0-10.9,1.4-16.1,3.9c-11.1,5.5-20,18.4-24.8,34.6c-2.4-3.1-5.1-4.9-7.3-6c-3.2-2.2-6.9-3.4-10.7-3.4c-3.8,0-7.8,1.2-11.3,3.4
		C7.6,38.7,0.9,55.2,0.1,74.7c-0.4,10.4,1.5,19.7,5.6,26.9c2.7,4.7,6.2,8.3,10.3,10.5c-1.7,7-1.9,23.4-1.6,33.4
		c0.3,7.1,0.9,10.8,2.5,13.7c0,0.1,0.1,0.1,0.1,0.2c-2.2,1.2-3.6,2.9-4.4,5.1c-1,3-0.3,6.2,1.8,8.5l0.4,0.5l0.5,0.4
		c0.2,0.2,0.5,0.4,0.7,0.6c2.1,3.4,6.3,5.7,11.2,5.7c0.1,0,0.3,0,0.4,0c3.9-0.1,7.4-1.5,9.7-4c0.1-0.1,0.2-0.2,0.3-0.4
		c3.7-0.6,8.4-1.4,12.5-2c3.7,1.2,7.1,2.3,9.8,3.1c10.5,3.3,18.8,4,19.2,4.1l0,0l0,0c0.1,0,0.8,0.1,1.8,0.1c-0.1,0.3-0.2,0.7-0.2,1
		l-0.3,0.9l-0.3,1l0,1c-0.1,2.6,0.8,5.1,2.7,7c3.6,3.9,9.6,4.4,12,4.4c0.1,0,0.3,0,0.4,0c8.5,0,14.5-4.2,14.7-10.5l0.1-1.4l-0.4-1.4
		l-0.2-0.6c-0.2-1.5-0.8-3-1.9-4.4c0.8-0.2,1.6-0.5,2.3-0.8c6.5-2.1,11.4-4.3,14.7-6.4c4.9-3.2,6.9-9.9,7.1-23.9
		c0.2-10.3-0.7-22-1.3-28.1c-0.1-1.6-0.3-3.1-0.4-4.5c-0.8-9.5-1.5-17-3.4-23.1c-1.5-4.5-3.7-8-6.6-10.7c3.8-8.4,6-17.6,6.5-26.5
		c1.9-36.3-15.3-47-23.8-50.1C98.2,1.4,93,0,87.6,0L87.6,0z M92.4,25.9l0-1.2c0.2,0.1,0.5,0.3,0.7,0.5L92.4,25.9L92.4,25.9z"/>
</g>
<g>
	<g>
		<g>
			<path class="st0" d="M94.9,186.5c-2.4,0-4.6-0.7-5.6-1.7c-0.3-0.3-0.5-0.7-0.4-1c0.1-1.4,2.8-2.5,6-2.5l0.2,0
				c2.4,0,4.6,0.7,5.6,1.7c0.3,0.3,0.5,0.7,0.4,1c-0.1,1.4-2.8,2.5-6,2.5L94.9,186.5z"/>
			<g>
				<path class="st0" d="M94.9,181.5L94.9,181.5l0.2,0c2.3,0,4.5,0.7,5.4,1.6c0.3,0.3,0.4,0.5,0.4,0.8c0,1.1-2.4,2.3-5.7,2.3l-0.2,0
					c-2.3,0-4.5-0.7-5.4-1.6c-0.3-0.3-0.4-0.5-0.4-0.8C89.3,182.7,91.6,181.5,94.9,181.5 M94.9,180.9c-3.5,0-6.3,1.3-6.3,2.8
					c-0.1,1.6,2.8,3,6.3,3.1c0.1,0,0.2,0,0.3,0c3.5,0,6.3-1.3,6.3-2.8c0.1-1.6-2.8-3-6.3-3.1C95.1,180.9,95,180.9,94.9,180.9
					L94.9,180.9z"/>
			</g>
		</g>
		<path class="st0" d="M94.9,186.8c-3.6-0.1-6.4-1.4-6.3-3.1l-0.4,1.5c-0.1,1.6,3,3,6.8,3.1c3.8,0.1,7-1.2,7-2.8l-0.5-1.4
			C101.4,185.6,98.4,186.9,94.9,186.8z"/>
	</g>
	<path class="st1" d="M92.3,176.6v7.1c0,0,1.7,1.3,5.6,0.2l-0.3-7.3"/>
	<path class="st1" d="M89.7,171.5l1.3,5.6c-0.3,0,4.4,1.9,7.4,0l1.3-6.3"/>
	<path class="st2" d="M77,80.5c0,0-2.9,2.5,20.9,1.9c22.8-0.6,22.3,10.4,24.6,37.1c1.5,16.4,2.6,41.4-2.3,44.6
		c-5.5,3.6-16.7,6.7-16.7,6.7"/>
	<path class="st2" d="M104.4,87.5c0,0,3.9,4,5.9,19.4c2,15.4,1.7,30.7,2.1,44.7c0.4,14,1.6,20.8-21.5,20"/>
	<g>
		<g>
			<path class="st1" d="M112.6,165.7c-1.7,0-3.1-2.1-3-4.6c0.1-2.4,1.5-4.4,3.2-4.4c0.9,0,1.6,0.5,2.2,1.3c0.6,0.9,0.9,2,0.9,3.2
				C115.8,163.7,114.4,165.7,112.6,165.7L112.6,165.7z"/>
			<g>
				<path class="st0" d="M112.8,157.1L112.8,157.1L112.8,157.1c1.6,0,2.8,1.9,2.8,4.2c-0.1,2.3-1.4,4.1-2.9,4.1l-0.1,0
					c-1.6,0-2.8-1.9-2.7-4.2C110,158.9,111.3,157.1,112.8,157.1 M112.8,156.4c-1.9,0-3.4,2.1-3.5,4.7c-0.1,2.6,1.4,4.8,3.3,4.9
					c0,0,0,0,0.1,0c1.9,0,3.4-2.1,3.5-4.7C116.3,158.7,114.8,156.5,112.8,156.4C112.9,156.4,112.9,156.4,112.8,156.4L112.8,156.4z"
					/>
			</g>
		</g>
		<path class="st1" d="M109.3,161.1c0.1-2.6,1.7-4.7,3.6-4.7l-1.7-0.3c-1.9-0.1-3.5,2.2-3.6,5c-0.1,2.8,1.4,5.2,3.3,5.2l1.7-0.3
			C110.7,165.9,109.2,163.8,109.3,161.1z"/>
	</g>
	<g>
		<g>
			<path class="st1" d="M112.2,133.9c-1.7,0-3.1-2.1-3-4.6c0.1-2.4,1.5-4.4,3.2-4.4c1.8,0,3.1,2.1,3.1,4.6
				C115.4,132,114,133.9,112.2,133.9L112.2,133.9z"/>
			<g>
				<path class="st0" d="M112.4,124.7v0.6l0.1,0c1.6,0,2.8,1.9,2.7,4.2c-0.1,2.3-1.4,4.1-2.9,4.1l-0.1,0c-1.6,0-2.8-1.9-2.7-4.2
					c0.1-2.3,1.4-4.1,2.9-4.1L112.4,124.7 M112.4,124.7c-1.9,0-3.4,2.1-3.5,4.7c-0.1,2.6,1.4,4.8,3.3,4.9c0,0,0,0,0.1,0
					c1.9,0,3.4-2.1,3.5-4.7C115.9,126.9,114.4,124.7,112.4,124.7C112.5,124.7,112.4,124.7,112.4,124.7L112.4,124.7z"/>
			</g>
		</g>
		<path class="st1" d="M108.9,129.4c0.1-2.6,1.7-4.7,3.6-4.7l-1.7-0.3c-1.9-0.1-3.5,2.2-3.6,5c-0.1,2.8,1.4,5.2,3.3,5.2l1.7-0.3
			C110.3,134.1,108.8,132,108.9,129.4z"/>
	</g>
	<path class="st1" d="M20.3,167.6c0,0-1.1-1.1,2.9-1.9s13.1-4,15.8-12.4c2.7-8.4,18.4,11.1,18.4,11.1s-22.5,3.7-26.7,4.3
		C26.6,169.4,24.2,170.7,20.3,167.6z"/>
	<path class="st1" d="M39.9,87.8c0,0,8-6.6,31.8-7.5c23.8-0.9,25.1,20.1,26.6,42.3c1.5,22.3,0.7,44.5-4.1,47.5
		c-5.6,3.5-14.3,2.8-14.3,2.8s-7.7-0.7-17.4-3.7c-9.7-3.1-29.6-9.5-33.8-10.8s-5.8-1.4-6.2-13.2c-0.4-11.8,0.1-27.4,1.5-31.9
		C26.4,104.9,32,95,39.9,87.8"/>
	<path class="st0" d="M34.1,129.1c0,0-6.1-1.5-8.2-0.7s-1.6,4-1.5,8.8s0,11.6,2.6,12.2c2.6,0.7,8.2,2,8.2,2"/>
	<path class="st1" d="M49.4,146.8c0.2-8.8-0.2-22.7,0.4-35.9c0.4-8.7-0.5-11.8-2-12.9c-1.9,0.1-3.8,0.2-5.5,0.4
		c-8,0.6-8.4,13.3-8.8,24.9c-0.3,7.5-1.2,31,1.1,33.5c1.7,1.9,7.9,3.7,11.9,4.5C49.3,159.8,49.2,153.6,49.4,146.8z"/>
	<path class="st0" d="M47.7,98c1.5,1.1,2.4,4.2,2,12.9c-0.6,13.2-0.2,27.1-0.4,35.9c-0.1,6.8-0.1,13-3,14.4c1.4,0.3,2.5,0.4,3.1,0.4
		c2.1,0,17-3.6,17.3-4V97.4C66.7,97.4,57,97.5,47.7,98z"/>
	<g>
		<defs>
			<polygon id="SVGID_1_" points="47.4,143 34.9,143 35.5,122 47.9,122 			"/>
		</defs>
		<clipPath id="SVGID_2_">
			<use xlink:href="#SVGID_1_"  style="overflow:visible;"/>
		</clipPath>
		<g class="st3">
			<polygon class="st0" points="48,124.2 35,123.3 35.1,122.5 48.1,123.4 			"/>
			<polygon class="st0" points="48,126.2 35,125.3 35.1,124.4 48.1,125.4 			"/>
			<polygon class="st0" points="47.9,128.2 34.9,127.2 35,126.4 48,127.4 			"/>
			<polygon class="st0" points="47.9,130.3 34.9,129.2 35,128.3 48,129.4 			"/>
			<polygon class="st0" points="47.9,132.3 34.8,131.1 34.9,130.3 48,131.4 			"/>
			<polygon class="st0" points="47.8,134.3 34.8,133 34.9,132.2 47.9,133.4 			"/>
			<polygon class="st0" points="47.8,136.3 34.7,135 34.8,134.1 47.9,135.5 			"/>
			<polygon class="st0" points="47.7,138.3 34.7,136.9 34.8,136.1 47.9,137.5 			"/>
			<polygon class="st0" points="47.7,140.3 34.6,138.8 34.8,138 47.8,139.5 			"/>
			<polygon class="st0" points="47.7,142.3 34.6,140.8 34.7,140 47.8,141.5 			"/>
		</g>
	</g>
	<g>
		<path class="st1" d="M99.4,11.2c9.3,5.6,16,18.9,14.9,42c-1.1,22.9-14.2,43.7-26.9,49.5c13.9-2.4,29.9-24.4,31.2-49.1
			C119.8,28.1,110.8,15,99.4,11.2z"/>
		<path class="st2" d="M60.5,36.4l-0.4-0.2c-0.2,0.5-0.4,1.1-0.7,1.6l0.4,0.3C60.1,37.5,60.3,36.9,60.5,36.4z"/>
		<path class="st2" d="M55.4,60.8c0.3-5.2,1-10.3,2.2-15l-0.5-0.3c-1.1,4.5-1.9,9.4-2.1,14.5c-0.3,6.1,0.3,11.4,1.7,16.1
			C55.5,71.5,55.1,66.4,55.4,60.8z"/>
		<path class="st2" d="M64.9,27.3c-1.8,2.6-3.4,5.6-4.8,8.9l0.4,0.2C61.8,33.1,63.3,30.1,64.9,27.3z"/>
		<path class="st2" d="M59.9,38l-0.4-0.3c-0.9,2.4-1.8,5-2.4,7.7l0.5,0.3C58.2,43.1,59,40.5,59.9,38z"/>
		<path class="st1" d="M93.9,16.5c-3-1.3-6.2-1.8-9.5-1.5l0,2.1C87.6,16.2,90.8,16,93.9,16.5z"/>
		<path class="st1" d="M64.2,38.7c2.8-7,6.5-12.6,10.7-16.4l0-4.5c-3.6,1.9-7.1,5.2-10,9.5c-1.7,2.8-3.1,5.8-4.4,9.1L64.2,38.7z"/>
		<path class="st1" d="M63.2,83l-2.4,2.4c3.5,5.4,8.3,9.1,13.4,10.8l0-0.7C69.9,93,65.9,88.7,63.2,83z"/>
		<path class="st1" d="M60.2,73.5c-0.7-3.7-1-7.8-0.8-12.2c0.2-4.6,0.9-9,1.8-13.1l-3.7-2.4c-1.1,4.7-1.9,9.7-2.2,15
			c-0.3,5.6,0.2,10.7,1.2,15.3c0.1,0.3,0.2,0.7,0.3,1L60.2,73.5z"/>
		<path class="st2" d="M99.4,11.2c-7.3-4.4-16.3-4.1-24.3-0.2c-12.4,6.1-22.7,25.5-24,49.5c-1.4,26.8,13.4,42.2,28.4,43.7
			c2.5,0.2,5.2-0.3,7.9-1.5c12.7-5.8,25.8-26.6,26.9-49.5C115.4,30.1,108.7,16.9,99.4,11.2z M109,53.6c-0.2,4.3-0.9,8.5-2,12.5
			c-0.2,0.6-0.3,1.2-0.5,1.7c-0.9,2.9-1.9,5.7-3.2,8.3C98.3,87,90.7,95,83.5,96.9c-1.3,0.4-2.5,0.5-3.8,0.5c-0.2,0-0.4,0-0.6,0
			c-0.7-0.1-1.4-0.2-2.1-0.3c-1-0.2-1.9-0.4-2.9-0.8c-5.1-1.7-9.8-5.4-13.4-10.8c-0.6-1-1.2-2-1.8-3.1c-0.8-1.6-1.6-3.4-2.2-5.3
			c-0.1-0.3-0.2-0.7-0.3-1c-1.4-4.7-2-10-1.7-16.1c0.3-5.1,1-10,2.1-14.5c0.7-2.7,1.5-5.3,2.4-7.7c0.2-0.5,0.4-1.1,0.7-1.6
			c1.4-3.3,3-6.3,4.8-8.9c3-4.3,6.4-7.6,10-9.5c0.2-0.1,0.3-0.2,0.5-0.3c1.7-0.9,3.5-1.5,5.3-1.9c1.3-0.3,2.5-0.5,3.8-0.6
			c3.2-0.3,6.5,0.2,9.5,1.5c3.7,1.6,7.1,4.5,9.7,8.8c1.3,2.1,2.4,4.6,3.3,7.5c0.4,1.2,0.7,2.5,1,3.9C108.9,41.5,109.3,47.1,109,53.6
			z"/>
		<path class="st2" d="M63.5,40.4L59.9,38c-0.9,2.5-1.7,5.1-2.3,7.8l3.7,2.4l9.3,6.1c0.5-3.1,1.7-5.7,3.1-7.6L63.5,40.4z"/>
		<path class="st2" d="M70.6,62L60.2,73.5l-3.2,3.6c0.6,1.9,1.3,3.6,2.2,5.3l2.7-2.8l11.9-12.4C72.3,66,71.2,64.3,70.6,62z"/>
		<path class="st1" d="M74.5,67.8c-0.3-0.2-0.5-0.4-0.8-0.6L61.8,79.6l-2.7,2.8c0.6,1.1,1.1,2.1,1.8,3.1l2.4-2.4l11.2-11.6l2.5-2.6
			C76.1,68.7,75.3,68.3,74.5,67.8z"/>
		<path class="st1" d="M64.2,38.7l-3.6-2.3c-0.2,0.5-0.4,1.1-0.6,1.6l3.6,2.3l10,6.4c0.4-0.5,0.7-0.9,1.1-1.3l0,0L64.2,38.7z"/>
		<path class="st2" d="M87,53.5l0.1-0.1L87,53.3C87,53.4,87,53.4,87,53.5z"/>
		<path class="st2" d="M74.7,45.5L74.7,45.5L74.7,45.5C74.7,45.5,74.7,45.5,74.7,45.5z"/>
		<path class="st1" d="M90.1,55.3l-3-1.9L87,53.5c0,0.6,0,1.2,0,1.8l1.9,1.2l17.7,11.3c0.2-0.6,0.3-1.1,0.5-1.7L90.1,55.3z"/>
		<path class="st2" d="M87.1,53.4l19.8-20.6c-0.9-2.9-2-5.4-3.3-7.5L84.9,46.1c1.1,1.6,1.9,4,2,7.2L87.1,53.4z"/>
		<path class="st1" d="M80.7,15.6l0,2.9l-0.3,24.9c1.4,0.1,2.7,0.7,3.7,1.8l0.3-28l0-2.1C83.2,15.1,82,15.3,80.7,15.6z"/>
		<path class="st2" d="M75.5,17.5c-0.2,0.1-0.3,0.2-0.5,0.3l0,4.5l-0.2,23.1l0,0c0.6-0.6,1.2-1,1.8-1.3c1.3-0.6,2.6-0.9,3.9-0.8
			l0.3-24.9l0-2.9C78.9,16,77.2,16.7,75.5,17.5z"/>
		<path class="st1" d="M90.1,55.3l17.9-18.5c-0.3-1.4-0.6-2.7-1-3.9L87.1,53.4L90.1,55.3z"/>
		<path class="st2" d="M88.8,56.5l-1.9-1.2c0,0,0,0,0,0.1c-0.1,1.3-0.3,2.5-0.6,3.7c-0.4,1.7-1.1,3.2-1.8,4.6l18.9,12.5
			c1.2-2.6,2.3-5.4,3.2-8.3L88.8,56.5z"/>
		<path class="st1" d="M80.1,68.4l-0.3,29c1.2,0,2.5-0.1,3.8-0.5l0.4-32.3C82.8,66.3,81.5,67.6,80.1,68.4z"/>
		<path class="st2" d="M77.7,68.9c-0.2,0-0.5-0.1-0.7-0.1c0,0-1.1-0.1-2.5-1c-0.1-0.1-0.2,27.8-0.2,27.8l0,0.7
			c0.9,0.3,1.9,0.6,2.9,0.8c0.7,0.1,1.4,0.2,2.1,0.3c0.2,0,0.4,0,0.6,0l0.3-29C79.3,68.8,78.5,69,77.7,68.9z"/>
		<path class="st2" d="M87,53.3c-0.1-3.2-0.9-5.6-2-7.2c-0.2-0.3-0.5-0.7-0.8-0.9c-1.1-1.1-2.4-1.6-3.7-1.8
			c-1.3-0.1-2.6,0.2-3.9,0.8c-0.6,0.3-1.2,0.8-1.8,1.3c0,0,0,0,0,0c-0.4,0.4-0.8,0.8-1.1,1.3c-1.4,1.9-2.5,4.5-3.1,7.6
			c-0.2,0.9-0.3,1.9-0.3,2.9c-0.1,1.7,0.1,3.3,0.4,4.6c0.6,2.3,1.7,4.1,3.1,5.2c0.3,0.2,0.5,0.4,0.8,0.6c0.8,0.5,1.6,0.9,2.5,1
			c0.2,0.1,0.5,0.1,0.7,0.1c0.8,0.1,1.6-0.1,2.4-0.6c1.3-0.7,2.7-2,3.8-3.7c0.2-0.3,0.4-0.6,0.6-0.9c0.8-1.4,1.4-2.9,1.8-4.6
			c0.3-1.2,0.5-2.5,0.6-3.7c0,0,0,0,0-0.1c0-0.6,0-1.2,0-1.8C87,53.4,87,53.4,87,53.3z M80.2,57.9c-0.5,1-1.3,1.7-1.9,1.6
			c0,0,0,0-0.1,0c-0.5-0.1-1-0.4-1.4-0.9c-0.3-0.5-0.6-1.2-0.5-2.1c0-0.4,0.1-0.7,0.1-1c0.3-1.2,0.9-2.1,1.5-2.5
			c0.3-0.1,0.6-0.2,0.9-0.2c0.5,0,1,0.2,1.4,0.8c0.3,0.5,0.5,1.3,0.5,2.4C80.7,56.7,80.5,57.3,80.2,57.9z"/>
		<path class="st1" d="M80.3,53.6c-0.4-0.5-0.9-0.8-1.4-0.8c-0.3,0-0.6,0.1-0.9,0.2c-0.7,0.3-1.3,1.3-1.5,2.5
			c-0.1,0.3-0.1,0.6-0.1,1c0,0.9,0.2,1.6,0.5,2.1c0.4,0.5,0.9,0.9,1.4,0.9c0,0,0,0,0.1,0c0.6,0.1,1.4-0.6,1.9-1.6
			c0.3-0.6,0.5-1.3,0.5-2C80.8,54.9,80.6,54.1,80.3,53.6z"/>
		<g>
			<path class="st1" d="M35.3,39.4c5.3,4.1,9,13.6,8.4,30.3c-0.6,16.5-8,31.5-15.2,35.7c7.8-1.7,16.9-17.6,17.6-35.4
				C46.9,51.6,41.8,42.2,35.3,39.4z"/>
			<path class="st1" d="M13.4,57.6l-0.2-0.2c-0.1,0.4-0.3,0.8-0.4,1.2l0.2,0.2C13.1,58.4,13.3,58,13.4,57.6z"/>
			<path class="st4" d="M10.5,75.1c0.2-3.8,0.6-7.4,1.2-10.8l-0.3-0.2c-0.6,3.2-1.1,6.8-1.2,10.4c-0.2,4.4,0.2,8.2,1,11.6
				C10.6,82.9,10.3,79.2,10.5,75.1z"/>
			<path class="st4" d="M15.9,51c-1,1.9-1.9,4-2.7,6.4l0.2,0.2C14.1,55.2,14.9,53,15.9,51z"/>
			<path class="st2" d="M13,58.8l-0.2-0.2c-0.5,1.7-1,3.6-1.4,5.5l0.3,0.2C12.1,62.4,12.5,60.5,13,58.8z"/>
			<path class="st1" d="M32.3,43.2c-1.7-0.9-3.5-1.3-5.3-1.1l0,1.5C28.7,43,30.5,42.8,32.3,43.2z"/>
			<path class="st1" d="M15.4,59.2c1.6-5,3.7-9.1,6.1-11.8l0-3.3c-2.1,1.4-4,3.7-5.7,6.8c-0.9,2-1.8,4.2-2.5,6.6L15.4,59.2z"/>
			<path class="st1" d="M14.9,91.2l-1.3,1.8c2,3.9,4.7,6.5,7.6,7.8l0-0.5C18.7,98.3,16.4,95.3,14.9,91.2z"/>
			<path class="st1" d="M13.2,84.3c-0.4-2.7-0.6-5.6-0.4-8.8c0.1-3.3,0.5-6.5,1-9.4l-2.1-1.8c-0.6,3.4-1.1,7-1.2,10.8
				c-0.2,4.1,0.1,7.7,0.7,11c0.1,0.3,0.1,0.5,0.2,0.8L13.2,84.3z"/>
			<path class="st2" d="M35.3,39.4c-4.1-3.2-9.2-3-13.7-0.1C14.6,43.7,8.8,57.7,8.1,75c-0.8,19.3,7.6,30.4,16,31.5
				c1.4,0.2,2.9-0.2,4.5-1.1c7.2-4.2,14.6-19.1,15.2-35.7C44.4,53.1,40.6,43.5,35.3,39.4z M40.8,70c-0.1,3.1-0.5,6.1-1.1,9
				c-0.1,0.4-0.2,0.8-0.3,1.2c-0.5,2.1-1.1,4.1-1.8,6c-2.8,7.8-7.2,13.5-11.2,15c-0.7,0.3-1.4,0.4-2.1,0.3c-0.1,0-0.2,0-0.3,0
				c-0.4,0-0.8-0.1-1.2-0.2c-0.5-0.1-1.1-0.3-1.6-0.6c-2.9-1.3-5.6-3.9-7.6-7.8c-0.4-0.7-0.7-1.5-1-2.2c-0.5-1.2-0.9-2.4-1.2-3.8
				c-0.1-0.2-0.1-0.5-0.2-0.8c-0.8-3.4-1.1-7.2-1-11.6c0.2-3.7,0.6-7.2,1.2-10.4c0.4-1.9,0.9-3.8,1.4-5.5c0.1-0.4,0.2-0.8,0.4-1.2
				c0.8-2.4,1.7-4.5,2.7-6.4c1.7-3.1,3.6-5.5,5.7-6.8c0.1-0.1,0.2-0.1,0.3-0.2c1-0.6,2-1.1,3-1.4c0.7-0.2,1.4-0.4,2.1-0.5
				c1.8-0.2,3.7,0.2,5.3,1.1c2.1,1.2,4,3.2,5.5,6.4c0.7,1.5,1.4,3.3,1.8,5.4c0.2,0.9,0.4,1.8,0.6,2.8C40.7,61.3,41,65.3,40.8,70z"/>
			<path class="st2" d="M15.1,60.4L13,58.8c-0.5,1.8-0.9,3.7-1.3,5.6l2.1,1.8l5.2,4.4c0.3-2.2,0.9-4.1,1.7-5.5L15.1,60.4z"/>
			<path class="st2" d="M19.1,76l-5.9,8.3l-1.8,2.6c0.3,1.4,0.8,2.6,1.2,3.8l1.5-2l6.7-8.9C20.1,78.9,19.4,77.7,19.1,76z"/>
			<path class="st1" d="M21.3,80.2c-0.2-0.1-0.3-0.3-0.4-0.4l-6.7,8.9l-1.5,2c0.3,0.8,0.6,1.5,1,2.2l1.3-1.8l6.4-8.4l1.4-1.9
				C22.2,80.8,21.7,80.6,21.3,80.2z"/>
			<path class="st1" d="M15.4,59.2l-2.1-1.7c-0.1,0.4-0.2,0.8-0.3,1.2l2.1,1.7l5.7,4.6c0.2-0.3,0.4-0.7,0.6-0.9l0,0L15.4,59.2z"/>
			<path class="st1" d="M30.1,71.2l-1.7-1.4l-0.1,0.1c0,0.4,0,0.8,0,1.3l1.1,0.9l10,8.1c0.1-0.4,0.2-0.8,0.3-1.2L30.1,71.2z"/>
			<path class="st2" d="M28.4,69.8L39.6,55c-0.5-2.1-1.1-3.9-1.8-5.4l-10.6,15C27.8,65.7,28.3,67.4,28.4,69.8L28.4,69.8z"/>
			<path class="st1" d="M24.8,42.6l0,2.1l-0.2,17.9c0.8,0.1,1.5,0.5,2.1,1.3l0.2-20.2l0-1.5C26.2,42.2,25.5,42.3,24.8,42.6z"/>
			<path class="st2" d="M21.8,44c-0.1,0.1-0.2,0.1-0.3,0.2l0,3.3l-0.1,16.7l0,0c0.3-0.4,0.7-0.7,1-0.9c0.7-0.4,1.5-0.6,2.2-0.6
				l0.2-17.9l0-2.1C23.8,42.9,22.8,43.4,21.8,44z"/>
			<path class="st1" d="M30.1,71.2l10.1-13.3c-0.2-1-0.4-1.9-0.6-2.8L28.4,69.8L30.1,71.2z"/>
			<path class="st2" d="M29.4,72.1l-1.1-0.9c0,0,0,0,0,0c0,0.9-0.2,1.8-0.3,2.7c-0.2,1.2-0.6,2.3-1,3.3l10.7,9
				c0.7-1.9,1.3-3.9,1.8-6L29.4,72.1z"/>
			<path class="st1" d="M24.5,80.6l-0.2,20.9c0.7,0,1.4-0.1,2.1-0.3l0.2-23.3C26,79.1,25.2,80.1,24.5,80.6z"/>
			<path class="st2" d="M23.1,81c-0.1,0-0.3,0-0.4-0.1l-1.4-1.8l-0.1,21.1l0,0.5c0.5,0.2,1.1,0.4,1.6,0.6c0.4,0.1,0.8,0.2,1.2,0.2
				c0.1,0,0.2,0,0.3,0l0.2-20.9C24,80.9,23.5,81.1,23.1,81z"/>
			<path class="st2" d="M28.3,69.7c-0.1-2.3-0.5-4-1.1-5.2c-0.1-0.3-0.3-0.5-0.4-0.7c-0.6-0.8-1.3-1.2-2.1-1.3
				c-0.7-0.1-1.5,0.1-2.2,0.6c-0.4,0.2-0.7,0.5-1,0.9c0,0,0,0,0,0c-0.2,0.3-0.4,0.6-0.6,0.9c-0.8,1.4-1.4,3.3-1.7,5.5
				c-0.1,0.7-0.2,1.4-0.2,2.1c-0.1,1.2,0,2.4,0.2,3.3c0.3,1.7,1,2.9,1.8,3.8c0.1,0.2,0.3,0.3,0.4,0.4c0.4,0.4,0.9,0.6,1.4,0.8
				c0.1,0,0.3,0.1,0.4,0.1c0.4,0.1,0.9-0.1,1.4-0.4c0.8-0.5,1.5-1.5,2.1-2.7c0.1-0.2,0.2-0.4,0.3-0.7c0.4-1,0.8-2.1,1-3.3
				c0.2-0.9,0.3-1.8,0.3-2.7c0,0,0,0,0,0c0-0.5,0-0.9,0-1.3C28.3,69.9,28.3,69.8,28.3,69.7z M24.5,73.1c-0.3,0.7-0.7,1.2-1.1,1.2
				c0,0,0,0,0,0c-0.3-0.1-0.6-0.3-0.8-0.7c-0.2-0.4-0.3-0.9-0.3-1.5c0-0.3,0-0.5,0.1-0.7c0.1-0.9,0.5-1.5,0.9-1.8
				c0.2-0.1,0.3-0.2,0.5-0.2c0.3,0,0.6,0.2,0.8,0.6c0.2,0.4,0.3,0.9,0.3,1.7C24.8,72.2,24.7,72.7,24.5,73.1z"/>
			<path class="st1" d="M24.6,69.9c-0.2-0.4-0.5-0.6-0.8-0.6c-0.2,0-0.3,0.1-0.5,0.2c-0.4,0.2-0.7,0.9-0.9,1.8
				c0,0.2-0.1,0.5-0.1,0.7c0,0.6,0.1,1.2,0.3,1.5c0.2,0.4,0.5,0.6,0.8,0.7c0,0,0,0,0,0c0.4,0,0.8-0.4,1.1-1.2
				c0.2-0.4,0.3-0.9,0.3-1.4C24.9,70.9,24.7,70.3,24.6,69.9z"/>
		</g>
	</g>
	<path class="st0" d="M27.6,168.8c2.4-0.1,4.3-0.9,4.3-0.9l0.3,1.4c0.1,1.5-2,2.8-4.6,2.9c-2.6,0.1-4.8-1.1-4.8-2.6l0.3-1.3
		C23.1,169.6,25.1,168.9,27.6,168.8z"/>
	<g>
		<path class="st1" d="M83.7,139.9l-21.5-2.4c-2.8-0.1-5-3.5-4.9-7.6c0.1-4.1,2.5-7.3,5.3-7.3l22.2,1.2"/>

			<ellipse transform="matrix(2.781419e-02 -0.9996 0.9996 2.781419e-02 -50.0017 212.3897)" class="st5" cx="84.2" cy="131.9" rx="7.6" ry="5.5"/>
		<path class="st6" d="M76.1,139c-3-0.1-5.4-3.6-5.3-7.9c0.1-4.3,2.7-7.7,5.7-7.6"/>
		<path class="st6" d="M79.7,139c-3-0.1-5.4-3.6-5.3-7.9s2.7-7.7,5.7-7.6"/>
	</g>
	<path class="st1" d="M23.4,141.3l0.8-1.1c0,0-0.3-3,1.9-3.3l2.4-3l3.3-1c0,0,1.9,1.5,0.3,4.5c-1.6,3-1,4.1-2.7,5.5
		c-1.7,1.4-3.5,1.1-4.3,0.8C24.4,143.4,23.3,142.1,23.4,141.3z"/>
</g>
</svg>
