<svg xmlns="http://www.w3.org/2000/svg" viewBox="0 0 1920 1920"><defs><style>.cls-1{isolation:isolate;}.cls-2{mix-blend-mode:multiply;}.cls-3,.cls-4{fill:#121821;}.cls-3{opacity:0.1;}.cls-5{fill:#640e13;}.cls-6{fill:#f95421;}.cls-7{fill:#ea5228;}.cls-8{fill:#fcaf42;}</style></defs><g class="cls-1"><g id="scene"><g class="cls-2"><polygon class="cls-3" points="1180.82 1242.67 1217.1 1246.02 1215.08 1245.02 1171.01 1237.05 1166.35 1234.38 931.97 1310.61 1063.07 1385.63 1297.45 1309.41 1180.82 1242.67"/><polygon class="cls-3" points="552.16 1246.02 548.14 1246.02 430.44 1255.07 333.81 1223.42 490.8 1209.81 486.78 1209.81 319.24 1218.65 318.58 1218.44 -85.61 1276.2 38.04 1322.39 442.1 1258.86 552.16 1246.02"/></g><polygon class="cls-4" points="1287.92 1221.97 1341.89 1244.54 1335.99 1217.67 1287.92 1221.97"/><polygon class="cls-4" points="1197.41 1219.28 1254.75 1248.32 1261.22 1219.28 1197.41 1219.28"/><polygon class="cls-5" points="1099.03 1074.98 1095.08 1282.74 1099.03 1289.19 1115.88 1074.49 1099.03 1074.98"/><polygon class="cls-4" points="1104.64 1074.49 1099.03 1289.19 1102.75 1289.19 1126.37 1074.49 1104.64 1074.49"/><polygon class="cls-5" points="1147.37 1079.46 1214.84 1248.32 1220.46 1248.32 1169.6 1074.98 1147.37 1079.46"/><path class="cls-5" d="M1070.47,1065.91c-2.3.54-4.43,2.45-4.34,4.71.14,3.4,4.53,4.84,8,5.36a701,701,0,0,0,110.15,7.61q-.25-3.15-.53-6.31-29.6-5.08-59.55-7.89-14.79-1.4-29.63-2.22C1087.67,1066.79,1077.24,1064.29,1070.47,1065.91Z"/><path class="cls-6" d="M1386,1052.07c-2.78-9.9-9.59-15.33-18.45-17.8a46.33,46.33,0,0,0-9-1.52l-89.53-6.69c-7.81-.58-16.3-1-22.8,3.18-5.94,3.81-8.84,10.6-11.41,17l-9.69,24.08q-8.6,21.33-17.17,42.66c-2.87,7.11-6.12,14.69-12.81,18.82-8.56,5.28-19.7,3.22-29.8,2-16.06-2-32.34-1.35-48.48-.2-9.83.7-21.1.22-30.29,4.72-10.38,5.08-8.72,24.38-8.56,34.19a2.64,2.64,0,0,0,2,2.9c7.38,3.4,15.24,5.68,22.82,8.63,7.19,2.79,12.24,7.2,19,10.61,14.28,7.25,30.44,10.37,44.54,18,7.35,4,14.21,9.22,22.46,11a29.82,29.82,0,0,0,3.12.51,76.13,76.13,0,0,0,9.32.34l117.33-.45c2.56,0,5.15,0,7.75-.12,3.42-.49,6.83-1.15,10.22-1.8,7.6-1.47,15.79-2.53,21.44-8.11,5.86-5.77,7.08-11.75,8.8-18.92.75-5.09,1.06-10.3,1.92-15.07q1.54-8.58,3.21-17.13c1-16.29,5.92-32.28,9.15-48.26q1.15-5.67,2.18-11.35a266.26,266.26,0,0,0,3.94-37.74A46.06,46.06,0,0,0,1386,1052.07Z"/><path class="cls-7" d="M1221.67,1097.9c1.57,5.47,4.61,10.43,7.62,15.32l16.93,27.51c2.49,4,5.08,8.2,9,11-10.9-5.18-21.9-10.37-33.56-13.84-7.4-2.21-24.26-7.45-31.8-3.38a24.08,24.08,0,0,0,13.71-12.52c2.79-5.61,5.63-11.87,7.89-17.5,4.26-10.63,7.47-20,12.5-30.32C1221,1080.31,1219.78,1091.34,1221.67,1097.9Z"/><path class="cls-7" d="M1386,1052.07c-2.78-9.9-9.59-15.33-18.45-17.8q-3.42,18.36-6.85,36.71-2.62,14.1-5.26,28.2-6.14,32.85-12.26,65.71c-.61,3.27-1.27,6.67-3.34,9.34-4,5.12-11.51,5.89-18.15,6.21L1228.9,1185c-5.88.29-12.1.38-17.87.63-7.56.34-12.37-.94-17.31,3.51a13.72,13.72,0,0,0-2.42,3c-3.47,5.5-2.71,13.43-3.67,19.57-1.27,8.19-1,11.08,4.27,12.47a76.13,76.13,0,0,0,9.32.34l117.33-.45c2.56,0,5.15,0,7.75-.12,3.42-.49,6.83-1.15,10.22-1.8,7.6-1.47,15.79-2.53,21.44-8.11,5.86-5.77,7.08-11.75,8.8-18.92.75-5.09,1.06-10.3,1.92-15.07q1.54-8.58,3.21-17.13c1-16.29,5.92-32.28,9.15-48.26q1.15-5.67,2.18-11.35a266.26,266.26,0,0,0,3.94-37.74A46.06,46.06,0,0,0,1386,1052.07Z"/><polygon class="cls-5" points="1270.49 1110.07 1234.51 1373.09 1240.7 1377.39 1287.92 1110.07 1270.49 1110.07"/><polygon class="cls-5" points="1308.16 1117.1 1358.76 1310.7 1363.82 1310.7 1330.65 1116.56 1308.16 1117.1"/><path class="cls-4" d="M1363.82,1310.8h3.94l-25.82-187.34c3.14.09,6.34-.08,9-1.56,3.24-1.78,5.2-6.16,3-9.06q-29.87-6.81-60.31-10.85c-18.35-2.43-38.49-6-57-4.91-2.19.13-4.72.59-5.76,2.44-1.63,2.88,1.72,6,4.81,7.44,6.52,3,13.73,4.29,20.84,5.54s14.43,2.49,21.66,3.67l-37.5,261.32,7.87-4.84,50.85-253.3q11.79,1.61,23.62,2.73Z"/><path class="cls-5" d="M1224.62,1096.65c10.1,5.87,10.83,5.47,22.57,6.74l56.38,6.07,28.19,3c4.83.52,20.52,4.66,23.61,1-3.74-3.83-15.26-4.17-20.42-5.11-7.75-1.41-14.81-3.86-22.59-5.15-11.17-1.86-22.5-2.46-33.8-3.72q-18.57-2.08-37.18-3.93c-4.39-.44-8.67-1.19-13-1.74C1225.73,1093.52,1225.69,1097.27,1224.62,1096.65Z"/><polygon class="cls-5" points="1564.16 836.21 1564.16 846.86 1772.4 864.34 1772.61 849.66 1564.16 836.21"/><polygon class="cls-4" points="1772.27 849.85 1831.67 838.54 1831.8 851.86 1772.4 864.34 1772.27 849.85"/><polygon class="cls-4" points="529.04 1141.63 550.17 1247.12 556.14 1247.12 542.59 1137.28 529.04 1141.63"/><polygon class="cls-4" points="480.81 1149.36 488.38 1210.51 493.56 1210.51 491.31 1144.89 480.81 1149.36"/><polygon class="cls-4" points="109.02 1170.03 92.67 1268.27 98.12 1267.33 124.56 1172.21 109.02 1170.03"/><path class="cls-5" d="M115.39,1173.29c-.91,2.46-18.73,94.62-18.73,94.62l-4,.36,16-103.92Z"/><polygon class="cls-5" points="166.02 1189.97 150.07 1309.6 145.37 1309.6 152.47 1186.35 166.02 1189.97"/><polygon class="cls-4" points="158.84 1189.97 150.07 1309.6 154.63 1307.95 167.21 1184.89 158.84 1189.97"/><polygon class="cls-8" points="568.9 1055.71 489.98 1036.14 85.5 1080.49 90.28 1162.42 146.88 1193.6 565.71 1139.09 568.9 1055.71"/><polygon class="cls-4" points="568.9 1055.71 150.07 1105.87 85.5 1080.49 495.56 1035.41 568.9 1055.71"/><polygon class="cls-4" points="568.9 1055.71 565.71 1139.09 147.68 1193.49 147.68 1184.89 556.68 1132.38 559.6 1061.03 152.47 1110.94 147.68 1105.87 568.9 1055.71"/><polygon class="cls-4" points="147.68 1105.87 152.47 1110.94 152.47 1184.29 147.68 1184.89 147.68 1105.87"/><polygon class="cls-3" points="152.47 1110.94 167.36 1108.7 166.34 1182.46 152.47 1184.29 152.47 1110.94"/><polygon class="cls-4" points="424.5 1112.63 557.94 1095.77 558.08 1098.29 424.5 1115.89 424.5 1112.63"/><rect class="cls-4" x="422.97" y="1078.7" width="3.07" height="69.86"/><polygon class="cls-5" points="1405.47 871.55 1405.47 880.11 1556.82 897.92 1556.98 886.13 1405.47 871.55"/><polygon class="cls-4" points="1556.71 886.28 1604.54 879.44 1604.64 889.43 1556.82 897.92 1556.71 886.28"/></g></g></svg>