<svg id="scene" xmlns="http://www.w3.org/2000/svg" viewBox="0 0 1920 1920"><defs><style>.cls-1{fill:#fcaf42;}.cls-2{fill:#1f7e77;}.cls-3{fill:#95b1b5;}.cls-4{fill:#ffeacc;}</style></defs><polygon class="cls-1" points="1920 1472.5 1796 1920.5 220 1920.5 0 1265.5 986.06 1122.79 1920 1472.5"/><polygon class="cls-2" points="-246.38 437.98 987.25 496.6 987.25 1122.94 -258.17 1302.41 -246.38 437.98"/><polygon class="cls-3" points="1967.61 148.61 984.32 496.6 984.32 1122.94 1967.61 1497.54 1967.61 148.61"/><polygon class="cls-4" points="1969.56 158.84 1918.69 0.11 0 -0.5 -246.67 388.52 -246.67 437.88 986.06 496.83 1969.56 158.84"/><polygon class="cls-4" points="1104.54 650.21 1104.54 643.67 1421.82 574.2 1421.82 581.63 1104.54 650.21"/><polygon class="cls-4" points="1104.54 664.16 1104.54 657.62 1421.82 592.52 1421.82 599.95 1104.54 664.16"/><polygon class="cls-4" points="1104.54 678.12 1104.54 671.57 1421.82 610.84 1421.82 618.28 1104.54 678.12"/><polygon class="cls-4" points="1104.54 689.9 1104.54 683.35 1421.82 631.62 1421.82 639.07 1104.54 689.9"/><polygon class="cls-4" points="1104.54 702.78 1104.54 696.22 1421.82 651.17 1421.82 658.63 1104.54 702.78"/><polygon class="cls-4" points="1104.54 716.73 1104.54 710.17 1421.82 669.49 1421.82 676.95 1104.54 716.73"/><polygon class="cls-4" points="1104.54 730.68 1104.54 724.12 1421.82 687.81 1421.82 695.27 1104.54 730.68"/><polygon class="cls-4" points="1104.54 742.47 1104.54 735.9 1421.82 708.6 1421.82 716.06 1104.54 742.47"/><polygon class="cls-4" points="1104.54 755.34 1104.54 748.77 1421.82 728.15 1421.82 735.62 1104.54 755.34"/><polygon class="cls-4" points="1104.54 769.29 1104.54 762.72 1421.82 746.47 1421.82 753.94 1104.54 769.29"/><polygon class="cls-4" points="1104.54 781.08 1104.54 774.51 1421.82 767.25 1421.82 774.73 1104.54 781.08"/><polygon class="cls-4" points="1104.54 795.03 1104.54 788.46 1421.82 785.58 1421.82 793.05 1104.54 795.03"/><polygon class="cls-4" points="1104.54 808.99 1104.54 802.41 1421.82 803.9 1421.82 811.37 1104.54 808.99"/><polygon class="cls-4" points="1421.82 829.69 1104.54 822.94 1104.54 816.36 1421.82 822.22 1421.82 829.69"/><polygon class="cls-4" points="1421.82 848.01 1104.54 836.89 1104.54 830.32 1421.82 840.54 1421.82 848.01"/><polygon class="cls-4" points="1421.82 866.34 1104.54 850.85 1104.54 844.27 1421.82 858.86 1421.82 866.34"/><polygon class="cls-4" points="1421.82 884.66 1104.54 864.8 1104.54 858.22 1421.82 877.19 1421.82 884.66"/><polygon class="cls-4" points="1421.82 902.98 1104.54 878.75 1104.54 872.18 1421.82 895.51 1421.82 902.98"/><polygon class="cls-4" points="1421.82 921.3 1104.54 892.7 1104.54 886.13 1421.82 913.83 1421.82 921.3"/><polygon class="cls-4" points="1421.82 939.62 1104.54 906.65 1104.54 900.08 1421.82 932.15 1421.82 939.62"/><polygon class="cls-4" points="1421.82 957.94 1104.54 920.61 1104.54 914.04 1421.82 950.48 1421.82 957.94"/><polygon class="cls-4" points="1421.82 976.26 1104.54 934.56 1104.54 927.99 1421.82 968.8 1421.82 976.26"/><rect class="cls-3" x="1407.88" y="560.86" width="6.67" height="334.46"/><rect class="cls-3" x="1406.77" y="894.2" width="8.89" height="15.56"/><path class="cls-3" d="M1119.41,586.66V930.39a1.54,1.54,0,0,1-3.07,0V586.66h-3.07V930.39a4.61,4.61,0,0,0,9.21,0V586.66Z"/><rect class="cls-3" x="1113.43" y="696.42" width="4.44" height="8.89"/><rect class="cls-3" x="1117.87" y="718.64" width="4.44" height="8.89"/></svg>