<?xml version="1.0" encoding="utf-8"?>
<!-- Generator: Adobe Illustrator 25.2.0, SVG Export Plug-In . SVG Version: 6.00 Build 0)  -->
<svg version="1.1" id="Calque_1" xmlns="http://www.w3.org/2000/svg" xmlns:xlink="http://www.w3.org/1999/xlink" x="0px" y="0px"
	 viewBox="0 0 303.3 377" style="enable-background:new 0 0 303.3 377;" xml:space="preserve">
<style type="text/css">
	.st0{fill:#FFEACC;}
	.st1{fill:#F95421;}
	.st2{fill:#BF1F26;}
	.st3{fill:#121821;}
	.st4{fill:#D6DBDA;}
	.st5{fill:#640E13;}
	.st6{clip-path:url(#SVGID_2_);fill:#0D0B0D;}
	.st7{clip-path:url(#SVGID_2_);fill:#FFFFFF;}
	.st8{clip-path:url(#SVGID_2_);}
	.st9{fill:#FFFFFF;}
	.st10{opacity:0.22;fill:#525B6F;}
</style>
<g style="display:none">
	<path class="st0" d="M288.2,8l4.8,3.3c1.3,0.7,2.3,2.1,2.3,3.7v194.1c0,1.4-0.7,2.6-1.8,3.4l-8.2,9.9h-50.9l29.7,146.5h-4.9h-1.7
		h-2.8l-31.9-146.5h-34.9h-24.6l-0.9,98.1h-5.8l-0.9-98.1h-40.3H82.6L50.7,368.9h-1.8h-4.1h-3.5L71,222.4H18l-8.4-9.9
		c0,0-1.6-2-1.6-3.4V15c0-2.3,1.9-4.2,4.2-4.2h0.4L18.9,8H116h72.2H288.2 M290.7,0h-2.5h-100H116H18.9h-1.7l-1.6,0.7l-5,2.2
		C4.7,3.7,0,8.8,0,15v194.1c0,3.6,2,6.8,3.3,8.4l0.1,0.1l0.1,0.1l8.4,9.9l2.4,2.8H18h43.2L33.5,367.3l-1.9,9.6h9.8h3.5h4.1h1.8h6.5
		l1.4-6.3l30.5-140.2h26.3h32.3l0.8,90.2l0.1,8h8h5.8h8l0.1-8l0.8-90.2h16.6h28.5l30.5,140.2l1.4,6.3h6.5h2.8h1.7h4.9h9.8l-1.9-9.6
		l-27.7-136.9h41.1h3.8l2.4-2.9l7.7-9.3c2.6-2.3,4.1-5.6,4.1-9.1V15c0-4.4-2.3-8.4-6.1-10.5l-4.5-3.1L290.7,0L290.7,0z"/>
</g>
<g>
	<path class="st1" d="M12.2,10.8h278.9c2.3,0,4.2,1.9,4.2,4.2v194.1c0,2.3-1.9,4.2-4.2,4.2H12.2c-2.3,0-4.2-1.9-4.2-4.2V15
		C8,12.7,9.9,10.8,12.2,10.8z"/>
	<path class="st2" d="M249.8,173.6c0.2,0,12.6-1.1,15.9,3.2s2.5,10.5-1.9,13.8c-4.3,3.3-14.1,2.6-14.1,2.6L249.8,173.6z"/>
	<path class="st0" d="M258.3,177.1c-3.3-4.2-9.4-4.9-13.7-1.7c-4.3,3.3-5.2,9.5-1.9,13.8c3.3,4.3,9.5,5.2,13.8,1.9
		c0.7-0.5,1.3-1.1,1.8-1.8c2.7-3.4,2.8-8.4,0.1-12C258.4,177.3,258.3,177.2,258.3,177.1z"/>
	<path class="st3" d="M251.1,176.6c-1.6-0.1-3.2,0.3-4.5,1.3c-2.9,2.2-3.5,6.4-1.3,9.4c1.5,2,3.9,2.9,6.2,2.6
		c1.1-0.1,2.2-0.6,3.2-1.3c2.9-2.2,3.5-6.4,1.3-9.4C254.7,177.7,252.9,176.8,251.1,176.6z"/>
	<path class="st2" d="M228.1,36.2c0,0,2.1,1.3,2.1,2.3s-0.8,1.9-1.9,1.9s-2.5-1.2-2.5-1.2L228.1,36.2z"/>
	<path class="st4" d="M258.4,177.4c-0.1-0.1-0.1-0.1-0.2-0.2c-2.5-0.6-5.6-0.6-7.2-0.5c1.8,0.1,3.6,1,4.8,2.6
		c2.2,2.9,1.7,7.1-1.3,9.4c-1,0.7-2.1,1.2-3.2,1.3c0.9,0.1,4.3,0.2,7-0.6C261.1,185.9,261.2,181,258.4,177.4z"/>
	<rect x="28" y="20.7" class="st3" width="256.6" height="4.7"/>
	<polygon class="st3" points="229,222.6 259.2,368.9 264.1,368.9 234.2,222.6 	"/>
	<polygon class="st5" points="225.8,222.6 222.6,222.6 254.7,368.9 257.5,368.9 259.2,368.9 229,222.6 	"/>
	<polygon class="st5" points="74.9,222.6 44.8,368.9 41.4,368.9 71.2,222.6 	"/>
	<polygon class="st3" points="75.2,222.6 82.8,222.6 50.7,368.9 48.9,368.9 44.8,368.9 74.9,222.6 	"/>
	<polygon class="st2" points="226.6,145.9 219.4,145.9 219.4,153.1 220.1,153.5 227.7,153.5 227.7,147 	"/>
	<rect x="219.7" y="146.2" class="st1" width="6.5" height="6.5"/>
	<polygon class="st2" points="239,145.9 231.7,145.9 231.7,153.1 232.4,153.5 240.1,153.5 240.1,147 	"/>
	<rect x="232.1" y="146.2" class="st1" width="6.5" height="6.5"/>
	<polygon class="st2" points="251.3,145.9 244.1,145.9 244.1,153.1 244.8,153.5 252.4,153.5 252.4,147 	"/>
	<rect x="244.4" y="146.2" class="st1" width="6.5" height="6.5"/>
	<polygon class="st2" points="263.7,145.9 256.4,145.9 256.4,153.1 257.1,153.5 264.8,153.5 264.8,147 	"/>
	<rect x="256.8" y="146.2" class="st1" width="6.5" height="6.5"/>
	<polygon class="st2" points="276,145.9 268.8,145.9 268.8,153.1 269.5,153.5 277.1,153.5 277.1,147 	"/>
	<rect x="269.1" y="146.2" class="st1" width="6.5" height="6.5"/>
	<path class="st3" d="M228.3,36.3c-0.3-0.3-0.8-0.5-1.3-0.5c-1.1,0-2,0.9-2,2c0,0.7,0.4,1.4,1,1.7c0.3,0.2,0.6,0.3,1,0.3
		c1.1,0,2-0.9,2-2C229,37.2,228.7,36.7,228.3,36.3z"/>
	<path class="st2" d="M248.1,36.2c0,0,2.1,1.3,2.1,2.3s-0.8,1.9-1.9,1.9s-2.5-1.2-2.5-1.2L248.1,36.2z"/>
	<path class="st3" d="M248.3,36.3c-0.3-0.3-0.8-0.5-1.3-0.5c-1.1,0-2,0.9-2,2c0,0.7,0.4,1.4,1,1.7c0.3,0.2,0.6,0.3,1,0.3
		c1.1,0,2-0.9,2-2C249,37.2,248.7,36.7,248.3,36.3z"/>
	<path class="st2" d="M268.1,36.2c0,0,2.1,1.3,2.1,2.3s-0.8,1.9-1.9,1.9s-2.5-1.2-2.5-1.2L268.1,36.2z"/>
	<path class="st3" d="M268.3,36.3c-0.3-0.3-0.8-0.5-1.3-0.5c-1.1,0-2,0.9-2,2c0,0.7,0.4,1.4,1,1.7c0.3,0.2,0.6,0.3,1,0.3
		c1.1,0,2-0.9,2-2C268.9,37.2,268.7,36.7,268.3,36.3z"/>
	<rect x="219.7" y="138.6" class="st3" width="56" height="1.5"/>
	<rect x="219.7" y="136.4" class="st3" width="56" height="1.5"/>
	<rect x="219.7" y="134.2" class="st3" width="56" height="1.5"/>
	<rect x="219.7" y="132.1" class="st3" width="56" height="1.5"/>
	<rect x="219.7" y="129.9" class="st3" width="56" height="1.5"/>
	<rect x="219.7" y="127.7" class="st3" width="56" height="1.5"/>
	<rect x="219.7" y="125.5" class="st3" width="56" height="1.5"/>
	<rect x="219.7" y="123.3" class="st3" width="56" height="1.5"/>
	<rect x="219.7" y="121.2" class="st3" width="56" height="1.5"/>
	<rect x="219.7" y="119" class="st3" width="56" height="1.5"/>
	<rect x="219.7" y="116.8" class="st3" width="56" height="1.5"/>
	<rect x="219.7" y="114.6" class="st3" width="56" height="1.5"/>
	<rect x="219.7" y="112.4" class="st3" width="56" height="1.5"/>
	<rect x="219.7" y="110.3" class="st3" width="56" height="1.5"/>
	<rect x="219.7" y="108.1" class="st3" width="56" height="1.5"/>
	<rect x="219.7" y="105.9" class="st3" width="56" height="1.5"/>
	<rect x="219.7" y="103.7" class="st3" width="56" height="1.5"/>
	<rect x="219.7" y="101.5" class="st3" width="56" height="1.5"/>
	<rect x="219.7" y="99.4" class="st3" width="56" height="1.5"/>
	<rect x="219.7" y="97.2" class="st3" width="56" height="1.5"/>
	<rect x="219.7" y="95" class="st3" width="56" height="1.5"/>
	<rect x="219.7" y="92.8" class="st3" width="56" height="1.5"/>
	<rect x="219.7" y="90.6" class="st3" width="56" height="1.5"/>
	<rect x="219.7" y="88.4" class="st3" width="56" height="1.5"/>
	<rect x="219.7" y="86.3" class="st3" width="56" height="1.5"/>
	<rect x="219.7" y="84.1" class="st3" width="56" height="1.5"/>
	<rect x="219.7" y="81.9" class="st3" width="56" height="1.5"/>
	<rect x="219.7" y="79.7" class="st3" width="56" height="1.5"/>
	<rect x="219.7" y="77.5" class="st3" width="56" height="1.5"/>
	<rect x="219.7" y="75.4" class="st3" width="56" height="1.5"/>
	<rect x="219.7" y="73.2" class="st3" width="56" height="1.5"/>
	<rect x="219.7" y="71" class="st3" width="56" height="1.5"/>
	<rect x="219.7" y="68.8" class="st3" width="56" height="1.5"/>
	<rect x="219.7" y="66.6" class="st3" width="56" height="1.5"/>
	<rect x="219.7" y="64.5" class="st3" width="56" height="1.5"/>
	<rect x="219.7" y="62.3" class="st3" width="56" height="1.5"/>
	<rect x="219.7" y="60.1" class="st3" width="56" height="1.5"/>
	<rect x="219.7" y="57.9" class="st3" width="56" height="1.5"/>
	<rect x="219.7" y="55.7" class="st3" width="56" height="1.5"/>
	<rect x="219.7" y="53.6" class="st3" width="56" height="1.5"/>
	<rect x="219.7" y="51.4" class="st3" width="56" height="1.5"/>
	<rect x="219.7" y="49.2" class="st3" width="56" height="1.5"/>
	<rect x="219.7" y="47" class="st3" width="56" height="1.5"/>
	<g>
		<path class="st1" d="M240.3,134.2h14.8c0.5-0.2,1.1-0.5,1.6-0.7h-18C239.2,133.8,239.8,134,240.3,134.2z"/>
		<path class="st1" d="M256.7,133.5c-0.5,0.3-1.1,0.5-1.6,0.7h-14.8c-0.5-0.2-1.1-0.5-1.6-0.7H256.7 M257.3,133.4h-0.6h-18h-0.6
			l0.6,0.3c0.6,0.3,1.1,0.5,1.6,0.7l0,0h0h14.8h0l0,0c0.5-0.2,1-0.4,1.6-0.7L257.3,133.4L257.3,133.4z"/>
	</g>
	<g>
		<path class="st1" d="M227,121.2h41.4c0.1-0.2,0.2-0.5,0.4-0.7h-42.1C226.7,120.7,226.9,120.9,227,121.2z"/>
		<path class="st1" d="M268.8,120.4c-0.1,0.2-0.2,0.5-0.4,0.7H227c-0.1-0.2-0.2-0.5-0.4-0.7H268.8 M269,120.3h-0.2h-42.1h-0.2
			l0.1,0.2c0.1,0.2,0.2,0.5,0.4,0.7l0,0.1h0.1h41.4h0.1l0-0.1c0.1-0.2,0.2-0.5,0.4-0.7L269,120.3L269,120.3z"/>
	</g>
	<g>
		<path class="st1" d="M232.7,57.9h30c-0.3-0.2-0.5-0.5-0.8-0.7h-28.5C233.2,57.4,232.9,57.7,232.7,57.9z"/>
		<path class="st1" d="M261.9,57.2c0.3,0.2,0.5,0.5,0.8,0.7h-30c0.3-0.2,0.5-0.5,0.8-0.7H261.9 M262,57L262,57h-28.5h-0.1l0,0
			c-0.3,0.2-0.5,0.5-0.8,0.7l-0.3,0.3h0.4h30h0.4l-0.3-0.3C262.6,57.6,262.3,57.3,262,57L262,57L262,57z"/>
	</g>
	<g>
		<path class="st1" d="M226,119h43.4c0.1-0.2,0.2-0.5,0.3-0.7h-44C225.8,118.5,225.9,118.7,226,119z"/>
		<path class="st1" d="M269.7,118.3c-0.1,0.2-0.2,0.5-0.3,0.7H226c-0.1-0.2-0.2-0.5-0.3-0.7H269.7 M269.9,118.1h-0.2h-44h-0.2
			l0.1,0.2c0.1,0.2,0.2,0.5,0.3,0.7l0,0.1h0.1h43.4h0.1l0-0.1c0.1-0.2,0.2-0.5,0.3-0.7L269.9,118.1L269.9,118.1z"/>
	</g>
	<g>
		<path class="st1" d="M230.7,60.1h34c-0.2-0.2-0.4-0.5-0.6-0.7h-32.8C231.1,59.6,230.9,59.9,230.7,60.1z"/>
		<path class="st1" d="M264.1,59.4c0.2,0.2,0.4,0.5,0.6,0.7h-34c0.2-0.2,0.4-0.5,0.6-0.7H264.1 M264.1,59.2L264.1,59.2h-32.8h-0.1
			l0,0.1c-0.2,0.2-0.4,0.5-0.6,0.7l-0.2,0.2h0.3h34h0.3l-0.2-0.2C264.6,59.8,264.4,59.5,264.1,59.2L264.1,59.2L264.1,59.2z"/>
	</g>
	<g>
		<path class="st1" d="M236.2,132.1h23c0.3-0.2,0.7-0.5,1-0.7h-25C235.5,131.6,235.9,131.8,236.2,132.1z"/>
		<path class="st1" d="M260.2,131.3c-0.3,0.3-0.7,0.5-1,0.7h-23c-0.3-0.2-0.7-0.5-1-0.7H260.2 M260.6,131.2h-0.5h-25h-0.5l0.4,0.3
			c0.3,0.3,0.7,0.5,1,0.7l0,0h0h23h0l0,0c0.3-0.2,0.7-0.5,1-0.7L260.6,131.2L260.6,131.2z"/>
	</g>
	<g>
		<path class="st1" d="M235.2,55.7h25c-0.3-0.3-0.7-0.5-1-0.7h-23C235.9,55.2,235.5,55.5,235.2,55.7z"/>
		<path class="st1" d="M259.2,55c0.3,0.2,0.7,0.5,1,0.7h-25c0.3-0.3,0.7-0.5,1-0.7H259.2 M259.2,54.9L259.2,54.9h-23h0l0,0
			c-0.3,0.2-0.7,0.5-1,0.7l-0.4,0.3h0.5h25h0.5l-0.4-0.3C259.9,55.4,259.6,55.1,259.2,54.9L259.2,54.9L259.2,54.9z"/>
	</g>
	<g>
		<path class="st1" d="M229.6,125.5h36.2c0.2-0.2,0.3-0.5,0.5-0.7h-37.2C229.3,125,229.4,125.3,229.6,125.5z"/>
		<path class="st1" d="M266.3,124.8c-0.2,0.2-0.3,0.5-0.5,0.7h-36.2c-0.2-0.2-0.3-0.5-0.5-0.7H266.3 M266.6,124.6h-0.3h-37.2h-0.3
			l0.2,0.2l0.1,0.1c0.1,0.2,0.3,0.4,0.4,0.6l0,0.1h0.1h36.2h0.1l0-0.1c0.1-0.2,0.3-0.4,0.4-0.6l0.1-0.1L266.6,124.6L266.6,124.6z"/>
	</g>
	<g>
		<path class="st1" d="M229.1,62.3h37.2c-0.2-0.2-0.3-0.5-0.5-0.7h-36.2C229.4,61.8,229.3,62,229.1,62.3z"/>
		<path class="st1" d="M265.8,61.6c0.2,0.2,0.3,0.5,0.5,0.7h-37.2c0.2-0.2,0.3-0.5,0.5-0.7H265.8 M265.9,61.4L265.9,61.4h-36.3h-0.1
			l0,0.1c-0.1,0.2-0.3,0.4-0.4,0.6l-0.1,0.1l-0.2,0.2h0.3h37.2h0.3l-0.2-0.2l-0.1-0.1C266.2,61.9,266.1,61.7,265.9,61.4L265.9,61.4
			L265.9,61.4z"/>
	</g>
	<g>
		<path class="st1" d="M233.5,129.9h28.5c0.3-0.2,0.5-0.5,0.8-0.7h-30C232.9,129.4,233.2,129.6,233.5,129.9z"/>
		<path class="st1" d="M262.7,129.2c-0.3,0.2-0.5,0.5-0.8,0.7h-28.5c-0.3-0.2-0.5-0.5-0.8-0.7H262.7 M263.1,129h-0.4h-30h-0.4
			l0.3,0.3c0.2,0.2,0.5,0.5,0.8,0.7l0,0h0.1h28.5h0.1l0,0c0.3-0.2,0.5-0.5,0.8-0.7L263.1,129L263.1,129z"/>
	</g>
	<g>
		<path class="st1" d="M228.2,123.3h39.1c0.1-0.2,0.3-0.5,0.4-0.7h-39.9C227.9,122.9,228,123.1,228.2,123.3z"/>
		<path class="st1" d="M267.6,122.6c-0.1,0.2-0.3,0.5-0.4,0.7h-39.1c-0.1-0.2-0.3-0.5-0.4-0.7H267.6 M267.9,122.5h-0.3h-39.9h-0.3
			l0.1,0.2c0.1,0.2,0.3,0.5,0.4,0.7l0,0.1h0.1h39.1h0.1l0-0.1c0.1-0.2,0.3-0.5,0.4-0.7L267.9,122.5L267.9,122.5z"/>
	</g>
	<g>
		<path class="st1" d="M231.3,127.7h32.8c0.2-0.2,0.4-0.5,0.6-0.7h-34C230.9,127.2,231.1,127.5,231.3,127.7z"/>
		<path class="st1" d="M264.7,127c-0.2,0.2-0.4,0.5-0.6,0.7h-32.8c-0.2-0.2-0.4-0.5-0.6-0.7H264.7 M265,126.8h-0.3h-34h-0.3l0.2,0.2
			c0.2,0.2,0.4,0.5,0.6,0.7l0,0.1h0.1h32.8h0.1l0-0.1c0.2-0.2,0.4-0.5,0.6-0.7L265,126.8L265,126.8z"/>
	</g>
	<g>
		<path class="st1" d="M227.8,64.5h39.9c-0.1-0.2-0.3-0.5-0.4-0.7h-39.1C228,64,227.9,64.2,227.8,64.5z"/>
		<path class="st1" d="M267.2,63.7c0.1,0.2,0.3,0.5,0.4,0.7h-39.9c0.1-0.2,0.3-0.5,0.4-0.7H267.2 M267.3,63.6L267.3,63.6h-39.1h-0.1
			l0,0.1c-0.1,0.2-0.3,0.5-0.4,0.7l-0.1,0.2h0.3h39.9h0.3l-0.1-0.2C267.6,64.1,267.5,63.9,267.3,63.6L267.3,63.6L267.3,63.6z"/>
	</g>
	<g>
		<rect x="223.4" y="96.4" class="st1" width="49.1" height="0.7"/>
		<path class="st1" d="M272.4,96.4v0.7h-49.1v-0.7H272.4 M272.6,96.3h-0.2h-49.1h-0.2v0.2v0.7v0.2h0.2h49.1h0.2v-0.2v-0.7V96.3
			L272.6,96.3z"/>
	</g>
	<g>
		<rect x="223.4" y="103" class="st1" width="49.1" height="0.7"/>
		<path class="st1" d="M272.4,103v0.7h-49.1V103H272.4 M272.6,102.8h-0.2h-49.1h-0.2v0.2v0.7v0.2h0.2h49.1h0.2v-0.2V103V102.8
			L272.6,102.8z"/>
	</g>
	<g>
		<path class="st1" d="M223.2,81.9h49c0-0.2,0-0.5,0-0.7h-49C223.2,81.4,223.2,81.7,223.2,81.9z"/>
		<path class="st1" d="M272.2,81.2c0,0.2,0,0.5,0,0.7h-49c0-0.2,0-0.5,0-0.7H272.2 M272.3,81h-0.1h-49h-0.1l0,0.1c0,0.2,0,0.3,0,0.5
			l0,0.2l0,0.2h0.2h49h0.2l0-0.2l0-0.2c0-0.2,0-0.3,0-0.5L272.3,81L272.3,81z"/>
	</g>
	<g>
		<rect x="223.4" y="92.1" class="st1" width="49.1" height="0.7"/>
		<path class="st1" d="M272.4,92.1v0.7h-49.1v-0.7H272.4 M272.6,91.9h-0.2h-49.1h-0.2v0.2v0.7V93h0.2h49.1h0.2v-0.2v-0.7V91.9
			L272.6,91.9z"/>
	</g>
	<g>
		<path class="st1" d="M224.3,73.2h46.8c-0.1-0.2-0.1-0.5-0.2-0.7h-46.4C224.4,72.7,224.4,72.9,224.3,73.2z"/>
		<path class="st1" d="M270.9,72.5c0.1,0.2,0.1,0.5,0.2,0.7h-46.8c0.1-0.2,0.1-0.5,0.2-0.7H270.9 M271,72.3h-0.1h-46.4h-0.1l0,0.1
			l0,0.2c-0.1,0.2-0.1,0.4-0.2,0.6l0,0.2h0.2h46.8h0.2l0-0.2c0-0.2-0.1-0.4-0.2-0.6l0-0.1L271,72.3L271,72.3z"/>
	</g>
	<g>
		<rect x="223.4" y="83.4" class="st1" width="49.1" height="0.7"/>
		<path class="st1" d="M272.4,83.4v0.7h-49.1v-0.7H272.4 M272.6,83.2h-0.2h-49.1h-0.2v0.2v0.7v0.2h0.2h49.1h0.2v-0.2v-0.7V83.2
			L272.6,83.2z"/>
	</g>
	<g>
		<path class="st1" d="M223.2,105.9h49c0-0.2,0-0.5,0-0.7h-49C223.2,105.4,223.2,105.7,223.2,105.9z"/>
		<path class="st1" d="M272.2,105.2c0,0.2,0,0.5,0,0.7h-49c0-0.2,0-0.5,0-0.7H272.2 M272.4,105h-0.2h-49H223l0,0.2l0,0.2
			c0,0.2,0,0.3,0,0.5l0,0.1h0.1h49h0.1l0-0.1c0-0.2,0-0.3,0-0.5l0-0.2L272.4,105L272.4,105z"/>
	</g>
	<g>
		<path class="st1" d="M224.9,71h45.5c-0.1-0.2-0.2-0.5-0.2-0.7h-45.1C225.1,70.5,225,70.8,224.9,71z"/>
		<path class="st1" d="M270.2,70.3c0.1,0.2,0.2,0.5,0.2,0.7h-45.5c0.1-0.2,0.2-0.5,0.2-0.7H270.2 M270.3,70.1h-0.1h-45.1h-0.1l0,0.1
			c-0.1,0.2-0.1,0.4-0.2,0.6l0,0.1l-0.1,0.2h0.2h45.5h0.2l-0.1-0.2l0-0.1c-0.1-0.2-0.1-0.4-0.2-0.6L270.3,70.1L270.3,70.1z"/>
	</g>
	<g>
		<rect x="223.4" y="98.6" class="st1" width="49.1" height="0.7"/>
		<path class="st1" d="M272.4,98.6v0.7h-49.1v-0.7H272.4 M272.6,98.5h-0.2h-49.1h-0.2v0.2v0.7v0.2h0.2h49.1h0.2v-0.2v-0.7V98.5
			L272.6,98.5z"/>
	</g>
	<g>
		<rect x="223.4" y="94.3" class="st1" width="49.1" height="0.7"/>
		<path class="st1" d="M272.4,94.3V95h-49.1v-0.7H272.4 M272.6,94.1h-0.2h-49.1h-0.2v0.2V95v0.2h0.2h49.1h0.2V95v-0.7V94.1
			L272.6,94.1z"/>
	</g>
	<g>
		<path class="st1" d="M223.5,77.5h48.4c0-0.2-0.1-0.5-0.1-0.7h-48.2C223.6,77.1,223.5,77.3,223.5,77.5z"/>
		<path class="st1" d="M271.8,76.8c0,0.2,0.1,0.5,0.1,0.7h-48.4c0-0.2,0.1-0.5,0.1-0.7H271.8 M271.9,76.7h-0.1h-48.2h-0.1l0,0.1
			c0,0.2-0.1,0.5-0.1,0.7l0,0.2h0.2h48.4h0.2l0-0.2c0-0.2-0.1-0.5-0.1-0.7L271.9,76.7L271.9,76.7z"/>
	</g>
	<g>
		<path class="st1" d="M223.3,79.7h48.8c0-0.2,0-0.5-0.1-0.7h-48.7C223.3,79.2,223.3,79.5,223.3,79.7z"/>
		<path class="st1" d="M272.1,79c0,0.2,0,0.5,0.1,0.7h-48.8c0-0.2,0-0.5,0.1-0.7H272.1 M272.2,78.8h-0.1h-48.7h-0.1l0,0.1
			c0,0.2,0,0.5-0.1,0.7l0,0.2h0.2h48.8h0.2l0-0.2c0-0.2,0-0.5-0.1-0.7L272.2,78.8L272.2,78.8z"/>
	</g>
	<g>
		<path class="st1" d="M238.7,53.6h18c-0.5-0.3-1.1-0.5-1.6-0.7h-14.8C239.8,53,239.2,53.3,238.7,53.6z"/>
		<path class="st1" d="M255.1,52.8c0.5,0.2,1.1,0.5,1.6,0.7h-18c0.5-0.3,1.1-0.5,1.6-0.7H255.1 M255.1,52.7L255.1,52.7h-14.8h0l0,0
			c-0.5,0.2-1,0.4-1.6,0.7l-0.6,0.3h0.6h18h0.6l-0.6-0.3C256.2,53.1,255.7,52.9,255.1,52.7L255.1,52.7L255.1,52.7z"/>
	</g>
	<g>
		<path class="st1" d="M223.8,75.4h47.7c0-0.2-0.1-0.5-0.1-0.7H224C223.9,74.9,223.9,75.1,223.8,75.4z"/>
		<path class="st1" d="M271.4,74.6c0,0.2,0.1,0.5,0.1,0.7h-47.7c0-0.2,0.1-0.5,0.1-0.7H271.4 M271.5,74.5h-0.1H224h-0.1l0,0.1
			c0,0.2-0.1,0.4-0.1,0.6l0,0.1l0,0.2h0.2h47.7h0.2l0-0.2l0-0.1c0-0.2-0.1-0.4-0.1-0.6L271.5,74.5L271.5,74.5z"/>
	</g>
	<g>
		<rect x="223.4" y="100.8" class="st1" width="49.1" height="0.7"/>
		<path class="st1" d="M272.4,100.8v0.7h-49.1v-0.7H272.4 M272.6,100.7h-0.2h-49.1h-0.2v0.2v0.7v0.2h0.2h49.1h0.2v-0.2v-0.7V100.7
			L272.6,100.7z"/>
	</g>
	<g>
		<path class="st1" d="M224,112.4h47.4c0-0.2,0.1-0.5,0.1-0.7h-47.7C223.9,112,223.9,112.2,224,112.4z"/>
		<path class="st1" d="M271.6,111.7c0,0.2-0.1,0.5-0.1,0.7H224c0-0.2-0.1-0.5-0.1-0.7H271.6 M271.7,111.6h-0.2h-47.7h-0.2l0,0.2
			l0,0.1c0,0.2,0.1,0.4,0.1,0.6l0,0.1h0.1h47.4h0.1l0-0.1c0-0.2,0.1-0.4,0.1-0.6l0-0.1L271.7,111.6L271.7,111.6z"/>
	</g>
	<g>
		<rect x="223.4" y="87.7" class="st1" width="49.1" height="0.7"/>
		<path class="st1" d="M272.4,87.7v0.7h-49.1v-0.7H272.4 M272.6,87.6h-0.2h-49.1h-0.2v0.2v0.7v0.2h0.2h49.1h0.2v-0.2v-0.7V87.6
			L272.6,87.6z"/>
	</g>
	<g>
		<path class="st1" d="M225.7,68.8h44c-0.1-0.2-0.2-0.5-0.3-0.7H226C225.9,68.3,225.8,68.6,225.7,68.8z"/>
		<path class="st1" d="M269.4,68.1c0.1,0.2,0.2,0.5,0.3,0.7h-44c0.1-0.2,0.2-0.5,0.3-0.7H269.4 M269.5,67.9h-0.1H226h-0.1l0,0.1
			c-0.1,0.2-0.2,0.5-0.3,0.7l-0.1,0.2h0.2h44h0.2l-0.1-0.2C269.7,68.5,269.7,68.3,269.5,67.9L269.5,67.9L269.5,67.9z"/>
	</g>
	<g>
		<path class="st1" d="M223.6,110.3h48.2c0-0.2,0.1-0.5,0.1-0.7h-48.4C223.5,109.8,223.6,110,223.6,110.3z"/>
		<path class="st1" d="M271.9,109.5c0,0.2-0.1,0.5-0.1,0.7h-48.2c0-0.2-0.1-0.5-0.1-0.7H271.9 M272.1,109.4h-0.2h-48.4h-0.2l0,0.2
			c0,0.2,0.1,0.5,0.1,0.7l0,0.1h0.1h48.2h0.1l0-0.1c0-0.2,0.1-0.5,0.1-0.7L272.1,109.4L272.1,109.4z"/>
	</g>
	<g>
		<path class="st1" d="M225.2,116.8h45.1c0.1-0.2,0.2-0.5,0.2-0.7h-45.5C225,116.3,225.1,116.6,225.2,116.8z"/>
		<path class="st1" d="M270.5,116.1c-0.1,0.2-0.2,0.5-0.2,0.7h-45.1c-0.1-0.2-0.2-0.5-0.2-0.7H270.5 M270.7,115.9h-0.2h-45.5h-0.2
			l0.1,0.2l0,0.1c0.1,0.2,0.1,0.4,0.2,0.6l0,0.1h0.1h45.1h0.1l0-0.1c0.1-0.2,0.1-0.4,0.2-0.6l0-0.1L270.7,115.9L270.7,115.9z"/>
	</g>
	<g>
		<path class="st1" d="M226.6,66.6h42.1c-0.1-0.2-0.2-0.5-0.4-0.7H227C226.9,66.2,226.7,66.4,226.6,66.6z"/>
		<path class="st1" d="M268.4,65.9c0.1,0.2,0.2,0.5,0.4,0.7h-42.1c0.1-0.2,0.2-0.5,0.4-0.7H268.4 M268.5,65.8L268.5,65.8H227h-0.1
			l0,0.1c-0.1,0.2-0.2,0.5-0.4,0.7l-0.1,0.2h0.2h42.1h0.2l-0.1-0.2C268.8,66.3,268.7,66.1,268.5,65.8L268.5,65.8L268.5,65.8z"/>
	</g>
	<g>
		<path class="st1" d="M224.5,114.6h46.4c0.1-0.2,0.1-0.5,0.2-0.7h-46.8C224.4,114.1,224.4,114.4,224.5,114.6z"/>
		<path class="st1" d="M271.1,113.9c-0.1,0.2-0.1,0.5-0.2,0.7h-46.4c-0.1-0.2-0.1-0.5-0.2-0.7H271.1 M271.3,113.7h-0.2h-46.8h-0.2
			l0,0.2c0,0.2,0.1,0.4,0.2,0.6l0,0.2l0,0.1h0.1h46.4h0.1l0-0.1l0-0.1c0.1-0.2,0.1-0.4,0.2-0.6L271.3,113.7L271.3,113.7z"/>
	</g>
	<g>
		<path class="st1" d="M223.3,108.1h48.7c0-0.2,0-0.5,0.1-0.7h-48.8C223.3,107.6,223.3,107.8,223.3,108.1z"/>
		<path class="st1" d="M272.1,107.3c0,0.2,0,0.5-0.1,0.7h-48.7c0-0.2,0-0.5-0.1-0.7H272.1 M272.3,107.2h-0.2h-48.8h-0.2l0,0.2
			c0,0.2,0,0.5,0.1,0.7l0,0.1h0.1h48.7h0.1l0-0.1c0-0.2,0-0.5,0.1-0.7L272.3,107.2L272.3,107.2z"/>
	</g>
	<g>
		<rect x="223.4" y="85.5" class="st1" width="49.1" height="0.7"/>
		<path class="st1" d="M272.4,85.5v0.7h-49.1v-0.7H272.4 M272.6,85.4h-0.2h-49.1h-0.2v0.2v0.7v0.2h0.2h49.1h0.2v-0.2v-0.7V85.4
			L272.6,85.4z"/>
	</g>
	<g>
		<rect x="223.4" y="89.9" class="st1" width="49.1" height="0.7"/>
		<path class="st1" d="M272.4,89.9v0.7h-49.1v-0.7H272.4 M272.6,89.7h-0.2h-49.1h-0.2v0.2v0.7v0.2h0.2h49.1h0.2v-0.2v-0.7V89.7
			L272.6,89.7z"/>
	</g>
	<g>
		<path class="st3" d="M33.7,189.9c56.1,6.2,114.5,7.1,170.5,0.3c5.6-49.5,4.6-100.3-0.8-149.7c-56.7-7-113.4-7.9-170.1-0.3
			C28.8,86.3,27.6,133,32.6,179C33.2,185.5,33.7,189.9,33.7,189.9z"/>
		<g>
			<defs>
				<path id="SVGID_1_" d="M197.8,56.5c-2.8-5.1-6.8-10.2-12.6-11.3C141.6,36.5,100.5,39.7,58,43c-9.1,1.1-18.2,6.9-19.6,16
					c-6.9,38.2-4.7,74.9,0.4,112.7c0.4,3.3,2.5,6.2,4.7,8.7c4,4,8.7,6.9,14.2,7.6c40.7,4.4,80.7,4.4,121.4-0.4
					c8.7-0.7,17.1-7.3,18.9-16c6.2-37.1,4.7-72.3,2.2-108.5C199.6,60.8,198.9,58.6,197.8,56.5z"/>
			</defs>
			<clipPath id="SVGID_2_">
				<use xlink:href="#SVGID_1_"  style="overflow:visible;"/>
			</clipPath>
			<rect x="32.5" y="39" class="st6" width="212" height="151.9"/>
			<circle class="st7" cx="77.4" cy="62" r="13.6"/>
			<circle class="st7" cx="77.4" cy="96.2" r="13.6"/>
			<circle class="st7" cx="77.4" cy="164.5" r="13.6"/>
			<g class="st8">
				<path class="st9" d="M77.4,118.7c6.4,0,11.6,5.2,11.6,11.6S83.8,142,77.4,142s-11.6-5.2-11.6-11.6S71,118.7,77.4,118.7
					 M77.4,116.7c-7.5,0-13.6,6.1-13.6,13.6S69.9,144,77.4,144S91,137.9,91,130.3S84.9,116.7,77.4,116.7L77.4,116.7z"/>
			</g>
			<g class="st8">
				<polygon class="st9" points="98.1,39 95.8,39 95.8,190.9 98.1,190.9 98.1,39 				"/>
			</g>
			<g class="st8">
				<path class="st9" d="M104.6,77.9l3-2.8h-2.8V74h4.9V75l-3,2.8h2.9v1.1h-5.1V77.9z"/>
				<path class="st9" d="M110.4,74h4.8v1H112v0.9h3v1h-3v0.9h3.2v1h-4.8V74z"/>
				<path class="st9" d="M115.8,74h1.6v4.8h-1.6V74z"/>
				<path class="st9" d="M121.6,76.1h2.6v2.7h-0.7l-0.2-0.5c-0.2,0.2-0.8,0.6-2.1,0.6c-2.1,0-3-0.9-3-2.5c0-1.4,0.9-2.5,3-2.5
					c1.3,0,2.8,0.3,3,1.7h-1.8c-0.1-0.4-0.4-0.7-1.1-0.7c-1,0-1.4,0.7-1.4,1.5c0,0.8,0.4,1.5,1.4,1.5c0.8,0,1.2-0.3,1.3-0.8h-1V76.1
					z"/>
				<path class="st9" d="M125.1,74h4.8v1h-3.2v0.9h3v1h-3v0.9h3.2v1h-4.8V74z"/>
				<path class="st9" d="M130.5,74h1.8l2.2,3h0v-3h1.5v4.8h-1.8l-2.3-3h0v3h-1.5V74z"/>
			</g>
			<g class="st8">
				<path class="st9" d="M108.4,105.2c0,1.2,0.4,1.6,1,1.6s1-0.3,1-1.4c0-1-0.6-1.6-1.7-2.6c-1.2-0.9-3.6-2.1-3.6-6.2
					c0-2.7,1.2-4.2,3.3-4.2c1.6,0,2.3,0.5,2.6,0.8h0.1l0.1-0.6h3.2v5.8h-3.5v-1.3c0-1.2-0.4-1.5-0.9-1.5c-0.5,0-0.8,0.2-0.8,1.1
					c0,1.2,0.8,1.8,1.8,2.5c1.6,1.1,3.5,2.3,3.5,6.2c0,3.3-1.3,4.7-3.6,4.7c-1.7,0-2.3-0.6-2.5-0.9h-0.1l-0.1,0.6h-3.2v-6h3.5V105.2
					z"/>
				<path class="st9" d="M121,92.7c2.8,0,4.5,1.8,4.5,5.7c0,3.8-1.7,5.5-4.4,5.5h-0.9v2.6h1.2v3.4h-6.1v-3.4h1.1V96.1h-1.1v-3.4H121
					z M120.6,100.7c0.8,0,1.1-0.7,1.1-2.2c0-1.5-0.2-2.3-1.1-2.3h-0.4v4.6H120.6z"/>
				<path class="st9" d="M132.3,106.6v3.4h-6v-3.4h1.1V96.1h-1.1v-3.4h6v3.4h-1.1v10.4H132.3z"/>
				<path class="st9" d="M133.3,110v-3.4h1.1V96.1h-1.1v-3.4h9.7v5.4h-3.5v-2h-1.3v3.4h2.5v3.4h-2.5v3.7h1.4v-2.1h3.5v5.5H133.3z"/>
				<path class="st9" d="M144,110v-3.4h1.1V96.1H144v-3.4h6v3.4h-1.1v10.4h1.1v-2.1h3.5v5.5H144z"/>
				<path class="st9" d="M109.9,118.5c3.4,0,5.2,1.6,5.2,9c0,7.2-1.8,8.9-5.2,8.9c-3.4,0-5.2-1.6-5.2-9
					C104.7,120.2,106.5,118.5,109.9,118.5z M110,132.8c1,0,1.3-0.7,1.3-5.2c0-4.7-0.2-5.4-1.3-5.4c-1.1,0-1.3,0.7-1.3,5.2
					C108.7,132,108.9,132.8,110,132.8z"/>
				<path class="st9" d="M127.7,132.7v3.4h-5.5v-3.4h0.6V129h-2v3.7h0.6v3.4h-5.5v-3.4h1.1v-10.4h-1.1v-3.4h5.5v3.4h-0.6v3.4h2v-3.4
					h-0.6v-3.4h5.5v3.4h-1.1v10.4H127.7z"/>
				<path class="st9" d="M139.7,136.1h-4.1l-2.8-9.9h-0.1c0,0,0,2.2,0,5.1v1.4h1.1v3.4h-5.1v-3.4h1.1v-10.4h-1.1v-3.4h5.1l2.9,10.1
					h0.1c0,0,0-2.4,0-5.1v-1.5h-1.1v-3.4h5.1v3.4h-1.1V136.1z"/>
				<path class="st9" d="M141.8,136.1v-3.4h1.1v-10.4h-1.1v-3.4h9.7v5.4h-3.5v-2h-1.3v3.4h2.5v3.4h-2.5v3.7h1.4v-2.1h3.5v5.5H141.8z
					"/>
				<path class="st9" d="M115,162.2h-3.6v-0.8h-0.1c-0.6,0.6-1.2,0.9-2.2,0.9c-2.1,0-4.4-1.1-4.4-8.5c0-8.3,2.1-9.2,4.4-9.2
					c1.2,0,2.1,0.6,2.4,1h0.1l0.1-0.6h3.2v6.4h-3.5v-0.5c0-1.4-0.1-2.6-1.3-2.6c-1.3,0-1.4,1.1-1.4,5c0,4.6,0.3,5.7,1.4,5.7
					c1,0,1.3-0.8,1.3-1.4v-1.8h-1.7v-3.4h5.4V162.2z"/>
				<path class="st9" d="M123.2,162.2l-1.9-6.7h-0.2h-0.1v3.3h0.7v3.4h-5.5v-3.4h1.1v-10.4h-1.1v-3.4h6.1c3,0,4.4,2.3,4.4,5.5
					c0,1.8-0.4,3.2-1.8,4.1l1.5,4.2h0.9v3.4H123.2z M121.7,152.5c0.6,0,1.1-0.7,1.1-2.1c0-1.4-0.4-2.1-1.1-2.1h-0.8v4.2H121.7z"/>
				<path class="st9" d="M127.8,162.2v-3.4h1.1v-10.4h-1.1v-3.4h9.7v5.4H134v-2h-1.3v3.4h2.5v3.4h-2.5v3.7h1.4v-2.1h3.5v5.5H127.8z"
					/>
				<path class="st9" d="M149.5,162.2h-4.1l-2.8-9.9h-0.1c0,0,0,2.2,0,5.1v1.4h1.1v3.4h-5.1v-3.4h1.1v-10.4h-1.1v-3.4h5.1l2.9,10.1
					h0.1c0,0,0-2.4,0-5.1v-1.5h-1.1v-3.4h5.1v3.4h-1.1V162.2z"/>
				<path class="st9" d="M156.5,156.1c-0.8,1.2-1.6,2.5-1.6,2.5l0,0.1h2.1h0.4v-2.1h3.5v5.5h-9.6v-4l4.6-7.4
					c0.8-1.3,1.4-2.2,1.4-2.3l0-0.1H156h-0.7v2h-3.5v-5.4h9.1v4.2L156.5,156.1z"/>
				<path class="st9" d="M162,162.2v-3.4h1.1v-10.4H162v-3.4h9.7v5.4h-3.5v-2h-1.3v3.4h2.5v3.4h-2.5v3.7h1.4v-2.1h3.5v5.5H162z"/>
				<path class="st9" d="M183.7,162.2h-4.1l-2.8-9.9h-0.1c0,0,0,2.2,0,5.1v1.4h1.1v3.4h-5.1v-3.4h1.1v-10.4h-1.1v-3.4h5.1l2.9,10.1
					h0.1c0,0,0-2.4,0-5.1v-1.5h-1.1v-3.4h5.1v3.4h-1.1V162.2z"/>
			</g>
		</g>
		<path class="st0" d="M203.6,40.7c2.6-2.1,4.4-4.6,6.6-6.8c-61.1-7.3-122.8-7.3-183.9,0c2.2,2.5,4.7,6.2,6.9,6.2
			c53.1-4,106.1-6.5,158.7-0.5C199.4,40.3,203.6,40.7,203.6,40.7z"/>
		<path class="st0" d="M34.2,189.9c-2.4,2.2-4.6,4.7-7.1,6.9c60.7,6.9,121.7,6.9,182.4,0c-2.5-2.2-4.4-6.5-6.9-6.2
			c-52.3,3.6-104.7,6.2-156.7,0.3C38.6,190.3,34.2,189.9,34.2,189.9z"/>
		<path class="st0" d="M33.4,40.7c-2.2-2.1-4.8-4.2-7-6.8c-6.2,54.2-4.7,108.7,0.7,162.8c2.5-2.5,6.5-4.7,6.5-7.3
			c-2.5-46.2-6.2-92.3-1.2-138.2C33,44.6,33.4,40.7,33.4,40.7z"/>
		<path class="st0" d="M203.6,40.7c5.2,49.5,3,99-0.3,148.8c0,2.2,3.6,5.1,6.2,7.3c5.5-54.2,6.9-108.7,0.9-162.7L203.6,40.7z"/>
		<path class="st10" d="M45.6,31.5c-5.2,55.6-4.9,111.7,0.1,167.5l-18.9-2.3c-6.2-67-4.5-108.6,0.1-163.3L45.6,31.5z"/>
	</g>
	<polygon class="st1" points="115.5,212.5 187.9,212.5 293.7,212.5 285.4,222.4 187.9,222.4 115.5,222.4 18,222.4 9.6,212.5 	"/>
	<polygon class="st5" points="188.2,11.7 116,11.7 10.6,11.7 18.9,8 116,8 188.2,8 288.2,8 293.6,11.7 	"/>
	<polygon class="st3" points="162.4,320.5 156.6,320.5 155.7,222.4 163.3,222.4 	"/>
</g>
</svg>
